<?xml version="1.0" encoding="iso-8859-1"?>
<!-- Generator: Adobe Illustrator 16.0.0, SVG Export Plug-In . SVG Version: 6.00 Build 0)  -->
<!DOCTYPE svg PUBLIC "-//W3C//DTD SVG 1.1//EN" "http://www.w3.org/Graphics/SVG/1.1/DTD/svg11.dtd">
<svg version="1.1" id="Layer_1" xmlns="http://www.w3.org/2000/svg" xmlns:xlink="http://www.w3.org/1999/xlink" x="0px" y="0px"
	 width="41.931px" height="41.931px" viewBox="0 0 41.931 41.931" style="enable-background:new 0 0 41.931 41.931;"
	 xml:space="preserve">
<g>
	<path d="M20.965,0C9.405,0,0,9.405,0,20.965s9.405,20.966,20.965,20.966s20.966-9.405,20.966-20.966S32.526,0,20.965,0z
		 M20.965,39.849c-10.412,0-18.883-8.471-18.883-18.883c0-10.412,8.471-18.883,18.883-18.883c10.412,0,18.883,8.471,18.883,18.883
		C39.848,31.377,31.377,39.849,20.965,39.849z"/>
	<circle cx="20.966" cy="20.863" r="3.466"/>
	<path d="M15.659,20.863c0-0.146,0.031-0.283,0.043-0.426L3.932,22.779c0.678,6.416,4.916,11.776,10.692,14.088l5.167-10.838
		C17.43,25.491,15.659,23.384,15.659,20.863z"/>
	<path d="M20.965,15.557c1.242,0,2.369,0.446,3.275,1.163l3.593-11.439c-2.104-0.925-4.425-1.448-6.868-1.448
		c-4.252,0-8.139,1.566-11.138,4.141l6.966,9.649C17.766,16.375,19.265,15.557,20.965,15.557z"/>
	<path d="M37.916,18.6l-11.899,0.718c0.15,0.492,0.256,1.004,0.256,1.545c0,2.362-1.561,4.344-3.697,5.03l7.878,9.327
		c4.604-3.075,7.646-8.314,7.646-14.255C38.098,20.161,38.023,19.375,37.916,18.6z"/>
</g>
<g>
</g>
<g>
</g>
<g>
</g>
<g>
</g>
<g>
</g>
<g>
</g>
<g>
</g>
<g>
</g>
<g>
</g>
<g>
</g>
<g>
</g>
<g>
</g>
<g>
</g>
<g>
</g>
<g>
</g>
</svg>
