<?xml version="1.0" encoding="utf-8"?>
<!-- Generator: Adobe Illustrator 15.0.0, SVG Export Plug-In . SVG Version: 6.00 Build 0)  -->
<!DOCTYPE svg PUBLIC "-//W3C//DTD SVG 1.1//EN" "http://www.w3.org/Graphics/SVG/1.1/DTD/svg11.dtd">
<svg version="1.1" id="Layer_1" xmlns="http://www.w3.org/2000/svg" xmlns:xlink="http://www.w3.org/1999/xlink" x="0px" y="0px"
	 width="64px" height="64px" viewBox="0 0 64 64" enable-background="new 0 0 64 64" xml:space="preserve">
<g>
	<g>
		<path d="M32,25.341c-3.672,0-6.657,2.988-6.657,6.659c0,3.671,2.985,6.66,6.657,6.66c3.672,0,6.66-2.988,6.66-6.66
			C38.659,28.329,35.672,25.341,32,25.341z M32,37.371c-2.961,0-5.37-2.411-5.37-5.372s2.409-5.37,5.37-5.37
			c2.96,0,5.369,2.41,5.369,5.37S34.96,37.371,32,37.371z"/>
	</g>
	<g>
		<path d="M60.213,32.611c0.036-1.649-0.75-3.25-2.267-4.725c0.013-0.093,0.026-0.184,0.026-0.278c0-1.099-0.889-1.988-1.99-1.988
			c-0.293,0-0.569,0.066-0.818,0.18c-0.961-0.574-2.041-1.119-3.256-1.625c-0.974-0.406-2.024-0.771-3.108-1.115
			c2.081-7.074,1.697-12.723-1.576-14.821c-0.86-0.551-1.877-0.83-3.026-0.83c-3.383,0-7.768,2.476-12.198,6.614
			c-4.43-4.138-8.813-6.614-12.197-6.614c-1.149,0-2.166,0.279-3.026,0.83c-2.06,1.319-2.976,4.046-2.859,7.643
			c-0.639,0.332-1.08,0.991-1.08,1.761c0,0.93,0.639,1.703,1.5,1.921c0.175,0.929,0.417,1.905,0.693,2.902
			C8.21,24.396,3.869,27.607,3.787,31.388c-0.069,3.175,2.88,6.172,8.306,8.438c0.977,0.409,2.034,0.775,3.125,1.119
			c-0.323,1.097-0.606,2.179-0.813,3.22c-1.143,5.765-0.3,9.884,2.373,11.598c0.861,0.55,1.877,0.828,3.026,0.828
			c3.384,0,7.768-2.475,12.198-6.613c4.429,4.139,8.814,6.613,12.197,6.613h0.001c1.149,0,2.166-0.278,3.026-0.828
			c2.673-1.714,3.516-5.833,2.373-11.598c-0.17-0.853-0.393-1.734-0.639-2.625C55.785,39.605,60.131,36.396,60.213,32.611z
			 M44.197,8.697c0.898,0,1.683,0.21,2.332,0.626c2.724,1.745,2.897,6.906,1.003,13.347c-2.839-0.802-5.993-1.391-9.326-1.748
			c-1.714-2.226-3.49-4.245-5.272-6.001C37.09,11.045,41.163,8.697,44.197,8.697z M40.571,37.491
			c-1.027,1.604-2.109,3.13-3.219,4.581c-1.805,0.11-3.668,0.147-5.572,0.105c-1.798-0.037-3.569-0.144-5.292-0.316
			c-1.053-1.388-2.082-2.842-3.06-4.37c-1.176-1.832-2.221-3.675-3.16-5.501c0.946-1.829,1.995-3.664,3.16-5.482
			c1.027-1.604,2.111-3.129,3.221-4.579c1.317-0.081,2.667-0.123,4.042-0.123c0.506,0,1.017,0.006,1.528,0.017
			c1.798,0.038,3.568,0.145,5.291,0.316c1.053,1.387,2.081,2.842,3.06,4.369c1.164,1.818,2.214,3.656,3.158,5.484
			C42.792,33.816,41.747,35.659,40.571,37.491z M44.458,33.416c1.192,2.455,2.156,4.871,2.881,7.182
			c-2.491,0.624-5.281,1.084-8.268,1.346c0.885-1.201,1.75-2.452,2.585-3.756C42.681,36.589,43.612,34.994,44.458,33.416z
			 M32,48.174c-1.494-1.469-2.988-3.124-4.441-4.934c1.377,0.11,2.773,0.194,4.193,0.226c0.522,0.011,1.043,0.017,1.557,0.017h0.003
			c1.011,0,2.005-0.022,2.98-0.063C34.887,45.16,33.444,46.753,32,48.174z M24.722,41.652c-2.813-0.354-5.482-0.873-7.904-1.559
			c0.704-2.156,1.619-4.403,2.725-6.676c0.845,1.576,1.777,3.171,2.802,4.77C23.112,39.39,23.909,40.539,24.722,41.652z
			 M19.549,30.57c-1.197-2.482-2.148-4.898-2.863-7.176c2.485-0.619,5.268-1.076,8.243-1.338c-0.885,1.201-1.75,2.455-2.585,3.757
			C21.333,27.39,20.4,28.98,19.549,30.57z M32,15.826c1.494,1.471,2.988,3.124,4.441,4.935c-1.377-0.111-2.772-0.196-4.193-0.227
			c-0.521-0.011-1.041-0.017-1.556-0.017c-1.012,0-2.007,0.023-2.984,0.062C29.116,18.84,30.557,17.247,32,15.826z M41.656,25.813
			c-0.77-1.2-1.564-2.353-2.378-3.466c2.805,0.354,5.464,0.873,7.884,1.556c-0.696,2.125-1.604,4.373-2.711,6.667
			C43.601,28.982,42.667,27.39,41.656,25.813z M15.67,19.439c0.676-0.317,1.147-1,1.147-1.797c0-0.962-0.684-1.765-1.592-1.951
			c-0.09-3.037,0.613-5.323,2.246-6.368c0.649-0.416,1.434-0.626,2.332-0.626c3.035,0,7.107,2.348,11.264,6.224
			c-1.715,1.691-3.428,3.625-5.084,5.754c-3.537,0.237-6.801,0.736-9.677,1.451C16.044,21.196,15.837,20.303,15.67,19.439z
			 M12.588,38.636c-4.831-2.019-7.569-4.647-7.513-7.22c0.067-3.135,4.118-5.925,10.316-7.679c0.816,2.607,1.976,5.398,3.425,8.269
			c-1.32,2.623-2.418,5.221-3.229,7.705C14.539,39.381,13.526,39.028,12.588,38.636z M19.803,55.307
			c-0.897,0-1.682-0.212-2.332-0.63c-2.165-1.387-2.822-5.127-1.804-10.262c0.197-0.997,0.47-2.035,0.78-3.089
			c2.845,0.806,6.006,1.396,9.346,1.754c1.716,2.223,3.492,4.241,5.273,6.001C26.91,52.954,22.837,55.307,19.803,55.307z
			 M48.333,44.415c1.019,5.135,0.362,8.875-1.802,10.262c-0.651,0.418-1.436,0.63-2.333,0.63h-0.001
			c-3.035-0.004-7.107-2.353-11.264-6.226c1.718-1.694,3.428-3.626,5.084-5.757c3.544-0.233,6.813-0.735,9.694-1.454
			C47.953,42.735,48.169,43.59,48.333,44.415z M48.585,40.27c-0.829-2.656-1.98-5.444-3.402-8.266
			c1.349-2.668,2.435-5.264,3.236-7.713c1.045,0.332,2.058,0.682,2.993,1.073c1.031,0.431,1.96,0.891,2.791,1.37
			c-0.129,0.265-0.21,0.559-0.21,0.875c0,1.098,0.891,1.989,1.989,1.989c0.513,0,0.974-0.198,1.326-0.515
			c1.077,1.137,1.643,2.324,1.617,3.5C58.859,35.721,54.794,38.512,48.585,40.27z"/>
	</g>
</g>
</svg>
