<?xml version="1.0" encoding="utf-8"?>
<!-- Generator: Adobe Illustrator 16.0.0, SVG Export Plug-In . SVG Version: 6.00 Build 0)  -->
<!DOCTYPE svg PUBLIC "-//W3C//DTD SVG 1.1//EN" "http://www.w3.org/Graphics/SVG/1.1/DTD/svg11.dtd">
<svg version="1.1" id="Layer_12" xmlns="http://www.w3.org/2000/svg" xmlns:xlink="http://www.w3.org/1999/xlink" x="0px" y="0px"
	 width="100px" height="100px" viewBox="0 0 100 100" enable-background="new 0 0 100 100" xml:space="preserve">
<path d="M80.736,21.227c-3.779,0-7.131,1.829-9.243,4.641l-20.302-2.394c0.168-0.783,0.261-1.595,0.261-2.428
	c0-6.38-5.19-11.569-11.569-11.569c-6.38,0-11.569,5.189-11.569,11.569c0,3.137,1.259,5.981,3.293,8.068l-9.71,15.926
	c-0.847-0.198-1.726-0.314-2.633-0.314c-6.379,0-11.569,5.19-11.569,11.569c0,6.38,5.19,11.569,11.569,11.569
	c2.802,0,5.373-1.002,7.376-2.665l15.367,9.368c-0.557,1.354-0.868,2.834-0.868,4.387c0,6.38,5.189,11.569,11.569,11.569
	c6.379,0,11.569-5.189,11.569-11.569s-5.19-11.569-11.569-11.569c-2.872,0-5.497,1.058-7.522,2.797l-15.294-9.323
	c0.604-1.401,0.941-2.943,0.941-4.563c0-3.531-1.595-6.693-4.097-8.817l9.438-15.482c1.166,0.396,2.41,0.62,3.708,0.62
	c2.221,0,4.291-0.641,6.054-1.729l3.432,13.261c-2.829,2.111-4.673,5.475-4.673,9.269c0,6.38,5.19,11.569,11.569,11.569
	c6.38,0,11.569-5.189,11.569-11.569s-5.189-11.569-11.569-11.569c-0.639,0-1.26,0.065-1.871,0.165l-3.396-13.124l18.316,2.159
	c-0.087,0.571-0.146,1.154-0.146,1.75c0,6.379,5.189,11.569,11.569,11.569c6.379,0,11.569-5.19,11.569-11.569
	C92.306,26.416,87.115,21.227,80.736,21.227z M19.264,62.465c-3.401,0-6.169-2.768-6.169-6.17s2.768-6.17,6.169-6.17
	c3.402,0,6.17,2.768,6.17,6.17S22.666,62.465,19.264,62.465z M58.877,78.954c0,3.402-2.768,6.17-6.169,6.17
	c-3.402,0-6.17-2.768-6.17-6.17s2.768-6.17,6.17-6.17C56.109,72.784,58.877,75.552,58.877,78.954z M62.435,53.415
	c0,3.402-2.768,6.17-6.17,6.17c-3.401,0-6.169-2.768-6.169-6.17s2.768-6.17,6.169-6.17C59.667,47.245,62.435,50.013,62.435,53.415z
	 M39.883,27.216c-3.402,0-6.17-2.768-6.17-6.17s2.768-6.17,6.17-6.17c3.401,0,6.17,2.768,6.17,6.17S43.284,27.216,39.883,27.216z
	 M80.736,38.965c-3.402,0-6.17-2.767-6.17-6.169s2.768-6.17,6.17-6.17c3.401,0,6.17,2.768,6.17,6.17S84.138,38.965,80.736,38.965z"
	/>
</svg>
