<?xml version="1.0" encoding="iso-8859-1"?>
<!-- Generator: Adobe Illustrator 16.0.0, SVG Export Plug-In . SVG Version: 6.00 Build 0)  -->
<!DOCTYPE svg PUBLIC "-//W3C//DTD SVG 1.1//EN" "http://www.w3.org/Graphics/SVG/1.1/DTD/svg11.dtd">
<svg version="1.1" id="Layer_1" xmlns="http://www.w3.org/2000/svg" xmlns:xlink="http://www.w3.org/1999/xlink" x="0px" y="0px"
	 width="43.939px" height="40.512px" viewBox="0 0 43.939 40.512" style="enable-background:new 0 0 43.939 40.512;"
	 xml:space="preserve">
<path d="M43.939,21.077c0-3.493-3.255-6.54-8.379-8.491c0.106-0.844,0.188-1.675,0.211-2.474c0.139-4.777-1.271-8.151-3.967-9.5
	C30.995,0.206,30.095,0,29.13,0c-2.551,0-5.461,1.471-8.304,3.991c-3.094-1.925-6.114-3.013-8.677-3.013
	c-1.701,0-3.13,0.473-4.247,1.404C5.368,4.494,5,8.583,6.467,13.397C2.456,15.334,0,18.039,0,21.077
	c0,3.459,3.188,6.482,8.226,8.436c-0.02,0.296-0.049,0.598-0.058,0.888c-0.139,4.777,1.27,8.151,3.965,9.501
	c0.811,0.406,1.711,0.611,2.677,0.611c2.943,0,6.368-1.95,9.611-5.225c2.632,1.444,5.169,2.25,7.369,2.25
	c1.701,0,3.13-0.472,4.248-1.404c1.937-1.615,2.6-4.391,2.156-7.756C41.767,26.472,43.939,23.924,43.939,21.077z M29.13,2
	c0.651,0,1.25,0.134,1.78,0.399c1.932,0.967,2.975,3.757,2.861,7.654c-0.018,0.61-0.07,1.24-0.141,1.88
	c-1.468-0.442-3.047-0.806-4.729-1.071c-2.042-2.245-4.21-4.18-6.377-5.731C24.848,3.148,27.158,2,29.13,2z M30.148,27.69
	c0.218,0.047,0.442,0.076,0.674,0.076c1.747,0,3.161-1.416,3.161-3.161c0-0.958-0.435-1.806-1.108-2.386
	c0.205-0.49,0.403-0.979,0.588-1.467c1.203,2.285,2.059,4.499,2.512,6.493c-1.919,0.836-4.217,1.502-6.747,1.95
	C29.541,28.706,29.849,28.204,30.148,27.69z M31.023,21.465c-0.067-0.004-0.132-0.021-0.201-0.021c-1.746,0-3.161,1.416-3.161,3.161
	c0,0.788,0.299,1.499,0.775,2.052c-0.596,1.019-1.219,1.993-1.865,2.913c-1.485,0.16-3.021,0.255-4.602,0.255
	c-0.636,0-1.264-0.017-1.887-0.043c-1.038-0.895-2.064-1.875-3.061-2.932c0.211-0.378,0.342-0.807,0.342-1.271
	c0-1.447-1.173-2.621-2.621-2.621c-0.306,0-0.594,0.063-0.866,0.158c-0.586-0.781-1.128-1.567-1.638-2.354
	c0.542-1.47,1.173-2.952,1.909-4.423c0.634-1.267,1.322-2.472,2.042-3.619c0.988-0.136,2.012-0.23,3.054-0.295
	c0.416,0.898,1.319,1.525,2.374,1.525c1.074,0,1.995-0.647,2.399-1.572c1.333,0.063,2.631,0.186,3.88,0.363
	c0.266,0.301,0.531,0.604,0.791,0.916c1.311,1.573,2.472,3.191,3.471,4.802C31.83,19.454,31.446,20.458,31.023,21.465z
	 M24.941,31.72c-0.291,0.355-0.583,0.7-0.878,1.032c-0.469-0.295-0.939-0.607-1.412-0.943C23.427,31.798,24.189,31.768,24.941,31.72
	z M14.743,28.199c0.245,0,0.478-0.044,0.703-0.107c0.454,0.487,0.913,0.96,1.378,1.416c-2.342-0.285-4.522-0.755-6.457-1.374
	c0.204-1.595,0.563-3.264,1.071-4.976c0.307,0.435,0.613,0.87,0.942,1.303c-0.161,0.34-0.259,0.716-0.259,1.118
	C12.122,27.026,13.296,28.199,14.743,28.199z M10.93,18.614c-0.786-1.401-1.433-2.78-1.951-4.11c1.388-0.53,2.937-0.976,4.604-1.325
	c-0.421,0.736-0.834,1.486-1.224,2.265C11.833,16.496,11.363,17.556,10.93,18.614z M25.771,10.494
	c-0.565-0.046-1.134-0.089-1.716-0.115c-0.381-0.976-1.324-1.67-2.437-1.67c-1.127,0-2.08,0.715-2.45,1.713
	c-0.509,0.03-1.017,0.063-1.513,0.11c1.085-1.503,2.224-2.843,3.377-4.002C22.62,7.638,24.222,8.973,25.771,10.494z M30.968,13.311
	c0.819,0.187,1.607,0.396,2.359,0.629c-0.119,0.647-0.265,1.303-0.432,1.968C32.303,15.039,31.65,14.173,30.968,13.311z
	 M9.184,3.918c0.748-0.624,1.746-0.94,2.966-0.94c2.068,0,4.565,0.887,7.171,2.443c-1.507,1.55-2.968,3.389-4.323,5.448
	c-2.457,0.39-4.707,0.982-6.68,1.739C7.146,8.705,7.331,5.462,9.184,3.918z M2,21.077c0-2.188,1.964-4.214,5.126-5.768
	c0.72,1.848,1.69,3.772,2.893,5.713C9.268,23.22,8.74,25.38,8.444,27.436C4.513,25.827,2,23.556,2,21.077z M14.81,38.512
	c-0.652,0-1.251-0.134-1.781-0.399c-1.932-0.967-2.975-3.757-2.861-7.655c0.003-0.089,0.015-0.184,0.018-0.274
	c2.683,0.821,5.764,1.366,9.104,1.557c1.119,0.933,2.248,1.765,3.371,2.492C19.928,36.91,17.134,38.512,14.81,38.512z
	 M34.757,34.597c-0.748,0.624-1.746,0.94-2.967,0.94c-1.747,0-3.8-0.632-5.964-1.764c0.63-0.724,1.249-1.496,1.853-2.313
	c3.242-0.412,6.171-1.162,8.62-2.182C36.511,31.632,36.04,33.526,34.757,34.597z M37.813,26.314
	c-0.625-2.531-1.808-5.307-3.479-8.13c0.368-1.21,0.668-2.403,0.896-3.571c4.083,1.615,6.708,3.931,6.708,6.464
	C41.939,23.024,40.38,24.841,37.813,26.314z"/>
<g>
</g>
<g>
</g>
<g>
</g>
<g>
</g>
<g>
</g>
<g>
</g>
<g>
</g>
<g>
</g>
<g>
</g>
<g>
</g>
<g>
</g>
<g>
</g>
<g>
</g>
<g>
</g>
<g>
</g>
</svg>
