<?xml version="1.0" encoding="iso-8859-1"?>
<!-- Generator: Adobe Illustrator 16.0.0, SVG Export Plug-In . SVG Version: 6.00 Build 0)  -->
<!DOCTYPE svg PUBLIC "-//W3C//DTD SVG 1.1//EN" "http://www.w3.org/Graphics/SVG/1.1/DTD/svg11.dtd">
<svg version="1.1" id="Layer_1" xmlns="http://www.w3.org/2000/svg" xmlns:xlink="http://www.w3.org/1999/xlink" x="0px" y="0px"
	 width="30.731px" height="30.731px" viewBox="0 0 30.731 30.731" style="enable-background:new 0 0 30.731 30.731;"
	 xml:space="preserve">
<g>
	<path d="M30.731,15.366c0-2.37-1.637-4.522-4.294-6.109c-0.078-1.437-0.555-2.647-1.435-3.528
		c-0.867-0.867-2.083-1.357-3.529-1.437C19.886,1.637,17.734,0,15.366,0C13.1,0,11.031,1.496,9.467,3.95
		C7.805,3.958,6.414,4.473,5.444,5.443C4.448,6.44,3.977,7.837,3.971,9.453C1.504,11.02,0,13.093,0,15.366
		c0,2.375,1.646,4.532,4.313,6.12c0.075,1.408,0.528,2.628,1.417,3.518c0.868,0.868,2.083,1.357,3.531,1.437
		c1.586,2.655,3.737,4.292,6.106,4.292c2.266,0,4.334-1.496,5.898-3.951c1.662-0.007,3.054-0.522,4.023-1.493
		c0.985-0.984,1.483-2.369,1.49-4.021C29.233,19.703,30.731,17.633,30.731,15.366z M20.337,26.144
		c-1.451-0.153-3.026-0.657-4.614-1.464c0.305-0.165,0.61-0.338,0.913-0.525c1.78-0.083,3.472-0.342,5.029-0.746
		C21.288,24.424,20.841,25.343,20.337,26.144z M9.065,23.409c1.417,0.368,2.947,0.616,4.552,0.721
		c0.285,0.185,0.572,0.361,0.859,0.528c-1.476,0.688-2.931,1.103-4.264,1.192C9.782,25.122,9.398,24.302,9.065,23.409z
		 M10.395,4.586c1.451,0.152,3.026,0.657,4.613,1.465c-0.305,0.165-0.608,0.338-0.912,0.524c-1.779,0.084-3.473,0.342-5.031,0.746
		C9.444,6.306,9.891,5.388,10.395,4.586z M21.666,7.321c-1.417-0.366-2.947-0.615-4.551-0.719c-0.286-0.186-0.572-0.361-0.859-0.528
		c1.476-0.688,2.931-1.103,4.263-1.191C20.949,5.61,21.333,6.43,21.666,7.321z M23.018,15.366c0,0.702-0.028,1.392-0.082,2.066
		c-0.729,1.03-1.574,2.035-2.522,2.982c-0.95,0.95-1.96,1.793-2.993,2.521c-0.672,0.053-1.357,0.082-2.055,0.082
		c-0.858,0-1.697-0.044-2.513-0.123c-0.929-0.686-1.835-1.462-2.695-2.321c-0.871-0.871-1.642-1.782-2.322-2.705
		c-0.079-0.813-0.121-1.648-0.121-2.503c0-0.702,0.028-1.393,0.082-2.067c0.72-1.019,1.563-2.024,2.521-2.981
		c0.951-0.95,1.961-1.794,2.995-2.522c0.671-0.053,1.357-0.081,2.055-0.081c0.857,0,1.697,0.043,2.513,0.123
		c0.929,0.685,1.835,1.463,2.694,2.322c0.862,0.863,1.635,1.771,2.323,2.702C22.974,13.674,23.018,14.51,23.018,15.366z
		 M20.987,9.745c-0.636-0.637-1.3-1.229-1.98-1.775c1.087,0.155,2.124,0.378,3.094,0.661c0.281,0.967,0.504,2.002,0.659,3.088
		C22.215,11.042,21.623,10.38,20.987,9.745z M15.919,6.55c-0.184-0.004-0.368-0.008-0.554-0.008c-0.015,0-0.028,0-0.043,0
		c0.101-0.054,0.201-0.11,0.302-0.161C15.723,6.437,15.821,6.494,15.919,6.55z M12.17,7.911c-0.78,0.604-1.542,1.267-2.267,1.993
		c-0.733,0.733-1.394,1.495-1.992,2.27c0.156-1.25,0.398-2.441,0.72-3.542C9.732,8.311,10.921,8.067,12.17,7.911z M6.575,14.098
		c-0.185,0.304-0.355,0.607-0.519,0.911c-0.818-1.605-1.331-3.183-1.481-4.607c0.804-0.507,1.727-0.957,2.747-1.337
		C6.918,10.624,6.659,12.317,6.575,14.098z M6.544,15.304c0,0.021,0,0.041,0,0.062c0,0.185,0.004,0.367,0.008,0.551
		c-0.056-0.096-0.116-0.194-0.169-0.291C6.438,15.519,6.486,15.412,6.544,15.304z M6.601,17.102
		c0.104,1.609,0.353,3.144,0.721,4.564c-0.891-0.332-1.711-0.716-2.439-1.146c0.087-1.317,0.49-2.775,1.192-4.278
		C6.241,16.529,6.416,16.815,6.601,17.102z M7.97,19.004c0.543,0.675,1.132,1.34,1.775,1.983c0.636,0.637,1.299,1.228,1.979,1.773
		C10.638,22.605,9.6,22.383,8.631,22.1C8.349,21.131,8.125,20.092,7.97,19.004z M14.812,24.18c0.185,0.005,0.368,0.009,0.554,0.009
		c0.015,0,0.029-0.001,0.043-0.001c-0.101,0.054-0.201,0.11-0.303,0.162C15.008,24.295,14.91,24.237,14.812,24.18z M18.562,22.819
		c0.779-0.603,1.541-1.267,2.266-1.992c0.726-0.726,1.387-1.486,1.991-2.266c-0.155,1.25-0.398,2.438-0.718,3.538
		C21,22.421,19.811,22.664,18.562,22.819z M24.156,16.644c0.184-0.301,0.361-0.603,0.525-0.905c0.466,0.919,0.843,1.841,1.101,2.747
		c0.184,0.646,0.301,1.263,0.363,1.85c-0.801,0.504-1.72,0.952-2.736,1.33C23.813,20.111,24.071,18.42,24.156,16.644z
		 M24.188,15.426c0-0.021,0-0.041,0-0.06c0-0.186-0.004-0.367-0.008-0.551c0.056,0.097,0.115,0.193,0.168,0.289
		C24.292,15.21,24.245,15.318,24.188,15.426z M24.129,13.612c-0.105-1.604-0.354-3.131-0.72-4.547
		c0.891,0.332,1.709,0.715,2.437,1.145c-0.045,0.667-0.164,1.375-0.377,2.125c-0.201,0.708-0.475,1.425-0.808,2.144
		C24.491,14.188,24.316,13.9,24.129,13.612z M24.588,6.143c0.698,0.699,1.107,1.643,1.234,2.766
		c-0.852-0.455-1.794-0.855-2.81-1.191c-0.335-1.015-0.735-1.958-1.19-2.809C22.953,5.039,23.901,5.455,24.588,6.143z M15.366,1.17
		c1.818,0,3.49,1.185,4.804,3.157c-1.431,0.145-2.979,0.628-4.536,1.399c-1.663-0.891-3.33-1.476-4.875-1.686
		C12.042,2.24,13.637,1.17,15.366,1.17z M5.858,5.857c0.788-0.788,1.907-1.233,3.248-1.308C8.568,5.493,8.103,6.56,7.719,7.718
		C6.56,8.102,5.495,8.567,4.55,9.104C4.624,7.801,5.04,6.674,5.858,5.857z M1.17,15.366c0-1.736,1.08-3.338,2.893-4.623
		c0.206,1.538,0.769,3.211,1.67,4.903c-0.771,1.572-1.25,3.119-1.392,4.534C2.361,18.863,1.17,17.188,1.17,15.366z M6.143,24.589
		c-0.713-0.713-1.117-1.666-1.242-2.771c0.854,0.458,1.799,0.858,2.818,1.195c0.335,1.016,0.735,1.958,1.19,2.81
		C7.779,25.693,6.831,25.277,6.143,24.589z M15.366,29.561c-1.819,0-3.489-1.185-4.804-3.156c1.432-0.146,2.979-0.628,4.537-1.398
		c1.663,0.889,3.329,1.474,4.874,1.685C18.69,28.49,17.095,29.561,15.366,29.561z M24.874,24.874
		c-0.789,0.788-1.907,1.233-3.249,1.307c0.538-0.943,1.003-2.009,1.387-3.168c1.158-0.383,2.223-0.849,3.166-1.385
		C26.105,22.959,25.673,24.074,24.874,24.874z M26.684,19.978c-0.072-0.533-0.175-1.078-0.338-1.651
		c-0.304-1.07-0.756-2.159-1.335-3.24c0.427-0.867,0.778-1.736,1.021-2.593c0.191-0.673,0.312-1.317,0.375-1.932
		c1.971,1.313,3.154,2.985,3.154,4.803C29.561,17.096,28.488,18.694,26.684,19.978z"/>
	<circle cx="15.602" cy="15.378" r="2.61"/>
</g>
<g>
</g>
<g>
</g>
<g>
</g>
<g>
</g>
<g>
</g>
<g>
</g>
<g>
</g>
<g>
</g>
<g>
</g>
<g>
</g>
<g>
</g>
<g>
</g>
<g>
</g>
<g>
</g>
<g>
</g>
</svg>
