<?xml version="1.0" encoding="utf-8"?>
<!-- Generator: Adobe Illustrator 16.0.0, SVG Export Plug-In . SVG Version: 6.00 Build 0)  -->
<!DOCTYPE svg PUBLIC "-//W3C//DTD SVG 1.1//EN" "http://www.w3.org/Graphics/SVG/1.1/DTD/svg11.dtd">
<svg version="1.1" id="Layer_1" xmlns="http://www.w3.org/2000/svg" xmlns:xlink="http://www.w3.org/1999/xlink" x="0px" y="0px"
	 width="48px" height="48px" viewBox="0 0 48 48" enable-background="new 0 0 48 48" xml:space="preserve">
<path d="M44.382,1.739c-2.501-1.442-5.699-0.584-7.141,1.917c-0.962,1.668-0.882,3.636,0.008,5.196l-7.848,10.031
	c-1.208-0.579-2.556-0.912-3.984-0.912c-0.274,0-0.545,0.018-0.813,0.041l-1.801-5.698c1.513-1.271,2.247-3.338,1.694-5.369
	c-0.757-2.787-3.63-4.432-6.417-3.674c-2.787,0.757-4.431,3.63-3.674,6.417c0.59,2.169,2.464,3.629,4.579,3.82l1.805,5.712
	c-2.761,1.601-4.624,4.581-4.624,8.002c0,0.352,0.024,0.698,0.062,1.04l-6.12,2.101C8.62,28.699,6.185,28.101,4.05,29.08
	c-2.625,1.204-3.776,4.308-2.572,6.933c1.204,2.625,4.308,3.776,6.932,2.572c1.817-0.834,2.904-2.581,3.016-4.446l6.107-2.096
	c1.626,2.653,4.544,4.429,7.884,4.429c1.581,0,3.068-0.398,4.37-1.098l3.349,3.896c-0.868,1.712-0.776,3.832,0.447,5.477
	c1.722,2.318,4.997,2.801,7.315,1.079c2.318-1.722,2.8-4.997,1.079-7.315c-1.372-1.846-3.724-2.505-5.797-1.836l-3.366-3.915
	c1.159-1.545,1.854-3.458,1.854-5.538c0-2.234-0.792-4.282-2.11-5.881l7.858-10.043c2.233,0.602,4.674-0.319,5.884-2.417
	C47.742,6.378,46.884,3.181,44.382,1.739z"/>
</svg>
