<?xml version="1.0" encoding="iso-8859-1"?>
<!-- Generator: Adobe Illustrator 16.0.0, SVG Export Plug-In . SVG Version: 6.00 Build 0)  -->
<!DOCTYPE svg PUBLIC "-//W3C//DTD SVG 1.1//EN" "http://www.w3.org/Graphics/SVG/1.1/DTD/svg11.dtd">
<svg version="1.1" id="Layer_1" xmlns="http://www.w3.org/2000/svg" xmlns:xlink="http://www.w3.org/1999/xlink" x="0px" y="0px"
	 width="512px" height="512px" viewBox="0 0 512 512" style="enable-background:new 0 0 512 512;" xml:space="preserve">
<path d="M454.984,167.541c-14.961-26.944-47.313-41.783-91.096-41.783c-2.855,0-5.742,0.062-8.654,0.183
	c-0.232-0.465-0.461-0.937-0.695-1.398c-11.348-22.247-24.992-39.207-40.119-50.315c-0.381-23.92-19.945-43.265-43.955-43.265
	c-24.004,0-43.564,19.334-43.955,43.245c-15.127,11.111-28.77,28.087-40.117,50.335c-0.236,0.461-0.463,0.933-0.697,1.398
	c-2.912-0.122-5.799-0.183-8.654-0.183c-37.674,0-66.873,10.997-83.822,31.229c-0.314-0.007-0.627-0.024-0.943-0.024
	c-24.248,0-43.975,19.727-43.975,43.974c0,22.4,16.84,40.928,38.521,43.623c3.592,8.327,8.176,16.828,13.76,25.435
	c-24.867,38.331-30.086,74.609-14.635,102.439c14.959,26.943,47.311,41.782,91.094,41.783h0.006c2.855,0,5.738-0.062,8.648-0.183
	c0.234,0.464,0.461,0.936,0.697,1.397c21.58,42.307,51.438,65.606,84.072,65.606c32.637,0,62.494-23.299,84.074-65.606
	c0.234-0.461,0.461-0.933,0.693-1.397c2.914,0.122,5.801,0.183,8.656,0.183c43.783,0,76.135-14.839,91.096-41.783
	c15.451-27.831,10.23-64.112-14.641-102.446C465.215,231.653,470.436,195.372,454.984,167.541z M428.756,182.103
	c8.57,15.438,5.625,37.622-7.908,62.116c-11.699-13.499-25.395-26.549-40.693-38.793c-2.969-17.496-7.152-34.165-12.463-49.62
	C398.084,156.516,419.697,165.787,428.756,182.103z M312.969,377.602c4.453-2.262,8.895-4.616,13.318-7.072
	c5.951-3.304,11.77-6.742,17.457-10.286c-2.135,7.607-4.549,14.933-7.232,21.923C328.844,381.071,320.971,379.537,312.969,377.602z
	 M204.418,382.167c-2.684-6.987-5.1-14.307-7.234-21.911c5.688,3.542,11.512,6.971,17.459,10.273
	c4.426,2.457,8.867,4.811,13.32,7.073C219.961,379.538,212.086,381.072,204.418,382.167z M229.205,344.301
	c-14.439-8.017-28.043-16.801-40.59-26.139c-2.074-15.501-3.15-31.66-3.15-48.175s1.076-32.674,3.15-48.175
	c12.547-9.337,26.15-18.122,40.59-26.139c13.564-7.531,27.426-14.099,41.26-19.625c13.834,5.526,27.697,12.094,41.26,19.625
	c14.439,8.017,28.045,16.801,40.59,26.139c2.074,15.501,3.15,31.66,3.15,48.175c0,2.934-0.045,5.852-0.111,8.761
	c-16.123,6.526-27.529,22.337-27.529,40.771c0,4.853,0.801,9.519,2.26,13.887c-5.951,3.764-12.072,7.405-18.359,10.895
	c-13.563,7.53-27.426,14.099-41.26,19.625C256.633,358.4,242.77,351.832,229.205,344.301z M155.973,290.239
	c-6.682-6.618-12.818-13.387-18.348-20.252c5.529-6.865,11.666-13.634,18.348-20.252c-0.336,6.691-0.508,13.448-0.508,20.252
	S155.637,283.547,155.973,290.239z M204.418,157.807c7.668,1.095,15.541,2.629,23.545,4.564c-4.453,2.262-8.895,4.616-13.32,7.073
	c-5.947,3.303-11.773,6.731-17.459,10.273C199.318,172.114,201.732,164.794,204.418,157.807z M336.512,157.807
	c2.686,6.987,5.1,14.307,7.236,21.911c-5.688-3.542-11.512-6.971-17.461-10.273c-4.424-2.457-8.867-4.811-13.318-7.073
	C320.971,160.437,328.844,158.902,336.512,157.807z M393.529,281.315c-2.566-1.466-5.291-2.682-8.145-3.612
	c0.047-2.565,0.08-5.136,0.08-7.716c0-6.804-0.17-13.561-0.506-20.252c6.682,6.618,12.818,13.388,18.346,20.252
	C400.236,273.796,396.965,277.573,393.529,281.315z M237.588,104.095c8.061,9.079,19.809,14.815,32.877,14.815
	c13.07,0,24.818-5.737,32.879-14.818c6.986,6.54,13.643,15.095,19.727,25.441c-17.102,3.027-34.773,7.846-52.605,14.331
	c-17.83-6.484-35.502-11.304-52.604-14.331C223.945,119.186,230.602,110.636,237.588,104.095z M173.24,155.807
	c-5.313,15.455-9.494,32.124-12.465,49.62c-15.299,12.244-28.994,25.295-40.693,38.794c-1.244-2.251-2.395-4.481-3.459-6.69
	c11.82-7.891,19.625-21.347,19.625-36.594c0-12.211-5.006-23.272-13.07-31.248C134.553,161.116,151.689,156.31,173.24,155.807z
	 M112.176,357.871c-8.572-15.438-5.625-37.622,7.908-62.116c11.699,13.499,25.395,26.549,40.691,38.793
	c2.971,17.495,7.154,34.164,12.465,49.619C142.846,383.457,121.234,374.186,112.176,357.871z M270.465,451.037
	c-18.518,0-37.373-14.666-52.615-40.594c17.105-3.027,34.781-7.847,52.615-14.333c17.836,6.486,35.512,11.306,52.615,14.333
	C307.84,436.371,288.982,451.037,270.465,451.037z M428.756,357.871c-9.061,16.318-30.676,25.589-61.076,26.297
	c2.301-6.694,4.393-13.611,6.262-20.729c23.256-1.122,41.83-20.391,41.83-43.919c0-5.329-0.953-10.439-2.699-15.17
	c2.682-2.842,5.271-5.709,7.773-8.596C434.379,320.248,437.326,342.433,428.756,357.871z"/>
</svg>
