<?xml version="1.0" encoding="iso-8859-1"?>
<!-- Generator: Adobe Illustrator 16.0.0, SVG Export Plug-In . SVG Version: 6.00 Build 0)  -->
<!DOCTYPE svg PUBLIC "-//W3C//DTD SVG 1.1//EN" "http://www.w3.org/Graphics/SVG/1.1/DTD/svg11.dtd">
<svg version="1.1" id="Layer_1" xmlns="http://www.w3.org/2000/svg" xmlns:xlink="http://www.w3.org/1999/xlink" x="0px" y="0px"
	 width="37.913px" height="37.331px" viewBox="0 0 37.913 37.331" style="enable-background:new 0 0 37.913 37.331;"
	 xml:space="preserve">
<g>
	<path d="M32.401,29.403c1.483-0.672,2.635-1.457,3.336-2.321c-1.07-1.863-2.537-4.334-4.066-6.619
		c-0.461-0.184-0.947-0.359-1.461-0.521c-0.206,1.01-0.507,2.053-0.889,3.112C30.88,25.284,31.921,27.461,32.401,29.403z"/>
	<path d="M19.465,16.281c1.062,0,1.942,0.65,2.142,1.512c0.727,0.034,1.435,0.088,2.13,0.156c-1.643-1.479-3.381-2.748-5.099-3.75
		c-1.252,1.05-2.483,2.324-3.63,3.769c0.755-0.077,1.524-0.138,2.315-0.175C17.522,16.931,18.405,16.281,19.465,16.281z"/>
	<path d="M27.938,26.249c0.574,0.339,0.952,0.907,0.952,1.552c0,1.038-0.978,1.88-2.185,1.88c-0.256,0-0.497-0.045-0.725-0.114
		c-0.432,0.64-0.878,1.256-1.341,1.844c2.681-0.333,5.073-0.917,6.999-1.681c-0.408-1.742-1.32-3.721-2.666-5.755
		C28.669,24.729,28.325,25.489,27.938,26.249z"/>
	<path d="M22.847,32.311c-1.094,0.083-2.222,0.13-3.382,0.13c-0.229,0-0.452-0.01-0.679-0.014c0.834,0.56,1.67,1.057,2.496,1.491
		C21.813,33.419,22.335,32.883,22.847,32.311z"/>
	<path d="M9.26,31.162c-0.017,0.216-0.042,0.437-0.049,0.647c-0.091,2.663,0.645,4.589,2.073,5.522h4.988
		c1.432-0.588,2.94-1.573,4.415-2.869c-1.095-0.583-2.2-1.277-3.296-2.071C14.375,32.253,11.608,31.821,9.26,31.162z"/>
	<path d="M7.306,20.444c-0.546,0.216-1.043,0.449-1.51,0.692c-1.144,1.748-2.232,3.558-3.124,5.089
		c0.704,1.576,2.828,2.964,5.858,3.951c0.229-1.64,0.713-3.387,1.433-5.167C8.822,23.449,7.933,21.907,7.306,20.444z"/>
	<path d="M13.845,30.755c-1.455,0-2.635-1.015-2.635-2.267c0-0.488,0.184-0.938,0.488-1.308c-0.409-0.468-0.792-0.936-1.157-1.405
		c-0.607,1.602-1.017,3.168-1.207,4.639c2.043,0.589,4.428,1.007,7.024,1.193c-0.448-0.353-0.892-0.721-1.33-1.104
		C14.671,30.659,14.272,30.755,13.845,30.755z"/>
	<path d="M17.917,13.792c-2.389-1.292-4.7-2.036-6.604-2.044c0.007,0.406,0.015,0.781,0.025,1.095
		c-0.015,0.571-1.423,2.492-2.556,4.036c-0.405,0.552-0.836,1.144-1.273,1.756c0.085,0.275,0.186,0.558,0.292,0.842
		c1.763-0.616,3.825-1.091,6.104-1.388C15.157,16.432,16.52,14.98,17.917,13.792z"/>
	<path d="M13.301,18.911c-1.939,0.293-3.703,0.721-5.225,1.253c0.546,1.274,1.303,2.617,2.253,3.979
		c0.434-0.978,0.932-1.959,1.498-2.933C12.291,20.412,12.785,19.644,13.301,18.911z"/>
	<path d="M22.029,34.294c2.036,0.975,3.981,1.527,5.62,1.527c1.117,0,2.04-0.254,2.74-0.758c1.286-0.923,1.705-2.571,1.385-4.603
		c-2.145,0.828-4.798,1.433-7.775,1.742C23.362,32.958,22.701,33.652,22.029,34.294z"/>
	<path d="M28.737,22.256c0.287-0.866,0.514-1.717,0.677-2.544c-1.086-0.305-2.262-0.563-3.518-0.763
		c0.043,0.043,0.087,0.084,0.129,0.128C27.043,20.128,27.94,21.194,28.737,22.256z"/>
	<path d="M8.444,30.913c-3.014-0.957-5.228-2.303-6.242-3.875c-0.491,0.855-0.909,1.597-1.199,2.113l-0.255,0.454
		c-0.986,1.74-0.998,4.115-0.03,5.775c0.733,1.258,1.909,1.952,3.31,1.952h6.039c-1.181-1.183-1.771-3.089-1.688-5.543
		C8.388,31.502,8.417,31.207,8.444,30.913z"/>
	<path d="M29.536,18.977c0.069-0.455,0.12-0.901,0.148-1.337c-0.185-0.253-0.377-0.519-0.554-0.76
		c-1.133-1.543-2.541-3.464-2.556-4.032c0.016-0.446,0.025-1.008,0.033-1.628c-0.37-0.103-0.757-0.173-1.175-0.173
		c-1.84,0-4.009,0.981-6.157,2.643c1.947,1.155,3.911,2.647,5.752,4.402C26.647,18.301,28.164,18.599,29.536,18.977z"/>
	<path d="M24.521,27.801c0-1.039,0.978-1.88,2.185-1.88c0.16,0,0.316,0.017,0.467,0.045c0.479-0.941,0.893-1.882,1.242-2.813
		c-0.864-1.208-1.876-2.426-3.029-3.617c-0.254-0.263-0.514-0.519-0.774-0.771c-0.966-0.119-1.972-0.201-3.003-0.252
		c-0.192,0.869-1.076,1.527-2.144,1.527c-1.065,0-1.951-0.658-2.144-1.527c-0.999,0.049-1.976,0.126-2.914,0.24
		c-0.649,0.877-1.269,1.803-1.835,2.777c-0.655,1.125-1.211,2.261-1.684,3.385c0.437,0.583,0.902,1.166,1.406,1.747
		c0.436-0.274,0.968-0.442,1.55-0.442c1.457,0,2.635,1.016,2.635,2.268c0,0.621-0.291,1.182-0.76,1.592
		c0.662,0.572,1.337,1.11,2.018,1.61c0.568,0.022,1.145,0.034,1.728,0.034c1.401,0,2.756-0.073,4.06-0.198
		c0.605-0.729,1.186-1.509,1.737-2.325C24.812,28.857,24.521,28.36,24.521,27.801z"/>
	<path d="M37.166,29.604l-0.255-0.454c-0.201-0.357-0.469-0.832-0.771-1.363c-0.825,0.882-2.045,1.676-3.578,2.349
		c0.425,2.392-0.075,4.356-1.639,5.479c-0.854,0.613-1.957,0.924-3.274,0.924c-1.846,0-3.989-0.603-6.213-1.69
		c-1.137,1.015-2.3,1.85-3.447,2.482h15.896c1.401,0,2.577-0.693,3.311-1.952C38.163,33.72,38.151,31.345,37.166,29.604z"/>
	<path d="M28.06,0H9.372v2.593h1.959c-0.017,1.473-0.057,5.578-0.027,8.438c2.131,0.006,4.657,0.814,7.245,2.24
		c2.36-1.858,4.78-2.942,6.885-2.942c0.413,0,0.804,0.052,1.182,0.136c0.02-2.813-0.017-6.493-0.032-7.871h1.477V0z"/>
	<path style="fill:#FFFFFF;" d="M22.847,32.311c0.229-0.256,0.455-0.516,0.678-0.785c-1.304,0.125-2.658,0.198-4.06,0.198
		c-0.583,0-1.159-0.012-1.728-0.034c0.349,0.256,0.698,0.502,1.049,0.738c0.227,0.003,0.449,0.014,0.679,0.014
		C20.625,32.441,21.753,32.394,22.847,32.311z"/>
</g>
<g>
</g>
<g>
</g>
<g>
</g>
<g>
</g>
<g>
</g>
<g>
</g>
<g>
</g>
<g>
</g>
<g>
</g>
<g>
</g>
<g>
</g>
<g>
</g>
<g>
</g>
<g>
</g>
<g>
</g>
</svg>
