<?xml version="1.0" encoding="iso-8859-1"?>
<!-- Generator: Adobe Illustrator 16.0.0, SVG Export Plug-In . SVG Version: 6.00 Build 0)  -->
<!DOCTYPE svg PUBLIC "-//W3C//DTD SVG 1.1//EN" "http://www.w3.org/Graphics/SVG/1.1/DTD/svg11.dtd">
<svg version="1.1" id="Layer_1" xmlns="http://www.w3.org/2000/svg" xmlns:xlink="http://www.w3.org/1999/xlink" x="0px" y="0px"
	 width="44.129px" height="42.261px" viewBox="0 0 44.129 42.261" style="enable-background:new 0 0 44.129 42.261;"
	 xml:space="preserve">
<g>
	<circle cx="10.417" cy="16.313" r="1.816"/>
	<circle cx="32.465" cy="31.59" r="1.898"/>
	<circle cx="22.691" cy="25.349" r="1.898"/>
	<circle cx="30.468" cy="26.621" r="1.271"/>
	<circle cx="23.962" cy="30.319" r="1.271"/>
	<circle cx="14.216" cy="12.654" r="1.271"/>
	<circle cx="11.324" cy="7.665" r="0.964"/>
	<circle cx="17.714" cy="20.073" r="0.964"/>
	<circle cx="15.641" cy="7.665" r="1.425"/>
	<circle cx="13.252" cy="22.495" r="0.964"/>
	<circle cx="17.937" cy="27.584" r="0.741"/>
	<circle cx="35.104" cy="27.892" r="0.741"/>
	<path d="M44.129,23.656c0.022-1.076-1.646-1.073-1.667,0c-0.012,0.583-0.068,1.251-0.367,1.761
		c-0.155,0.265-0.854,0.462-1.122,0.581c-0.169,0.074-0.344,0.134-0.517,0.2c-0.125-0.276-0.267-0.546-0.421-0.81
		c0.747-0.474,1.571-1.041,1.942-1.778c0.437-0.867,0.274-2.03,0.081-2.943c-0.223-1.052-1.83-0.606-1.608,0.443
		c0.11,0.521,0.271,1.296,0.022,1.789c-0.223,0.441-0.88,0.833-1.408,1.144c-0.355-0.405-0.747-0.775-1.172-1.101
		c0.517-0.436,1.017-0.917,1.335-1.481c0.488-0.867,0.175-2.164-0.109-3.052c-0.327-1.02-1.937-0.583-1.608,0.443
		c0.163,0.508,0.482,1.405,0.203,1.901c-0.273,0.485-0.827,0.917-1.323,1.293c-0.293-0.127-0.597-0.228-0.908-0.311
		c0.292-0.409,0.547-0.839,0.702-1.298c0.313-0.927-0.289-2.175-0.723-2.973c-0.513-0.945-1.952-0.104-1.439,0.841
		c0.247,0.456,0.637,1.158,0.555,1.689c-0.078,0.501-0.615,1.086-1.038,1.543c-0.103,0.005-0.204,0-0.308,0.011
		c-0.532,0.055-1.103,0.05-1.693,0.008c0.54-0.508,1.075-1.093,1.246-1.714c0.255-0.925-0.017-1.964-0.365-2.833
		c-0.395-0.985-2.008-0.556-1.607,0.443c0.185,0.462,0.612,1.403,0.384,1.886c-0.312,0.659-1.065,1.244-1.596,1.732
		c-0.059,0.054-0.086,0.114-0.125,0.171c-0.544-0.123-1.097-0.269-1.663-0.455c0.594-0.368,1.182-0.804,1.469-1.331
		c0.502-0.92,0.402-2.071,0.224-3.07c-0.188-1.057-1.794-0.608-1.607,0.443c0.066,0.371,0.26,1.376-0.009,1.725
		c-0.454,0.587-1.281,1.003-1.91,1.377c-0.049,0.029-0.074,0.069-0.113,0.104c-0.531-0.232-1.064-0.478-1.599-0.757
		c-0.046-0.024-0.085-0.049-0.13-0.074c0.604-0.192,1.189-0.44,1.627-0.836c0.722-0.652,0.909-1.899,1.013-2.818
		c0.121-1.063-1.531-1.054-1.664-0.012c0.008-0.057,0.017-0.129-0.004,0.012c-0.027,0.181-0.063,0.36-0.102,0.538
		c-0.078,0.362-0.17,0.816-0.423,1.102c-0.255,0.287-0.939,0.398-1.29,0.508c-0.309,0.097-0.623,0.185-0.937,0.264
		c-0.008,0.002-0.012,0.007-0.02,0.01c-0.809-0.728-1.311-1.526-1.588-2.406c0.833,0.169,1.709,0.301,2.531,0.159
		c0.949-0.165,1.755-1.311,2.24-2.059c0.586-0.905-0.858-1.74-1.439-0.841c-0.292,0.451-0.72,1.104-1.243,1.292
		c-0.587,0.21-1.658-0.158-2.257-0.288c-0.041-0.009-0.074,0.002-0.113-0.001c-0.016-0.473,0.01-0.969,0.063-1.485
		c0.938,0.132,1.952,0.271,2.864,0.04c0.949-0.242,1.669-1.384,2.106-2.187c0.514-0.944-0.926-1.786-1.439-0.841
		c-0.216,0.396-0.707,1.39-1.204,1.447c-0.471,0.054-0.961,0.005-1.431-0.031c-0.181-0.014-0.361-0.034-0.542-0.053
		c-0.018-0.002-0.079-0.01-0.145-0.018c0.076-0.751,0.072-1.478-0.006-2.173c0.93-0.171,2.103-0.353,2.835-0.958
		c0.728-0.602,1.039-1.712,1.196-2.611c0.185-1.051-1.422-1.5-1.608-0.443c-0.104,0.589-0.246,1.352-0.672,1.796
		c-0.235,0.245-0.943,0.318-1.263,0.4c-0.273,0.069-0.55,0.126-0.826,0.181c-0.208-0.674-0.494-1.303-0.854-1.877
		c0.708-0.353,1.459-0.783,1.86-1.382c0.529-0.79,0.54-1.917,0.451-2.834c-0.103-1.06-1.771-1.07-1.667,0
		c0.057,0.583,0.125,1.342-0.147,1.879c-0.162,0.32-0.816,0.577-1.111,0.747c-0.151,0.087-0.307,0.163-0.461,0.245
		c-0.89-0.874-2.007-1.529-3.322-1.891c-0.611-0.168-1.264-0.253-1.94-0.253c-3.353,0-7.169,2.188-7.756,5.849
		C5.419,7.57,5.4,7.757,5.371,7.95C4.917,8.12,4.385,8.269,4.063,8.12C3.4,7.811,2.812,7.065,2.318,6.537
		C1.584,5.749,0.408,6.93,1.14,7.715c0.632,0.679,1.492,1.742,2.42,1.992c0.511,0.138,1.053,0.108,1.583,0.001
		c-0.072,0.664-0.125,1.313-0.161,1.949c-0.474,0.197-1.366,0.592-1.828,0.377c-0.663-0.309-1.251-1.054-1.744-1.583
		C0.676,9.663-0.5,10.845,0.231,11.63c0.632,0.679,1.492,1.742,2.42,1.993c0.738,0.199,1.54,0.061,2.274-0.18
		c-0.003,0.849,0.033,1.669,0.099,2.468c-0.461,0.188-1.396,0.615-1.871,0.395c-0.663-0.309-1.251-1.054-1.744-1.583
		C0.676,13.934-0.5,15.115,0.231,15.9c0.632,0.678,1.492,1.742,2.42,1.992c0.84,0.226,1.76,0.016,2.572-0.288
		c0.11,0.72,0.242,1.426,0.416,2.105c-0.029,0.017-0.057,0.018-0.086,0.039c-0.411,0.298-1.203,0.926-1.736,0.823
		c-0.711-0.137-1.467-0.733-2.066-1.126c-0.901-0.592-1.735,0.852-0.841,1.439c0.783,0.515,1.692,1.146,2.624,1.326
		c0.888,0.17,1.86-0.335,2.607-0.845c0.216,0.616,0.469,1.209,0.743,1.792c-0.041,0.042-0.087,0.072-0.122,0.126
		c-0.292,0.456-0.82,1.28-1.41,1.295c-0.784,0.021-1.595-0.157-2.36-0.319c-1.049-0.221-1.495,1.386-0.443,1.607
		c1.004,0.212,2.18,0.509,3.205,0.344c0.81-0.13,1.478-0.764,1.994-1.437c0.444,0.742,0.941,1.458,1.494,2.147
		c-0.042,0.043-0.089,0.073-0.125,0.129c-0.292,0.456-0.82,1.28-1.41,1.295c-0.785,0.021-1.596-0.158-2.36-0.319
		c-1.048-0.221-1.495,1.385-0.443,1.607c1.004,0.211,2.18,0.509,3.205,0.344c0.949-0.153,1.702-0.996,2.246-1.784
		c0.655,0.691,1.366,1.358,2.144,1.998c-0.04,0.042-0.084,0.07-0.119,0.123c-0.292,0.455-0.82,1.279-1.41,1.295
		c-0.785,0.021-1.596-0.158-2.36-0.319c-1.049-0.221-1.495,1.386-0.443,1.608c1.004,0.211,2.18,0.509,3.205,0.344
		c1.056-0.169,1.868-1.193,2.42-2.046c0.833,0.606,1.711,1.176,2.624,1.708c-0.004,0.012-0.013,0.018-0.017,0.029
		c-0.149,0.434-0.456,1.35-0.91,1.532c-0.753,0.302-1.742,0.263-2.544,0.287c-1.073,0.032-1.076,1.699,0,1.667
		c1-0.03,2.437,0.041,3.322-0.484c0.801-0.476,1.279-1.361,1.61-2.226c0.723,0.375,1.461,0.726,2.21,1.049
		c0.005,0.531-0.016,1.377-0.396,1.646c-0.652,0.46-1.44,0.776-2.18,1.066c-0.989,0.389-0.559,2.002,0.443,1.608
		c1.01-0.397,2.137-0.812,2.962-1.534c0.544-0.477,0.743-1.338,0.807-2.131c0.97,0.362,1.947,0.684,2.922,0.951
		c0.001,0.007-0.001,0.012,0,0.019c0.102,0.536,0.268,1.469-0.149,1.886c-0.558,0.559-1.283,0.988-1.954,1.399
		c-0.915,0.561-0.078,2.003,0.841,1.439c0.845-0.518,2.145-1.175,2.637-2.069c0.375-0.681,0.428-1.481,0.354-2.258
		c0.966,0.206,1.922,0.364,2.855,0.46c0.252,0.496,0.572,1.22,0.323,1.68c-0.373,0.69-0.928,1.305-1.447,1.889
		c-0.712,0.8,0.463,1.983,1.179,1.179c0.73-0.821,1.555-1.719,1.945-2.758c0.209-0.555,0.079-1.242-0.148-1.878
		c0.14,0.003,0.283,0.011,0.421,0.011c0.585,0,1.155-0.035,1.711-0.086c0.348,0.498,0.746,1.165,0.522,1.692
		c-0.308,0.725-0.75,1.41-1.182,2.067c-0.594,0.901,0.851,1.735,1.439,0.841c0.56-0.85,1.241-1.818,1.455-2.826
		c0.143-0.677-0.114-1.415-0.468-2.063c3.775-0.957,6.217-3.854,6.217-7.582c0-0.535-0.071-1.079-0.195-1.62
		c0.836-0.29,1.771-0.641,2.331-1.259C43.989,25.801,44.11,24.596,44.129,23.656z M33.233,35.372
		c-0.555,0.058-1.137,0.087-1.731,0.087c-6.059,0-12.798-2.985-16.788-5.943C7.987,24.53,5.711,17.793,7.332,7.676
		c0.426-2.657,3.321-4.245,5.875-4.245c0.506,0,0.988,0.062,1.435,0.185c3.768,1.037,4.585,4.652,4.14,7.433
		c-0.55,3.432-0.433,7.294,4.607,9.919c3.577,1.864,7.187,2.771,10.042,2.475c3.217-0.34,5.861,3.124,5.861,5.964
		C39.291,33.344,36.027,35.081,33.233,35.372z"/>
</g>
<g>
</g>
<g>
</g>
<g>
</g>
<g>
</g>
<g>
</g>
<g>
</g>
<g>
</g>
<g>
</g>
<g>
</g>
<g>
</g>
<g>
</g>
<g>
</g>
<g>
</g>
<g>
</g>
<g>
</g>
</svg>
