<?xml version="1.0" encoding="utf-8"?>
<!-- Generator: Adobe Illustrator 18.0.0, SVG Export Plug-In . SVG Version: 6.00 Build 0)  -->
<!DOCTYPE svg PUBLIC "-//W3C//DTD SVG 1.1//EN" "http://www.w3.org/Graphics/SVG/1.1/DTD/svg11.dtd">
<svg version="1.1" id="Layer_2" xmlns="http://www.w3.org/2000/svg" xmlns:xlink="http://www.w3.org/1999/xlink" x="0px" y="0px"
	 viewBox="0 0 612 792" enable-background="new 0 0 612 792" xml:space="preserve">
<path d="M532.4,347h-37c-4.6-17.9-11.7-34.8-20.8-50.4l26.2-26.2c19.1-19.1,19.1-50.1,0-69.2c-19.1-19.1-50.1-19.1-69.2,0
	l-26.2,26.2c-15.6-9.2-32.4-16.2-50.4-20.9v-37c0-27-21.9-49-49-49s-49,21.9-49,49v37c-17.9,4.6-34.8,11.7-50.4,20.9l-26.2-26.2
	c-19.1-19.1-50.1-19.1-69.2,0c-19.1,19.1-19.1,50.1,0,69.2l26.2,26.2c-9.2,15.6-16.2,32.4-20.8,50.4h-37c-27,0-49,21.9-49,49
	c0,27,21.9,49,49,49h37c4.6,17.9,11.7,34.8,20.9,50.4l-26.2,26.2c-19.1,19.1-19.1,50.1,0,69.2c9.6,9.6,22.1,14.3,34.6,14.3
	s25.1-4.8,34.6-14.3l26.2-26.2c15.5,9.2,32.4,16.2,50.4,20.8v37c0,27,21.9,49,49,49s49-21.9,49-49v-37c17.9-4.6,34.8-11.7,50.4-20.8
	l26.2,26.2c9.6,9.6,22.1,14.3,34.6,14.3c12.5,0,25.1-4.8,34.6-14.3c19.1-19.1,19.1-50.1,0-69.2l-26.2-26.2
	c9.2-15.6,16.2-32.4,20.9-50.4h37c27,0,49-21.9,49-49S559.5,347,532.4,347z M233.8,527.8c-1.8,0.6-3.7,0.9-5.6,0.9
	c-7.8,0-15-5-17.5-12.8L188.3,445l-0.1-0.4l-7.3-23.1c-3.1-9.7,2.3-20,11.9-23c9.7-3.1,20,2.3,23,11.9l1.6,5l9.4,29.6l19,59.8
	C248.9,514.5,243.5,524.8,233.8,527.8z M257,350.3l-34.7,31.3l-0.3,0.3c-3.5,3.2-7.9,4.7-12.3,4.7c-5,0-10-2-13.6-6.1
	c-6.5-7.1-6-17.8,0.5-24.7c0.3-0.4,9.3-8.8,9.3-8.8l51.2-46.2l12.1-10.9l1.8-1.7c7.5-6.8,19.1-6.2,25.9,1.3
	c6.8,7.5,6.2,19.1-1.3,25.9l-0.5,0.4L260.7,347L257,350.3z M265.3,445c-4.7-5.2-6.3-12.9-3.3-19.7l1.2-2.8l33-75.4l5.5-12.5
	c1.2-2.8,3-5,5.2-6.8c5.2-4.2,12.4-5.6,19-2.7c8.6,3.7,12.8,13.2,10.2,22c-0.2,0.7-0.4,1.5-0.7,2.2l-2.1,4.8L295.6,440
	c-0.8,1.9-2,3.5-3.3,5c-1.1,1.2-2.2,2.2-3.5,3.1c-3,1.9-6.4,2.9-10,2.9c-2.5,0-5-0.5-7.4-1.5C269,448.4,266.9,446.8,265.3,445z
	 M389.5,471.4L355,483.3l-23,7.9l-36.2,12.5c-2,0.7-4,1-6,1c-6.1,0-11.7-3.1-15.1-8.2c-0.9-1.3-1.7-2.6-2.2-4.1
	c-3.3-9.6,1.8-20,11.3-23.4l19.3-6.7l8.7-3l41.7-14.4l1.4-0.5l22.5-7.8c8.5-2.9,17.6,0.7,21.9,8.3c0.6,1,1.1,2,1.4,3.1
	C404.1,457.6,399,468.1,389.5,471.4z M407,423.5c-1.2,0.4-4.9,0.9-5.5,0.9c-7.8,0-15-5-17.5-12.8l-3.2-10l-2.7-8.4L363.5,347
	l-8.5-26.8l-1-3.1c-1.5-4.6-1-9.4,1-13.5c2.1-4.4,5.9-8,11-9.6c9.7-3,20,2.3,23,11.9l13,41l5.3,16.9l11.6,36.5
	C422,410.1,416.6,420.4,407,423.5z"/>
</svg>
