<?xml version="1.0" encoding="utf-8"?>
<!-- Generator: Adobe Illustrator 16.0.0, SVG Export Plug-In . SVG Version: 6.00 Build 0)  -->
<!DOCTYPE svg PUBLIC "-//W3C//DTD SVG 1.1//EN" "http://www.w3.org/Graphics/SVG/1.1/DTD/svg11.dtd">
<svg version="1.1" id="Layer_13" xmlns="http://www.w3.org/2000/svg" xmlns:xlink="http://www.w3.org/1999/xlink" x="0px" y="0px"
	 width="100px" height="100px" viewBox="0 0 100 100" enable-background="new 0 0 100 100" xml:space="preserve">
<path d="M31.514,57.652c-0.901,0.482-1.871,0.711-2.826,0.711c-2.142,0-4.214-1.149-5.295-3.17
	c-1.563-2.922-0.462-6.558,2.459-8.121c5.231-2.799,12.759-16.095,16.434-24.642c1.309-3.044,4.838-4.453,7.882-3.142
	c3.044,1.309,4.451,4.838,3.142,7.882C51.555,31.252,42.256,51.904,31.514,57.652z M75.112,70.552
	c-7.214-5.891-17.938-16.785-19.191-22.563c-0.702-3.237-3.892-5.296-7.135-4.593c-3.238,0.702-5.294,3.897-4.592,7.136
	c2.581,11.906,19.891,26.513,23.334,29.32c1.113,0.908,2.454,1.35,3.787,1.35c1.74,0,3.466-0.754,4.652-2.208
	C78.061,76.427,77.678,72.647,75.112,70.552z M74.505,66.985c0.342,0.279,0.647,0.587,0.931,0.908
	c-0.045-0.807-0.25-1.617-0.639-2.383c-1.109-2.184-3.373-3.395-5.671-3.272C70.912,63.925,72.737,65.542,74.505,66.985z
	 M48.668,63.933c-4.141-0.389-8.246-1.01-11.55-1.688c-3.247-0.673-6.419,1.418-7.088,4.663c-0.67,3.246,1.418,6.42,4.664,7.089
	c2.692,0.556,12.238,2.375,21.7,2.375c1.441,0,2.88-0.043,4.293-0.139C57.256,73.201,52.659,68.82,48.668,63.933z M66.632,55.321
	c3.394-8.832,5.121-18.395,5.567-21.107c0.54-3.27-1.674-6.357-4.944-6.896c-3.27-0.539-6.36,1.673-6.896,4.944
	c-0.552,3.327-1.736,10.064-2.859,14.069c1.452,7.544,4.638,8.794,7.462,12.948C65.558,57.995,66.115,56.667,66.632,55.321z"/>
</svg>
