<?xml version="1.0" encoding="utf-8"?>
<!-- Generator: Adobe Illustrator 16.0.0, SVG Export Plug-In . SVG Version: 6.00 Build 0)  -->
<!DOCTYPE svg PUBLIC "-//W3C//DTD SVG 1.1//EN" "http://www.w3.org/Graphics/SVG/1.1/DTD/svg11.dtd">
<svg version="1.1" id="Layer_10" xmlns="http://www.w3.org/2000/svg" xmlns:xlink="http://www.w3.org/1999/xlink" x="0px" y="0px"
	 width="100px" height="100px" viewBox="0 0 100 100" enable-background="new 0 0 100 100" xml:space="preserve">
<path d="M75.859,66.308c0,14.259-11.6,25.859-25.859,25.859s-25.859-11.6-25.859-25.859c0-10.189,6.057-19.42,15.26-23.563V13.424
	h-4.309c-1.545,0-2.797-1.251-2.797-2.795s1.252-2.795,2.797-2.795h7.104c1.543,0,2.795,1.251,2.795,2.795v33.999
	c0,1.179-0.74,2.23-1.848,2.631c-8.021,2.889-13.41,10.544-13.41,19.05c0,1.438,0.156,2.839,0.441,4.193h39.652
	c0.287-1.354,0.441-2.755,0.441-4.193c0-8.41-5.307-16.035-13.207-18.976c-1.094-0.407-1.82-1.452-1.82-2.62V10.628
	c0-1.544,1.252-2.795,2.797-2.795h6.758c1.543,0,2.795,1.251,2.795,2.795s-1.252,2.795-2.795,2.795h-3.963v29.427
	C69.896,47.044,75.859,56.235,75.859,66.308z M44.178,61.416c1.156,0,2.096,0.941,2.096,2.097c0,1.156-0.939,2.097-2.096,2.097
	s-2.098-0.94-2.098-2.097C42.08,62.356,43.021,61.416,44.178,61.416z M44.178,62.813c-0.385,0-0.699,0.313-0.699,0.699
	c0,0.386,0.314,0.699,0.699,0.699s0.697-0.313,0.697-0.699C44.875,63.127,44.563,62.813,44.178,62.813z M47.088,54.427
	c0-1.606,1.307-2.913,2.912-2.913c1.607,0,2.914,1.307,2.914,2.913S51.607,57.34,50,57.34C48.395,57.34,47.088,56.033,47.088,54.427
	z M48.484,54.427c0,0.835,0.68,1.515,1.516,1.515s1.516-0.68,1.516-1.515s-0.68-1.515-1.516-1.515S48.484,53.591,48.484,54.427z"/>
</svg>
