<?xml version="1.0" encoding="utf-8"?>
<!-- Generator: Adobe Illustrator 16.0.0, SVG Export Plug-In . SVG Version: 6.00 Build 0)  -->
<!DOCTYPE svg PUBLIC "-//W3C//DTD SVG 1.1//EN" "http://www.w3.org/Graphics/SVG/1.1/DTD/svg11.dtd">
<svg version="1.1" id="Layer_1" xmlns="http://www.w3.org/2000/svg" xmlns:xlink="http://www.w3.org/1999/xlink" x="0px" y="0px"
	 width="48px" height="48px" viewBox="0 0 48 48" enable-background="new 0 0 48 48" xml:space="preserve">
<path d="M45.282,2.797c-0.742-0.827-1.806-1.294-2.917-1.294H5.635c-1.111,0-2.175,0.467-2.919,1.296
	C1.974,3.628,1.618,4.733,1.739,5.835l3.603,33.137c0.467,4.295,4.077,7.525,8.398,7.525h20.52c4.321,0,7.932-3.232,8.398-7.527
	l3.603-33.137C46.382,4.729,46.026,3.628,45.282,2.797z M39.609,31.181H8.401L7.84,25.963h7.293c0.971,0,1.882-0.646,2.057-1.602
	c0.223-1.222-0.715-2.325-1.903-2.325H7.425l-0.623-5.779h6.445c0.965,0,1.858-0.659,2.013-1.611c0.196-1.213-0.734-2.26-1.91-2.26
	H6.387L5.765,6.576c-0.069-0.647,0.438-1.211,1.089-1.21l34.34,0.046c0.649,0,1.156,0.565,1.086,1.212L39.609,31.181z"/>
</svg>
