<?xml version="1.0" encoding="utf-8"?>
<!-- Generator: Adobe Illustrator 16.0.0, SVG Export Plug-In . SVG Version: 6.00 Build 0)  -->
<!DOCTYPE svg PUBLIC "-//W3C//DTD SVG 1.1//EN" "http://www.w3.org/Graphics/SVG/1.1/DTD/svg11.dtd">
<svg version="1.1" id="Layer_1" xmlns="http://www.w3.org/2000/svg" xmlns:xlink="http://www.w3.org/1999/xlink" x="0px" y="0px"
	 width="48px" height="48px" viewBox="0 0 48 48" enable-background="new 0 0 48 48" xml:space="preserve">
<path d="M41.628,1.246H5.742c-1.926,0-3.481,1.544-3.481,3.472c0,1.927,1.558,3.471,3.495,3.471v32.448
	c0,3.594,2.911,6.547,6.506,6.547h22.848c3.595,0,6.553-2.953,6.553-6.547V8.188c1.868,0,3.472-1.544,3.472-3.471
	C45.134,2.79,43.555,1.246,41.628,1.246z M37.649,40.637c0,1.396-1.145,2.535-2.54,2.535H12.262c-1.396,0-2.563-1.139-2.563-2.535
	V36.46h9.002c1.102,0,1.994-0.905,1.994-2.006s-0.893-2.006-1.994-2.006H9.699v-4.981h9.002c1.102,0,1.994-0.871,1.994-1.972
	s-0.893-1.972-1.994-1.972H9.699v-4.981h9.002c1.102,0,1.994-0.905,1.994-2.006s-0.893-2.006-1.994-2.006H9.699V8.164h27.95V40.637z
	"/>
</svg>
