<?xml version="1.0" encoding="utf-8"?>
<!-- Generator: Adobe Illustrator 16.0.0, SVG Export Plug-In . SVG Version: 6.00 Build 0)  -->
<!DOCTYPE svg PUBLIC "-//W3C//DTD SVG 1.1//EN" "http://www.w3.org/Graphics/SVG/1.1/DTD/svg11.dtd">
<svg version="1.1" id="Layer_1" xmlns="http://www.w3.org/2000/svg" xmlns:xlink="http://www.w3.org/1999/xlink" x="0px" y="0px"
	 width="48px" height="48px" viewBox="0 0 48 48" enable-background="new 0 0 48 48" xml:space="preserve">
<path d="M39.975,1.927C37.682,0.5,34.665,1.2,33.237,3.493c-1.046,1.68-0.949,3.744,0.079,5.292l-2.838,4.553H8.212
	c-1.397,0-2.53,1.141-2.53,2.538s1.132,2.538,2.53,2.538h0.216v23.271c0,2.882,2.341,5.226,5.223,5.226h18.594
	c2.882,0,5.226-2.344,5.226-5.226V18.413h0.213c1.397,0,2.53-1.141,2.53-2.538s-1.132-2.538-2.53-2.538h-2.438l1.505-2.412
	c1.843,0.241,3.743-0.583,4.789-2.263C42.968,6.369,42.268,3.355,39.975,1.927z M33.423,41.684c0,0.65-0.528,1.178-1.178,1.178
	H13.652c-0.65,0-1.175-0.528-1.175-1.178v-5.89h2.292c1.118,0,2.024-0.907,2.024-2.024s-0.906-2.024-2.024-2.024h-2.292v-4.048
	h2.292c1.118,0,2.024-0.906,2.024-2.024s-0.906-2.024-2.024-2.024h-2.292v-5.237h14.85L15.074,38.084
	c-0.591,0.949-0.301,2.195,0.648,2.786c0.333,0.207,0.703,0.306,1.068,0.306c0.676,0,1.336-0.335,1.72-0.952l13.585-21.811h1.328
	V41.684z"/>
</svg>
