<?xml version="1.0" encoding="iso-8859-1"?>
<!-- Generator: Adobe Illustrator 16.0.0, SVG Export Plug-In . SVG Version: 6.00 Build 0)  -->
<!DOCTYPE svg PUBLIC "-//W3C//DTD SVG 1.1//EN" "http://www.w3.org/Graphics/SVG/1.1/DTD/svg11.dtd">
<svg version="1.1" xmlns="http://www.w3.org/2000/svg" xmlns:xlink="http://www.w3.org/1999/xlink" x="0px" y="0px"
	 width="25.873px" height="27.363px" viewBox="0 0 25.873 27.363" style="enable-background:new 0 0 25.873 27.363;"
	 xml:space="preserve">
<g id="c6_test_tube">
	<path style="fill:#000000;" d="M25.564,22.432c0,0-3.391-6.306-8.922-15.383V1.79h0.342c0.493,0,0.895-0.4,0.895-0.893
		C17.879,0.403,17.478,0,16.984,0H8.89C8.396,0,7.993,0.403,7.993,0.897c0,0.493,0.402,0.893,0.896,0.893h0.342v5.258
		c-5.53,9.079-8.924,15.404-8.924,15.404c-0.861,2.56,0.087,4.911,2.843,4.911h19.573C25.478,27.363,26.428,24.992,25.564,22.432z
		 M4.354,18.754c1.124-1.921,5.035-8.408,6.466-10.756l0.217-0.359h3.801l0.219,0.359c1.432,2.349,5.266,8.844,6.393,10.766
		L4.354,18.754z M10.854,16.939c-0.766,0-1.386-0.623-1.386-1.389c0-0.762,0.62-1.384,1.386-1.384c0.765,0,1.386,0.622,1.386,1.384
		C12.24,16.316,11.619,16.939,10.854,16.939z M13.741,14.128c-0.561,0-1.014-0.457-1.014-1.017c0-0.559,0.453-1.015,1.014-1.015
		c0.563,0,1.019,0.456,1.019,1.015C14.76,13.672,14.305,14.128,13.741,14.128z M14.923,17.749c-0.785,0-1.423-0.638-1.423-1.425
		c0-0.785,0.638-1.422,1.423-1.422c0.784,0,1.422,0.637,1.422,1.422C16.345,17.111,15.707,17.749,14.923,17.749z"/>
</g>
<g id="Capa_1">
</g>
</svg>
