<?xml version="1.0" encoding="iso-8859-1"?>
<!-- Generator: Adobe Illustrator 16.0.0, SVG Export Plug-In . SVG Version: 6.00 Build 0)  -->
<!DOCTYPE svg PUBLIC "-//W3C//DTD SVG 1.1//EN" "http://www.w3.org/Graphics/SVG/1.1/DTD/svg11.dtd">
<svg version="1.1" id="Layer_1" xmlns="http://www.w3.org/2000/svg" xmlns:xlink="http://www.w3.org/1999/xlink" x="0px" y="0px"
	 width="36px" height="36px" viewBox="0 0 36 36" style="enable-background:new 0 0 36 36;" xml:space="preserve">
<g>
	<path style="fill:#010101;" d="M13.514,21.289V21.21c0.648-0.114,1.143-0.394,1.488-0.837c0.346-0.444,0.516-1,0.516-1.667
		c0-0.992-0.35-1.717-1.051-2.176c-0.701-0.459-1.842-0.689-3.418-0.689H7.65v11.446h4.135c1.277,0,2.277-0.291,2.994-0.873
		c0.719-0.582,1.076-1.387,1.076-2.415c0-0.762-0.188-1.366-0.566-1.813C14.91,21.738,14.318,21.44,13.514,21.289z M9.521,17.405
		h1.621c0.844,0,1.463,0.12,1.852,0.36c0.391,0.24,0.584,0.629,0.584,1.167c0,0.595-0.182,1.016-0.541,1.264
		s-0.932,0.372-1.715,0.372H9.521V17.405z M13.285,25.262c-0.4,0.3-0.992,0.45-1.775,0.45H9.521v-3.625h1.895
		c0.83,0,1.449,0.144,1.855,0.431c0.408,0.287,0.611,0.728,0.611,1.323C13.883,24.488,13.684,24.961,13.285,25.262z"/>
	<rect x="18.234" y="15.839" style="fill:#010101;" width="1.873" height="11.446"/>
	<path style="fill:#010101;" d="M31.896,17.202c-0.93-1.028-2.244-1.542-3.947-1.542c-1.727,0-3.055,0.507-3.986,1.519
		c-0.932,1.013-1.398,2.463-1.398,4.353c0,1.889,0.465,3.347,1.391,4.372c0.928,1.025,2.252,1.539,3.98,1.539
		c1.707,0,3.025-0.517,3.959-1.55c0.93-1.033,1.395-2.481,1.395-4.345C33.289,19.678,32.824,18.23,31.896,17.202z M30.453,24.765
		c-0.566,0.72-1.406,1.08-2.518,1.08c-1.117,0-1.961-0.364-2.529-1.092s-0.854-1.796-0.854-3.206c0-1.404,0.287-2.468,0.859-3.194
		c0.57-0.725,1.416-1.088,2.537-1.088c1.113,0,1.951,0.363,2.512,1.088c0.561,0.726,0.84,1.79,0.84,3.194
		C31.301,22.972,31.02,24.044,30.453,24.765z"/>
	<path style="fill:#010101;" d="M23.434,12.725c0.225-0.239,0.449-0.465,0.645-0.723c0.396-0.497,0.732-1.023,1-1.576
		c0.141-0.261,0.254-0.563,0.365-0.836c0.113-0.271,0.209-0.57,0.301-0.845C25.84,8.475,25.926,8.201,26,7.936
		c0.084-0.274,0.158-0.514,0.219-0.709c0.068-0.195,0.111-0.399,0.15-0.519c0.035-0.136,0.055-0.207,0.055-0.207
		s-0.068-0.037-0.186-0.085c-0.117-0.042-0.305-0.13-0.523-0.179c-0.219-0.052-0.518-0.143-0.818-0.156
		c-0.301-0.018-0.645-0.014-1.02,0.019c-0.363,0.045-0.729,0.139-1.123,0.257c-0.391,0.12-0.748,0.305-1.127,0.507
		c-0.369,0.208-0.703,0.463-1.039,0.74c-0.314,0.284-0.611,0.595-0.883,0.926c-0.25,0.337-0.498,0.686-0.684,1.053
		c-0.195,0.365-0.361,0.74-0.475,1.121c-0.246,0.755-0.326,1.525-0.309,2.207c0.016,0.346,0.049,0.666,0.104,0.959
		c0.051,0.291,0.133,0.559,0.199,0.774c0.027,0.103,0.064,0.199,0.1,0.284c0.051-0.118,0.105-0.244,0.168-0.382
		c0.309-0.68,0.762-1.567,1.301-2.403c0.268-0.417,0.563-0.817,0.854-1.179c0.154-0.175,0.305-0.343,0.445-0.503
		c0.15-0.148,0.295-0.29,0.428-0.418c0.145-0.119,0.275-0.226,0.391-0.321c0.113-0.101,0.232-0.162,0.32-0.222
		c0.18-0.119,0.283-0.185,0.283-0.185s-0.098,0.076-0.27,0.206c-0.082,0.069-0.191,0.137-0.297,0.245
		c-0.105,0.104-0.227,0.22-0.359,0.347c-0.119,0.137-0.25,0.288-0.389,0.446c-0.125,0.167-0.258,0.343-0.396,0.524
		c-0.256,0.378-0.516,0.791-0.744,1.22c-0.461,0.857-0.834,1.757-1.082,2.442c-0.072,0.203-0.072,0.203-0.105,0.298l0.561-0.002
		c0.16-0.059,0.334-0.122,0.508-0.203c0.258-0.111,0.533-0.241,0.811-0.388c0.279-0.145,0.553-0.313,0.834-0.489
		c0.277-0.176,0.543-0.375,0.803-0.579C22.955,13.172,23.209,12.959,23.434,12.725z"/>
</g>
</svg>
