<?xml version="1.0" encoding="iso-8859-1"?>
<!-- Generator: Adobe Illustrator 16.0.0, SVG Export Plug-In . SVG Version: 6.00 Build 0)  -->
<!DOCTYPE svg PUBLIC "-//W3C//DTD SVG 1.1//EN" "http://www.w3.org/Graphics/SVG/1.1/DTD/svg11.dtd">
<svg version="1.1" id="Layer_1" xmlns="http://www.w3.org/2000/svg" xmlns:xlink="http://www.w3.org/1999/xlink" x="0px" y="0px"
	 width="36px" height="36px" viewBox="0 0 36 36" style="enable-background:new 0 0 36 36;" xml:space="preserve">
<g>
	<path style="fill:#010101;" d="M15.705,20.738c-0.723,0-1.398,0.495-1.615,1.302c-0.023,0.121-0.061,0.266-0.061,0.435v1.047
		c0,0.135,0.025,0.266,0.049,0.386c0.205,0.735,0.818,1.241,1.59,1.241c1.109,0,1.771-0.904,1.771-2.241
		C17.439,21.74,16.838,20.738,15.705,20.738z"/>
	<path style="fill:#010101;" d="M25.107,20.69c-1.254,0-1.795,1.156-1.795,2.266c0,1.277,0.734,2.241,1.771,2.241
		c1.012,0,1.77-0.953,1.77-2.265C26.854,21.944,26.361,20.69,25.107,20.69z"/>
	<path style="fill:#010101;" d="M19.965,4.074c0,0-10.121,11.837-10.121,17.427c0,5.591,4.533,10.122,10.121,10.122
		c5.59,0,10.123-4.531,10.123-10.122C30.088,15.911,19.965,4.074,19.965,4.074z M15.885,25.992c-0.842,0-1.518-0.325-1.951-1.097
		h-0.035L13.85,25.86h-0.916c0.025-0.397,0.049-0.988,0.049-1.507v-7.048h1.047v3.663h0.025c0.373-0.651,1.047-1.072,1.986-1.072
		c1.447,0,2.471,1.204,2.459,2.976C18.5,24.956,17.188,25.992,15.885,25.992z M20.902,25.86h-1.061v-5.832h1.061V25.86z
		 M20.346,19.041c-0.371,0-0.637-0.289-0.637-0.651c0-0.374,0.277-0.663,0.662-0.663c0.398,0,0.65,0.289,0.65,0.663
		C21.033,18.752,20.77,19.041,20.346,19.041z M25.035,25.992c-1.578,0-2.795-1.157-2.795-3.001c0-1.951,1.275-3.095,2.891-3.095
		c1.676,0,2.809,1.216,2.809,2.999C27.939,25.053,26.445,25.992,25.035,25.992z"/>
</g>
</svg>
