<?xml version="1.0" encoding="utf-8"?>
<!-- Generator: Adobe Illustrator 16.0.0, SVG Export Plug-In . SVG Version: 6.00 Build 0)  -->
<!DOCTYPE svg PUBLIC "-//W3C//DTD SVG 1.1//EN" "http://www.w3.org/Graphics/SVG/1.1/DTD/svg11.dtd">
<svg version="1.1" id="Layer_1" xmlns="http://www.w3.org/2000/svg" xmlns:xlink="http://www.w3.org/1999/xlink" x="0px" y="0px"
	 width="126px" height="126px" viewBox="0 0 126 126" enable-background="new 0 0 126 126" xml:space="preserve">
<g opacity="0.8">
	<path d="M33.799,46.229l-4.516-1.373c1.494-1.597,3.107-3.174,4.824-4.699l16.5,3.031l-14.26-4.929
		c2.004-1.62,4.143-3.141,6.418-4.514l16.223,4.069l-13.471-5.625c5.902-3.092,12.629-5.12,20.176-5.181
		c-0.488,3.385-2.133,11.718-6.994,18.465h4.049c5.598-8.734,6.453-18.93,6.5-19.553c0.002-0.031-0.016-0.061-0.02-0.09
		c0.221-0.598-0.113-1.292-0.869-1.638c-25.971-11.919-39.57-5.561-45.367-0.708c-8.896,7.448-10.443,19.917-5.834,25.678
		c0.115,0.142,0.254,0.267,0.41,0.369c0.561,0.365,1.332,0.455,1.932,0.186c0.771-0.349,0.971-1.159,0.451-1.813
		c-3.432-4.288-2.588-15.612,5.604-22.468c5.867-4.909,16.904-8.798,36.668-0.963c-6.773,0.484-12.859,2.364-18.264,5.089
		l0.271-6.786l-3.689,8.658c-2.395,1.434-4.641,3.016-6.736,4.702l-1.051-11.127l-2.07,13.439c-0.012,0.081-0.016,0.172-0.008,0.258
		c0.002,0.034,0.025,0.063,0.033,0.097c-1.318,1.198-2.57,2.423-3.75,3.664l-2.148-8.316l-0.361,11.066
		c-8.293,9.563-12.578,18.971-12.938,19.782c-0.244,0.545,0.025,1.178,0.613,1.56c0.131,0.088,0.281,0.162,0.443,0.218
		c0.885,0.312,1.84,0.02,2.139-0.653c0.088-0.194,4.406-9.686,12.771-19.27l4.963,0.574v-0.919L33.799,46.229z"/>
	<path d="M26.127,52.735c-0.883-0.309-1.836-0.01-2.133,0.664c-0.293,0.671,0.184,1.465,1.072,1.773
		c2.547,0.885,5.008,1.557,7.375,2.022v-2.708C30.412,54.069,28.311,53.493,26.127,52.735z"/>
	<path d="M83.75,45.26c0.553-0.756,0.543-1.755-0.016-2.232c-0.557-0.478-1.455-0.253-2.01,0.508
		c-0.559,0.768-1.08,1.532-1.582,2.293c0.877,0.279,1.713,0.631,2.502,1.054C83.012,46.342,83.354,45.804,83.75,45.26z"/>
	<path d="M89.777,37.719c-0.17,0.069-0.33,0.166-0.473,0.286c-0.512,0.429-0.824,1.142-0.74,1.793
		c0.109,0.839,0.828,1.267,1.604,0.959c5.102-2.036,15.688,2.066,19.865,11.898c2.99,7.041,3.498,18.731-9.748,35.363
		c1.508-6.623,1.48-12.992,0.445-18.956l6.414,2.233l-7.209-6.048c-0.676-2.709-1.537-5.318-2.539-7.813l10.951,2.233l-12.256-5.89
		c-0.072-0.037-0.16-0.068-0.244-0.083c-0.033-0.008-0.068,0.006-0.102,0.003c-0.762-1.609-1.57-3.164-2.414-4.654l8.58,0.364
		L91.43,45.842C84.693,35.124,76.939,28.29,76.27,27.71c-0.451-0.392-1.137-0.319-1.672,0.132c-0.121,0.1-0.236,0.223-0.338,0.362
		c-0.555,0.754-0.555,1.754,0.004,2.236c0.16,0.141,7.982,7.034,14.719,17.826l-1.342,3.082c0.385,0.547,0.736,1.124,1.051,1.729
		l1.678-2.504c1.094,1.893,2.131,3.895,3.092,5.983l-2.766,5.354c-0.01,1.064-0.092,2.088-0.232,3.076l4.162-5.735
		c0.967,2.387,1.799,4.876,2.453,7.454l-8.615,14.334l9.301-11.248c1.242,6.547,1.225,13.572-0.914,20.81
		c-3.195-1.499-11.074-5.714-16.107-12.715c-1.064,0.4-2.199,0.688-3.396,0.86c6.504,10.399,18.846,15.313,19.512,15.57
		c0.029,0.012,0.063,0.003,0.092,0.01c0.51,0.384,1.27,0.265,1.82-0.356c18.959-21.378,16.832-36.24,13.877-43.198
		C108.109,40.093,96.629,34.987,89.777,37.719z"/>
	<path d="M64.564,78.537h-1.059c1.6,3.355,2.777,7.293,3.494,11.839c0.145,0.922,0.855,1.622,1.59,1.566
		c0.73-0.055,1.205-0.849,1.061-1.782c-0.887-5.625-2.428-10.441-4.576-14.465c-0.17-0.136-0.346-0.265-0.51-0.408V78.537z"/>
	<path d="M49.418,88.171c-2.373-1.005-4.723-2.176-7.008-3.537l-1.459-5.861c-0.541-0.009-1.08-0.022-1.607-0.046l0.398,4.21
		c-2.057-1.402-4.039-2.977-5.9-4.744l-1.4-0.177v-1.232c-2.553-2.65-4.855-5.69-6.768-9.206c1.428-0.516,3.828-1.288,6.768-1.894
		v-3.514c-5.279,1.009-9.045,2.628-9.398,2.785c-0.031,0.012-0.047,0.042-0.072,0.059c-0.629,0.087-1.086,0.708-1.035,1.536
		c1.711,28.527,13.723,37.53,20.732,40.358c10.76,4.344,22.49-0.164,25.4-6.94c0.072-0.167,0.115-0.348,0.135-0.536
		c0.059-0.665-0.229-1.388-0.748-1.789c-0.668-0.519-1.48-0.311-1.811,0.454c-2.168,5.046-12.555,9.632-22.459,5.635
		c-7.096-2.865-15.719-10.772-18.113-31.898c3.617,5.748,8.141,10.234,13.088,13.719l-6.115,2.956l9.375-0.823
		c2.395,1.439,4.848,2.675,7.32,3.732l-9.322,6.165l12.832-4.501c0.076-0.026,0.16-0.064,0.23-0.114
		c0.029-0.017,0.043-0.053,0.07-0.073c1.676,0.598,3.348,1.125,4.998,1.582l-6.326,5.811l9.934-4.891
		c12.342,2.818,22.658,2.164,23.543,2.1c0.596-0.041,1.027-0.577,1.088-1.274c0.018-0.155,0.01-0.322-0.016-0.495
		c-0.141-0.925-0.85-1.63-1.584-1.578c-0.213,0.015-10.621,0.673-23.014-2.197l-4.988-12.675l2.375,12.025
		c-2.111-0.565-4.26-1.247-6.416-2.045l-3.559-11.167c-0.244,0.062-0.486,0.125-0.742,0.178L49.418,88.171z"/>
	<path d="M50.643,61.22v-0.076c2.764-1.023,4.242-3.186,4.242-5.538c0-2.161-1.057-3.832-2.652-4.779
		c-1.742-1.213-3.867-1.631-7.32-1.631c-2.617,0-5.311,0.229-6.789,0.532v25.147c1.178,0.149,3.146,0.34,5.725,0.34
		c4.67,0,7.664-0.796,9.488-2.39c1.479-1.213,2.463-2.995,2.463-5.272C55.799,64.026,53.336,61.903,50.643,61.22z M42.752,52.838
		c0.49-0.114,1.289-0.19,2.654-0.19c2.959,0,4.779,1.102,4.779,3.49c0,2.162-1.82,3.681-5.045,3.681h-2.389V52.838z M45.217,71.689
		c-1.061,0-1.857-0.039-2.465-0.114V63.23h2.313c3.225,0,5.801,1.214,5.801,4.172C50.865,70.55,48.213,71.689,45.217,71.689z"/>
	<rect x="58.084" y="49.387" width="4.668" height="25.565"/>
	<path d="M77.016,48.97c-7.207,0-12.137,5.537-12.137,13.389c0,7.509,4.549,13.009,11.756,13.009
		c7.059,0,12.252-4.891,12.252-13.465C88.887,54.62,84.488,48.97,77.016,48.97z M76.9,71.612c-4.473,0-7.092-4.134-7.092-9.329
		c0-5.271,2.469-9.559,7.092-9.559c4.666,0,7.057,4.552,7.057,9.369C83.957,67.441,81.418,71.612,76.9,71.612z"/>
</g>
</svg>
