<?xml version="1.0" encoding="iso-8859-1"?>
<!-- Generator: Adobe Illustrator 16.0.4, SVG Export Plug-In . SVG Version: 6.00 Build 0)  -->
<!DOCTYPE svg PUBLIC "-//W3C//DTD SVG 1.1//EN" "http://www.w3.org/Graphics/SVG/1.1/DTD/svg11.dtd">
<svg version="1.1" id="Capa_1" xmlns="http://www.w3.org/2000/svg" xmlns:xlink="http://www.w3.org/1999/xlink" x="0px" y="0px"
	 width="20px" height="20px" viewBox="0 0 20 20" style="enable-background:new 0 0 20 20;" xml:space="preserve">
<path style="fill:#010002;" d="M12.892,9.25c0.063,0.241,0.107,0.49,0.107,0.75c0,1.375-0.937,2.526-2.202,2.878
	c-0.031-0.625,0.099-1.279,0.409-1.901l-0.494-0.286c-0.181,0.184-0.432,0.3-0.712,0.3c-0.278,0-0.53-0.116-0.712-0.3l-0.486,0.282
	c0.312,0.625,0.443,1.283,0.41,1.909C7.942,12.533,7,11.379,7,10c0-0.263,0.044-0.513,0.108-0.755
	c0.555,0.282,1.057,0.717,1.441,1.294l0.502-0.29C9.03,10.164,9,10.082,9,9.99c0-0.464,0.321-0.837,0.75-0.95V8.466
	c-0.696-0.043-1.327-0.26-1.852-0.602C8.44,7.332,9.181,7.001,9.999,7.001s1.56,0.331,2.102,0.864
	c-0.523,0.34-1.154,0.558-1.851,0.601V9.04C10.679,9.153,11,9.526,11,9.99c0,0.092-0.028,0.174-0.052,0.259l0.51,0.295
	C11.841,9.967,12.341,9.532,12.892,9.25z M20,4v12c0,2.2-1.8,4-4,4H4c-2.2,0-4-1.8-4-4V4c0-2.2,1.8-4,4-4h12C18.2,0,20,1.8,20,4z
	 M17.5,9.99c0-4.016-3.149-7.286-7.11-7.49c1.75,0.166,3.11,1.438,3.11,2.984c0,0.53-0.175,1.021-0.456,1.453
	c-0.782-0.777-1.857-1.258-3.045-1.258c-1.186,0-2.261,0.481-3.042,1.258C6.675,6.504,6.5,6.014,6.5,5.484
	c0-1.546,1.36-2.818,3.11-2.984C5.649,2.704,2.5,5.974,2.5,9.99c0,1.212,0.294,2.354,0.803,3.367
	c-0.696-1.586-0.272-3.37,1.049-4.133c0.46-0.266,0.974-0.36,1.489-0.331C5.745,9.248,5.679,9.615,5.679,10
	c0,1.995,1.365,3.661,3.205,4.157c-0.028,0.042-0.059,0.083-0.083,0.126c-0.002,0.004-0.002,0.007-0.003,0.011
	c-0.059,0.136-0.139,0.245-0.227,0.341c-0.199,0.257-0.428,0.489-0.72,0.658c-1.328,0.768-3.093,0.235-4.116-1.179
	C5.077,16.153,7.38,17.5,10,17.5c2.596,0,4.882-1.321,6.229-3.326c-1.028,1.368-2.761,1.875-4.071,1.12
	c-0.463-0.269-0.8-0.673-1.032-1.14c1.835-0.499,3.196-2.163,3.196-4.154c0-0.385-0.066-0.752-0.162-1.108
	c0.52-0.031,1.035,0.063,1.498,0.331c1.283,0.742,1.719,2.443,1.107,3.994C17.231,12.238,17.5,11.146,17.5,9.99z"/>
<g>
</g>
<g>
</g>
<g>
</g>
<g>
</g>
<g>
</g>
<g>
</g>
<g>
</g>
<g>
</g>
<g>
</g>
<g>
</g>
<g>
</g>
<g>
</g>
<g>
</g>
<g>
</g>
<g>
</g>
</svg>
