<?xml version="1.0" encoding="iso-8859-1"?>
<!-- Generator: Adobe Illustrator 16.0.4, SVG Export Plug-In . SVG Version: 6.00 Build 0)  -->
<!DOCTYPE svg PUBLIC "-//W3C//DTD SVG 1.1//EN" "http://www.w3.org/Graphics/SVG/1.1/DTD/svg11.dtd">
<svg version="1.1" id="Capa_1" xmlns="http://www.w3.org/2000/svg" xmlns:xlink="http://www.w3.org/1999/xlink" x="0px" y="0px"
	 width="15px" height="15px" viewBox="0 0 15 15" style="enable-background:new 0 0 15 15;" xml:space="preserve">
<path style="fill:#010002;" d="M15,7.49C15,3.474,11.851,0.204,7.89,0C9.64,0.166,11,1.438,11,2.984c0,0.53-0.175,1.021-0.456,1.453
	C9.762,3.66,8.687,3.179,7.499,3.179c-1.186,0-2.261,0.481-3.042,1.258C4.175,4.004,4,3.514,4,2.984C4,1.438,5.36,0.166,7.11,0
	C3.149,0.204,0,3.474,0,7.49c0,1.212,0.294,2.354,0.803,3.367C0.106,9.271,0.53,7.487,1.852,6.723
	c0.46-0.266,0.974-0.36,1.489-0.331C3.245,6.748,3.179,7.115,3.179,7.5c0,1.995,1.365,3.661,3.205,4.157
	c-0.028,0.042-0.059,0.083-0.083,0.126c-0.002,0.004-0.002,0.007-0.003,0.011c-0.059,0.136-0.139,0.245-0.227,0.341
	c-0.199,0.257-0.428,0.489-0.72,0.658c-1.328,0.768-3.093,0.235-4.116-1.179C2.577,13.653,4.88,15,7.5,15
	c2.596,0,4.882-1.321,6.229-3.326c-1.028,1.368-2.761,1.875-4.071,1.12c-0.463-0.269-0.8-0.673-1.032-1.14
	c1.835-0.499,3.196-2.163,3.196-4.154c0-0.385-0.066-0.752-0.162-1.108c0.52-0.031,1.035,0.063,1.498,0.331
	c1.283,0.742,1.719,2.443,1.107,3.994C14.731,9.738,15,8.646,15,7.49z M8.297,10.378C8.266,9.754,8.396,9.1,8.706,8.477L8.212,8.191
	c-0.181,0.184-0.432,0.3-0.712,0.3c-0.278,0-0.53-0.116-0.712-0.3L6.302,8.473c0.312,0.625,0.443,1.283,0.41,1.909
	C5.442,10.033,4.5,8.879,4.5,7.5c0-0.263,0.044-0.513,0.108-0.755C5.163,7.026,5.665,7.462,6.05,8.039l0.502-0.29
	C6.53,7.664,6.5,7.582,6.5,7.49c0-0.464,0.321-0.837,0.75-0.95V5.966c-0.696-0.043-1.327-0.26-1.852-0.602
	C5.94,4.832,6.681,4.501,7.499,4.501s1.56,0.331,2.102,0.864C9.077,5.706,8.446,5.923,7.75,5.966V6.54
	C8.179,6.653,8.5,7.026,8.5,7.49c0,0.092-0.028,0.174-0.052,0.259l0.51,0.295c0.383-0.577,0.883-1.012,1.434-1.294
	c0.063,0.241,0.107,0.49,0.107,0.75C10.499,8.875,9.562,10.026,8.297,10.378z"/>
<g>
</g>
<g>
</g>
<g>
</g>
<g>
</g>
<g>
</g>
<g>
</g>
<g>
</g>
<g>
</g>
<g>
</g>
<g>
</g>
<g>
</g>
<g>
</g>
<g>
</g>
<g>
</g>
<g>
</g>
</svg>
