<?xml version="1.0" encoding="utf-8"?>
<!-- Generator: Adobe Illustrator 15.0.0, SVG Export Plug-In . SVG Version: 6.00 Build 0)  -->
<!DOCTYPE svg PUBLIC "-//W3C//DTD SVG 1.1//EN" "http://www.w3.org/Graphics/SVG/1.1/DTD/svg11.dtd">
<svg version="1.1" id="Layer_1" xmlns="http://www.w3.org/2000/svg" xmlns:xlink="http://www.w3.org/1999/xlink" x="0px" y="0px"
	 width="26px" height="26px" viewBox="0 0 26 26" enable-background="new 0 0 26 26" xml:space="preserve">
<path d="M20.324,9.334c-0.22-0.051-0.439,0.088-0.49,0.308c-0.002,0.006-0.038,0.146-0.129,0.352
	c-0.058-0.014-0.117-0.021-0.179-0.021c-0.091,0-0.179,0.019-0.261,0.047l-3.388-3.386c0.009-0.046,0.016-0.093,0.016-0.141
	c0-0.049-0.007-0.096-0.016-0.143c0.26-0.125,0.448-0.177,0.481-0.186c0.22-0.05,0.355-0.269,0.307-0.49
	c-0.05-0.22-0.27-0.358-0.49-0.308c-0.012,0.003-0.371,0.092-0.851,0.365c-0.074-0.022-0.151-0.038-0.232-0.038
	c-0.44,0-0.8,0.358-0.8,0.799c0,0.011,0.003,0.02,0.003,0.03c-0.451,0.459-0.887,1.09-1.179,1.947
	c-0.251,0.135-0.424,0.397-0.424,0.702c0,0.172,0.056,0.33,0.147,0.46c-0.109,0.737-0.125,1.595,0.001,2.598l0.097,0.831
	c0.085,0.924,0.045,1.733-0.067,2.448c-0.052,0.009-0.1,0.021-0.147,0.038l-2.278-2.277c0.018-0.047,0.029-0.094,0.038-0.143
	c0.507-0.075,1.21-0.114,1.771-0.109v-0.818c-0.75-0.008-1.426,0.068-2.045,0.19C10.07,12.273,9.893,12.2,9.696,12.2
	c-0.348,0-0.641,0.225-0.751,0.535c-0.713,0.253-1.316,0.568-1.805,0.892c-0.031-0.004-0.063-0.009-0.095-0.009
	c-0.407,0-0.739,0.304-0.79,0.695c-0.537,0.485-0.811,0.876-0.84,0.925c-0.098,0.165-0.067,0.368,0.062,0.498
	c0.023,0.022,0.05,0.044,0.079,0.063c0.194,0.115,0.446,0.053,0.563-0.14c0.021-0.035,0.174-0.272,0.469-0.587
	c0.083,0.059,0.177,0.1,0.279,0.123l4.04,4.039c0,0.063,0.009,0.123,0.022,0.18c-0.313,0.295-0.55,0.447-0.584,0.469
	c-0.194,0.116-0.258,0.367-0.143,0.562c0.018,0.03,0.039,0.057,0.063,0.08c0.13,0.13,0.335,0.16,0.499,0.062
	c0.043-0.023,0.344-0.214,0.737-0.587c0.065,0.018,0.133,0.03,0.204,0.03c0.442,0,0.8-0.358,0.8-0.8
	c0-0.118-0.027-0.229-0.072-0.331c0.341-0.501,0.667-1.126,0.919-1.886c0.265-0.13,0.449-0.399,0.449-0.716
	c0-0.171-0.055-0.329-0.147-0.459c0.141-0.781,0.195-1.67,0.116-2.679c0,0-0.055-0.832-0.09-0.836
	c-0.125-0.872-0.137-1.619-0.073-2.265l2.334,2.333c-0.466,0.047-1.326,0.055-1.906,0.008l0.389,0.841
	c0.72,0.027,1.352-0.03,1.922-0.138c0.135,0.103,0.302,0.166,0.483,0.166c0.34,0,0.629-0.212,0.745-0.51
	c0.808-0.32,1.418-0.754,1.873-1.194c0.027,0.002,0.054,0.008,0.081,0.008c0.44,0,0.799-0.358,0.799-0.799
	c0-0.087-0.016-0.169-0.042-0.248c0.246-0.401,0.347-0.69,0.35-0.701C20.683,9.604,20.545,9.384,20.324,9.334z M11.82,18.44
	l-3.981-3.98c0.001-0.015,0.004-0.028,0.004-0.043c0-0.065-0.01-0.128-0.024-0.188c0.359-0.241,0.792-0.477,1.302-0.675
	C9.267,13.705,9.47,13.8,9.696,13.8c0.008,0,0.016-0.003,0.023-0.003l2.481,2.483c0,0.005-0.001,0.011-0.001,0.016
	c0,0.336,0.207,0.622,0.5,0.741c-0.217,0.571-0.477,1.049-0.743,1.436C11.913,18.459,11.867,18.447,11.82,18.44z M14.278,9.022
	c-0.023-0.124-0.077-0.236-0.151-0.332c0.208-0.601,0.492-1.063,0.796-1.416c0.055,0.011,0.112,0.019,0.17,0.019
	c0.06,0,0.117-0.007,0.172-0.02l3.465,3.465c0,0.011-0.004,0.022-0.004,0.034c0,0.205,0.08,0.391,0.208,0.532
	c-0.354,0.301-0.813,0.582-1.404,0.79c-0.118-0.221-0.336-0.377-0.593-0.414L14.278,9.022z"/>
</svg>
