<?xml version="1.0" encoding="utf-8"?>
<!-- Generator: Adobe Illustrator 16.0.4, SVG Export Plug-In . SVG Version: 6.00 Build 0)  -->
<!DOCTYPE svg PUBLIC "-//W3C//DTD SVG 1.1//EN" "http://www.w3.org/Graphics/SVG/1.1/DTD/svg11.dtd">
<svg version="1.1" id="Layer_1" xmlns="http://www.w3.org/2000/svg" xmlns:xlink="http://www.w3.org/1999/xlink" x="0px" y="0px"
	 width="50px" height="50px" viewBox="0 0 50 50" enable-background="new 0 0 50 50" xml:space="preserve">
<path d="M35.126,18.06c-2.157-2.777-5.412-4.369-8.933-4.369c-2.531,0-4.928,0.823-6.931,2.381
	c-4.62,3.594-5.635,10.068-2.583,14.921l-3.75,2.914c-0.485,0.376-0.574,1.075-0.196,1.56c0.219,0.282,0.547,0.43,0.878,0.43
	c0.239,0,0.48-0.076,0.682-0.234l3.711-2.883c2.127,2.252,5.055,3.529,8.2,3.529c2.53,0,4.928-0.822,6.931-2.381
	C38.06,30.104,38.953,22.985,35.126,18.06z M31.771,32.173c-1.609,1.25-3.535,1.912-5.565,1.912c-2.828,0-5.442-1.28-7.177-3.509
	c-3.07-3.954-2.353-9.673,1.599-12.749c1.61-1.251,3.535-1.912,5.566-1.912c2.827,0,5.442,1.28,7.177,3.509
	C36.442,23.38,35.726,29.1,31.771,32.173z M32.376,23.063l-2.162,3.405c-0.211,0.334-0.572,0.517-0.939,0.517
	c-0.204,0-0.411-0.057-0.595-0.174c-0.519-0.328-0.673-1.017-0.343-1.534l2.162-3.404c0.328-0.52,1.019-0.671,1.534-0.343
	C32.552,21.857,32.706,22.546,32.376,23.063z M23.166,21.179c-0.339-0.513-0.198-1.204,0.315-1.54l2.155-1.421
	c0.513-0.343,1.202-0.198,1.541,0.315c0.339,0.513,0.198,1.204-0.315,1.541l-2.155,1.421c-0.189,0.126-0.402,0.185-0.613,0.185
	C23.732,21.679,23.378,21.503,23.166,21.179z M21.789,22.822l-0.356,3.619c-0.057,0.576-0.541,1.004-1.106,1.004
	c-0.037,0-0.074-0.002-0.111-0.004c-0.613-0.061-1.058-0.605-1-1.217l0.356-3.62c0.061-0.612,0.613-1.041,1.217-0.999
	C21.401,21.666,21.847,22.211,21.789,22.822z M24.6,28.584l-0.78,2.072c-0.167,0.447-0.591,0.722-1.041,0.722
	c-0.13,0-0.263-0.022-0.391-0.071c-0.576-0.216-0.867-0.858-0.649-1.433l0.78-2.073c0.215-0.578,0.86-0.875,1.432-0.65
	C24.525,27.367,24.816,28.01,24.6,28.584z M25.699,25.816c-0.131,0-0.264-0.022-0.392-0.072c-0.576-0.215-0.867-0.858-0.65-1.432
	l0.78-2.073c0.215-0.578,0.86-0.874,1.433-0.65c0.575,0.215,0.866,0.858,0.648,1.432l-0.78,2.073
	C26.572,25.542,26.148,25.816,25.699,25.816z M32.231,28.76c0.074,0.61-0.362,1.162-0.973,1.234l-4.032,0.476
	c-0.043,0.007-0.089,0.009-0.133,0.009c-0.556,0-1.036-0.416-1.102-0.981c-0.074-0.61,0.362-1.162,0.974-1.233l4.032-0.477
	C31.592,27.697,32.161,28.148,32.231,28.76z"/>
</svg>
