<?xml version="1.0" encoding="utf-8"?>
<!-- Generator: Adobe Illustrator 16.0.4, SVG Export Plug-In . SVG Version: 6.00 Build 0)  -->
<!DOCTYPE svg PUBLIC "-//W3C//DTD SVG 1.1//EN" "http://www.w3.org/Graphics/SVG/1.1/DTD/svg11.dtd">
<svg version="1.1" id="Layer_1" xmlns="http://www.w3.org/2000/svg" xmlns:xlink="http://www.w3.org/1999/xlink" x="0px" y="0px"
	 width="50px" height="50px" viewBox="0 0 50 50" enable-background="new 0 0 50 50" xml:space="preserve">
<g>
	<path d="M32.139,15.164c-2.683,0-6.1,1.491-7.139,1.975c-1.04-0.484-4.456-1.975-7.139-1.975c-2.435,0-3.777,1.239-3.777,3.487
		c0,6.392,4.891,16.186,10.916,16.186c6.025,0,10.916-9.793,10.916-16.186C35.916,16.401,34.574,15.164,32.139,15.164z M25,33.449
		c-5.076,0-9.53-9.224-9.53-14.8c0-0.979,0.272-2.101,2.391-2.101c2.298,0,5.379,1.31,6.446,1.797v7.986
		c0,0.383,0.31,0.693,0.693,0.693s0.693-0.311,0.693-0.693v-7.986c1.066-0.487,4.147-1.797,6.445-1.797
		c2.106,0,2.391,1.061,2.391,2.101C34.529,24.227,30.076,33.449,25,33.449z"/>
</g>
</svg>
