<?xml version="1.0" encoding="iso-8859-1"?>
<!-- Generator: Adobe Illustrator 16.0.0, SVG Export Plug-In . SVG Version: 6.00 Build 0)  -->
<!DOCTYPE svg PUBLIC "-//W3C//DTD SVG 1.1//EN" "http://www.w3.org/Graphics/SVG/1.1/DTD/svg11.dtd">
<svg version="1.1" id="Layer_1" xmlns="http://www.w3.org/2000/svg" xmlns:xlink="http://www.w3.org/1999/xlink" x="0px" y="0px"
	 width="31.22px" height="29.661px" viewBox="0 0 31.22 29.661" style="enable-background:new 0 0 31.22 29.661;"
	 xml:space="preserve">
<g>
	<path d="M25.318,17.007H23.59v5.316c-1.028-0.413-2.208-0.622-3.517-0.622c-3.208,0-6.263,1.229-7.18,1.634v-5.873l0.427,0.471
		V9.112c1.394-1.171,3.044-1.875,4.922-2.107l0.223-0.758c-2.184,0.207-4.095,0.996-5.693,2.366
		c-1.877-1.609-4.184-2.426-6.861-2.426c-2.5,0-4.374,0.728-4.453,0.759l-0.23,0.09v1.477C0.471,8.655,0,8.908,0,9.323
		c0,2.152,0,15.222,0,15.222h11.21c0.388,0.347,0.956,0.566,1.589,0.566c0.634,0,1.202-0.22,1.589-0.566h10.929
		C25.318,24.545,25.318,20.79,25.318,17.007z M12.65,23.343c-0.93-0.383-4.135-1.603-7.346-1.603c-1.268,0-2.392,0.195-3.35,0.579
		V7.539c0.559-0.186,2.082-0.626,3.957-0.626c2.464,0,4.583,0.747,6.313,2.2v8.822l0.426-0.471V23.343z"/>
	<path d="M17.461,11.403c-0.525,0.772-1.033,1.677-1.25,2.062l-0.058,0.103c-0.223,0.395-0.226,0.932-0.006,1.31
		c0.167,0.284,0.433,0.442,0.75,0.442h0.722h2.674h3.371h2.691h0.705c0.317,0,0.583-0.158,0.75-0.442
		c0.219-0.377,0.216-0.915-0.007-1.31l-0.057-0.103c-0.218-0.385-0.726-1.29-1.251-2.062c-0.133-0.198-0.267-0.382-0.395-0.556
		h-8.243C17.729,11.021,17.596,11.206,17.461,11.403z"/>
	<path d="M31.22,0h-2.069v0.994h0.666v2.713h-4.891c-0.003-0.313-0.006-0.576-0.008-0.745h0.57v-1h-7.205v1h0.755
		c-0.002,0.169-0.005,0.433-0.007,0.745h-0.842v0.967h0.835c-0.003,0.828-0.001,1.722,0.017,2.239
		c-0.006,0.22-0.548,0.96-0.985,1.555c-0.272,0.372-0.574,0.783-0.874,1.223c-0.893,1.313-1.757,2.851-2.126,3.509l-0.098,0.173
		c-0.381,0.671-0.384,1.587-0.013,2.227c0.283,0.485,0.736,0.752,1.276,0.752h11.511h0.001c0.539,0,0.993-0.268,1.275-0.752
		c0.373-0.639,0.369-1.556-0.012-2.227l-0.099-0.173c-0.369-0.658-1.232-2.196-2.125-3.509c-0.299-0.44-0.601-0.851-0.874-1.223
		c-0.437-0.595-0.979-1.335-0.985-1.555c0.018-0.517,0.019-1.411,0.016-2.239h4.886v22.353h-7.839v2.633h7.839h0.704h0.248V0.994
		h0.451V0z M19.863,3.169h4.229c0.001,0.147,0.003,0.335,0.005,0.539h-4.239C19.86,3.504,19.862,3.316,19.863,3.169z M24.089,6.887
		c-0.017,0.467,0.381,1.031,1.144,2.072c0.268,0.366,0.563,0.767,0.857,1.2c0.873,1.283,1.724,2.799,2.088,3.447l0.099,0.178
		c0.236,0.413,0.243,1.016,0.018,1.4c-0.132,0.228-0.32,0.342-0.561,0.342H16.222c-0.239,0-0.428-0.115-0.561-0.342
		c-0.225-0.384-0.217-0.988,0.017-1.4l0.1-0.178c0.363-0.648,1.215-2.164,2.089-3.447c0.293-0.433,0.588-0.834,0.856-1.2
		c0.762-1.041,1.161-1.604,1.145-2.072c-0.017-0.501-0.019-1.388-0.016-2.212h4.25C24.106,5.499,24.105,6.385,24.089,6.887z"/>
</g>
<g>
</g>
<g>
</g>
<g>
</g>
<g>
</g>
<g>
</g>
<g>
</g>
<g>
</g>
<g>
</g>
<g>
</g>
<g>
</g>
<g>
</g>
<g>
</g>
<g>
</g>
<g>
</g>
<g>
</g>
</svg>
