<?xml version="1.0" encoding="iso-8859-1"?>
<!-- Generator: Adobe Illustrator 16.0.0, SVG Export Plug-In . SVG Version: 6.00 Build 0)  -->
<!DOCTYPE svg PUBLIC "-//W3C//DTD SVG 1.1//EN" "http://www.w3.org/Graphics/SVG/1.1/DTD/svg11.dtd">
<svg version="1.1" id="Layer_1" xmlns="http://www.w3.org/2000/svg" xmlns:xlink="http://www.w3.org/1999/xlink" x="0px" y="0px"
	 width="42.635px" height="37.563px" viewBox="0 0 42.635 37.563" style="enable-background:new 0 0 42.635 37.563;"
	 xml:space="preserve">
<g>
	<path d="M42.618,4.781l-1.94-0.803l0.017-1.996c0,0-4.279-1.982-9.716-1.982c-4.564,0-8.422,1.409-9.656,1.914
		C20.088,1.409,16.23,0,11.666,0C6.229,0,2.143,1.943,2.143,1.943l0.015,2.223L0,4.856l0.011,32.706l1.45-0.732
		c0.049-0.024,4.915-2.455,9.406-2.455c3.848,0,8.35,1.363,9.705,1.805l0.904,0.311l0.846-0.328c1.214-0.442,5.22-1.787,8.987-1.787
		c4.457,0,9.854,2.447,9.908,2.472l1.417,0.648L42.618,4.781z M20.322,32.982c-1.931-0.608-5.609-1.607-8.939-1.607
		c-3.248,0-6.563,0.949-8.373,1.564V4.343C4.768,3.777,7.788,3,11.166,3c4.135,0,7.767,1.171,9.156,1.683V32.982z M39.635,32.982
		c-1.931-0.608-5.609-1.607-8.939-1.607c-3.112,0-6.271,0.869-8.123,1.482V4.679C23.943,4.166,27.513,3,31.604,3
		c3.322,0,6.294,0.771,8.031,1.336V32.982z"/>
	<path d="M25.722,7.923c0.03-0.007,3.079-0.676,6.161-0.676c3.076,0,5.837,0.666,5.864,0.673l0.238-0.971
		c-0.117-0.029-2.901-0.702-6.103-0.702c-3.195,0-6.25,0.671-6.378,0.699L25.722,7.923z"/>
	<path d="M37.747,10.648l0.238-0.971c-0.117-0.029-2.901-0.702-6.103-0.702c-3.196,0-6.249,0.671-6.377,0.699l0.217,0.977
		c0.03-0.007,3.073-0.676,6.16-0.676C34.959,9.976,37.72,10.642,37.747,10.648z"/>
	<path d="M25.722,13.258c0.03-0.007,3.079-0.676,6.162-0.676c3.075,0,5.836,0.666,5.863,0.673l0.238-0.971
		c-0.117-0.029-2.901-0.702-6.102-0.702c-3.196,0-6.251,0.671-6.379,0.699L25.722,13.258z"/>
	<path d="M31.883,15.311c3.076,0,5.837,0.666,5.864,0.673l0.238-0.971c-0.117-0.029-2.901-0.702-6.103-0.702
		c-3.197,0-6.25,0.671-6.378,0.699l0.217,0.977C25.752,15.979,28.795,15.311,31.883,15.311z"/>
	<path d="M31.883,17.952c3.076,0,5.837,0.666,5.864,0.673l0.238-0.971c-0.117-0.029-2.901-0.702-6.103-0.702
		c-3.195,0-6.25,0.671-6.378,0.699l0.217,0.977C25.752,18.621,28.801,17.952,31.883,17.952z"/>
	<path d="M31.883,19.681c-3.196,0-6.249,0.671-6.377,0.699l0.217,0.977c0.03-0.007,3.073-0.676,6.16-0.676
		c3.077,0,5.837,0.666,5.864,0.673l0.238-0.971C37.868,20.354,35.085,19.681,31.883,19.681z"/>
	<path d="M25.506,22.979l0.217,0.977c0.03-0.007,3.074-0.676,6.161-0.676c3.075,0,5.836,0.666,5.863,0.673l0.238-0.971
		c-0.117-0.029-2.901-0.702-6.102-0.702C28.688,22.28,25.634,22.951,25.506,22.979z"/>
	<path d="M25.506,25.572l0.217,0.977c0.03-0.007,3.074-0.676,6.161-0.676c3.076,0,5.837,0.666,5.864,0.673l0.238-0.971
		c-0.117-0.029-2.901-0.702-6.103-0.702C28.688,24.873,25.634,25.544,25.506,25.572z"/>
	<path d="M25.506,28.336l0.217,0.977c0.03-0.007,3.079-0.676,6.161-0.676c3.076,0,5.837,0.666,5.864,0.673l0.238-0.971
		c-0.117-0.029-2.901-0.702-6.103-0.702C28.688,27.637,25.634,28.308,25.506,28.336z"/>
	<path d="M5.09,7.449c0.03-0.007,3.079-0.676,6.161-0.676c3.076,0,5.837,0.666,5.864,0.673l0.238-0.971
		c-0.117-0.029-2.901-0.702-6.103-0.702c-3.195,0-6.25,0.671-6.378,0.699L5.09,7.449z"/>
	<path d="M17.115,10.175l0.238-0.971c-0.117-0.029-2.901-0.702-6.103-0.702c-3.196,0-6.249,0.671-6.377,0.699l0.217,0.977
		c0.03-0.007,3.073-0.676,6.16-0.676C14.327,9.502,17.088,10.168,17.115,10.175z"/>
	<path d="M5.09,12.784c0.03-0.007,3.079-0.676,6.162-0.676c3.075,0,5.836,0.666,5.863,0.673l0.238-0.971
		c-0.117-0.029-2.901-0.702-6.102-0.702c-3.196,0-6.251,0.671-6.379,0.699L5.09,12.784z"/>
	<path d="M11.251,14.837c3.076,0,5.837,0.666,5.864,0.673l0.238-0.971c-0.117-0.029-2.901-0.702-6.103-0.702
		c-3.197,0-6.25,0.671-6.378,0.699l0.217,0.977C5.12,15.506,8.163,14.837,11.251,14.837z"/>
	<path d="M11.251,17.479c3.076,0,5.837,0.666,5.864,0.673l0.238-0.971c-0.117-0.029-2.901-0.702-6.103-0.702
		c-3.195,0-6.25,0.671-6.378,0.699l0.217,0.977C5.12,18.147,8.169,17.479,11.251,17.479z"/>
	<path d="M11.251,19.207c-3.196,0-6.249,0.671-6.377,0.699l0.217,0.977c0.03-0.007,3.073-0.676,6.16-0.676
		c3.077,0,5.837,0.666,5.864,0.673l0.238-0.971C17.236,19.88,14.453,19.207,11.251,19.207z"/>
	<path d="M4.874,22.506l0.217,0.977c0.03-0.007,3.074-0.676,6.161-0.676c3.075,0,5.836,0.666,5.863,0.673l0.238-0.971
		c-0.117-0.029-2.901-0.702-6.102-0.702C8.056,21.807,5.002,22.478,4.874,22.506z"/>
	<path d="M4.874,25.099l0.217,0.977c0.03-0.007,3.074-0.676,6.161-0.676c3.076,0,5.837,0.666,5.864,0.673l0.238-0.971
		c-0.117-0.029-2.901-0.702-6.103-0.702C8.056,24.399,5.002,25.07,4.874,25.099z"/>
	<path d="M4.874,27.862l0.217,0.977c0.03-0.007,3.079-0.676,6.161-0.676c3.076,0,5.837,0.666,5.864,0.673l0.238-0.971
		c-0.117-0.029-2.901-0.702-6.103-0.702C8.057,27.163,5.002,27.834,4.874,27.862z"/>
</g>
<g>
</g>
<g>
</g>
<g>
</g>
<g>
</g>
<g>
</g>
<g>
</g>
<g>
</g>
<g>
</g>
<g>
</g>
<g>
</g>
<g>
</g>
<g>
</g>
<g>
</g>
<g>
</g>
<g>
</g>
</svg>
