<?xml version="1.0" encoding="utf-8"?>
<!-- Generator: Adobe Illustrator 16.0.0, SVG Export Plug-In . SVG Version: 6.00 Build 0)  -->
<!DOCTYPE svg PUBLIC "-//W3C//DTD SVG 1.1//EN" "http://www.w3.org/Graphics/SVG/1.1/DTD/svg11.dtd">
<svg version="1.1" id="Layer_1" xmlns="http://www.w3.org/2000/svg" xmlns:xlink="http://www.w3.org/1999/xlink" x="0px" y="0px"
	 width="48px" height="48px" viewBox="0 0 48 48" enable-background="new 0 0 48 48" xml:space="preserve">
<g>
	<path d="M40.952,16.165c0-2.951-2.392-5.343-5.343-5.343h-24.44c-2.951,0-5.343,2.392-5.343,5.343v25.493
		c0,2.951,2.392,5.343,5.343,5.343h24.44c2.951,0,5.343-2.392,5.343-5.343V16.165z M11.196,14.869h24.468
		c0.73,0,1.322,0.585,1.322,1.316v6.697H9.873v-6.697C9.873,15.454,10.465,14.869,11.196,14.869z"/>
	<path d="M36.015,2.807c0-0.97-5.652-1.757-12.585-1.757S10.844,1.836,10.844,2.807v5.992h25.171V2.807z"/>
</g>
</svg>
