<?xml version="1.0" encoding="utf-8"?>
<!-- Generator: Adobe Illustrator 16.0.0, SVG Export Plug-In . SVG Version: 6.00 Build 0)  -->
<!DOCTYPE svg PUBLIC "-//W3C//DTD SVG 1.1//EN" "http://www.w3.org/Graphics/SVG/1.1/DTD/svg11.dtd">
<svg version="1.1" id="Layer_1" xmlns="http://www.w3.org/2000/svg" xmlns:xlink="http://www.w3.org/1999/xlink" x="0px" y="0px"
	 width="50px" height="50px" viewBox="0 0 50 50" enable-background="new 0 0 50 50" xml:space="preserve">
<g>
	<path d="M25,24.502c-2.493,0-4.514,1.51-4.514,4.355c0,2.844,2.021,5.946,4.514,5.946c2.493,0,4.514-3.103,4.514-5.946
		C29.515,26.012,27.493,24.502,25,24.502z"/>
	<path d="M42.001,38.361L30.519,22.419V14.9h0.377c1.979,0,3.588-1.61,3.588-3.59c0-1.979-1.61-3.588-3.588-3.588H19.104
		c-1.979,0-3.588,1.609-3.588,3.588c0,1.979,1.61,3.59,3.588,3.59h0.377v7.519L7.999,38.359c-0.665,0.924-0.816,1.901-0.415,2.686
		s1.283,1.232,2.42,1.232h29.992c1.137,0,2.02-0.448,2.42-1.232C42.817,40.262,42.667,39.283,42.001,38.361z M39.996,40.193h-6.258
		v-0.688c0-1.212-1.043-2.703-2.32-3.311l-2.928-1.392L26.56,38.82l-0.957-2.601c-0.199,0.038-0.396,0.088-0.603,0.088
		s-0.404-0.05-0.603-0.088l-1.008,2.731l-1.97-4.104l-2.837,1.348c-1.276,0.605-2.32,2.098-2.32,3.308v0.688h-6.258
		c-0.35,0-0.523-0.076-0.551-0.076c-0.002,0-0.003,0-0.004,0c-0.006-0.043,0.024-0.233,0.242-0.536l11.877-16.487V12.814h-2.463
		c-0.829,0-1.502-0.674-1.502-1.502s0.674-1.502,1.502-1.502h11.791c0.829,0,1.502,0.674,1.502,1.502s-0.674,1.502-1.502,1.502
		h-2.463v10.278L40.31,39.581c0.218,0.302,0.249,0.493,0.263,0.493C40.542,40.105,40.369,40.193,39.996,40.193z"/>
</g>
</svg>
