<?xml version="1.0" encoding="iso-8859-1"?>
<!-- Generator: Adobe Illustrator 16.0.0, SVG Export Plug-In . SVG Version: 6.00 Build 0)  -->
<!DOCTYPE svg PUBLIC "-//W3C//DTD SVG 1.1//EN" "http://www.w3.org/Graphics/SVG/1.1/DTD/svg11.dtd">
<svg version="1.1" id="Layer_1" xmlns="http://www.w3.org/2000/svg" xmlns:xlink="http://www.w3.org/1999/xlink" x="0px" y="0px"
	 width="38.271px" height="47.649px" viewBox="0 0 38.271 47.649" style="enable-background:new 0 0 38.271 47.649;"
	 xml:space="preserve">
<g>
	<path d="M28.24,30.596c2.928-3.854,1.821-8.804,0.477-11.381c-1.135-2.174-4.818-6.567-10.209-6.107
		C21.401,8.965,19.973,3.098,18.447,0L16.29,1.062c0.185,0.378,4.46,9.308-2.227,12.796C7.356,17.357,2.292,8.814,2.079,8.45
		L0,9.653c1.717,2.975,5.782,7.415,10.835,7.427c-3.022,3.518-2.483,8.117-0.579,11.768c1.394,2.669,4.607,6.146,9.222,6.12
		c-2.517,4.11-1.127,9.689,0.347,12.682l2.157-1.062c-0.185-0.378-4.459-9.307,2.227-12.796c6.708-3.501,11.771,5.042,11.983,5.407
		l2.08-1.203C36.646,35.181,32.92,31.041,28.24,30.596z M12.387,27.736c-1.188-2.277-3.27-7.93,3.048-11.227
		c7.105-3.707,11.112,3.742,11.151,3.816c0.159,0.307,3.823,7.52-3.098,11.131C16.637,35.031,13.038,28.984,12.387,27.736z"/>
	<path d="M19.756,30.99l5.287-2.758c0.665-0.867,0.974-1.806,1.083-2.714l-9.294,4.849C17.648,30.799,18.621,31.064,19.756,30.99z"
		/>
	<path d="M25.642,21.875l-11.485,5.992c0.302,0.447,0.725,0.98,1.27,1.486l10.686-5.576C26.013,23.021,25.82,22.365,25.642,21.875z"
		/>
	<path d="M23.844,19.127l-11.012,5.746c0.174,0.692,0.416,1.316,0.649,1.811l11.575-6.04C24.829,20.289,24.425,19.719,23.844,19.127
		z"/>
	<path d="M20.221,17.122l-7.129,3.72c-0.371,0.796-0.496,1.613-0.482,2.4l9.936-5.186C21.883,17.621,21.108,17.27,20.221,17.122z"/>
	<path d="M10.509,13.223l5.287-2.76c0.666-0.866,0.976-1.805,1.084-2.713L7.586,12.6C8.402,13.03,9.375,13.295,10.509,13.223z"/>
	<path d="M16.865,6.01c-0.1-0.756-0.291-1.412-0.471-1.902L4.91,10.1c0.302,0.447,0.725,0.98,1.269,1.486L16.865,6.01z"/>
	<path d="M21.831,42.348c0.174,0.691,0.415,1.315,0.648,1.809l11.575-6.039c-0.227-0.354-0.631-0.924-1.212-1.516L21.831,42.348z"/>
	<path d="M29.22,34.596l-7.13,3.72c-0.37,0.796-0.495,1.613-0.481,2.399l9.936-5.184C30.881,35.094,30.106,34.743,29.22,34.596z"/>
</g>
<g>
</g>
<g>
</g>
<g>
</g>
<g>
</g>
<g>
</g>
<g>
</g>
<g>
</g>
<g>
</g>
<g>
</g>
<g>
</g>
<g>
</g>
<g>
</g>
<g>
</g>
<g>
</g>
<g>
</g>
</svg>
