<?xml version="1.0" encoding="utf-8"?>
<!-- Generator: Adobe Illustrator 16.0.0, SVG Export Plug-In . SVG Version: 6.00 Build 0)  -->
<!DOCTYPE svg PUBLIC "-//W3C//DTD SVG 1.1//EN" "http://www.w3.org/Graphics/SVG/1.1/DTD/svg11.dtd">
<svg version="1.1" id="Layer_1" xmlns="http://www.w3.org/2000/svg" xmlns:xlink="http://www.w3.org/1999/xlink" x="0px" y="0px"
	 width="100px" height="100px" viewBox="0 0 100 100" enable-background="new 0 0 100 100" xml:space="preserve">
<g>
	<path d="M31.083,89.125c0.186,0.278,0.498,0.446,0.833,0.446h36.148c0.009,0,0.015,0.002,0.021,0c0.554,0,1-0.447,1-1
		c0-0.213-0.063-0.408-0.178-0.569L56.343,59.481V48.183c0-0.552-0.447-1-1-1H43.023c-0.276,0-0.541,0.115-0.73,0.317
		c-0.188,0.202-0.286,0.474-0.268,0.75l0.792,11.88L30.995,88.185C30.865,88.493,30.896,88.846,31.083,89.125z M44.75,60.688
		c0.061-0.146,0.086-0.299,0.076-0.455l-0.736-11.05h10.25v10.511c0,0.14,0.029,0.276,0.085,0.404l12.104,27.475H33.422
		L44.75,60.688z"/>
	<path d="M46.042,43.538V29.604c0-0.552-0.447-1-1-1s-1,0.448-1,1v13.934c0,0.552,0.447,1,1,1S46.042,44.089,46.042,43.538z"/>
	<path d="M50.989,40.508v-29.08c0-0.552-0.447-1-1-1c-0.553,0-1,0.448-1,1v29.081c0,0.552,0.447,1,1,1
		C50.542,41.509,50.989,41.062,50.989,40.508z"/>
	<path d="M55.532,41.519v-6.261c0-0.552-0.447-1-1-1s-1,0.448-1,1v6.261c0,0.552,0.447,1,1,1S55.532,42.07,55.532,41.519z"/>
	<path d="M54.827,71.205c0-2.667-2.17-4.837-4.836-4.837c-2.668,0-4.838,2.17-4.838,4.837s2.17,4.837,4.838,4.837
		C52.657,76.042,54.827,73.872,54.827,71.205z M49.991,74.042c-1.564,0-2.838-1.271-2.838-2.837s1.273-2.837,2.838-2.837
		c1.565,0,2.836,1.271,2.836,2.837S51.554,74.042,49.991,74.042z"/>
	<path d="M43.225,75.657c-2.444,0-4.433,1.988-4.433,4.433s1.988,4.435,4.433,4.435c2.445,0,4.433-1.988,4.433-4.435
		C47.658,77.647,45.667,75.657,43.225,75.657z M43.225,82.522c-1.342,0-2.433-1.092-2.433-2.435c0-1.342,1.091-2.433,2.433-2.433
		c1.342,0,2.433,1.091,2.433,2.433C45.658,81.433,44.565,82.522,43.225,82.522z"/>
	<path d="M54.532,75.657c-2.442,0-4.433,1.988-4.433,4.433s1.987,4.435,4.433,4.435s4.436-1.988,4.436-4.435
		C58.967,77.647,56.978,75.657,54.532,75.657z M54.532,82.522c-1.342,0-2.434-1.092-2.434-2.435c0-1.342,1.092-2.433,2.434-2.433
		s2.436,1.091,2.436,2.433C56.968,81.433,55.874,82.522,54.532,82.522z"/>
</g>
</svg>
