<?xml version="1.0" encoding="iso-8859-1"?>
<!-- Generator: Adobe Illustrator 16.0.0, SVG Export Plug-In . SVG Version: 6.00 Build 0)  -->
<!DOCTYPE svg PUBLIC "-//W3C//DTD SVG 1.1//EN" "http://www.w3.org/Graphics/SVG/1.1/DTD/svg11.dtd">
<svg version="1.1" id="Layer_1" xmlns="http://www.w3.org/2000/svg" xmlns:xlink="http://www.w3.org/1999/xlink" x="0px" y="0px"
	 width="23.95px" height="28.557px" viewBox="0 0 23.95 28.557" style="enable-background:new 0 0 23.95 28.557;"
	 xml:space="preserve">
<path d="M23.002,12.966v-1.509l-0.218-0.086c-0.074-0.029-1.848-0.717-4.212-0.717c-0.916,0-1.784,0.104-2.606,0.306l-0.009-0.538
	c0.007-0.003,0.014-0.006,0.02-0.01l-0.056-0.009c0.308-0.095,0.576-0.299,0.74-0.585c0.112-0.193,0.161-0.407,0.163-0.618
	l1.499-0.848c0.207,0.136,0.451,0.216,0.705,0.216c0.23,0,0.456-0.063,0.655-0.183c0.602-0.362,0.796-1.146,0.435-1.748
	c-0.16-0.266-0.411-0.458-0.698-0.553l-0.026-1.597c0.269-0.104,0.5-0.297,0.647-0.553c0.17-0.295,0.215-0.639,0.126-0.968
	c-0.089-0.327-0.3-0.603-0.595-0.771c-0.194-0.111-0.412-0.17-0.634-0.17c-0.277,0-0.542,0.093-0.759,0.254l-1.455-0.836
	c0.006-0.134-0.001-0.265-0.038-0.398c-0.088-0.329-0.3-0.604-0.594-0.773c-0.193-0.11-0.413-0.168-0.634-0.168
	c-0.455,0-0.878,0.245-1.105,0.64c-0.145,0.249-0.188,0.529-0.152,0.798l-1.392,0.782c-0.221-0.197-0.508-0.323-0.827-0.327h-0.018
	c-0.271,0-0.522,0.086-0.729,0.235l-1.55-0.891c0.006-0.133-0.002-0.267-0.038-0.399C9.558,0.614,9.346,0.339,9.052,0.171
	C8.859,0.061,8.639,0,8.417,0C7.962,0,7.539,0.247,7.313,0.641C7.169,0.891,7.124,1.172,7.16,1.439L5.768,2.221
	C5.54,2.018,5.251,1.898,4.941,1.894H4.923c-0.692,0-1.263,0.563-1.272,1.256C3.645,3.653,3.936,4.091,4.365,4.305l0.021,1.696
	C3.967,6.208,3.671,6.63,3.664,7.126C3.66,7.466,3.788,7.787,4.025,8.03c0.238,0.246,0.556,0.381,0.912,0.386
	c0.382,0,0.722-0.173,0.957-0.443l1.392,0.8C7.234,8.981,7.229,9.2,7.287,9.413c0.063,0.232,0.188,0.434,0.358,0.594
	c-0.006,0-0.011-0.002-0.018-0.005c0.099,0.1,0.212,0.185,0.34,0.246l0.008,0.665c-0.756-0.167-1.55-0.259-2.384-0.259
	c-2.366,0-4.139,0.688-4.212,0.718l-0.217,0.085v1.398C0.445,12.989,0,13.228,0,13.621C0,15.656,0,28.02,0,28.02h10.605
	c0.367,0.33,0.904,0.537,1.503,0.537s1.136-0.207,1.502-0.537H23.95c0,0,0-13.685,0-14.398
	C23.95,13.301,23.589,13.094,23.002,12.966z M16.063,9.477c-0.103,0.181-0.299,0.294-0.508,0.294c-0.101,0-0.201-0.026-0.29-0.079
	c-0.136-0.077-0.233-0.204-0.274-0.354c-0.041-0.152-0.021-0.31,0.058-0.444c0.155-0.271,0.526-0.373,0.799-0.216
	C16.127,8.837,16.224,9.195,16.063,9.477z M19.526,6.992c0.167,0.275,0.077,0.638-0.2,0.803c-0.09,0.057-0.194,0.085-0.299,0.085
	c-0.208,0-0.396-0.106-0.503-0.285c-0.081-0.133-0.105-0.291-0.066-0.441c0.038-0.152,0.132-0.281,0.266-0.362
	C18.994,6.63,19.366,6.725,19.526,6.992z M18.429,3.01c0.155-0.269,0.528-0.372,0.799-0.217c0.135,0.079,0.232,0.204,0.273,0.354
	c0.041,0.152,0.021,0.31-0.058,0.445c-0.104,0.18-0.299,0.294-0.508,0.294c-0.101,0-0.201-0.027-0.29-0.077
	C18.365,3.647,18.268,3.288,18.429,3.01z M14.949,1.085c0.155-0.268,0.526-0.37,0.799-0.214c0.136,0.077,0.233,0.204,0.273,0.354
	c0.041,0.151,0.021,0.309-0.058,0.444c-0.104,0.181-0.299,0.292-0.508,0.292c-0.102,0-0.203-0.025-0.291-0.076
	C14.886,1.724,14.789,1.367,14.949,1.085z M13.238,3.286c0.001-0.133-0.023-0.26-0.06-0.381l1.293-0.727
	c0.096,0.119,0.213,0.223,0.352,0.305c0.193,0.109,0.411,0.168,0.634,0.168c0.416,0,0.804-0.207,1.041-0.543l1.262,0.725
	c-0.231,0.577-0.012,1.254,0.543,1.572c0.125,0.071,0.262,0.12,0.403,0.145l0.024,1.509c-0.126,0.03-0.249,0.076-0.361,0.144
	c-0.291,0.176-0.497,0.454-0.58,0.784c-0.07,0.281-0.037,0.569,0.081,0.829l-1.236,0.701c-0.107-0.175-0.253-0.326-0.442-0.436
	c-0.193-0.112-0.413-0.17-0.635-0.17c-0.336,0-0.656,0.135-0.891,0.365l-1.436-0.825c0.009-0.063,0.021-0.125,0.021-0.188
	c0.007-0.568-0.361-1.049-0.871-1.219l-0.025-1.569C12.859,4.31,13.23,3.842,13.238,3.286z M12.562,7.255
	c-0.004,0.316-0.266,0.574-0.592,0.574c-0.156-0.002-0.303-0.063-0.412-0.177c-0.108-0.111-0.168-0.26-0.166-0.415
	c0.005-0.318,0.267-0.578,0.585-0.578V6.336h0l0.006,0.323C12.307,6.663,12.566,6.932,12.562,7.255z M11.963,2.685V2.341
	l0.009,0.344c0.322,0.004,0.582,0.271,0.577,0.595c-0.004,0.315-0.267,0.576-0.592,0.576c-0.323-0.006-0.583-0.271-0.578-0.594
	C11.383,2.943,11.645,2.685,11.963,2.685z M7.91,0.983c0.154-0.268,0.525-0.371,0.799-0.215c0.136,0.078,0.233,0.204,0.273,0.353
	c0.041,0.152,0.021,0.31-0.057,0.445C8.82,1.749,8.626,1.859,8.417,1.859c-0.101,0-0.202-0.026-0.291-0.076
	C7.846,1.621,7.75,1.262,7.91,0.983z M4.339,3.159c0.005-0.317,0.267-0.576,0.584-0.576V2.237l0.009,0.346
	c0.156,0,0.302,0.065,0.412,0.176c0.108,0.113,0.167,0.26,0.166,0.416C5.506,3.493,5.243,3.752,4.917,3.752
	C4.594,3.748,4.335,3.48,4.339,3.159z M4.93,7.729L4.93,7.729C4.774,7.726,4.627,7.662,4.519,7.553
	C4.41,7.439,4.351,7.29,4.353,7.135c0.004-0.317,0.266-0.577,0.584-0.577V6.232h0l0.007,0.325c0.322,0.005,0.582,0.271,0.578,0.594
	C5.518,7.47,5.256,7.729,4.93,7.729z M7.625,8.174L6.19,7.348C6.2,7.286,6.21,7.225,6.211,7.159
	c0.008-0.661-0.494-1.206-1.138-1.276L5.055,4.429C5.688,4.362,6.19,3.832,6.198,3.183C6.2,3.052,6.177,2.925,6.139,2.802
	l1.293-0.726C7.527,2.194,7.644,2.3,7.783,2.379C7.975,2.489,8.195,2.55,8.417,2.55c0.416,0,0.804-0.207,1.042-0.544l1.335,0.766
	c-0.063,0.148-0.101,0.312-0.103,0.481c-0.006,0.504,0.285,0.941,0.715,1.152l0.019,1.697c-0.419,0.207-0.715,0.629-0.721,1.126
	C10.701,7.402,10.736,7.573,10.8,7.73L9.593,8.415C9.487,8.24,9.34,8.087,9.151,7.979c-0.193-0.111-0.413-0.17-0.634-0.17
	C8.18,7.809,7.861,7.943,7.625,8.174z M7.952,9.234C7.911,9.084,7.931,8.927,8.009,8.79c0.155-0.269,0.527-0.372,0.799-0.215
	c0.28,0.159,0.377,0.519,0.216,0.799C8.92,9.554,8.725,9.667,8.516,9.667c-0.102,0-0.201-0.026-0.291-0.077
	C8.089,9.512,7.993,9.386,7.952,9.234z M11.967,26.886c-0.88-0.364-3.913-1.519-6.95-1.519c-1.199,0-2.262,0.185-3.168,0.549V11.935
	c0.528-0.178,1.969-0.594,3.743-0.594c2.331,0,4.335,0.705,5.972,2.08v8.347l0.403-0.446V26.886z M12.082,12.948
	c-1.01-0.866-2.156-1.48-3.418-1.856L8.65,10.348c-0.001,0-0.002-0.001-0.003-0.001c0.403-0.042,0.769-0.273,0.974-0.631
	C9.733,9.522,9.782,9.31,9.784,9.1l1.45-0.823c0.211,0.152,0.465,0.238,0.744,0.242c0.381,0,0.722-0.175,0.956-0.443l1.392,0.8
	c-0.052,0.209-0.056,0.429,0.001,0.642c0.075,0.277,0.242,0.512,0.468,0.682l-0.03-0.007c0.075,0.063,0.155,0.117,0.244,0.16
	l0.01,0.889C13.944,11.624,12.962,12.193,12.082,12.948z M22.315,25.919c-0.973-0.391-2.089-0.588-3.327-0.588
	c-3.036,0-5.924,1.162-6.792,1.546v-5.556l0.404,0.446v-8.347c1.636-1.375,3.641-2.08,5.972-2.08c1.769,0,3.213,0.416,3.743,0.594
	V25.919z"/>
<g>
</g>
<g>
</g>
<g>
</g>
<g>
</g>
<g>
</g>
<g>
</g>
<g>
</g>
<g>
</g>
<g>
</g>
<g>
</g>
<g>
</g>
<g>
</g>
<g>
</g>
<g>
</g>
<g>
</g>
</svg>
