<?xml version="1.0" encoding="iso-8859-1"?>
<!-- Generator: Adobe Illustrator 16.0.0, SVG Export Plug-In . SVG Version: 6.00 Build 0)  -->
<!DOCTYPE svg PUBLIC "-//W3C//DTD SVG 1.1//EN" "http://www.w3.org/Graphics/SVG/1.1/DTD/svg11.dtd">
<svg version="1.1" id="Layer_1" xmlns="http://www.w3.org/2000/svg" xmlns:xlink="http://www.w3.org/1999/xlink" x="0px" y="0px"
	 width="31.314px" height="30.387px" viewBox="0 0 31.314 30.387" style="enable-background:new 0 0 31.314 30.387;"
	 xml:space="preserve">
<g>
	<rect x="23.698" y="14.787" width="5.051" height="1.879"/>
	<polygon points="2.932,0 2.932,2.953 4.222,2.555 4.222,1.29 30.023,1.29 30.023,17.738 9.492,17.738 9.425,19.027 31.314,19.027 
		31.314,0 	"/>
	<circle cx="4.984" cy="7.063" r="3.822"/>
	<path d="M8.228,28.641v-6.802v-0.642v-0.87h0.243l0.355-6.905l6.59-3.414L15.123,9.44l0.813-0.563
		c0.085,0.085,0.18,0.158,0.292,0.194l0.017,0.913c-0.154,0.06-0.286,0.168-0.371,0.315c-0.097,0.168-0.122,0.364-0.071,0.552
		c0.051,0.188,0.171,0.344,0.341,0.441c0.108,0.063,0.234,0.097,0.36,0.097c0.159,0,0.311-0.052,0.433-0.144l0.831,0.477
		c-0.005,0.076,0.001,0.152,0.021,0.228c0.051,0.188,0.171,0.344,0.339,0.44c0.111,0.064,0.236,0.097,0.361,0.097
		c0.261,0,0.503-0.14,0.631-0.365c0.084-0.143,0.108-0.303,0.088-0.456l0.794-0.446c0.127,0.112,0.29,0.184,0.472,0.186h0.011
		c0.154,0,0.298-0.05,0.416-0.135l0.885,0.509c-0.004,0.076,0,0.152,0.021,0.228c0.05,0.188,0.171,0.344,0.341,0.441
		c0.108,0.063,0.234,0.097,0.36,0.097c0.26,0,0.501-0.14,0.631-0.364c0.082-0.144,0.108-0.304,0.088-0.456l0.792-0.447
		c0.132,0.117,0.297,0.185,0.473,0.187h0.011c0.395,0,0.721-0.321,0.727-0.717c0.003-0.288-0.162-0.537-0.408-0.658l-0.01-0.97
		c0.237-0.117,0.406-0.359,0.41-0.641c0.002-0.194-0.07-0.377-0.206-0.517c-0.136-0.139-0.316-0.217-0.521-0.22
		c-0.218,0-0.411,0.1-0.545,0.254L23.153,7.54c0.03-0.119,0.033-0.245-0.001-0.366c-0.034-0.132-0.107-0.248-0.204-0.339
		c0.004,0.001,0.007,0.002,0.011,0.003c-0.058-0.057-0.121-0.105-0.194-0.141l-0.012-0.97c0.239-0.117,0.408-0.359,0.411-0.641
		c0.004-0.195-0.07-0.378-0.205-0.518c-0.136-0.139-0.316-0.217-0.521-0.22c-0.218,0-0.411,0.1-0.545,0.254l-0.795-0.457
		c0.03-0.12,0.033-0.245-0.001-0.366c-0.05-0.188-0.17-0.344-0.341-0.441c-0.108-0.063-0.232-0.097-0.359-0.097
		c-0.261,0-0.502,0.14-0.632,0.365c-0.064,0.111-0.092,0.232-0.093,0.353l-0.827,0.469c-0.121-0.087-0.266-0.136-0.425-0.138
		c-0.218,0-0.46,0.126-0.545,0.253c-0.061,0.08-0.243,0.234-0.185,0.621c0.059,0.387,0.346,0.486,0.5,0.538l0.015,0.895
		c-0.004,0.001-0.008,0.004-0.012,0.005l0.032,0.006c-0.176,0.053-0.328,0.17-0.421,0.333c-0.065,0.111-0.094,0.233-0.095,0.353
		l-0.854,0.485c-0.118-0.078-0.259-0.123-0.403-0.123c-0.131,0-0.26,0.036-0.375,0.104c-0.238,0.145-0.356,0.407-0.342,0.668
		l-0.838,0.58l-0.348-0.67l-6.025,3.122H6.374l-1.455,1.689L3.51,11.459l-3.099,0.618l-0.196,6.825h1.312l0.071,1.426h0.2v0.87
		v0.642v6.802H1.535L0,28.974v1.413h1.307l1.523-0.249l0.014,0.249h1.688v-1.575v-0.171v-6.802h0.961v6.802v0.171v1.575h1.688
		l0.014-0.249l1.524,0.249h1.306v-1.413l-1.534-0.333H8.228z M16.795,10.829c-0.089,0.154-0.302,0.212-0.457,0.123
		c-0.076-0.044-0.133-0.116-0.156-0.202c-0.023-0.086-0.012-0.176,0.033-0.254c0.061-0.103,0.171-0.167,0.29-0.167
		c0.058,0,0.114,0.016,0.167,0.045C16.83,10.464,16.885,10.669,16.795,10.829z M18.78,11.927c-0.09,0.153-0.301,0.211-0.457,0.123
		c-0.077-0.045-0.132-0.116-0.155-0.203c-0.023-0.086-0.012-0.176,0.033-0.253c0.06-0.104,0.171-0.168,0.289-0.168
		c0.059,0,0.116,0.016,0.166,0.044C18.816,11.562,18.871,11.767,18.78,11.927z M20.484,11.014v0.196l-0.006-0.196
		c-0.183-0.002-0.331-0.154-0.328-0.338c0.002-0.182,0.151-0.329,0.337-0.329c0.186,0.002,0.334,0.154,0.33,0.338
		C20.815,10.866,20.667,11.014,20.484,11.014z M20.473,8.745c-0.185-0.002-0.332-0.155-0.33-0.339
		c0.003-0.181,0.152-0.33,0.338-0.33c0.09,0.001,0.173,0.038,0.235,0.101c0.063,0.064,0.096,0.149,0.094,0.239
		c-0.001,0.181-0.152,0.329-0.332,0.329V8.93L20.473,8.745z M22.798,11.985c-0.088,0.153-0.3,0.213-0.457,0.123
		c-0.076-0.044-0.132-0.116-0.155-0.202s-0.011-0.176,0.033-0.253c0.059-0.104,0.171-0.168,0.29-0.168
		c0.058,0,0.114,0.016,0.166,0.044C22.835,11.621,22.889,11.826,22.798,11.985z M24.835,10.743c-0.001,0.182-0.151,0.33-0.333,0.33
		v0.197l-0.005-0.197c-0.09-0.001-0.173-0.037-0.234-0.101c-0.063-0.064-0.097-0.148-0.096-0.238c0.003-0.182,0.152-0.33,0.339-0.33
		C24.689,10.407,24.838,10.559,24.835,10.743z M24.499,8.135c0.088,0.002,0.172,0.038,0.233,0.102
		c0.063,0.064,0.098,0.148,0.095,0.237c-0.001,0.182-0.151,0.329-0.333,0.329v0.185L24.49,8.803
		c-0.184-0.002-0.332-0.154-0.33-0.337C24.162,8.283,24.312,8.135,24.499,8.135z M22.96,7.881l0.818,0.471
		c-0.005,0.035-0.011,0.071-0.011,0.108c-0.005,0.377,0.281,0.689,0.647,0.729l0.012,0.831c-0.36,0.038-0.648,0.34-0.651,0.71
		c-0.002,0.076,0.011,0.148,0.033,0.218l-0.738,0.414c-0.055-0.067-0.121-0.127-0.201-0.172c-0.108-0.064-0.234-0.097-0.36-0.097
		c-0.238,0-0.459,0.118-0.595,0.311l-0.762-0.438c0.037-0.084,0.057-0.177,0.059-0.274c0.003-0.287-0.162-0.536-0.408-0.657
		l-0.011-0.97c0.239-0.116,0.407-0.359,0.412-0.642c0.001-0.1-0.019-0.197-0.057-0.286l0.689-0.391
		c0.061,0.099,0.145,0.187,0.253,0.249c0.109,0.063,0.235,0.096,0.362,0.096C22.644,8.089,22.826,8.013,22.96,7.881z M22.774,7.276
		c0.023,0.086,0.011,0.176-0.032,0.253c-0.09,0.153-0.302,0.212-0.458,0.123c-0.158-0.092-0.215-0.296-0.122-0.456
		c0.06-0.103,0.17-0.167,0.29-0.167c0.059,0,0.114,0.015,0.166,0.045C22.694,7.118,22.751,7.189,22.774,7.276z M22.443,4.742
		c0.088,0,0.172,0.037,0.234,0.101c0.062,0.064,0.095,0.148,0.095,0.238c-0.003,0.182-0.153,0.329-0.335,0.329h-0.004
		c-0.184-0.002-0.332-0.154-0.33-0.338C22.106,4.889,22.256,4.742,22.443,4.742z M20.106,3.802c0.059-0.104,0.169-0.167,0.29-0.167
		c0.059,0,0.114,0.016,0.165,0.044c0.077,0.045,0.133,0.117,0.157,0.203c0.022,0.086,0.012,0.176-0.033,0.253
		c-0.09,0.154-0.302,0.212-0.458,0.123C20.068,4.167,20.014,3.962,20.106,3.802z M19.147,5.027c0.001-0.1-0.019-0.197-0.057-0.288
		l0.688-0.39c0.063,0.099,0.146,0.188,0.254,0.25c0.11,0.063,0.236,0.096,0.361,0.096c0.192,0,0.375-0.077,0.509-0.208l0.819,0.471
		c-0.006,0.036-0.012,0.071-0.013,0.108c-0.004,0.377,0.282,0.689,0.65,0.729l0.014,0.846c0.002,0,0.002,0,0.003,0
		C22.147,6.664,21.938,6.797,21.821,7c-0.065,0.111-0.092,0.232-0.094,0.353L20.9,7.822c-0.121-0.086-0.266-0.136-0.424-0.138
		c-0.219,0-0.413,0.099-0.545,0.253l-0.796-0.457c0.031-0.12,0.033-0.245,0-0.367c-0.044-0.158-0.138-0.292-0.267-0.389l0.017,0.002
		c-0.044-0.034-0.088-0.065-0.14-0.09l-0.01-0.97C18.975,5.552,19.144,5.309,19.147,5.027z M18.086,5.012
		c0.004-0.182,0.153-0.329,0.339-0.329c0.09,0.001,0.172,0.038,0.235,0.101c0.062,0.064,0.096,0.148,0.094,0.237
		c-0.002,0.181-0.152,0.33-0.333,0.33h-0.005C18.231,5.349,18.084,5.196,18.086,5.012z M18.144,7.138
		c0.061-0.104,0.171-0.167,0.291-0.167c0.058,0,0.114,0.015,0.165,0.044c0.078,0.045,0.134,0.116,0.156,0.203
		c0.024,0.086,0.013,0.175-0.032,0.253c-0.089,0.153-0.302,0.212-0.456,0.123C18.107,7.501,18.053,7.297,18.144,7.138z
		 M17.158,8.559c0.041-0.16,0.022-0.325-0.046-0.474l0.706-0.4c0.061,0.1,0.146,0.187,0.253,0.249
		c0.11,0.064,0.235,0.097,0.362,0.097c0.191,0,0.375-0.077,0.508-0.208l0.82,0.471c-0.006,0.036-0.012,0.071-0.013,0.108
		c-0.003,0.323,0.207,0.598,0.497,0.696l0.015,0.895c-0.288,0.093-0.5,0.361-0.504,0.678c-0.001,0.076,0.013,0.148,0.034,0.218
		l-0.737,0.414c-0.056-0.067-0.122-0.128-0.202-0.173c-0.108-0.063-0.233-0.096-0.361-0.096c-0.237,0-0.459,0.118-0.593,0.31
		l-0.72-0.413c0.131-0.331,0.006-0.716-0.312-0.898c-0.071-0.041-0.15-0.068-0.229-0.083l-0.014-0.86
		c0.072-0.017,0.141-0.043,0.204-0.082C16.994,8.906,17.112,8.748,17.158,8.559z M16.281,8.097c0.053-0.031,0.112-0.048,0.172-0.048
		c0.119,0,0.227,0.061,0.286,0.162c0.047,0.077,0.06,0.167,0.038,0.253c-0.021,0.086-0.075,0.159-0.152,0.205
		c-0.152,0.093-0.366,0.04-0.457-0.114C16.073,8.397,16.124,8.191,16.281,8.097z"/>
</g>
<g>
</g>
<g>
</g>
<g>
</g>
<g>
</g>
<g>
</g>
<g>
</g>
<g>
</g>
<g>
</g>
<g>
</g>
<g>
</g>
<g>
</g>
<g>
</g>
<g>
</g>
<g>
</g>
<g>
</g>
</svg>
