<?xml version="1.0" encoding="iso-8859-1"?>
<!-- Generator: Adobe Illustrator 16.0.0, SVG Export Plug-In . SVG Version: 6.00 Build 0)  -->
<!DOCTYPE svg PUBLIC "-//W3C//DTD SVG 1.1//EN" "http://www.w3.org/Graphics/SVG/1.1/DTD/svg11.dtd">
<svg version="1.1" id="Layer_1" xmlns="http://www.w3.org/2000/svg" xmlns:xlink="http://www.w3.org/1999/xlink" x="0px" y="0px"
	 width="48.541px" height="30.793px" viewBox="0 0 48.541 30.793" style="enable-background:new 0 0 48.541 30.793;"
	 xml:space="preserve">
<g>
	<path d="M24.438,14.848c0-1.398-2.359-2.532-5.271-2.532s-5.271,1.134-5.271,2.532c0,0.093,0.037,0.182,0.058,0.272
		c-0.93,0.206-1.567,0.604-1.567,1.067c0,0.673,1.331,1.219,2.975,1.219c0.648,0,1.243-0.087,1.731-0.231
		c0.638,0.131,1.338,0.205,2.075,0.205C22.078,17.38,24.438,16.247,24.438,14.848z"/>
	<path d="M29.396,17.443c0.25,0,0.485-0.024,0.698-0.064c0.265,0.33,0.736,0.602,1.327,0.782c-0.214,0.098-0.348,0.227-0.348,0.368
		c0,0.307,0.606,0.556,1.355,0.556s1.355-0.249,1.355-0.556c0-0.06-0.029-0.117-0.072-0.171c1.438-0.159,2.516-0.815,2.516-1.603
		c0-0.906-1.427-1.641-3.188-1.641c-0.495,0-0.957,0.063-1.375,0.167c-0.29-0.258-0.826-0.434-1.447-0.434
		c-0.927,0-1.678,0.386-1.678,0.863c0,0.149,0.08,0.288,0.21,0.41c-0.606,0.104-1.032,0.348-1.032,0.634
		C27.718,17.136,28.469,17.443,29.396,17.443z"/>
	<ellipse cx="22.749" cy="18.824" rx="1.521" ry="0.624"/>
	<path d="M47.554,14.849c0.396-0.887,0.61-1.813,0.61-2.769C48.164,5.306,37.723,0,24.394,0S0.623,5.306,0.623,12.08
		c0,0.875,0.178,1.725,0.51,2.542C0.4,15.821,0,17.109,0,18.464c0,7.029,10.434,12.329,24.271,12.329s24.271-5.3,24.271-12.329
		C48.541,17.195,48.195,15.983,47.554,14.849z M24.271,26.628C12.669,26.628,4,22.318,4,18.464c0-0.033,0.001-0.059,0.001-0.089
		c4.121,3.494,11.633,5.786,20.393,5.786c8.58,0,15.959-2.201,20.131-5.575C44.345,22.408,35.751,26.628,24.271,26.628z
		 M4.979,15.171c3.416-3.029,10.874-5.188,19.292-5.188c8.536,0,16.087,2.22,19.435,5.317c-2.902,3.191-9.945,5.86-19.312,5.86
		C14.903,21.16,7.808,18.419,4.979,15.171z M44.809,13.65c-3.884-3.4-11.537-5.667-20.538-5.667c-8.857,0-16.408,2.196-20.348,5.506
		c-0.186-0.469-0.3-0.941-0.3-1.41C3.623,7.695,11.969,3,24.394,3s20.771,4.695,20.771,9.08
		C45.164,12.602,45.038,13.128,44.809,13.65z"/>
</g>
<g>
</g>
<g>
</g>
<g>
</g>
<g>
</g>
<g>
</g>
<g>
</g>
<g>
</g>
<g>
</g>
<g>
</g>
<g>
</g>
<g>
</g>
<g>
</g>
<g>
</g>
<g>
</g>
<g>
</g>
</svg>
