<?xml version="1.0" encoding="iso-8859-1"?>
<!-- Generator: Adobe Illustrator 16.0.0, SVG Export Plug-In . SVG Version: 6.00 Build 0)  -->
<!DOCTYPE svg PUBLIC "-//W3C//DTD SVG 1.1//EN" "http://www.w3.org/Graphics/SVG/1.1/DTD/svg11.dtd">
<svg version="1.1" id="Layer_1" xmlns="http://www.w3.org/2000/svg" xmlns:xlink="http://www.w3.org/1999/xlink" x="0px" y="0px"
	 width="23.95px" height="28.642px" viewBox="0 0 23.95 28.642" style="enable-background:new 0 0 23.95 28.642;"
	 xml:space="preserve">
<path d="M23.001,13.051v-1.509l-0.217-0.086c-0.069-0.026-1.655-0.641-3.821-0.71c-0.408-0.723-1.166-2.048-1.95-3.203
	c-0.292-0.429-0.586-0.83-0.853-1.193c-0.426-0.581-0.956-1.302-0.96-1.517c0.032-0.941,0.009-3.169,0.002-3.857h0.556V0H8.727
	v0.976h0.737c-0.008,0.688-0.03,2.916,0.003,3.856C9.461,5.048,8.931,5.769,8.505,6.35C8.239,6.713,7.944,7.114,7.652,7.543
	c-0.783,1.152-1.54,2.478-1.948,3.2c-0.038,0-0.075-0.003-0.113-0.003c-2.364,0-4.137,0.688-4.211,0.718l-0.217,0.084v1.397
	C0.446,13.074,0,13.314,0,13.706c0,2.037,0,14.398,0,14.398h10.605c0.367,0.329,0.903,0.537,1.503,0.537
	c0.6,0,1.137-0.208,1.503-0.537H23.95c0,0,0-13.686,0-14.398C23.95,13.386,23.589,13.179,23.001,13.051z M8.321,7.998
	c0.286-0.421,0.574-0.814,0.835-1.171c0.744-1.016,1.133-1.564,1.118-2.021c-0.03-0.838-0.014-2.786-0.005-3.629h4.126
	c0.009,0.843,0.026,2.791-0.003,3.629c-0.016,0.457,0.372,1.006,1.117,2.021c0.261,0.356,0.55,0.75,0.836,1.171
	c0.646,0.95,1.274,2.021,1.697,2.762c-0.113,0.005-0.227,0.005-0.338,0.014c-0.251-0.437-0.602-1.028-0.963-1.56
	c-0.131-0.193-0.261-0.371-0.386-0.543H8.31c-0.124,0.172-0.254,0.35-0.385,0.543c-0.375,0.551-0.74,1.171-0.992,1.611
	c-0.108-0.014-0.215-0.029-0.325-0.039C7.03,10.044,7.666,8.959,8.321,7.998z M11.967,26.97c-0.88-0.363-3.913-1.517-6.95-1.517
	c-1.2,0-2.263,0.184-3.169,0.547V12.019c0.529-0.176,1.969-0.593,3.742-0.593c2.333,0,4.337,0.706,5.973,2.081v8.345l0.404-0.445
	V26.97z M22.315,26.004c-0.974-0.39-2.089-0.588-3.327-0.588c-3.036,0-5.925,1.163-6.792,1.546v-5.556l0.404,0.445v-8.345
	c1.636-1.375,3.641-2.081,5.972-2.081c1.768,0,3.213,0.417,3.743,0.593V26.004z"/>
<g>
</g>
<g>
</g>
<g>
</g>
<g>
</g>
<g>
</g>
<g>
</g>
<g>
</g>
<g>
</g>
<g>
</g>
<g>
</g>
<g>
</g>
<g>
</g>
<g>
</g>
<g>
</g>
<g>
</g>
</svg>
