<?xml version="1.0" encoding="utf-8"?>
<!-- Generator: Adobe Illustrator 16.0.0, SVG Export Plug-In . SVG Version: 6.00 Build 0)  -->
<!DOCTYPE svg PUBLIC "-//W3C//DTD SVG 1.1//EN" "http://www.w3.org/Graphics/SVG/1.1/DTD/svg11.dtd">
<svg version="1.1" id="Layer_1" xmlns="http://www.w3.org/2000/svg" xmlns:xlink="http://www.w3.org/1999/xlink" x="0px" y="0px"
	 width="50px" height="50px" viewBox="0 0 50 50" enable-background="new 0 0 50 50" xml:space="preserve">
<g>
	<path d="M36.917,31.591H13.083L7.493,38.3c-0.578,0.691-0.088,1.734,0.811,1.734h33.392c0.9,0,1.386-1.046,0.811-1.735
		L36.917,31.591z"/>
	<path d="M47.409,34.211L34.352,18.547V9.624c1.109-0.591,1.779-1.555,1.779-2.697c0-1.937-1.875-3.341-4.451-3.341H18.32
		c-2.576,0-4.451,1.404-4.451,3.341c0,1.143,0.67,2.106,1.779,2.697v8.923L2.591,34.211c-3.346,4.019-2.733,6.993-2.07,8.411
		c0.666,1.417,2.558,3.793,7.783,3.793h33.392c5.225,0,7.117-2.376,7.783-3.793C50.142,41.204,50.755,38.23,47.409,34.211z
		 M45.446,40.731c-0.264,0.571-1.407,1.232-3.75,1.232H8.304c-2.343,0-3.486-0.661-3.75-1.232c-0.266-0.566-0.044-1.866,1.457-3.669
		l14.087-16.903V8.038h9.805v12.122l14.087,16.903C45.49,38.865,45.711,40.165,45.446,40.731z"/>
</g>
</svg>
