<?xml version="1.0" encoding="iso-8859-1"?>
<!-- Generator: Adobe Illustrator 16.0.0, SVG Export Plug-In . SVG Version: 6.00 Build 0)  -->
<!DOCTYPE svg PUBLIC "-//W3C//DTD SVG 1.1//EN" "http://www.w3.org/Graphics/SVG/1.1/DTD/svg11.dtd">
<svg version="1.1" id="Layer_1" xmlns="http://www.w3.org/2000/svg" xmlns:xlink="http://www.w3.org/1999/xlink" x="0px" y="0px"
	 width="33px" height="43.703px" viewBox="0 0 33 43.703" style="enable-background:new 0 0 33 43.703;" xml:space="preserve">
<g>
	<path d="M24.039,12.541V4h4.5V0h-8.5v11.095c-0.004-0.001-0.009-0.002-0.013-0.003v4.126C25.206,16.745,29,21.536,29,27.203
		c0,6.893-5.607,12.5-12.5,12.5S4,34.096,4,27.203c0-5.664,3.789-10.452,8.963-11.982v-4.126c-0.001,0-0.001,0-0.002,0V0.125h-8.5v4
		h4.5v8.416C3.646,15.282,0,20.821,0,27.203c0,9.098,7.402,16.5,16.5,16.5S33,36.301,33,27.203
		C33,20.821,29.354,15.282,24.039,12.541z"/>
	<path d="M5.026,27.338c0,6.38,5.172,11.552,11.552,11.552s11.552-5.172,11.552-11.552c-4.251,1.386-7.886-2.367-12.507-0.025
		C11.002,29.654,8.784,30.019,5.026,27.338z M24.046,29.511c0.949,0,1.719,0.77,1.719,1.719s-0.77,1.719-1.719,1.719
		c-0.95,0-1.719-0.77-1.719-1.719S23.097,29.511,24.046,29.511z M20.057,35.192c0.308,0,0.558,0.25,0.558,0.558
		c0,0.308-0.25,0.558-0.558,0.558c-0.308,0-0.558-0.25-0.558-0.558C19.5,35.442,19.75,35.192,20.057,35.192z M18.984,30.066
		c0.285,0,0.516,0.231,0.516,0.516s-0.231,0.516-0.516,0.516s-0.516-0.231-0.516-0.516S18.699,30.066,18.984,30.066z M16.156,34.583
		c0.859,0,1.557,0.698,1.557,1.557s-0.698,1.557-1.557,1.557S14.599,37,14.599,36.14S15.296,34.583,16.156,34.583z M15,32.292
		c0.285,0,0.516,0.231,0.516,0.516S15.284,33.323,15,33.323s-0.516-0.231-0.516-0.516S14.715,32.292,15,32.292z M11.234,32.16
		c0,0.587-0.476,1.063-1.063,1.063s-1.063-0.476-1.063-1.063s0.476-1.063,1.063-1.063S11.234,31.573,11.234,32.16z"/>
</g>
<g>
</g>
<g>
</g>
<g>
</g>
<g>
</g>
<g>
</g>
<g>
</g>
<g>
</g>
<g>
</g>
<g>
</g>
<g>
</g>
<g>
</g>
<g>
</g>
<g>
</g>
<g>
</g>
<g>
</g>
</svg>
