<?xml version="1.0" encoding="utf-8"?>
<!-- Generator: Adobe Illustrator 17.0.0, SVG Export Plug-In . SVG Version: 6.00 Build 0)  -->
<!DOCTYPE svg PUBLIC "-//W3C//DTD SVG 1.1//EN" "http://www.w3.org/Graphics/SVG/1.1/DTD/svg11.dtd">
<svg version="1.1" id="Layer_1" xmlns="http://www.w3.org/2000/svg" xmlns:xlink="http://www.w3.org/1999/xlink" x="0px" y="0px"
	 width="32px" height="32px" viewBox="0 0 32 32" enable-background="new 0 0 32 32" xml:space="preserve">
<g>
	<path d="M21.136,15.977V3.431H18.68l0.572-3.201H11.87L12.3,3.431H9.714v12.532c-2.581,2.06-6.882,6.935-6.882,10.751v0.407
		c0,4.951,4.244,4.951,7.341,4.951l1.041-0.001l10.609,0.001c1.891,0,3.561-0.048,4.878-0.636c1.634-0.729,2.462-2.181,2.462-4.315
		v-0.407C29.164,23.415,26.202,19.43,21.136,15.977z M26.87,27.122c0,1.521-0.529,1.967-1.102,2.225
		c-0.904,0.402-2.379,0.436-3.944,0.436l-10.609-0.001l-1.038,0.001c-4.155,0-5.05-0.472-5.05-2.661v-0.407
		c0-2.793,3.855-7.42,6.401-9.255l0.481-0.344V5.726h0.6l0.155,1.147h5.302l0.206-1.147h0.57v11.476l0.521,0.34
		c4.556,3.012,7.507,6.612,7.507,9.172V27.122z"/>
	<path d="M18.002,18.342H12.66c0,0-7.253,5.218-5.536,8.844c0,0,0.644,0.768,2.636,0.736c1.566-0.025,13.967,0.029,13.967,0.029
		s2.505,0.005,1.528-1.993C24.709,24.844,22.368,20.062,18.002,18.342z"/>
	<circle cx="16.456" cy="14.931" r="0.895"/>
	<circle cx="13.923" cy="11.102" r="0.716"/>
	<circle cx="15.784" cy="8.525" r="0.644"/>
</g>
</svg>
