<?xml version="1.0" encoding="utf-8"?>
<!-- Generator: Adobe Illustrator 17.1.0, SVG Export Plug-In . SVG Version: 6.00 Build 0)  -->
<!DOCTYPE svg PUBLIC "-//W3C//DTD SVG 1.1//EN" "http://www.w3.org/Graphics/SVG/1.1/DTD/svg11.dtd">
<svg version="1.1" id="Capa_1" xmlns="http://www.w3.org/2000/svg" xmlns:xlink="http://www.w3.org/1999/xlink" x="0px" y="0px"
	 width="1000px" height="1000px" viewBox="0 0 1000 1000" enable-background="new 0 0 1000 1000" xml:space="preserve">
<path d="M343.904,657.67L172.369,824.175v71.557h655.262v-71.557L656.096,657.67H343.904z M789.631,857.732H210.369v-17.484
	L359.314,695.67h281.371l148.945,144.577V857.732z"/>
<path d="M104.563,960.996h790.873V789.892L626.115,531.738c-0.556-0.521-0.886-1.286-0.886-2.078l0.095-219.991l34.067,0.083
	l0.084-144.493h-128.01c-5.581-31.908-33.468-56.244-66.949-56.244c-33.482,0-61.369,24.336-66.95,56.244h-56.863l0.067,144.674
	l34.002-0.119V529.66c0,0.792-0.33,1.557-0.908,2.098L104.563,789.892V960.996z M464.516,142.015
	c15.173,0,28.115,9.712,32.952,23.244h-65.904C436.399,151.728,449.342,142.015,464.516,142.015z M139.703,805.238l270.208-259.358
	V280.042l-34.373,0.057l0.15-79.701h243.657l-0.07,78.872l-29.009,0.027c-0.028,7.513-0.057,31.663-0.086,72.045l-0.002,2.621h-94.3
	v35.139h94.278l-0.025,45.632h-94.254v35.139h94.238l-0.017,45.632h-94.221v35.139h99.18l265.238,254.594v120.619H139.703V805.238z"
	/>
<path d="M357.991,90.438c0-37.487-30.498-67.985-67.985-67.985c-37.486,0-67.984,30.498-67.984,67.985s30.498,67.985,67.984,67.985
	C327.493,158.423,357.991,127.925,357.991,90.438z M255.021,90.438c0-19.291,15.694-34.985,34.984-34.985
	c19.291,0,34.985,15.694,34.985,34.985s-15.694,34.985-34.985,34.985C270.716,125.423,255.021,109.729,255.021,90.438z"/>
</svg>
