<?xml version="1.0" encoding="iso-8859-1"?>
<!-- Generator: Adobe Illustrator 16.0.0, SVG Export Plug-In . SVG Version: 6.00 Build 0)  -->
<!DOCTYPE svg PUBLIC "-//W3C//DTD SVG 1.1//EN" "http://www.w3.org/Graphics/SVG/1.1/DTD/svg11.dtd">
<svg version="1.1" id="Layer_1" xmlns="http://www.w3.org/2000/svg" xmlns:xlink="http://www.w3.org/1999/xlink" x="0px" y="0px"
	 width="28.704px" height="28.262px" viewBox="0 0 28.704 28.262" style="enable-background:new 0 0 28.704 28.262;"
	 xml:space="preserve">
<g>
	<path d="M28.138,22.412l-0.193-0.341c-0.725-1.292-2.421-4.313-4.174-6.891c-0.588-0.864-1.18-1.671-1.716-2.402
		c-0.857-1.169-1.923-2.622-1.935-3.053c0.064-1.896,0.021-6.377,0.005-7.762h1.12V0H7.096v1.964H8.58
		C8.562,3.349,8.52,7.83,8.584,9.723c-0.011,0.434-1.077,1.887-1.936,3.056c-0.534,0.73-1.127,1.538-1.716,2.402
		c-1.752,2.578-3.448,5.599-4.173,6.891l-0.193,0.341c-0.747,1.318-0.755,3.118-0.023,4.373c0.556,0.953,1.447,1.478,2.506,1.478
		l0,0h22.604h0.002c1.06,0,1.951-0.525,2.506-1.478C28.893,25.53,28.885,23.73,28.138,22.412z M26.756,25.966
		c-0.259,0.446-0.629,0.671-1.103,0.671H3.049c-0.471,0-0.841-0.226-1.101-0.671c-0.441-0.755-0.428-1.94,0.033-2.752l0.194-0.35
		c0.715-1.272,2.389-4.25,4.104-6.77c0.574-0.849,1.156-1.638,1.682-2.356c1.497-2.043,2.278-3.149,2.248-4.068
		c-0.059-1.686-0.027-5.607-0.008-7.301h8.304c0.017,1.694,0.05,5.615-0.008,7.301c-0.032,0.918,0.749,2.025,2.247,4.068
		c0.525,0.718,1.105,1.508,1.682,2.356c1.715,2.521,3.388,5.498,4.103,6.77l0.194,0.35C27.184,24.026,27.198,25.211,26.756,25.966z"
		/>
	<path d="M25.678,22.59c-0.426-0.757-1.424-2.534-2.454-4.049c-0.264-0.388-0.525-0.749-0.776-1.093H6.258
		c-0.251,0.344-0.512,0.705-0.775,1.093c-1.029,1.515-2.029,3.292-2.455,4.049l-0.112,0.202c-0.438,0.775-0.444,1.831-0.014,2.571
		c0.327,0.559,0.851,0.868,1.473,0.868h1.419h5.251h6.618h5.284h1.386c0.623,0,1.146-0.309,1.475-0.868
		c0.427-0.74,0.424-1.796-0.016-2.571L25.678,22.59z"/>
</g>
<g>
</g>
<g>
</g>
<g>
</g>
<g>
</g>
<g>
</g>
<g>
</g>
<g>
</g>
<g>
</g>
<g>
</g>
<g>
</g>
<g>
</g>
<g>
</g>
<g>
</g>
<g>
</g>
<g>
</g>
</svg>
