<?xml version="1.0" encoding="utf-8"?>
<!-- Generator: Adobe Illustrator 16.0.0, SVG Export Plug-In . SVG Version: 6.00 Build 0)  -->
<!DOCTYPE svg PUBLIC "-//W3C//DTD SVG 1.1//EN" "http://www.w3.org/Graphics/SVG/1.1/DTD/svg11.dtd">
<svg version="1.1" id="Layer_1" xmlns="http://www.w3.org/2000/svg" xmlns:xlink="http://www.w3.org/1999/xlink" x="0px" y="0px"
	 width="32px" height="32px" viewBox="0 0 32 32" enable-background="new 0 0 32 32" xml:space="preserve">
<g>
	<path d="M29.02,24.977l-7.717-11.044V3.859c0.576-0.197,0.991-0.744,0.991-1.386V1.881c0-0.807-0.656-1.464-1.463-1.464h-8.523
		c-0.807,0-1.464,0.657-1.464,1.464v0.593c0,0.642,0.416,1.189,0.992,1.386V13.86l-7.76,11.118c-0.898,1.289-1.006,2.954-0.28,4.347
		c0.727,1.393,2.154,2.258,3.725,2.258h18.056c1.571,0,2.999-0.866,3.725-2.259C30.027,27.931,29.919,26.265,29.02,24.977z
		 M18.47,3.465v11.21c0,0.097,0.03,0.191,0.085,0.27l2.029,2.904h-8.077l0.906-1.298h3.135c0.261,0,0.472-0.211,0.472-0.473
		c0-0.261-0.211-0.472-0.472-0.472h-2.476l0.512-0.733c0.055-0.08,0.084-0.173,0.084-0.271v-0.294h1.879
		c0.261,0,0.472-0.211,0.472-0.472c0-0.261-0.211-0.472-0.472-0.472h-1.879v-1.299h1.879c0.261,0,0.472-0.211,0.472-0.472
		c0-0.261-0.211-0.472-0.472-0.472h-1.879V9.822h1.879c0.261,0,0.472-0.211,0.472-0.472c0-0.261-0.211-0.473-0.472-0.473h-1.879
		V7.579h1.879c0.261,0,0.472-0.211,0.472-0.472c0-0.261-0.211-0.472-0.472-0.472h-1.879V3.465H18.47z M26.79,28.014
		c-0.237,0.454-0.702,0.735-1.213,0.735H7.521c-0.511,0-0.976-0.282-1.212-0.735C6.072,27.562,6.107,27.02,6.399,26.6l5.448-7.806
		h9.396l5.454,7.805C26.99,27.019,27.025,27.561,26.79,28.014z"/>
	<path d="M16.548,20.093h-3.272c-0.261,0-0.472,0.211-0.472,0.472c0,0.261,0.211,0.472,0.472,0.472h3.272
		c0.261,0,0.472-0.211,0.472-0.472C17.021,20.304,16.81,20.093,16.548,20.093z"/>
	<circle cx="11.078" cy="25.819" r="1.726"/>
	<circle cx="18.539" cy="22.738" r="0.512"/>
	<circle cx="21.942" cy="25.719" r="0.904"/>
	<circle cx="15.688" cy="25.591" r="0.776"/>
</g>
</svg>
