<?xml version="1.0" encoding="utf-8"?>
<!-- Generator: Adobe Illustrator 16.0.0, SVG Export Plug-In . SVG Version: 6.00 Build 0)  -->
<!DOCTYPE svg PUBLIC "-//W3C//DTD SVG 1.1//EN" "http://www.w3.org/Graphics/SVG/1.1/DTD/svg11.dtd">
<svg version="1.1" id="Layer_1" xmlns="http://www.w3.org/2000/svg" xmlns:xlink="http://www.w3.org/1999/xlink" x="0px" y="0px"
	 width="100px" height="100px" viewBox="0 0 100 100" enable-background="new 0 0 100 100" xml:space="preserve">
<g>
	<path d="M46.042,43.537V29.603c0-0.552-0.447-1-1-1c-0.553,0-1,0.448-1,1v13.934c0,0.552,0.447,1,1,1
		C45.595,44.537,46.042,44.089,46.042,43.537z"/>
	<path d="M50.99,40.508v-29.08c0-0.552-0.447-1-1-1c-0.553,0-1,0.448-1,1v29.081c0,0.552,0.447,1,1,1
		C50.543,41.509,50.99,41.061,50.99,40.508z"/>
	<path d="M55.533,41.518v-6.261c0-0.552-0.447-1-1-1s-1,0.448-1,1v6.261c0,0.552,0.447,1,1,1S55.533,42.07,55.533,41.518z"/>
	<g>
		<circle cx="43.225" cy="80.089" r="2.433"/>
		<path d="M49.991,68.367c-1.564,0-2.838,1.272-2.838,2.837s1.273,2.837,2.838,2.837s2.837-1.272,2.837-2.837
			S51.555,68.367,49.991,68.367z"/>
		<circle cx="54.533" cy="80.089" r="2.433"/>
		<path d="M68.906,88.001l-12.563-28.52V48.182c0-0.552-0.447-1-1-1h-12.32c-0.276,0-0.541,0.115-0.73,0.317
			c-0.188,0.202-0.286,0.474-0.268,0.75l0.792,11.88L30.995,88.183c-0.13,0.311-0.097,0.662,0.089,0.941s0.498,0.447,0.833,0.447
			h36.148c0.008,0,0.016,0.001,0.02,0c0.555,0,1-0.448,1-1C69.084,88.358,69.019,88.163,68.906,88.001z M43.225,84.522
			c-2.444,0-4.433-1.989-4.433-4.435c0-2.442,1.988-4.433,4.433-4.433s4.433,1.988,4.433,4.433
			C47.658,82.533,45.668,84.522,43.225,84.522z M45.153,71.204c0-2.667,2.17-4.837,4.838-4.837c2.667,0,4.837,2.17,4.837,4.837
			s-2.17,4.837-4.837,4.837C47.323,76.041,45.153,73.871,45.153,71.204z M54.533,84.522c-2.442,0-4.433-1.989-4.433-4.435
			c0-2.442,1.988-4.433,4.433-4.433c2.445,0,4.436,1.988,4.436,4.433C58.968,82.533,56.978,84.522,54.533,84.522z"/>
	</g>
</g>
</svg>
