<?xml version="1.0" encoding="iso-8859-1"?>
<!-- Generator: Adobe Illustrator 16.0.0, SVG Export Plug-In . SVG Version: 6.00 Build 0)  -->
<!DOCTYPE svg PUBLIC "-//W3C//DTD SVG 1.1//EN" "http://www.w3.org/Graphics/SVG/1.1/DTD/svg11.dtd">
<svg version="1.1" id="Layer_1" xmlns="http://www.w3.org/2000/svg" xmlns:xlink="http://www.w3.org/1999/xlink" x="0px" y="0px"
	 width="47.194px" height="37.767px" viewBox="0 0 47.194 37.767" style="enable-background:new 0 0 47.194 37.767;"
	 xml:space="preserve">
<g>
	<polygon points="4.057,4.056 35.967,4.056 35.967,16.81 40.023,16.81 40.023,0 0,0 0,26.391 14.352,26.391 14.352,31.825 
		25.181,31.825 25.181,26.391 31.292,26.391 31.292,22.335 4.057,22.335 	"/>
	<rect x="8.521" y="31.928" width="22.489" height="1.117"/>
	<path d="M21.849,11.875c0.924,0,1.674-0.75,1.674-1.673c0-0.922-0.75-1.673-1.674-1.673c-0.922,0-1.672,0.751-1.672,1.673
		c0,0.606,0.326,1.132,0.809,1.426l-1.832,3.351c-0.231-0.088-0.483-0.139-0.746-0.139c-0.449,0-0.865,0.143-1.206,0.383
		l-4.089-4.217c0.264-0.351,0.422-0.785,0.422-1.257c0-0.239-0.042-0.467-0.115-0.68l2.038-1.081c0.307,0.375,0.768,0.62,1.289,0.62
		c0.923,0,1.673-0.75,1.673-1.673c0-0.922-0.75-1.673-1.673-1.673c-0.922,0-1.673,0.75-1.673,1.673c0,0.167,0.032,0.324,0.077,0.476
		l-2.038,1.08c-0.383-0.508-0.989-0.839-1.675-0.839c-1.157,0-2.097,0.939-2.097,2.097s0.939,2.096,2.097,2.096
		c0.45,0,0.864-0.143,1.206-0.384l4.089,4.217c-0.264,0.351-0.422,0.785-0.422,1.257c0,0.011,0.002,0.022,0.002,0.034l-4.563,0.796
		c-0.243-0.624-0.847-1.069-1.555-1.069c-0.924,0-1.674,0.75-1.674,1.673c0,0.922,0.75,1.673,1.674,1.673
		c0.908,0,1.646-0.729,1.668-1.632l4.562-0.796c0.282,0.824,1.062,1.418,1.982,1.418c1.158,0,2.096-0.938,2.096-2.096
		c0-0.66-0.306-1.249-0.782-1.633l1.888-3.452C21.688,11.863,21.767,11.875,21.849,11.875z M16.746,5.916
		c0.563,0,1.02,0.458,1.02,1.02c0,0.563-0.457,1.02-1.02,1.02s-1.02-0.457-1.02-1.02C15.727,6.374,16.184,5.916,16.746,5.916z
		 M10.195,19.389c-0.563,0-1.021-0.458-1.021-1.02c0-0.563,0.457-1.02,1.021-1.02c0.562,0,1.019,0.457,1.019,1.02
		C11.214,18.932,10.757,19.389,10.195,19.389z M20.83,10.202c0-0.562,0.457-1.02,1.019-1.02c0.563,0,1.021,0.458,1.021,1.02
		c0,0.563-0.457,1.02-1.021,1.02C21.287,11.222,20.83,10.765,20.83,10.202z"/>
	<polygon points="25,13.908 26.502,19.96 28.125,18.631 30.067,21.007 31.167,20.107 29.227,17.733 30.851,16.404 	"/>
	<path d="M33.353,19.502c0,3.665,2.981,6.646,6.646,6.646c3.665,0,6.646-2.981,6.646-6.646c0-0.43-0.045-0.85-0.123-1.258H33.476
		C33.397,18.652,33.353,19.072,33.353,19.502z M38.981,20.542c0-0.563,0.457-1.018,1.018-1.018h0.049
		c0.561,0,1.018,0.456,1.018,1.018v2.649c0,0.562-0.457,1.018-1.018,1.018h-0.049c-0.561,0-1.018-0.456-1.018-1.018V20.542z"/>
	<path d="M39.998,27.148c-3.266,0-6.052-2.063-7.146-4.95v3.528v1.071v0.403v1.359v2.2c0,3.869,3.136,7.007,7.007,7.007h0.328
		c3.872,0,7.007-3.139,7.007-7.007v-2.2v-1.359v-0.403v-1.071v-3.664C46.138,25.021,43.315,27.148,39.998,27.148z"/>
</g>
<g>
</g>
<g>
</g>
<g>
</g>
<g>
</g>
<g>
</g>
<g>
</g>
<g>
</g>
<g>
</g>
<g>
</g>
<g>
</g>
<g>
</g>
<g>
</g>
<g>
</g>
<g>
</g>
<g>
</g>
</svg>
