<?xml version="1.0" encoding="utf-8"?>
<!-- Generator: Adobe Illustrator 16.0.0, SVG Export Plug-In . SVG Version: 6.00 Build 0)  -->
<!DOCTYPE svg PUBLIC "-//W3C//DTD SVG 1.1//EN" "http://www.w3.org/Graphics/SVG/1.1/DTD/svg11.dtd">
<svg version="1.1" id="Layer_9" xmlns="http://www.w3.org/2000/svg" xmlns:xlink="http://www.w3.org/1999/xlink" x="0px" y="0px"
	 width="100px" height="100px" viewBox="0 0 100 100" enable-background="new 0 0 100 100" xml:space="preserve">
<path d="M85.182,56.1V19.045c2.407-0.834,4.137-3.115,4.137-5.805c0-3.397-2.753-6.15-6.149-6.15c-2.499,0-4.645,1.493-5.607,3.634
	H38.094c-0.961-2.141-3.107-3.634-5.606-3.634c-3.396,0-6.15,2.753-6.15,6.15c0,1.801,0.777,3.42,2.013,4.543l-9.523,14.528
	c-0.627-0.215-1.294-0.343-1.994-0.343c-3.396,0-6.149,2.754-6.149,6.15c0,3.159,2.385,5.76,5.452,6.107v36.429
	c-1.219,0.138-2.411,0.636-3.395,1.515c-2.536,2.261-2.759,6.147-0.498,8.684c2.26,2.534,6.149,2.757,8.683,0.497
	c0.749-0.669,1.291-1.48,1.632-2.355h39.151c0.259,0.663,0.632,1.295,1.133,1.858c2.261,2.534,6.148,2.757,8.684,0.497
	c2.297-2.049,2.688-5.43,1.061-7.933l10.096-15.402c1.589,0.104,3.217-0.401,4.498-1.545c2.535-2.261,2.758-6.147,0.498-8.684
	C86.973,56.999,86.111,56.436,85.182,56.1z M69.527,80.978V64.116h7.836c0.259,0.663,0.631,1.295,1.133,1.858
	c0.29,0.326,0.608,0.611,0.946,0.861L70.03,81.195C69.864,81.118,69.699,81.041,69.527,80.978z M31.79,19.347v16.256h-9.35
	c-0.225-0.497-0.518-0.955-0.858-1.372l9.798-14.948C31.515,19.307,31.65,19.332,31.79,19.347z M19.489,81.213V43.659
	c1.823-0.877,3.145-2.621,3.429-4.701h8.872v16.817c-1.221,0.139-2.41,0.637-3.396,1.516c-2.534,2.261-2.758,6.147-0.496,8.684
	c0.32,0.359,0.677,0.667,1.055,0.934l-9.399,14.34C19.53,81.236,19.512,81.224,19.489,81.213z M35.145,56.334V38.958h26.284
	c0.349,2.553,2.261,4.606,4.744,5.159v16.644H38.527c-0.197-1.069-0.674-2.102-1.45-2.974C36.517,57.16,35.857,56.676,35.145,56.334
	z M69.527,43.925c2.405-0.835,4.138-3.115,4.138-5.806c0-1.555-0.582-2.97-1.533-4.053l9.696-14.792v36.592
	c-1.021,0.212-2.001,0.682-2.835,1.425c-1.06,0.945-1.709,2.175-1.947,3.47h-7.519V43.925z M38.572,14.078h38.511
	c0.19,1.391,0.854,2.62,1.811,3.553l-9.576,14.608c-0.57-0.176-1.176-0.271-1.803-0.271c-2.499,0-4.646,1.493-5.607,3.634H35.145
	V18.779C36.968,17.902,38.289,16.158,38.572,14.078z M63.339,82.17c-1.06,0.946-1.71,2.175-1.948,3.471H22.873
	c-0.135-0.731-0.411-1.441-0.813-2.098l10.174-15.521c1.54,0.063,3.105-0.443,4.347-1.551c0.75-0.668,1.291-1.479,1.631-2.354
	h27.962v16.63C65.151,80.958,64.172,81.427,63.339,82.17z"/>
</svg>
