<?xml version="1.0" encoding="iso-8859-1"?>
<!-- Generator: Adobe Illustrator 16.0.0, SVG Export Plug-In . SVG Version: 6.00 Build 0)  -->
<!DOCTYPE svg PUBLIC "-//W3C//DTD SVG 1.1//EN" "http://www.w3.org/Graphics/SVG/1.1/DTD/svg11.dtd">
<svg version="1.1" id="Layer_1" xmlns="http://www.w3.org/2000/svg" xmlns:xlink="http://www.w3.org/1999/xlink" x="0px" y="0px"
	 width="45.68px" height="38.504px" viewBox="0 0 45.68 38.504" style="enable-background:new 0 0 45.68 38.504;"
	 xml:space="preserve">
<g>
	<path d="M6.78,22.505c0.049-0.305-0.028-0.442-0.192-0.451c-0.224-0.067-0.585,0.152-0.883,0.381
		c-1.88,1.431-5.557,6.463-5.701,10.545C-0.001,33.075,0.001,33.171,0,33.267c0.002,0.156,0.002,0.311,0.015,0.464
		c0.017,0.214,0.045,0.423,0.086,0.629c0.014,0.072,0.029,0.144,0.048,0.214c0.059,0.247,0.13,0.488,0.229,0.72
		c0.103,0.239,0.22,0.459,0.343,0.669c0.029,0.05,0.059,0.098,0.088,0.145c0.124,0.199,0.256,0.387,0.398,0.558
		c0.022,0.028,0.047,0.052,0.071,0.079c0.129,0.149,0.266,0.288,0.406,0.418c0.036,0.031,0.07,0.066,0.106,0.098
		c0.16,0.137,0.327,0.263,0.499,0.377c0.013,0.008,0.023,0.02,0.036,0.027c0-0.002,0-0.004-0.001-0.006
		c3.291,2.133,8.531-0.039,7.992-3.462C9.647,29.938,6.047,27.146,6.78,22.505z M6.759,36.899c0,0,1.005-1.158,1.021-2.566
		c0.015-1.408-0.382-3.412-0.382-3.412s1.397,1.539,1.231,3.363C8.465,36.106,6.759,36.899,6.759,36.899z"/>
	<path d="M28.894,11.62c-3.742,0-6.786,3.045-6.786,6.786c0,3.742,3.044,6.787,6.786,6.787c3.743,0,6.787-3.045,6.787-6.787
		C35.681,14.665,32.637,11.62,28.894,11.62z M28.894,12.249c0.879,0,1.713,0.188,2.469,0.521l-1.291,4.11
		c-0.326-0.257-0.73-0.417-1.178-0.417c-0.61,0-1.149,0.294-1.499,0.743l-2.503-3.469C25.968,12.812,27.365,12.249,28.894,12.249z
		 M26.614,24.122c-2.075-0.832-3.599-2.758-3.842-5.064l4.229-0.841c-0.004,0.052-0.015,0.101-0.015,0.153
		c0,0.906,0.636,1.663,1.484,1.856L26.614,24.122z M27.648,18.37c0-0.688,0.559-1.246,1.245-1.246c0.688,0,1.246,0.558,1.246,1.246
		c0,0.688-0.558,1.245-1.246,1.245C28.207,19.615,27.648,19.058,27.648,18.37z M35.051,18.406c0,2.136-1.092,4.019-2.747,5.123
		l-2.831-3.352c0.768-0.247,1.329-0.96,1.329-1.808c0-0.195-0.039-0.379-0.093-0.556l4.276-0.259
		C35.024,17.835,35.051,18.117,35.051,18.406z"/>
	<path d="M45.382,19.776L29.11,1.595c-0.111-0.124-0.243-0.217-0.386-0.282c-0.111-0.081-0.243-0.14-0.401-0.172
		c-1.926-0.375-3.852-0.751-5.777-1.126c-1.184-0.232-3.237,2.419-3.971,3.074c-0.981,0.879-1.962,1.758-2.944,2.636
		c-0.379,0.341-1.079,0.774-1.278,1.276c-0.55,1.381,0.385,4.068,0.564,5.519c0.008,0.063,0.022,0.121,0.04,0.178l-1.35,1.207
		c-0.957,0.274-1.916,0.548-2.874,0.821c-0.071,0.02-0.123,0.033-0.173,0.045c-0.213-0.135-0.426-0.268-0.639-0.402
		c-0.655-0.412-1.312-0.822-1.965-1.234c-0.43-0.271-1.035-0.167-1.345,0.186c-0.157,0.089-0.263,0.257-0.209,0.486
		c0.007,0.031,0.015,0.062,0.021,0.092c0.003,0.053-0.003,0.102,0.01,0.157c0.68,2.981,1.36,5.963,2.04,8.943
		c0.029,0.128,0.093,0.243,0.169,0.349c0.017,0.027,0.035,0.053,0.057,0.074c0.383,0.447,1.118,0.596,1.492-0.001
		c0.372-0.591,0.744-1.182,1.116-1.773c0.231-0.368,0.464-0.735,0.693-1.104c0.158-0.25,0.285-0.389,0.342-0.451
		c0.444-0.129,0.888-0.259,1.332-0.388L27.814,35.5c0.431,0.479,1.167,0.521,1.646,0.09l15.831-14.167
		C45.771,20.994,45.812,20.258,45.382,19.776z M16.26,7.737c0.278-0.25,0.559-0.502,0.839-0.752
		c0.894-0.799,1.785-1.598,2.677-2.396c0.825-0.738,1.649-1.477,2.475-2.215c0.144-0.127,0.286-0.256,0.429-0.384
		c1.161,0.226,2.32,0.452,3.481,0.679l-9.478,8.483C16.541,10.015,16.401,8.876,16.26,7.737z M28.894,25.942
		c-4.154,0-7.534-3.381-7.534-7.536s3.38-7.535,7.534-7.535c4.155,0,7.535,3.38,7.535,7.535S33.049,25.942,28.894,25.942z"/>
</g>
<g>
</g>
<g>
</g>
<g>
</g>
<g>
</g>
<g>
</g>
<g>
</g>
<g>
</g>
<g>
</g>
<g>
</g>
<g>
</g>
<g>
</g>
<g>
</g>
<g>
</g>
<g>
</g>
<g>
</g>
</svg>
