<?xml version="1.0" encoding="iso-8859-1"?>
<!-- Generator: Adobe Illustrator 16.0.0, SVG Export Plug-In . SVG Version: 6.00 Build 0)  -->
<!DOCTYPE svg PUBLIC "-//W3C//DTD SVG 1.1//EN" "http://www.w3.org/Graphics/SVG/1.1/DTD/svg11.dtd">
<svg version="1.1" id="Layer_1" xmlns="http://www.w3.org/2000/svg" xmlns:xlink="http://www.w3.org/1999/xlink" x="0px" y="0px"
	 width="44.347px" height="37.381px" viewBox="0 0 44.347 37.381" style="enable-background:new 0 0 44.347 37.381;"
	 xml:space="preserve">
<g>
	<path d="M6.582,21.849c0.048-0.297-0.027-0.43-0.187-0.439c-0.217-0.064-0.567,0.149-0.857,0.37
		c-1.824,1.39-5.394,6.274-5.534,10.237C-0.001,32.11,0.001,32.203,0,32.296c0.002,0.151,0.002,0.302,0.015,0.45
		c0.016,0.208,0.043,0.411,0.083,0.61c0.014,0.07,0.028,0.14,0.047,0.208c0.057,0.239,0.126,0.474,0.222,0.698
		c0.1,0.233,0.213,0.445,0.332,0.65c0.029,0.048,0.058,0.094,0.086,0.14c0.12,0.192,0.248,0.375,0.387,0.542
		c0.021,0.026,0.046,0.05,0.069,0.076c0.125,0.145,0.258,0.279,0.395,0.405c0.035,0.031,0.068,0.064,0.103,0.095
		c0.156,0.134,0.318,0.256,0.485,0.366c0.012,0.009,0.022,0.02,0.034,0.027c0-0.002,0-0.004,0-0.006
		c3.194,2.071,8.282-0.038,7.759-3.361C9.366,29.065,5.87,26.354,6.582,21.849z M6.562,35.823c0,0,0.976-1.125,0.991-2.492
		c0.014-1.367-0.371-3.313-0.371-3.313s1.356,1.494,1.195,3.265C8.218,35.054,6.562,35.823,6.562,35.823z"/>
	<path d="M23.655,15.34c0.118-0.226,0.259-0.431,0.415-0.618c-0.193-0.174-0.409-0.326-0.649-0.453
		c-1.58-0.828-3.535-0.22-4.365,1.362c-0.83,1.581-0.22,3.536,1.36,4.365c1.297,0.681,2.842,0.394,3.814-0.603
		C23.218,18.334,22.938,16.708,23.655,15.34z"/>
	<path d="M28.394,13.862c0.901,0.473,1.508,1.285,1.754,2.197c0.69-0.275,1.292-0.787,1.665-1.498c0.83-1.58,0.221-3.536-1.36-4.365
		c-1.582-0.83-3.538-0.221-4.368,1.36c-0.344,0.655-0.44,1.376-0.321,2.054C26.61,13.357,27.552,13.42,28.394,13.862z"/>
	<path d="M27.057,17.901l0.351,0.506c-0.327,0.267-0.606,0.604-0.814,1c-0.054,0.102-0.102,0.205-0.144,0.309
		c1.104,0.125,2.224-0.414,2.771-1.456c0.099-0.188,0.171-0.381,0.223-0.576c-0.625,0.002-1.237,0.181-1.758,0.521l-0.355-0.511
		c0.057-0.061,0.109-0.127,0.149-0.204c0.213-0.406,0.106-0.893-0.225-1.18l0.222-0.373c0.628,0.321,1.313,0.415,1.963,0.313
		c-0.195-0.721-0.675-1.362-1.387-1.736c-0.665-0.349-1.41-0.398-2.08-0.199c0.245,0.577,0.653,1.088,1.207,1.45l-0.222,0.372
		c-0.449-0.168-0.963,0.018-1.191,0.453c-0.043,0.082-0.069,0.168-0.088,0.256l-0.54,0.003c-0.049-0.562-0.249-1.103-0.572-1.567
		c-0.095,0.125-0.184,0.257-0.259,0.4c-0.548,1.045-0.358,2.281,0.378,3.119c0.034-0.055,0.067-0.109,0.098-0.166
		c0.242-0.463,0.359-0.955,0.368-1.443l0.519-0.004c0.046,0.291,0.222,0.561,0.504,0.709C26.46,18.048,26.786,18.036,27.057,17.901z
		"/>
	<path d="M30.959,18.046c-0.253-0.133-0.514-0.224-0.779-0.285c-0.065,0.286-0.165,0.568-0.308,0.842
		c-0.71,1.352-2.182,2.045-3.615,1.837c-0.192,1.321,0.447,2.679,1.696,3.334c1.581,0.829,3.537,0.222,4.367-1.36
		C33.149,20.831,32.539,18.875,30.959,18.046z"/>
	<path d="M44.058,19.199L28.261,1.548c-0.108-0.12-0.236-0.21-0.374-0.273c-0.108-0.078-0.236-0.137-0.39-0.167
		c-1.87-0.364-3.739-0.729-5.609-1.094c-1.148-0.225-3.143,2.349-3.854,2.985c-0.953,0.854-1.904,1.706-2.858,2.559
		c-0.368,0.33-1.048,0.752-1.241,1.239c-0.533,1.34,0.374,3.95,0.548,5.357c0.008,0.062,0.022,0.118,0.039,0.173l-1.311,1.172
		c-0.929,0.266-1.859,0.531-2.79,0.797c-0.069,0.02-0.119,0.031-0.168,0.043c-0.206-0.13-0.413-0.26-0.62-0.39
		c-0.636-0.401-1.272-0.799-1.907-1.198c-0.417-0.264-1.005-0.162-1.306,0.18c-0.152,0.086-0.255,0.25-0.202,0.473
		c0.006,0.029,0.014,0.059,0.021,0.09c0.003,0.05-0.003,0.098,0.01,0.151c0.659,2.896,1.32,5.789,1.98,8.683
		c0.028,0.125,0.09,0.235,0.164,0.338c0.016,0.027,0.034,0.051,0.055,0.072c0.372,0.435,1.086,0.578,1.448-0.001
		c0.361-0.573,0.723-1.147,1.084-1.722c0.225-0.357,0.45-0.715,0.673-1.072c0.154-0.243,0.277-0.377,0.332-0.438
		c0.432-0.125,0.862-0.252,1.293-0.377l13.727,15.336c0.418,0.465,1.133,0.505,1.599,0.088l15.369-13.754
		C44.436,20.382,44.475,19.667,44.058,19.199z M15.785,7.511c0.271-0.242,0.542-0.486,0.814-0.729
		c0.867-0.776,1.733-1.552,2.599-2.327c0.801-0.717,1.602-1.433,2.402-2.15c0.14-0.124,0.278-0.248,0.416-0.372
		c1.128,0.219,2.253,0.438,3.38,0.659l-9.2,8.235C16.059,9.722,15.923,8.616,15.785,7.511z M32.984,22.495
		c-1.052,2.004-3.528,2.775-5.531,1.725c-1.674-0.878-2.482-2.748-2.093-4.508c-1.209,1.465-3.315,1.936-5.063,1.019
		c-2.003-1.051-2.775-3.526-1.724-5.53c1.051-2.004,3.527-2.775,5.53-1.725c0.21,0.111,0.402,0.238,0.584,0.378
		c-0.085-0.78,0.054-1.592,0.445-2.339c1.051-2.004,3.528-2.775,5.531-1.724c2.003,1.051,2.775,3.526,1.724,5.53
		c-0.336,0.641-0.82,1.154-1.387,1.523c0.087,0.039,0.173,0.076,0.259,0.121C33.263,18.017,34.035,20.493,32.984,22.495z"/>
</g>
<g>
</g>
<g>
</g>
<g>
</g>
<g>
</g>
<g>
</g>
<g>
</g>
<g>
</g>
<g>
</g>
<g>
</g>
<g>
</g>
<g>
</g>
<g>
</g>
<g>
</g>
<g>
</g>
<g>
</g>
</svg>
