<?xml version="1.0" encoding="utf-8"?>
<!-- Generator: Adobe Illustrator 16.0.0, SVG Export Plug-In . SVG Version: 6.00 Build 0)  -->
<!DOCTYPE svg PUBLIC "-//W3C//DTD SVG 1.1//EN" "http://www.w3.org/Graphics/SVG/1.1/DTD/svg11.dtd">
<svg version="1.1" id="Artwork" xmlns="http://www.w3.org/2000/svg" xmlns:xlink="http://www.w3.org/1999/xlink" x="0px" y="0px"
	 width="512px" height="512px" viewBox="0 0 512 512" enable-background="new 0 0 512 512" xml:space="preserve">
<path d="M447.399,399.716L340.225,292.541c-2.359-2.358-5.498-3.656-8.838-3.656s-6.479,1.298-8.84,3.658l-4.989,4.991
	c0,0-1.551,1.686-3.082,0.154c-4.798-4.798-17.344-17.344-17.344-17.344c-1.563-1.563-0.579-3.506,0.04-4.345
	c16.463-22.315,25.359-49.191,25.359-77.438c0-34.936-13.605-67.781-38.309-92.485c-24.703-24.704-57.549-38.309-92.484-38.309
	c-34.938,0-67.782,13.605-92.486,38.309c-24.703,24.704-38.309,57.549-38.309,92.485c0,34.937,13.605,67.782,38.309,92.485
	c24.705,24.704,57.55,38.309,92.486,38.309c25.225,0,46.598-5.385,67.364-18.626c0,0,2.682-1.788,4.309-0.161
	c4.003,4.003,14.662,14.663,18.747,18.746c1.533,1.533,0.149,3.469,0.149,3.469l-4.948,4.948c-2.359,2.358-3.659,5.498-3.658,8.84
	c-0.001,3.342,1.299,6.481,3.656,8.838l107.175,107.175c2.358,2.357,5.497,3.656,8.839,3.656c3.341,0,6.479-1.299,8.838-3.656
	l45.189-45.19c2.359-2.358,3.659-5.498,3.659-8.84S449.758,402.073,447.399,399.716z M113.395,276.905
	c-20.926-20.926-32.451-48.749-32.451-78.343c0-29.594,11.525-57.417,32.451-78.343c20.926-20.926,48.749-32.451,78.344-32.451
	c29.594,0,57.416,11.524,78.342,32.451c20.927,20.926,32.451,48.749,32.451,78.343c0,29.594-11.524,57.417-32.451,78.344
	c-20.926,20.926-48.748,32.45-78.342,32.45C162.144,309.355,134.32,297.831,113.395,276.905z M396.026,441.897
	c-2.083,2.084-3.975,1.336-6.317-1.008c-15.007-15.008-71.993-72-92.872-92.872c-1.606-1.606-0.084-2.81-0.084-2.81l5.245-5.246
	c4.874-4.874,4.874-12.803,0-17.677l-22.029-22.028c0,0-1.541-1.417-0.563-2.396c1.046-1.047,2.406-2.407,3.208-3.209
	c1.167-1.167,2.457,0.502,2.457,0.502l22.029,22.028c2.358,2.359,5.497,3.658,8.839,3.658c3.341,0,6.479-1.299,8.838-3.658
	l4.902-4.902c0,0,1.758-1.657,3.811,0.396c21.184,21.184,79.813,79.813,93.152,93.153c1.755,1.754,1.633,3.818-0.283,5.734
	C418.777,419.147,403.609,434.313,396.026,441.897z"/>
</svg>
