<?xml version="1.0" encoding="iso-8859-1"?>
<!-- Generator: Adobe Illustrator 16.0.0, SVG Export Plug-In . SVG Version: 6.00 Build 0)  -->
<!DOCTYPE svg PUBLIC "-//W3C//DTD SVG 1.1//EN" "http://www.w3.org/Graphics/SVG/1.1/DTD/svg11.dtd">
<svg version="1.1" id="Layer_1" xmlns="http://www.w3.org/2000/svg" xmlns:xlink="http://www.w3.org/1999/xlink" x="0px" y="0px"
	 width="29.424px" height="45.777px" viewBox="0 0 29.424 45.777" style="enable-background:new 0 0 29.424 45.777;"
	 xml:space="preserve">
<g>
	<path d="M24.944,12.899l-3.839-0.052L21.07,9.258h1.242V4.845h-4.255V0h-5.684v4.845H8.119v4.413h1.094v3.588H4.894l-0.221,0.082
		C4.482,13,0,14.73,0,18.934v26.843h29.424V18.934C29.424,15.198,26.493,13.353,24.944,12.899z M26.831,43.183H2.593V18.934
		c0-2.039,2.144-3.189,2.801-3.494h6.412V9.258h6.67l0.06,6.182h5.825c0.552,0.215,2.469,1.13,2.469,3.494V43.183z"/>
	<path d="M10.669,29.285c0,0,1.007,0.171,1.829,0.708c0.821,0.539,1.137,1.517,1.137,1.517h3.18c0,0,0.483-1.395,1.249-1.752
		c0.766-0.356,1.96-0.596,1.96-0.596s-0.052,0.016-0.019-1.532c1.062-0.983,1.61-2.209,1.61-3.665c0-3.033-2.823-5.493-6.308-5.493
		c-3.483,0-6.307,2.46-6.307,5.493c0,1.444,0.64,2.758,1.685,3.738C10.632,28.749,10.669,29.285,10.669,29.285z M17.877,23.454
		c0.967,0,1.75,0.914,1.75,2.041c0,1.128-0.783,2.041-1.75,2.041c-0.966,0-1.748-0.913-1.748-2.041
		C16.129,24.368,16.911,23.454,17.877,23.454z M15.221,27.806l0.193,0.249c0.485,0.624,0.691,1.465,0.7,1.5l-0.506,0.122
		c-0.002-0.006-0.132-0.532-0.413-1.014c-0.326,0.502-0.361,0.965-0.361,0.971l-0.521-0.035c0.003-0.033,0.063-0.829,0.699-1.555
		L15.221,27.806z M12.896,23.454c0.966,0,1.75,0.914,1.75,2.041c0,1.128-0.784,2.041-1.75,2.041c-0.966,0-1.748-0.913-1.748-2.041
		C11.147,24.368,11.929,23.454,12.896,23.454z"/>
	<path d="M21.943,35.576c-0.718-0.355-1.611-0.107-1.998,0.553c-0.097,0.165-0.152,0.342-0.17,0.518l-2.942-1.458l2.924-1.508
		c0.025,0.158,0.081,0.313,0.17,0.459c0.397,0.654,1.296,0.888,2.007,0.521c0.711-0.366,0.964-1.194,0.566-1.848
		c-0.294-0.482-0.859-0.735-1.421-0.688c0.336-0.416,0.397-0.992,0.104-1.474c-0.398-0.654-1.296-0.887-2.008-0.521
		c-0.709,0.367-0.963,1.194-0.565,1.848c0.125,0.205,0.299,0.369,0.5,0.485l-3.81,1.966l-3.848-1.906
		c0.199-0.12,0.37-0.286,0.491-0.493c0.386-0.66,0.117-1.483-0.6-1.838s-1.612-0.108-1.998,0.552
		c-0.285,0.487-0.212,1.062,0.133,1.472c-0.563-0.039-1.125,0.224-1.408,0.71c-0.387,0.66-0.118,1.483,0.6,1.838
		c0.718,0.355,1.612,0.108,1.998-0.552c0.087-0.149,0.14-0.306,0.162-0.463l2.951,1.461l-2.915,1.503
		c-0.021-0.175-0.08-0.351-0.18-0.515c-0.398-0.654-1.296-0.887-2.007-0.521c-0.711,0.367-0.964,1.194-0.565,1.848
		c0.293,0.482,0.859,0.735,1.421,0.688c-0.337,0.417-0.398,0.992-0.105,1.474c0.399,0.654,1.297,0.887,2.008,0.521
		c0.71-0.366,0.964-1.193,0.564-1.848c-0.112-0.186-0.269-0.338-0.448-0.452l3.761-1.939l3.796,1.879
		c-0.178,0.116-0.332,0.27-0.441,0.458c-0.385,0.661-0.118,1.483,0.601,1.839c0.717,0.354,1.61,0.107,1.997-0.553
		c0.286-0.486,0.212-1.062-0.133-1.472c0.563,0.038,1.125-0.224,1.408-0.711C22.929,36.755,22.66,35.931,21.943,35.576z"/>
</g>
<g>
</g>
<g>
</g>
<g>
</g>
<g>
</g>
<g>
</g>
<g>
</g>
<g>
</g>
<g>
</g>
<g>
</g>
<g>
</g>
<g>
</g>
<g>
</g>
<g>
</g>
<g>
</g>
<g>
</g>
</svg>
