<?xml version="1.0" encoding="utf-8"?>
<!-- Generator: Adobe Illustrator 16.0.0, SVG Export Plug-In . SVG Version: 6.00 Build 0)  -->
<!DOCTYPE svg PUBLIC "-//W3C//DTD SVG 1.1//EN" "http://www.w3.org/Graphics/SVG/1.1/DTD/svg11.dtd">
<svg version="1.1" id="Layer_1" xmlns="http://www.w3.org/2000/svg" xmlns:xlink="http://www.w3.org/1999/xlink" x="0px" y="0px"
	 width="50px" height="50px" viewBox="0 0 50 50" enable-background="new 0 0 50 50" xml:space="preserve">
<g>
	<g>
		<path d="M35.152,18.789c-0.627,0-1.209,0.199-1.685,0.538c-0.223-1.388-1.428-2.452-2.877-2.452c-0.628,0-1.21,0.199-1.686,0.538
			c-0.223-1.388-1.429-2.451-2.878-2.451c-0.611,0-1.18,0.189-1.648,0.512v-2.161c0-0.955-0.953-1.418-2.913-1.418
			s-2.913,0.464-2.913,1.418v10.821c-0.62-0.301-1.304-0.46-2.013-0.46c-1.229,0-2.387,0.479-3.258,1.349
			c-1.798,1.797-1.798,4.721-0.001,6.518l5.646,5.647c1.058,3.274,4.375,5.072,9.381,5.072c6.201,0,9.758-2.753,9.758-7.553v-3.393
			V29.7v-7.998C38.066,20.096,36.759,18.789,35.152,18.789z M37.066,29.7c-7.771-3.884-14.896,4.804-23.078,1.134
			c-1.409-1.41-1.409-3.694,0-5.104c0.706-0.704,1.629-1.057,2.552-1.057c0.924,0,1.847,0.353,2.553,1.057l0.46,0.459V13.313v0
			c0-0.231,0.856-0.418,1.913-0.418s1.913,0.187,1.913,0.418v0v11.435c0.236-0.061,0.481-0.114,0.734-0.16v-6.712
			c0-1.056,0.856-1.913,1.914-1.913c1.059,0,1.914,0.857,1.914,1.913v6.434c0.123-0.001,0.243-0.003,0.367-0.003
			s0.245,0.002,0.367,0.003v-4.52c0-1.057,0.857-1.914,1.915-1.914c1.059,0,1.913,0.857,1.913,1.914v4.798
			c0.253,0.046,0.498,0.099,0.735,0.16v-3.045c0-1.056,0.854-1.913,1.913-1.913c1.058,0,1.914,0.857,1.914,1.913V29.7z"/>
	</g>
	<g>
		<circle cx="19.671" cy="11.052" r="0.438"/>
	</g>
	<g>
		<circle cx="20.108" cy="8.177" r="0.438"/>
	</g>
	<g>
		<circle cx="21.202" cy="9.601" r="0.986"/>
	</g>
	<g>
		<circle cx="22.827" cy="10.896" r="0.574"/>
	</g>
	<g>
		<circle cx="23.108" cy="9.052" r="0.438"/>
	</g>
</g>
</svg>
