<?xml version="1.0" encoding="utf-8"?>
<!-- Generator: Adobe Illustrator 17.0.0, SVG Export Plug-In . SVG Version: 6.00 Build 0)  -->
<!DOCTYPE svg PUBLIC "-//W3C//DTD SVG 1.1//EN" "http://www.w3.org/Graphics/SVG/1.1/DTD/svg11.dtd">
<svg version="1.1" id="Capa_1" xmlns="http://www.w3.org/2000/svg" xmlns:xlink="http://www.w3.org/1999/xlink" x="0px" y="0px"
	 width="200px" height="200px" viewBox="0 0 200 200" enable-background="new 0 0 200 200" xml:space="preserve">
<path d="M189.744,50.436c-1.406,5.218-3.759,9.366-6.783,12.612c-0.186-0.304-0.449-0.584-0.822-0.811
	c-10.108-6.172-18.086-13.889-26.121-22.479c-6.987-7.469-14.434-15.962-17.428-25.952c2.065-2.112,4.09-4.292,5.802-6.802
	c1.312-1.923-1.151-3.702-2.895-2.896c-17.212,7.953-23.711,29.071-20.46,46.362c1.098,5.842,2.935,11.365,4.683,16.901
	c-17.221-4.461-33.873-7.023-48.779,6.892c-9.209,8.596-12.419,19.445-12.945,30.852c-0.607,0.481-0.786,1.483-0.065,1.983
	c-0.169,8.59,1.061,17.437,2.31,25.832c0.011,0.071,0.019,0.141,0.03,0.213c-6.795-1.162-13.507-2.557-19.845-3.468
	c-14.499-2.082-34.293-2.56-41.177,13.259c-0.96,2.205,1.96,4.063,3.293,1.925c0.984-1.578,2.103-2.942,3.326-4.131
	c11.165,4.012,20.91,11.292,29.574,19.283c5.079,4.684,9.659,9.932,13.526,15.654c2.447,3.621,3.408,7.887,5.242,11.658
	c-1.45,1.81-3.174,3.325-5.271,4.349c-2.376,1.161-0.674,5.265,1.81,4.293c15.548-6.077,17.159-29.026,17.269-43.215
	c0.033-4.233-0.309-8.507-0.805-12.791c17.723,2.176,34.57,0.429,48.636-12.928c13.946-13.242,16.119-33.545,12.626-51.527
	c6.615,1.86,13.078,3.484,19.09,3.798c18.307,0.957,37.4-8.385,41.425-27.418C195.713,48.472,190.663,47.026,189.744,50.436z
	 M63.95,180.633c-3.237-8.652-12.497-17.738-17.415-22.555c-8.454-8.281-19.488-16.864-31.348-19.974
	c3.032-1.944,6.518-3.083,10.238-3.693c0.137,0.098,0.295,0.181,0.478,0.251c6.407,2.429,12.573,6.167,18.404,9.724
	c9.725,5.932,15.085,14.872,20.185,24.685c0.48,0.924,1.363,1.205,2.195,1.059C66.111,173.61,65.266,177.273,63.95,180.633z
	 M67.508,163.883c-0.008,0.077-0.018,0.161-0.026,0.239c-5.562-14.156-19.156-24.893-33.514-30.25
	c10.185,0.218,21.026,2.964,29.223,4.503c1.289,0.242,2.576,0.47,3.859,0.684C68.017,147.325,68.369,155.485,67.508,163.883z
	 M72.463,134.113c-1.103-7.936-2.413-15.854-2.584-23.548c4.584,3.034,8.555,6.661,12.376,10.94
	c3.578,4.007,6.187,9.149,9.493,13.448C85.489,135.501,78.979,135.023,72.463,134.113z M97.256,134.17
	c-2.482-5.829-7.753-11.414-11.775-15.892c-4.241-4.723-9.676-8.891-15.586-11.56c0.169-5.139,0.969-10.159,2.799-15
	c6.803,5.728,13.662,11.354,20.187,17.426c6.318,5.879,12.303,13.312,19.258,18.651C107.53,131.104,102.52,133.109,97.256,134.17z
	 M117.734,122.911c-0.61,0.649-1.237,1.245-1.867,1.833c-5.382-7.082-13.193-13.127-19.646-18.94
	C89.346,99.61,81.92,93.597,73.943,88.786c1.701-3.569,4.027-7.031,7.164-10.356c0.931-0.988,1.888-1.872,2.863-2.68
	c1.706,6.446,12.149,16.46,13.989,18.287c5.36,5.323,11.313,10.121,17.563,14.358c1.795,1.217,5.765,4.079,9.143,4.931
	C122.804,116.756,120.493,119.976,117.734,122.911z M126.914,108.519c-2.09-1.014-4.752-1.652-6.558-2.695
	c-5.509-3.182-10.549-7.204-15.374-11.322c-6.534-5.577-15.102-12.498-17.824-21.057c4.427-2.747,9.212-3.987,14.21-4.256
	c-0.183,6.549,3.829,12.458,8.263,17.284c3.158,3.437,6.966,6.283,10.747,8.99c2.482,1.777,5.719,4.75,8.936,4.95
	C128.754,103.191,127.961,105.903,126.914,108.519z M130.016,95.883c-0.968-0.807-2.157-1.363-3.334-2.078
	c-3.518-2.138-6.895-4.491-10.102-7.073c-5.852-4.712-10.735-10.329-12.051-17.578c7.449,0.169,15.285,2.18,23.054,4.384
	c1.287,4.586,2.309,9.264,2.606,14.215C130.354,90.495,130.294,93.212,130.016,95.883z M137.858,70.621
	c-1.609-0.421-3.215-0.854-4.817-1.288c-3.056-11.272-7.823-21.416-6.93-33.136c6.559,9.902,21.358,29.892,32.046,36.764
	C151.361,73.248,144.313,72.308,137.858,70.621z M166.714,70.074c-8.32,2.043-17.99-11.721-22.573-17.016
	c-6.051-6.992-11.518-14.449-17.369-21.598c1.363-6.577,5.223-10.925,9.356-15.145c1.918,8.699,8.172,16.435,13.63,23.113
	c8.592,10.512,18.035,19.738,29.649,26.8c-3.125,2.344-6.706,4.015-10.563,5.105C168.605,70.468,167.736,69.823,166.714,70.074z"/>
</svg>
