<?xml version="1.0" encoding="utf-8"?>
<!-- Generator: Adobe Illustrator 18.1.0, SVG Export Plug-In . SVG Version: 6.00 Build 0)  -->
<svg version="1.1" id="Capa_1" xmlns="http://www.w3.org/2000/svg" xmlns:xlink="http://www.w3.org/1999/xlink" x="0px" y="0px"
	 width="1000px" height="1000px" viewBox="0 0 1000 1000" enable-background="new 0 0 1000 1000" xml:space="preserve">
<g>
	<path d="M783.8,18h-50c-16.6,0-30,13.4-30,30v243c0,18.9-8.8,37.1-18.6,52.7c-8.6,13.8-19.2,26.5-31,37.6
		c-14.3,13.5-34,28.3-60.1,40c16.1,4.2,31.8,9.4,47,15.6c25.7,10.4,49.8,23.5,72,39.1c5.8-4.7,11.3-9.7,16.8-14.8
		c51.8-49.1,83.9-113.1,83.9-167.2V48C813.8,31.4,800.4,18,783.8,18z"/>
	<path d="M319.8,614.6c14.3-13.5,34-28.3,60.1-40c-16.1-4.2-31.8-9.4-47-15.6c-25.7-10.4-49.8-23.5-72-39.1
		c-5.8,4.7-11.3,9.7-16.8,14.8c-51.8,49.1-83.9,113.1-83.9,167.2v246c0,16.6,13.4,30,30,30h50c16.6,0,30-13.4,30-30V705
		c0-18.8,8.8-37.1,18.6-52.7C297.5,638.4,308,625.8,319.8,614.6z"/>
	<path d="M729.8,534.7c-5.4-5.1-11-10.1-16.8-14.8c-4.7-3.9-9.6-7.6-14.5-11.2c-5.1-3.7-10.3-7.3-15.6-10.7h0
		c-17.3-11.1-35.7-20.7-55.1-28.6C584.7,451.9,537.3,443,487,443c-29.3,0-54.8-4-76.9-10.5c-10.9-3.2-21-7-30.3-11.1
		c-26-11.7-45.8-26.5-60.1-40c-8.5-8.1-15.7-16.3-21.8-24.4h22.6H345h213.9H629c11.9-11.1,22.4-24,30.3-38.3
		c4.5-8.3,9.5-18,9.5-27.7H558.9H305.2h-17.5h-17.5v-48h17.5h17.5h253.7h109.9v-66H558.9H305.2h-17.5h-17.5v-48h17.5h17.5h253.7
		h109.9V63H558.9H305.2h-17.5h-17.5V48c0-16.6-13.4-30-30-30h-50c-16.6,0-30,13.4-30,30v246c0,54.1,32.2,118.2,83.9,167.2
		c5.4,5.1,11,10.1,16.8,14.8c4.7,3.9,9.6,7.6,14.5,11.2c5.1,3.7,10.3,7.3,15.6,10.7h0c17.3,11.1,35.7,20.7,55.1,28.6
		C389.3,544.1,436.7,553,487,553c29.3,0,54.8,4,76.9,10.5c10.9,3.2,21,7,30.3,11.1c26,11.7,45.8,26.5,60.1,40
		c8.5,8.1,15.7,16.3,21.8,24.4h-22.6H629H415.1H345c-11.9,11.1-22.4,24-30.3,38.3c-4.5,8.3-9.5,18-9.5,27.7h109.9h253.7h17.5h17.5
		v48h-17.5h-17.5H415.1H305.2v66h109.9h253.7h17.5h17.5v48h-17.5h-17.5H415.1H305.2v66h109.9h253.7h17.5h17.5v15
		c0,16.6,13.4,30,30,30h50c16.6,0,30-13.4,30-30V702C813.8,647.9,781.6,583.8,729.8,534.7z"/>
</g>
</svg>
