<?xml version="1.0" encoding="utf-8"?>
<!-- Generator: Adobe Illustrator 15.0.0, SVG Export Plug-In . SVG Version: 6.00 Build 0)  -->
<!DOCTYPE svg PUBLIC "-//W3C//DTD SVG 1.1//EN" "http://www.w3.org/Graphics/SVG/1.1/DTD/svg11.dtd">
<svg version="1.1" id="Layer_1" xmlns="http://www.w3.org/2000/svg" xmlns:xlink="http://www.w3.org/1999/xlink" x="0px" y="0px"
	 width="26px" height="26px" viewBox="0 0 26 26" enable-background="new 0 0 26 26" xml:space="preserve">
<path d="M22.233,8.34c-0.28-0.063-0.56,0.112-0.623,0.393c-0.004,0.012-0.089,0.363-0.362,0.839l-4.9-4.9
	c0.453-0.254,0.796-0.344,0.85-0.357c0.278-0.064,0.452-0.342,0.389-0.622c-0.063-0.279-0.343-0.456-0.622-0.392
	c-0.053,0.012-5.173,1.274-4.234,8.72c-6.756-0.528-9.324,3.63-9.434,3.817c-0.125,0.208-0.086,0.469,0.078,0.633
	c0.029,0.029,0.063,0.056,0.1,0.078c0.246,0.147,0.566,0.067,0.714-0.177c0.028-0.049,0.247-0.395,0.691-0.848l5.522,5.522
	c-0.453,0.444-0.798,0.661-0.846,0.691c-0.247,0.146-0.328,0.465-0.18,0.713c0.022,0.038,0.049,0.072,0.079,0.102
	c0.165,0.164,0.425,0.203,0.634,0.078c0.187-0.111,4.345-2.678,3.817-9.435c7.446,0.939,8.708-4.182,8.721-4.233
	C22.688,8.684,22.513,8.403,22.233,8.34z M11.264,20.028l-5.366-5.364c0.56-0.395,1.266-0.786,2.142-1.089l4.313,4.313
	C12.049,18.764,11.658,19.47,11.264,20.028z M12.737,16.392l-3.201-3.202c0.956-0.169,2.055-0.23,3.316-0.114
	C12.968,14.337,12.906,15.437,12.737,16.392z M13.792,12.136c-0.158-1.106-0.175-2.055-0.093-2.876l2.964,2.964
	C15.843,12.307,14.895,12.292,13.792,12.136z M18.229,11.909l-4.22-4.22c0.312-0.987,0.788-1.695,1.277-2.198l5.139,5.138
	C19.919,11.119,19.212,11.596,18.229,11.909z"/>
</svg>
