<?xml version="1.0" encoding="utf-8"?>
<!-- Generator: Adobe Illustrator 16.0.0, SVG Export Plug-In . SVG Version: 6.00 Build 0)  -->
<!DOCTYPE svg PUBLIC "-//W3C//DTD SVG 1.1//EN" "http://www.w3.org/Graphics/SVG/1.1/DTD/svg11.dtd">
<svg version="1.1" id="Layer_1" xmlns="http://www.w3.org/2000/svg" xmlns:xlink="http://www.w3.org/1999/xlink" x="0px" y="0px"
	 width="48px" height="48px" viewBox="0 0 48 48" enable-background="new 0 0 48 48" xml:space="preserve">
<path d="M44.203,8.353h-4.929V3.455C39.274,2.099,38.198,1,36.842,1c-1.356,0-2.432,1.099-2.432,2.455v4.898h-4.627
	c-5.82,0-11.066,2.512-14.715,6.503l0.009,0.003c-3.244,3.548-5.215,8.271-5.215,13.446v5.581H4.933
	c-1.355,0-2.454,1.104-2.454,2.46c0,1.356,1.099,2.461,2.454,2.461h4.929v4.898c0,1.356,1.076,2.455,2.432,2.455
	c1.355,0,2.432-1.099,2.432-2.455v-4.898h4.627c10.996,0,19.922-8.956,19.922-19.952v-5.581h4.929c1.356,0,2.454-1.104,2.454-2.46
	C46.657,9.458,45.559,8.353,44.203,8.353z M30.884,28.489L19.627,17.231c1.232-1.13,2.653-2.06,4.209-2.732l9.604,9.603
	C32.838,25.713,31.968,27.193,30.884,28.489z M24.329,33.041l-8.97-8.971c0.497-1.689,1.282-3.255,2.3-4.642l11.125,11.125
	C27.463,31.619,25.96,32.467,24.329,33.041z M14.725,33.886v-5.581c0-0.222,0.019-0.443,0.028-0.663l6.169,6.163
	c-0.518,0.054-1.038,0.081-1.57,0.081H14.725z M34.411,18.855c0,0.646-0.054,1.283-0.133,1.907l-7.244-7.236
	c0.894-0.166,1.809-0.252,2.75-0.252h4.627V18.855z"/>
</svg>
