<?xml version="1.0" encoding="utf-8"?>
<!-- Generator: Adobe Illustrator 15.0.0, SVG Export Plug-In . SVG Version: 6.00 Build 0)  -->
<!DOCTYPE svg PUBLIC "-//W3C//DTD SVG 1.1//EN" "http://www.w3.org/Graphics/SVG/1.1/DTD/svg11.dtd">
<svg version="1.1" id="Layer_1" xmlns="http://www.w3.org/2000/svg" xmlns:xlink="http://www.w3.org/1999/xlink" x="0px" y="0px"
	 width="64px" height="64px" viewBox="0 0 64 64" enable-background="new 0 0 64 64" xml:space="preserve">
<path d="M59.145,19.591c-0.14-0.219-0.357-0.373-0.611-0.427c-0.518-0.117-1.074,0.242-1.184,0.73
	c-0.094,0.359-0.394,1.328-1.093,2.555l-0.324,0.572L40.967,8.057l0.575-0.324c1.443-0.812,2.517-1.063,2.565-1.073
	c0.528-0.124,0.859-0.655,0.739-1.184c-0.112-0.497-0.648-0.87-1.192-0.744c-0.143,0.035-14.326,3.826-11.733,24.416l0.077,0.61
	l-0.613-0.05c-1.107-0.084-2.212-0.125-3.285-0.125c-16.646,0-22.999,10.377-23.26,10.819c-0.232,0.387-0.169,0.886,0.146,1.195
	c0.05,0.057,0.117,0.105,0.212,0.168c0.382,0.227,1.1,0.042,1.34-0.353c0.117-0.191,0.762-1.209,2.053-2.517l0.354-0.358
	l16.524,16.528l-0.36,0.355c-1.313,1.29-2.318,1.928-2.505,2.043c-0.472,0.282-0.631,0.896-0.354,1.363
	c0.042,0.069,0.092,0.132,0.155,0.195c0.171,0.167,0.441,0.271,0.718,0.271c0.181,0,0.347-0.045,0.479-0.122
	c0.498-0.296,12.184-7.441,10.692-26.553l-0.047-0.614l0.61,0.077c1.71,0.22,3.372,0.328,4.944,0.328l0,0
	c16.482,0,19.443-11.939,19.473-12.063C59.335,20.086,59.287,19.817,59.145,19.591z M30.82,46.173
	c-0.79,2.276-1.861,4.382-3.161,6.232l-1.018,1.188L10.411,37.306l1.156-0.931c1.875-1.325,3.984-2.398,6.288-3.197l0.95-0.421
	l12.35,12.423L30.82,46.173z M31.94,41.815l-0.167,0.945L21.248,32.234l0.947-0.167c2.951-0.526,6.272-0.645,9.627-0.338
	l0.418,0.042l0.037,0.415C32.586,35.569,32.472,38.808,31.94,41.815z M42.735,30.289c-2.53,0.259-5.34,0.175-8.337-0.251
	l-0.372-0.056l-0.054-0.37c-0.429-3.012-0.52-5.825-0.269-8.359l0.175-1.722l10.602,10.64L42.735,30.289z M53.822,25.576
	c-1.755,1.701-3.94,2.977-6.452,3.782l-0.659,0.111L34.421,17.28l0.193-0.62c0.809-2.571,2.079-4.755,3.78-6.503l0.687-0.727
	l15.477,15.25L53.822,25.576z"/>
</svg>
