<?xml version="1.0" encoding="utf-8"?>
<!-- Generator: Adobe Illustrator 16.0.4, SVG Export Plug-In . SVG Version: 6.00 Build 0)  -->
<!DOCTYPE svg PUBLIC "-//W3C//DTD SVG 1.1//EN" "http://www.w3.org/Graphics/SVG/1.1/DTD/svg11.dtd">
<svg version="1.1" id="Layer_1" xmlns="http://www.w3.org/2000/svg" xmlns:xlink="http://www.w3.org/1999/xlink" x="0px" y="0px"
	 width="50px" height="50px" viewBox="0 0 50 50" enable-background="new 0 0 50 50" xml:space="preserve">
<g>
	<path d="M30.533,37.423c0.252-0.62,0.633-1.866,0.182-2.999c-0.451-1.13-1.586-1.772-2.193-2.05c0.252-0.62,0.631-1.868,0.18-2.998
		c-0.449-1.131-1.584-1.774-2.193-2.051c0.201-0.494,0.475-1.383,0.354-2.299c0.148-0.908-0.096-1.802-0.277-2.3
		c0.617-0.258,1.771-0.863,2.258-1.979c0.49-1.115,0.15-2.375-0.082-3.003c0.619-0.256,1.773-0.862,2.262-1.977
		c0.486-1.116,0.146-2.375-0.084-3.003c0.617-0.257,1.771-0.863,2.26-1.979l-0.648-0.284c-0.389,0.893-1.387,1.402-1.898,1.615
		l-0.012-0.021l-0.02,0.007c-0.195-0.521-0.498-1.597-0.107-2.491l-0.646-0.283c-0.488,1.115-0.148,2.374,0.084,3.002
		c-0.619,0.256-1.773,0.862-2.26,1.979c-0.488,1.116-0.15,2.375,0.082,3.003c-0.619,0.256-1.773,0.861-2.26,1.978
		c-0.488,1.117-0.148,2.375,0.082,3.003c-0.156,0.065-0.347,0.157-0.553,0.27c-0.202-0.119-0.39-0.218-0.544-0.287
		c0.253-0.62,0.633-1.867,0.182-2.997c-0.449-1.132-1.585-1.775-2.193-2.052c0.252-0.621,0.633-1.868,0.183-2.999
		c-0.452-1.132-1.586-1.774-2.195-2.051c0.252-0.619,0.634-1.866,0.183-2.999l-0.658,0.262c0.361,0.904,0.023,1.973-0.187,2.487
		l-0.022-0.007l-0.012,0.021c-0.509-0.23-1.484-0.772-1.846-1.677l-0.657,0.264c0.449,1.131,1.585,1.773,2.193,2.051
		c-0.252,0.62-0.632,1.868-0.181,2.999c0.451,1.13,1.586,1.774,2.194,2.05c-0.252,0.62-0.633,1.868-0.182,2.998
		c0.45,1.131,1.584,1.775,2.193,2.051c-0.2,0.493-0.473,1.382-0.354,2.296c-0.148,0.908,0.094,1.804,0.277,2.303
		c-0.617,0.256-1.771,0.862-2.259,1.979s-0.148,2.376,0.082,3.003c-0.618,0.256-1.772,0.863-2.26,1.979
		c-0.487,1.116-0.146,2.375,0.084,3.002c-0.617,0.256-1.772,0.861-2.261,1.979l0.648,0.283c0.389-0.893,1.386-1.402,1.9-1.614
		l0.01,0.021l0.021-0.006c0.193,0.521,0.495,1.598,0.106,2.489l0.646,0.284c0.488-1.117,0.148-2.375-0.083-3.003
		c0.618-0.256,1.772-0.863,2.26-1.979c0.488-1.116,0.148-2.375-0.082-3.001c0.618-0.256,1.772-0.863,2.26-1.979
		c0.488-1.116,0.147-2.374-0.085-3.002c0.157-0.064,0.348-0.156,0.554-0.269c0.203,0.119,0.391,0.217,0.546,0.287
		c-0.253,0.619-0.633,1.866-0.182,2.998c0.45,1.131,1.584,1.774,2.194,2.052c-0.252,0.62-0.633,1.867-0.184,2.998
		c0.453,1.131,1.586,1.773,2.195,2.05c-0.252,0.62-0.631,1.868-0.182,2.999l0.658-0.263c-0.361-0.903-0.023-1.972,0.188-2.487
		l0.021,0.007l0.01-0.02c0.51,0.229,1.486,0.771,1.848,1.676l0.658-0.263C32.277,38.344,31.145,37.7,30.533,37.423z M24.971,26.604
		c-0.402-0.289-0.803-0.681-1.007-1.19c-0.056-0.14-0.09-0.285-0.116-0.431c0.03-0.146,0.069-0.288,0.131-0.426
		c0.22-0.504,0.634-0.883,1.045-1.158c0.402,0.289,0.804,0.681,1.007,1.189c0.057,0.141,0.09,0.285,0.117,0.432
		c-0.031,0.145-0.07,0.288-0.133,0.427C25.797,25.949,25.382,26.328,24.971,26.604z M28.332,14.593
		c0.391-0.892,1.385-1.401,1.9-1.614l0.01,0.021l0.021-0.006c0.193,0.522,0.494,1.6,0.105,2.491c-0.391,0.89-1.385,1.4-1.9,1.613
		l-0.01-0.021l-0.023,0.007C28.242,16.564,27.941,15.49,28.332,14.593z M26.154,19.574c0.391-0.89,1.387-1.401,1.898-1.614
		l0.012,0.021l0.023-0.007c0.193,0.52,0.496,1.596,0.104,2.49c-0.391,0.893-1.385,1.402-1.898,1.615l-0.01-0.021l-0.025,0.007
		C26.066,21.544,25.764,20.47,26.154,19.574z M25.879,22.941l0.01,0.021l0.023-0.007c0.039,0.106,0.082,0.236,0.123,0.381
		c-0.109-0.115-0.229-0.216-0.344-0.312L25.879,22.941z M24.016,23.3c0.047-0.143,0.094-0.271,0.137-0.375l0.021,0.008l0.011-0.021
		l0.186,0.088C24.25,23.094,24.128,23.19,24.016,23.3z M19.939,15.314c-0.361-0.904-0.024-1.972,0.186-2.486l0.021,0.007l0.011-0.02
		c0.509,0.229,1.485,0.771,1.848,1.676c0.36,0.903,0.022,1.97-0.188,2.485l-0.021-0.008l-0.011,0.021
		C21.277,16.76,20.299,16.217,19.939,15.314z M21.953,20.363c-0.362-0.904-0.025-1.971,0.185-2.487l0.022,0.007l0.012-0.021
		c0.506,0.228,1.484,0.769,1.845,1.678c0.361,0.903,0.024,1.97-0.187,2.486l-0.021-0.007l-0.011,0.021
		C23.292,21.811,22.313,21.268,21.953,20.363z M21.662,35.407c-0.39,0.892-1.384,1.403-1.898,1.615l-0.01-0.021l-0.021,0.006
		c-0.192-0.521-0.496-1.601-0.106-2.491c0.39-0.892,1.384-1.401,1.9-1.614l0.009,0.019l0.023-0.007
		C21.75,33.438,22.052,34.516,21.662,35.407z M23.839,30.427c-0.39,0.892-1.385,1.402-1.898,1.614l-0.012-0.02l-0.022,0.007
		c-0.193-0.521-0.495-1.596-0.104-2.492c0.391-0.892,1.386-1.402,1.898-1.616l0.011,0.021l0.022-0.007
		C23.928,28.457,24.231,29.531,23.839,30.427z M24.115,27.062l-0.011-0.021l-0.021,0.006c-0.039-0.104-0.082-0.232-0.122-0.377
		c0.109,0.114,0.227,0.213,0.341,0.312L24.115,27.062z M25.979,26.701c-0.047,0.143-0.094,0.271-0.137,0.375l-0.02-0.007
		l-0.012,0.021l-0.188-0.088C25.746,26.908,25.867,26.812,25.979,26.701z M25.979,30.462c-0.361-0.903-0.025-1.972,0.188-2.486
		l0.021,0.007l0.01-0.021c0.508,0.229,1.484,0.772,1.846,1.677c0.361,0.903,0.025,1.971-0.186,2.486l-0.021-0.007l-0.012,0.021
		C27.318,31.911,26.34,31.37,25.979,30.462z M27.99,35.511c-0.359-0.903-0.023-1.97,0.188-2.485l0.021,0.007l0.012-0.021
		c0.508,0.229,1.484,0.772,1.846,1.675c0.361,0.905,0.023,1.973-0.186,2.487l-0.023-0.008l-0.01,0.021
		C29.33,36.958,28.352,36.415,27.99,35.511z"/>
</g>
</svg>
