<?xml version="1.0" encoding="utf-8"?>
<!-- Generator: Adobe Illustrator 16.0.4, SVG Export Plug-In . SVG Version: 6.00 Build 0)  -->
<!DOCTYPE svg PUBLIC "-//W3C//DTD SVG 1.1//EN" "http://www.w3.org/Graphics/SVG/1.1/DTD/svg11.dtd">
<svg version="1.1" id="Layer_1" xmlns="http://www.w3.org/2000/svg" xmlns:xlink="http://www.w3.org/1999/xlink" x="0px" y="0px"
	 width="50px" height="50px" viewBox="0 0 50 50" enable-background="new 0 0 50 50" xml:space="preserve">
<g>
	<path d="M26.093,25c1.641-1.376,5.617-5.189,5.617-9.809c0-0.382-0.309-0.691-0.691-0.691c-0.381,0-0.69,0.309-0.69,0.691
		c0,4.197-4.019,7.84-5.328,8.916c-1.312-1.075-5.328-4.711-5.328-8.916c0-0.382-0.312-0.691-0.69-0.691
		c-0.385,0-0.691,0.309-0.691,0.691c0,4.62,3.979,8.433,5.617,9.809c-1.641,1.376-5.617,5.189-5.617,9.809
		c0,0.383,0.309,0.691,0.691,0.691c0.381,0,0.69-0.309,0.69-0.691c0-4.197,4.019-7.84,5.328-8.916
		c1.31,1.075,5.328,4.711,5.328,8.916c0,0.383,0.312,0.691,0.69,0.691c0.385,0,0.691-0.309,0.691-0.691
		C31.71,30.189,27.731,26.376,26.093,25z"/>
	<path d="M21.499,16.113h7c0.381,0,0.691-0.311,0.691-0.691c0-0.382-0.312-0.691-0.691-0.691h-7c-0.384,0-0.691,0.309-0.691,0.691
		S21.115,16.113,21.499,16.113z"/>
	<path d="M28.326,18.36c0-0.382-0.312-0.691-0.69-0.691h-5.271c-0.385,0-0.691,0.31-0.691,0.691c0,0.382,0.309,0.691,0.691,0.691
		h5.271C28.017,19.051,28.326,18.742,28.326,18.36z"/>
	<path d="M24.005,20.261c-0.383,0-0.691,0.309-0.691,0.691c0,0.382,0.31,0.691,0.691,0.691h1.988c0.381,0,0.691-0.31,0.691-0.691
		c0-0.382-0.312-0.691-0.691-0.691H24.005z"/>
	<path d="M28.499,34.088h-7c-0.384,0-0.691,0.311-0.691,0.691c0,0.382,0.309,0.691,0.691,0.691h7c0.381,0,0.691-0.31,0.691-0.691
		C29.19,34.396,28.88,34.088,28.499,34.088z"/>
	<path d="M21.672,31.841c0,0.382,0.308,0.691,0.69,0.691h5.271c0.381,0,0.691-0.31,0.691-0.691s-0.311-0.69-0.691-0.69h-5.271
		C21.979,31.15,21.672,31.459,21.672,31.841z"/>
	<path d="M25.993,29.939c0.381,0,0.691-0.309,0.691-0.69s-0.312-0.69-0.691-0.69h-1.988c-0.383,0-0.691,0.31-0.691,0.69
		c0,0.382,0.31,0.69,0.691,0.69H25.993z"/>
</g>
</svg>
