<?xml version="1.0" encoding="utf-8"?>
<!-- Generator: Adobe Illustrator 16.0.4, SVG Export Plug-In . SVG Version: 6.00 Build 0)  -->
<!DOCTYPE svg PUBLIC "-//W3C//DTD SVG 1.1//EN" "http://www.w3.org/Graphics/SVG/1.1/DTD/svg11.dtd">
<svg version="1.1" id="Layer_1" xmlns="http://www.w3.org/2000/svg" xmlns:xlink="http://www.w3.org/1999/xlink" x="0px" y="0px"
	 width="50px" height="50px" viewBox="0 0 50 50" enable-background="new 0 0 50 50" xml:space="preserve">
<path d="M34.662,25c0-2.889-4.476-5.156-7.283-6.297c2.808-1.143,7.283-3.41,7.283-6.298c0-0.454-0.369-0.821-0.822-0.821
	c-0.455,0-0.821,0.367-0.821,0.821c0,0.764-0.722,1.592-1.8,2.388h-12.45c-1.057-0.775-1.787-1.602-1.787-2.388
	c0-0.454-0.367-0.821-0.821-0.821c-0.454,0-0.822,0.367-0.822,0.821c0,2.888,4.474,5.155,7.28,6.298
	c-2.806,1.141-7.28,3.408-7.28,6.297s4.474,5.156,7.28,6.297c-2.806,1.143-7.28,3.41-7.28,6.298c0,0.454,0.368,0.821,0.822,0.821
	s0.821-0.367,0.821-0.821c0-0.632,0.498-1.311,1.278-1.977h13.493c0.768,0.651,1.266,1.327,1.266,1.977
	c0,0.454,0.367,0.821,0.82,0.821c0.455,0,0.822-0.367,0.822-0.821c0-2.888-4.475-5.155-7.281-6.298
	C30.187,30.156,34.662,27.889,34.662,25z M31.572,27.114H18.419c-0.593-0.479-1.042-0.97-1.267-1.456h15.696
	C32.621,26.139,32.17,26.63,31.572,27.114z M29.584,28.432c-1.444,0.807-3.123,1.518-4.584,2.002
	c-1.258-0.42-3.02-1.144-4.572-2.002H29.584z M18.83,22.577h12.354c0.79,0.571,1.391,1.173,1.666,1.765H17.153
	C17.427,23.762,18.032,23.16,18.83,22.577z M28.996,21.262h-8.01c1.304-0.679,2.741-1.271,4.013-1.693
	C26.104,19.938,27.597,20.538,28.996,21.262z M29.082,16.107c-1.322,0.693-2.787,1.302-4.083,1.729
	c-1.121-0.374-2.645-0.991-4.063-1.729H29.082z M20.176,34.303c1.495-0.863,3.28-1.629,4.823-2.141
	c1.325,0.441,3.208,1.22,4.817,2.141H20.176z"/>
</svg>
