<?xml version="1.0" encoding="utf-8"?>
<!-- Generator: Adobe Illustrator 16.0.0, SVG Export Plug-In . SVG Version: 6.00 Build 0)  -->
<!DOCTYPE svg PUBLIC "-//W3C//DTD SVG 1.1//EN" "http://www.w3.org/Graphics/SVG/1.1/DTD/svg11.dtd">
<svg version="1.1" id="Layer_13" xmlns="http://www.w3.org/2000/svg" xmlns:xlink="http://www.w3.org/1999/xlink" x="0px" y="0px"
	 width="100px" height="100px" viewBox="0 0 100 100" enable-background="new 0 0 100 100" xml:space="preserve">
<path d="M62.118,78.739c-0.052-0.018-2.515-0.933-5.46-3.048c6.076-5.666,11.215-13.54,11.215-23.997
	c0-10.156-4.864-18.064-10.715-23.906c1.962-3.015,4.181-6.108,6.677-9.281c1.298-1.65,1.013-4.042-0.637-5.34
	c-1.651-1.297-4.042-1.015-5.34,0.637c-2.412,3.066-4.565,6.06-6.517,8.993c-6.909-5.142-13.487-7.697-14.064-7.916
	c-1.963-0.743-4.159,0.247-4.903,2.21c-0.743,1.964,0.247,4.159,2.211,4.902c0.127,0.049,6.412,2.486,12.732,7.324
	c-7.691,13.586-10.104,25.63-7.127,35.927c1.118,3.866,2.888,7.082,4.909,9.743c-5.439,3.516-10.281,5.218-10.39,5.255
	c-1.989,0.673-3.055,2.833-2.38,4.822c0.537,1.585,2.016,2.583,3.601,2.583c0.404,0,0.816-0.065,1.221-0.204
	c0.559-0.189,6.723-2.342,13.384-6.88c4.521,3.672,8.716,5.227,9.039,5.341c0.42,0.15,0.85,0.222,1.272,0.222
	c1.564,0,3.03-0.973,3.583-2.531C65.132,81.615,64.098,79.441,62.118,78.739z M47.496,63.132
	c-2.257-7.809-0.322-17.498,5.602-28.532c4.056,4.492,7.169,10.186,7.169,17.095c0,7.94-4.165,14.122-9.131,18.67
	C49.631,68.374,48.319,65.982,47.496,63.132z"/>
</svg>
