<?xml version="1.0" encoding="iso-8859-1"?>
<!-- Generator: Adobe Illustrator 16.0.0, SVG Export Plug-In . SVG Version: 6.00 Build 0)  -->
<!DOCTYPE svg PUBLIC "-//W3C//DTD SVG 1.1//EN" "http://www.w3.org/Graphics/SVG/1.1/DTD/svg11.dtd">
<svg version="1.1" id="Layer_1" xmlns="http://www.w3.org/2000/svg" xmlns:xlink="http://www.w3.org/1999/xlink" x="0px" y="0px"
	 width="36px" height="36px" viewBox="0 0 36 36" style="enable-background:new 0 0 36 36;" xml:space="preserve">
<g>
	<path style="fill:#010101;" d="M20.23,20.59l-3.141-5.441h-6.283l-2.426-2.425l-0.619,0.619l2.592,2.59l-2.461,4.263H4.656v0.876
		h3.287l2.404,4.167l-2.779,2.78l0.619,0.619l2.615-2.614l0.004,0.007h5.984l2.84,2.839l0.619-0.619l-2.816-2.815L20.23,20.59z
		 M11.385,16.149h5.127l2.564,4.441l-2.51,4.346l-0.096,0.096h-5.086L8.818,20.59L11.385,16.149z"/>
	<path style="fill:#010101;" d="M32.816,14.447h-3.033l-2.688-4.654l2.26-2.41L28.77,6.856l-2.379,2.543h-5.578l-1.949-2.461
		l-0.627,0.477l2.02,2.554l-2.813,4.872l3.143,5.441h6.283l2.914-5.048h3.033V14.447z M26.291,19.282h-5.127l-2.566-4.441
		l2.566-4.441h5.127l2.564,4.441L26.291,19.282z"/>
	<polygon style="fill:#010101;" points="15.635,17.765 15.635,16.978 12.088,16.978 10.234,20.403 10.928,20.778 12.557,17.765 	"/>
	<polygon style="fill:#010101;" points="22.402,17.681 22.402,18.468 25.963,18.468 27.611,15.026 26.9,14.686 25.467,17.681 	"/>
</g>
</svg>
