<?xml version="1.0" encoding="iso-8859-1"?>
<!-- Generator: Adobe Illustrator 16.0.0, SVG Export Plug-In . SVG Version: 6.00 Build 0)  -->
<!DOCTYPE svg PUBLIC "-//W3C//DTD SVG 1.1//EN" "http://www.w3.org/Graphics/SVG/1.1/DTD/svg11.dtd">
<svg version="1.1" id="Layer_1" xmlns="http://www.w3.org/2000/svg" xmlns:xlink="http://www.w3.org/1999/xlink" x="0px" y="0px"
	 width="26.533px" height="30.49px" viewBox="0 0 26.533 30.49" style="enable-background:new 0 0 26.533 30.49;"
	 xml:space="preserve">
<g>
	<polygon points="24.71,24.336 24.71,23.784 26.533,23.784 26.533,23.051 0,23.051 0,23.784 0.014,23.784 0.014,29.76 0,29.76 
		0,30.49 26.533,30.49 26.533,29.76 24.71,29.76 24.71,29.434 1.865,29.434 1.865,29.196 1.835,29.196 1.835,29.056 24.71,29.056 
		24.71,28.749 1.847,28.749 1.847,28.635 1.835,28.635 1.835,28.496 1.847,28.496 1.847,28.446 24.71,28.446 24.71,28.024 
		1.806,28.024 1.806,27.946 1.793,27.946 1.793,27.806 1.806,27.806 1.806,27.721 24.71,27.721 24.71,27.338 1.785,27.338 
		1.785,27.036 24.71,27.036 24.71,26.673 1.785,26.673 1.785,26.371 24.71,26.371 24.71,25.989 1.825,25.989 1.825,25.686 
		24.71,25.686 24.71,25.303 1.806,25.303 1.806,25.001 24.71,25.001 24.71,24.638 1.806,24.638 1.806,24.336 	"/>
	<polygon points="23.173,22.17 23.162,22.17 23.162,18.409 23.173,18.409 23.173,17.948 12.441,17.948 2.67,17.948 2.67,18.409 
		4.077,18.409 4.077,18.734 21.969,18.734 21.969,19.037 4.077,19.037 4.077,19.399 21.969,19.399 21.969,19.702 4.077,19.702 
		4.077,20.084 21.928,20.084 21.928,20.25 21.953,20.25 21.953,20.387 4.077,20.387 4.077,20.769 21.947,20.769 21.947,20.896 
		21.953,20.896 21.953,21.033 21.947,21.033 21.947,21.072 4.077,21.072 4.077,21.434 21.947,21.434 21.947,21.585 21.953,21.585 
		21.953,21.723 21.947,21.723 21.947,21.737 4.077,21.737 4.077,22.17 2.67,22.17 2.67,22.63 23.173,22.63 	"/>
	<path d="M6.314,17.382h13.901h0.001c0.652,0,1.201-0.323,1.542-0.909c0.449-0.771,0.444-1.878-0.015-2.689l-0.119-0.21
		c-0.445-0.794-1.488-2.652-2.565-4.238c-0.363-0.531-0.727-1.027-1.056-1.477c-0.528-0.719-1.185-1.613-1.189-1.878
		c0.039-1.165,0.012-3.922,0.002-4.773h0.688V0H8.803v1.208h0.912C9.704,2.059,9.679,4.815,9.719,5.979
		C9.713,6.246,9.056,7.14,8.528,7.859C8.199,8.308,7.835,8.804,7.473,9.335c-1.078,1.585-2.12,3.444-2.567,4.238l-0.117,0.21
		c-0.46,0.811-0.465,1.917-0.016,2.689C5.114,17.059,5.662,17.382,6.314,17.382z M5.658,14.277l0.119-0.215
		c0.439-0.782,1.469-2.613,2.523-4.164c0.354-0.522,0.71-1.008,1.034-1.449c0.921-1.257,1.401-1.938,1.383-2.501
		c-0.036-1.037-0.017-3.449-0.005-4.491h5.106c0.011,1.042,0.032,3.454-0.005,4.491c-0.02,0.563,0.461,1.245,1.383,2.501
		c0.322,0.441,0.68,0.927,1.034,1.449c1.054,1.55,2.083,3.382,2.522,4.164l0.121,0.215c0.282,0.499,0.29,1.229,0.02,1.692
		c-0.16,0.274-0.388,0.413-0.679,0.413H6.314c-0.289,0-0.518-0.139-0.678-0.413C5.366,15.505,5.374,14.776,5.658,14.277z"/>
	<path d="M7.131,16.133h0.87h3.229h4.07h3.251h0.852c0.384,0,0.704-0.19,0.907-0.535c0.263-0.454,0.261-1.104-0.01-1.581
		l-0.069-0.125c-0.263-0.465-0.876-1.559-1.509-2.49c-0.163-0.24-0.324-0.461-0.479-0.672H8.289
		c-0.155,0.211-0.314,0.433-0.479,0.672c-0.634,0.931-1.247,2.024-1.509,2.49l-0.07,0.125c-0.271,0.477-0.272,1.126-0.009,1.581
		C6.426,15.942,6.747,16.133,7.131,16.133z"/>
</g>
<g>
</g>
<g>
</g>
<g>
</g>
<g>
</g>
<g>
</g>
<g>
</g>
<g>
</g>
<g>
</g>
<g>
</g>
<g>
</g>
<g>
</g>
<g>
</g>
<g>
</g>
<g>
</g>
<g>
</g>
</svg>
