<?xml version="1.0" encoding="utf-8"?>
<!-- Generator: Adobe Illustrator 17.0.0, SVG Export Plug-In . SVG Version: 6.00 Build 0)  -->
<!DOCTYPE svg PUBLIC "-//W3C//DTD SVG 1.1//EN" "http://www.w3.org/Graphics/SVG/1.1/DTD/svg11.dtd">
<svg version="1.1" id="Capa_1" xmlns="http://www.w3.org/2000/svg" xmlns:xlink="http://www.w3.org/1999/xlink" x="0px" y="0px"
	 width="200px" height="200px" viewBox="0 0 200 200" enable-background="new 0 0 200 200" xml:space="preserve">
<path fill="#1D1D1B" d="M179.497,39.846c-18.607-25.992-46.045-29.738-75.748-29.168c-23.538-2.381-49.45,5-67.62,19.926
	C14.863,48.073,5.447,72.3,5.349,99.441c-0.198,54.702,42.213,94.865,96.723,90.071c45.085-3.965,85.109-40.941,93.29-85.183
	C199.599,81.414,192.867,58.522,179.497,39.846z M187.849,105.448c-7.151,39.046-42.468,68.895-80.251,76.276
	c-49.967,9.762-90.466-26.188-94.89-74.962c-2.219-24.47,5.642-48.089,23.213-65.343c18.101-17.775,43.004-21.744,67.057-24.819
	c29.298,0.865,54.092,4.155,72.356,29.904C187.533,63.704,191.616,84.877,187.849,105.448z"/>
<path fill="#1D1D1B" d="M145.463,36.82c-11.495-7.774-26.789-9.862-40.318-8.987c-0.625,0.04-1.105,0.267-1.518,0.557
	C33.06,5.148-4.481,127.827,55.556,163.731c35.79,21.404,80.286,0.771,100.883-31.348C175.219,103.097,176.811,58.021,145.463,36.82
	z M72.839,164.05c-35.32-7.746-45.47-47.477-38.854-78.591c3.352-15.765,11.397-30.491,23.65-41.031
	c14.186-12.203,32.795-12.586,50.383-10.095c0.662,0.094,1.283-0.174,1.763-0.589c17.639,1.091,34.236,6.084,44.748,21.613
	c9.702,14.334,9.716,33.359,5.878,49.581C151.077,144.369,113.676,173.006,72.839,164.05z"/>
<path fill="#1D1D1B" d="M145.042,52.376c-3.633-5.585-13.599-8.837-19.895-7.061c-12.494,3.524-18.067,16.421-30.077,20.743
	c0.486-1.23,0.954-2.463,1.396-3.702c2.275-6.377,6.14-22.796-5.227-24.117c-10.643-1.237-16.468,16.002-19.293,23.464
	c-4.749,12.545-9.26,29.8-3.253,42.665c0.367,0.785,1.629,0.226,1.383-0.583c-3.421-11.236,0.457-24.876,3.749-35.708
	c1.761-5.793,4.17-11.378,7.062-16.69c2.838-5.211,12.808-15.416,14.258-2.669c1.34,11.778-10.326,28.285-15.021,38.607
	c-3.362,7.391-7.632,15.6-9.079,23.917c-4.537-8.865-7.126-17.038-7.502-28.595c-0.386-11.875-2.921-22.245-15.822-24.927
	c-2.541-0.528-3.559,3.091-1.072,3.89c0.111,0.036,0.197,0.085,0.305,0.121c-0.482,0.064-0.935,0.358-1.13,0.968
	c-6.32,19.727,3.047,45.952,9.76,64.283c4.072,11.121,13.92,38.942,30.336,35.148c19.8-4.576-5.44-34.466-9.755-41.736
	c-0.441-0.742-0.832-1.438-1.251-2.158c0.001-0.006,0.004-0.009,0.005-0.014c0.673-4.648,1.864-9.162,3.359-13.596
	c0.189,0.09,0.345,0.207,0.578,0.258c14.244,3.157,17.18,15.957,24.14,26.756c4.496,6.977,11.153,9.308,19.044,10.293
	c18.703,2.335,20.751-19.544,20.976-32.784c0.178-10.493,1.553-19.827,3.898-30.071C148.971,70.094,150.301,60.459,145.042,52.376z
	 M83.046,140.866c2.988,5.055,11.404,16.643-0.244,17.211c-13.857,0.677-23.212-34.149-26.078-43.312
	c-4.582-14.65-11.95-35.879-8.178-51.318c0.119-0.485,0-0.88-0.231-1.177c13.972,5.797,9.21,21.785,11.378,34.098
	c1.218,6.917,4.421,12.651,7.854,18.739C72.468,123.833,77.949,132.243,83.046,140.866z M138.114,106.603
	c-0.059,7.829-0.032,15.972-3.164,23.296c-5.727,13.391-23.204,5.363-28.727-3.207c-7.632-11.844-10.64-23.624-25.932-27.013
	c-0.078-0.017-0.14,0.007-0.216-0.004c3.975-10.199,9.278-20.035,13.546-30.086c0.417,0.446,1.027,0.702,1.812,0.47
	c5.791-1.718,10.057-4.666,14.542-8.661c3.799-3.384,7.142-6.827,11.438-9.65c9.71-6.379,21.326,1.428,22.485,11.683
	C145.471,77.365,138.223,92.298,138.114,106.603z"/>
<path fill="#1D1D1B" d="M127.836,86.018c-5.055-7.098-15.354-7.868-22.195-2.853c-1.097,0.804-1.233,2.337-0.71,3.405
	c-3.252,5.487-4.194,12.383-0.773,18.064c4.757,7.902,16.839,6.271,22.694,0.746C132.149,100.38,131.838,91.637,127.836,86.018z
	 M123.718,101.161c-3.608,4.612-12.428,5.595-15.882,0.396c-2.575-3.875-1.728-9.667,0.104-14.19
	c5.191-2.046,10.29-3.799,14.783,0.741C126.025,91.446,126.639,97.427,123.718,101.161z"/>
</svg>
