<?xml version="1.0" encoding="utf-8"?>
<!-- Generator: Adobe Illustrator 16.0.0, SVG Export Plug-In . SVG Version: 6.00 Build 0)  -->
<!DOCTYPE svg PUBLIC "-//W3C//DTD SVG 1.1//EN" "http://www.w3.org/Graphics/SVG/1.1/DTD/svg11.dtd">
<svg version="1.1" id="Layer_1" xmlns="http://www.w3.org/2000/svg" xmlns:xlink="http://www.w3.org/1999/xlink" x="0px" y="0px"
	 width="48px" height="48px" viewBox="0 0 48 48" enable-background="new 0 0 48 48" xml:space="preserve">
<g>
	<path d="M44.005,10.081c-2.628-1.251-5.772-0.136-7.022,2.493c-0.86,1.807-0.581,3.844,0.519,5.355l-3.767,7.913
		c-2.885-1.602-6.198-2.526-9.733-2.526c-3.525,0-6.829,0.92-9.708,2.513L10.5,17.86c1.099-1.512,1.378-3.549,0.518-5.355
		c-1.25-2.628-4.395-3.744-7.022-2.492c-2.629,1.251-3.744,4.396-2.493,7.023c0.859,1.806,2.617,2.874,4.484,2.974l4.201,8.826
		c-3.024,2.868-5.171,6.655-5.96,10.926c-0.151,0.821,0.07,1.807,0.604,2.448s1.327,1.15,2.162,1.15h34.012
		c0.834,0,1.625-0.51,2.159-1.151c0.534-0.641,0.759-1.557,0.606-2.377c-0.786-4.261-2.923-8.075-5.936-10.94l4.179-8.796
		c1.866-0.1,3.624-1.176,4.483-2.982C47.749,14.485,46.633,11.333,44.005,10.081z"/>
	<path d="M32.956,13.36h-2.781l-3.184-5.743c-0.265-0.477-0.768-0.773-1.313-0.773c-0.577,0-1.104,0.331-1.353,0.851l-3.113,6.486
		c-0.036,0.075-0.114,0.122-0.198,0.118c-0.083-0.004-0.156-0.058-0.186-0.136l-3.081-8.34c-0.237-0.604-0.835-0.989-1.482-0.949
		c-0.647,0.036-1.197,0.485-1.364,1.112l-2.229,8.399c-0.212,0.801,0.265,1.622,1.065,1.835c0.805,0.213,1.622-0.265,1.835-1.065
		l0.93-3.505c0.018-0.065,0.075-0.112,0.143-0.116c0.067-0.003,0.13,0.037,0.154,0.1l2.814,7.344
		c0.232,0.607,0.814,1.007,1.465,1.007c0.635,0,1.209-0.377,1.461-0.96l2.987-6.923c0.027-0.064,0.089-0.107,0.159-0.112
		c0.069-0.004,0.136,0.031,0.172,0.091l2.117,3.562c0.265,0.479,0.768,0.719,1.313,0.719h3.667c0.828,0,1.5-0.672,1.5-1.5
		S33.784,13.36,32.956,13.36z"/>
</g>
</svg>
