<?xml version="1.0" encoding="iso-8859-1"?>
<!-- Generator: Adobe Illustrator 18.0.0, SVG Export Plug-In . SVG Version: 6.00 Build 0)  -->
<!DOCTYPE svg PUBLIC "-//W3C//DTD SVG 1.1//EN" "http://www.w3.org/Graphics/SVG/1.1/DTD/svg11.dtd">
<svg version="1.1" id="Capa_1" xmlns="http://www.w3.org/2000/svg" xmlns:xlink="http://www.w3.org/1999/xlink" x="0px" y="0px"
	 viewBox="0 0 15.283 35.809" style="enable-background:new 0 0 15.283 35.809;" xml:space="preserve">
<g>
	<path d="M14.06,6.062h-2.139c-0.676,0-1.223,0.549-1.223,1.222v7.056H4.562V7.284c0-0.673-0.547-1.222-1.223-1.222H1.223
		C0.547,6.062,0,6.61,0,7.284c0,0.679,0.547,1.224,1.223,1.224h0.894v7.054v14.73c0,3.043,2.475,5.517,5.516,5.517
		c3.039,0,5.512-2.474,5.512-5.517v-14.73V8.507h0.916c0.676,0,1.223-0.545,1.223-1.224C15.283,6.61,14.736,6.062,14.06,6.062z
		 M10.699,30.292c0,1.693-1.377,3.071-3.066,3.071c-1.693,0-3.07-1.378-3.07-3.071V16.784h6.137V30.292z"/>
	<path d="M4.568,4.447c1.227,0,2.221-0.994,2.221-2.226C6.789,0.999,5.795,0,4.568,0C3.34,0,2.344,0.999,2.344,2.221
		C2.344,3.454,3.34,4.447,4.568,4.447z"/>
	<path d="M9.406,6.439c0.762,0,1.381-0.621,1.381-1.38c0-0.76-0.619-1.38-1.381-1.38c-0.76,0-1.377,0.62-1.377,1.38
		C8.029,5.818,8.646,6.439,9.406,6.439z"/>
	<path d="M5.725,9.51c0,0.636,0.518,1.151,1.15,1.151c0.639,0,1.154-0.516,1.154-1.151c0-0.635-0.516-1.151-1.154-1.151
		C6.242,8.359,5.725,8.875,5.725,9.51z"/>
</g>
<g>
</g>
<g>
</g>
<g>
</g>
<g>
</g>
<g>
</g>
<g>
</g>
<g>
</g>
<g>
</g>
<g>
</g>
<g>
</g>
<g>
</g>
<g>
</g>
<g>
</g>
<g>
</g>
<g>
</g>
</svg>
