<?xml version="1.0" encoding="iso-8859-1"?>
<!-- Generator: Adobe Illustrator 16.0.0, SVG Export Plug-In . SVG Version: 6.00 Build 0)  -->
<!DOCTYPE svg PUBLIC "-//W3C//DTD SVG 1.1//EN" "http://www.w3.org/Graphics/SVG/1.1/DTD/svg11.dtd">
<svg version="1.1" id="Layer_1" xmlns="http://www.w3.org/2000/svg" xmlns:xlink="http://www.w3.org/1999/xlink" x="0px" y="0px"
	 width="44.216px" height="47.792px" viewBox="0 0 44.216 47.792" style="enable-background:new 0 0 44.216 47.792;"
	 xml:space="preserve">
<g>
	<path d="M5.822,22.125h11.656c0.005,0.392,0.012,0.749,0.022,1.037c-0.011,0.416-1.035,1.813-1.859,2.935
		c-0.515,0.703-1.084,1.478-1.649,2.308c-1.684,2.477-3.313,5.38-4.01,6.62l-0.186,0.329c-0.717,1.267-0.726,2.994-0.022,4.201
		c0.534,0.916,1.39,1.419,2.409,1.419h21.719h0.001c1.019,0,1.874-0.504,2.407-1.419c0.704-1.207,0.696-2.935-0.022-4.201
		l-0.185-0.329c-0.697-1.24-2.327-4.143-4.011-6.62c-0.565-0.831-1.133-1.605-1.649-2.308c-0.824-1.123-1.849-2.519-1.858-2.933
		c0.01-0.29,0.017-0.646,0.022-1.04h6.057v-3.5h-6.05c-0.006-1.233-0.018-2.35-0.024-2.92h1.075V13.82H16.071v1.886h1.424
		c-0.007,0.57-0.018,1.688-0.024,2.92H5.822V6.888H2.323v11.738H0v3.5h2.323v22.167H0v3.5h38.414v-3.5H5.822V22.125z M29.184,27.021
		c0.505,0.689,1.063,1.448,1.616,2.264c1.648,2.421,3.255,5.283,3.941,6.504l0.188,0.335c0.443,0.781,0.457,1.918,0.033,2.645
		c-0.25,0.428-0.606,0.645-1.06,0.645H12.183c-0.454,0-0.809-0.217-1.059-0.645c-0.423-0.727-0.411-1.864,0.032-2.645l0.188-0.335
		c0.686-1.222,2.293-4.083,3.941-6.504c0.553-0.815,1.111-1.575,1.616-2.264c1.44-1.963,2.19-3.027,2.16-3.909
		c-0.009-0.271-0.016-0.616-0.021-0.986h8.005c-0.005,0.371-0.011,0.716-0.021,0.986C26.994,23.994,27.744,25.058,29.184,27.021z
		 M19.053,16.097h7.979c0.006,0.615,0.015,1.535,0.02,2.529h-8.019C19.038,17.631,19.046,16.711,19.053,16.097z"/>
	<path d="M18.996,32.146c-2.178-0.195-3.73-1.561-3.73-1.561c-0.24,0.331-0.491,0.677-0.745,1.051
		c-0.99,1.456-1.95,3.163-2.358,3.891l-0.11,0.194c-0.421,0.745-0.426,1.76-0.013,2.47c0.314,0.538,0.817,0.833,1.417,0.833h1.361
		h5.045h6.361H31.3h1.331c0.599,0,1.102-0.296,1.416-0.833c0.413-0.71,0.409-1.726-0.014-2.47l-0.109-0.194
		c-0.41-0.728-1.368-2.435-2.358-3.891c-0.253-0.374-0.504-0.72-0.746-1.051c0,0-1.255,0.52-5.124,0.649
		C21.826,31.364,21.174,32.34,18.996,32.146z M16.115,35.761c-0.714,0-1.294-0.579-1.294-1.293c0-0.715,0.58-1.294,1.294-1.294
		c0.715,0,1.293,0.579,1.293,1.294C17.409,35.182,16.83,35.761,16.115,35.761z M17.553,37.979c-0.254,0-0.462-0.207-0.462-0.462
		c0-0.256,0.208-0.462,0.462-0.462c0.255,0,0.463,0.207,0.463,0.462C18.017,37.771,17.809,37.979,17.553,37.979z M21.625,35.056
		c-0.432,0-0.779-0.35-0.779-0.782c0-0.429,0.348-0.78,0.779-0.78c0.431,0,0.781,0.352,0.781,0.78
		C22.406,34.706,22.056,35.056,21.625,35.056z M24.76,37.665c-0.337,0-0.61-0.275-0.61-0.611c0-0.338,0.272-0.611,0.61-0.611
		c0.338,0,0.612,0.273,0.612,0.611C25.373,37.39,25.098,37.665,24.76,37.665z M30.59,37.516c0,0.255-0.208,0.462-0.463,0.462
		c-0.254,0-0.462-0.207-0.462-0.462c0-0.256,0.208-0.462,0.462-0.462C30.383,37.054,30.59,37.26,30.59,37.516z M28.688,33.708
		c0.772,0,1.396,0.625,1.396,1.395c0,0.77-0.624,1.395-1.396,1.395c-0.769,0-1.394-0.625-1.394-1.395
		C27.295,34.332,27.919,33.708,28.688,33.708z"/>
	<path d="M22.661,12.259c0.208,0.023,0.413,0.034,0.616,0.034c1.236,0,2.398-0.416,3.274-1.146c0.718,0.499,1.574,0.818,2.49,0.919
		c2.747,0.31,5.132-1.437,5.395-3.808c0.093-0.838-0.094-1.687-0.523-2.44c0.547-0.528,0.896-1.208,0.979-1.949
		c0.208-1.886-1.337-3.61-3.446-3.844c-1.335-0.148-2.594,0.339-3.385,1.222c-0.31-0.092-0.626-0.155-0.947-0.191
		c-2.203-0.242-4.196,0.834-5.014,2.543c-2.074,0.345-3.657,1.845-3.869,3.761C17.965,9.762,19.953,11.959,22.661,12.259z
		 M22.858,5.53l0.729-0.031l0.193-0.704c0.286-1.043,1.402-1.771,2.715-1.771c0.131,0,0.264,0.007,0.399,0.022
		c0.384,0.042,0.761,0.15,1.119,0.319l0.903,0.428l0.428-0.903c0.282-0.595,1.063-0.969,1.881-0.875
		c1.013,0.112,1.766,0.846,1.678,1.634c-0.048,0.433-0.353,0.812-0.834,1.041l-1.264,0.6l0.977,1.002
		c0.498,0.511,0.735,1.131,0.666,1.747c-0.142,1.283-1.568,2.218-3.187,2.041c-0.812-0.09-1.539-0.441-2.047-0.987l-0.824-0.886
		l-0.715,0.976c-0.577,0.788-1.645,1.221-2.794,1.089c-1.613-0.178-2.807-1.385-2.663-2.688C20.344,6.452,21.454,5.589,22.858,5.53z
		"/>
	<path d="M43.748,2.632c-0.4-0.574-1.012-0.99-1.723-1.174C40.969,1.187,39.853,1.5,39.192,2.21
		c-1.375,0.052-2.494,0.885-2.81,2.106c-0.198,0.768-0.038,1.601,0.441,2.286c0.453,0.647,1.145,1.118,1.949,1.326
		c0.292,0.076,0.592,0.114,0.89,0.114c1.218,0,2.286-0.646,2.764-1.616c0.848-0.274,1.502-0.921,1.715-1.749
		C44.319,3.99,44.176,3.245,43.748,2.632z M41.588,4.566L40.82,4.621l-0.143,0.757c-0.006,0.029-0.01,0.059-0.014,0.089
		c-0.145,0.432-0.78,0.684-1.391,0.525c-0.337-0.087-0.632-0.282-0.809-0.535c-0.084-0.121-0.216-0.365-0.145-0.641
		c0.093-0.358,0.508-0.609,1.01-0.609c0.072,0,0.145,0.005,0.218,0.016l0.714,0.101l0.321-0.646
		c0.125-0.252,0.546-0.385,0.943-0.284c0.245,0.063,0.458,0.203,0.583,0.383c0.066,0.095,0.137,0.242,0.096,0.401
		C42.151,4.388,41.903,4.544,41.588,4.566z"/>
</g>
<g>
</g>
<g>
</g>
<g>
</g>
<g>
</g>
<g>
</g>
<g>
</g>
<g>
</g>
<g>
</g>
<g>
</g>
<g>
</g>
<g>
</g>
<g>
</g>
<g>
</g>
<g>
</g>
<g>
</g>
</svg>
