<?xml version="1.0" encoding="iso-8859-1"?>
<!-- Generator: Adobe Illustrator 16.0.0, SVG Export Plug-In . SVG Version: 6.00 Build 0)  -->
<!DOCTYPE svg PUBLIC "-//W3C//DTD SVG 1.1//EN" "http://www.w3.org/Graphics/SVG/1.1/DTD/svg11.dtd">
<svg version="1.1" id="Layer_1" xmlns="http://www.w3.org/2000/svg" xmlns:xlink="http://www.w3.org/1999/xlink" x="0px" y="0px"
	 width="43.552px" height="45.431px" viewBox="0 0 43.552 45.431" style="enable-background:new 0 0 43.552 45.431;"
	 xml:space="preserve">
<g>
	<path d="M41.454,1.31c-2.186-1.751-4.041-1.25-4.122-1.225l-0.124,0.04l-4.713,5.882l-3.222-2.582l-3.411,4.258l2.832,2.269
		L17.698,23.676l1.292,2.313l-2.221,2.772l1.319,1.056c-1.273,0.898-3.576,3.65-3.668,5.906c-0.003,0.053-0.002,0.106-0.002,0.159
		c0,0.09,0.001,0.18,0.01,0.268c0.01,0.121,0.03,0.239,0.056,0.355c0.01,0.041,0.021,0.082,0.032,0.122
		c0.039,0.14,0.086,0.277,0.152,0.409c0.088,0.178,0.193,0.337,0.306,0.486c0.035,0.046,0.073,0.088,0.109,0.132
		c0.084,0.1,0.173,0.193,0.267,0.28c0.044,0.041,0.088,0.081,0.134,0.118c0.104,0.084,0.211,0.161,0.324,0.232
		c0.039,0.024,0.075,0.051,0.114,0.074c0.013,0.008,0.024,0.018,0.038,0.024c0-0.002-0.001-0.005-0.002-0.007
		c2.183,1.214,5.66-0.017,5.302-1.963c-0.405-2.208-2.424-3.726-2.403-5.98l1.133,0.907l2.167-2.705l2.316,1.035l11.272-14.068
		l2.887,2.314l3.41-4.257l-3.22-2.58l4.713-5.883l0.012-0.129C43.556,4.986,43.688,3.099,41.454,1.31z M19.326,34.552
		c0,0,0.926,0.874,0.816,1.911c-0.109,1.036-1.241,1.487-1.241,1.487s0.667-0.659,0.677-1.459
		C19.588,35.691,19.326,34.552,19.326,34.552z M23.967,27.573l-2.316-1.035l-1.925,2.401l-0.554-0.444l1.872-2.336l-1.293-2.314
		L30.027,11.02l4.387,3.514L23.967,27.573z"/>
	<path d="M22.333,41.127c-2.25-0.208-9.924-0.956-12.018,0.567c-0.476,0.346-0.843,0.711-1.145,1.07H0v2.667h33.917v-2.667h-8.894
		C24.24,41.95,23.288,41.216,22.333,41.127z"/>
</g>
<g>
</g>
<g>
</g>
<g>
</g>
<g>
</g>
<g>
</g>
<g>
</g>
<g>
</g>
<g>
</g>
<g>
</g>
<g>
</g>
<g>
</g>
<g>
</g>
<g>
</g>
<g>
</g>
<g>
</g>
</svg>
