<?xml version="1.0" encoding="iso-8859-1"?>
<!-- Generator: Adobe Illustrator 16.0.0, SVG Export Plug-In . SVG Version: 6.00 Build 0)  -->
<!DOCTYPE svg PUBLIC "-//W3C//DTD SVG 1.1//EN" "http://www.w3.org/Graphics/SVG/1.1/DTD/svg11.dtd">
<svg version="1.1" id="Layer_1" xmlns="http://www.w3.org/2000/svg" xmlns:xlink="http://www.w3.org/1999/xlink" x="0px" y="0px"
	 width="34.15px" height="39.961px" viewBox="0 0 34.15 39.961" style="enable-background:new 0 0 34.15 39.961;"
	 xml:space="preserve">
<path d="M31.475,1.67c-2.787-2.233-5.152-1.594-5.256-1.562l-0.158,0.05l-6.01,7.501l-4.107-3.292l-4.35,5.429l3.611,2.893
	L1.184,30.19l1.648,2.948L0,36.673l4.107,3.289l2.764-3.449l2.953,1.32l14.373-17.938l3.681,2.95l4.349-5.428l-4.105-3.29
	l6.01-7.502l0.015-0.165C34.154,6.358,34.323,3.952,31.475,1.67z M9.177,35.159l-2.953-1.32L3.77,36.901l-0.707-0.566l2.387-2.978
	l-1.648-2.95l13.104-16.355l5.594,4.481L9.177,35.159z"/>
<g>
</g>
<g>
</g>
<g>
</g>
<g>
</g>
<g>
</g>
<g>
</g>
<g>
</g>
<g>
</g>
<g>
</g>
<g>
</g>
<g>
</g>
<g>
</g>
<g>
</g>
<g>
</g>
<g>
</g>
</svg>
