<?xml version="1.0" encoding="utf-8"?>
<!-- Generator: Adobe Illustrator 16.0.4, SVG Export Plug-In . SVG Version: 6.00 Build 0)  -->
<!DOCTYPE svg PUBLIC "-//W3C//DTD SVG 1.1//EN" "http://www.w3.org/Graphics/SVG/1.1/DTD/svg11.dtd">
<svg version="1.1" id="Layer_1" xmlns="http://www.w3.org/2000/svg" xmlns:xlink="http://www.w3.org/1999/xlink" x="0px" y="0px"
	 width="50px" height="50px" viewBox="0 0 50 50" enable-background="new 0 0 50 50" xml:space="preserve">
<path d="M28.34,21.676c0.324,0.561,1.01,0.859,1.98,0.859c0.289,0,0.6-0.031,0.92-0.082c0.496,1.303,1.258,2.125,2.127,2.125
	s1.631-0.822,2.129-2.125c0.319,0.051,0.629,0.082,0.918,0.082c0.973,0,1.656-0.299,1.98-0.859c0.436-0.752,0.105-1.82-0.773-2.902
	c0.879-1.082,1.209-2.151,0.773-2.901c-0.324-0.562-1.009-0.858-1.98-0.858c-0.289,0-0.599,0.028-0.918,0.082
	c-0.498-1.306-1.26-2.128-2.129-2.128s-1.631,0.822-2.127,2.128c-0.32-0.054-0.631-0.082-0.921-0.082
	c-0.971,0-1.655,0.297-1.979,0.858c-0.434,0.75-0.104,1.819,0.775,2.901C28.234,19.856,27.906,20.924,28.34,21.676z M31.246,20.665
	c0.241,0.162,0.49,0.322,0.754,0.475c0.266,0.152,0.531,0.289,0.799,0.418c-0.43,0.164-0.85,0.287-1.252,0.375
	C31.424,21.543,31.32,21.118,31.246,20.665z M33.367,24.124c-0.652,0-1.25-0.688-1.668-1.76c0.535-0.121,1.098-0.305,1.668-0.547
	c0.57,0.242,1.133,0.426,1.668,0.547C34.617,23.436,34.021,24.124,33.367,24.124z M35.188,21.932
	c-0.403-0.088-0.821-0.211-1.252-0.375c0.267-0.129,0.533-0.266,0.798-0.418c0.264-0.152,0.514-0.312,0.756-0.475
	C35.414,21.118,35.312,21.543,35.188,21.932z M36.414,15.469c0.789,0,1.353,0.223,1.588,0.629c0.324,0.564,0.029,1.422-0.688,2.322
	c-0.367-0.398-0.81-0.793-1.308-1.17c-0.078-0.621-0.197-1.201-0.359-1.719C35.914,15.493,36.172,15.469,36.414,15.469z
	 M36.065,17.881c0.354,0.293,0.672,0.592,0.944,0.893c-0.272,0.3-0.59,0.601-0.944,0.892c0.021-0.291,0.034-0.586,0.034-0.892
	C36.1,18.469,36.086,18.174,36.065,17.881z M36.006,20.295c0.498-0.375,0.941-0.77,1.309-1.168c0.717,0.898,1.014,1.758,0.688,2.32
	c-0.234,0.408-0.797,0.631-1.586,0.631c-0.242,0-0.5-0.025-0.769-0.064C35.81,21.497,35.929,20.918,36.006,20.295z M35.49,16.883
	c-0.242-0.164-0.492-0.324-0.758-0.477c-0.264-0.152-0.529-0.289-0.796-0.418c0.431-0.162,0.849-0.285,1.252-0.373
	C35.312,16.004,35.414,16.43,35.49,16.883z M33.367,13.422c0.652,0,1.25,0.688,1.668,1.762c-0.535,0.121-1.098,0.306-1.668,0.545
	c-0.57-0.239-1.133-0.424-1.668-0.545C32.117,14.11,32.715,13.422,33.367,13.422z M31.547,15.616
	c0.402,0.088,0.822,0.211,1.252,0.373c-0.268,0.129-0.532,0.266-0.797,0.418c-0.266,0.152-0.515,0.312-0.758,0.477
	C31.32,16.43,31.424,16.004,31.547,15.616z M31.16,17.5c0.334-0.244,0.689-0.48,1.068-0.699s0.76-0.41,1.139-0.58
	c0.379,0.17,0.76,0.361,1.139,0.58c0.38,0.219,0.734,0.455,1.068,0.699c0.043,0.41,0.07,0.836,0.07,1.273
	c0,0.437-0.027,0.862-0.07,1.271c-0.334,0.246-0.689,0.479-1.068,0.701c-0.377,0.217-0.76,0.409-1.139,0.58
	c-0.379-0.171-0.761-0.363-1.139-0.58c-0.379-0.222-0.734-0.455-1.068-0.699c-0.043-0.41-0.07-0.836-0.07-1.274
	C31.09,18.334,31.117,17.911,31.16,17.5z M28.733,16.098c0.235-0.406,0.798-0.629,1.586-0.629c0.243,0,0.501,0.023,0.769,0.062
	c-0.162,0.518-0.281,1.098-0.358,1.719c-0.499,0.377-0.94,0.771-1.308,1.17C28.705,17.52,28.408,16.663,28.733,16.098z
	 M30.67,19.665c-0.354-0.291-0.672-0.592-0.945-0.891c0.273-0.301,0.591-0.601,0.943-0.894c-0.02,0.291-0.033,0.588-0.033,0.892
	C30.635,19.079,30.648,19.374,30.67,19.665z M29.422,19.127c0.367,0.398,0.81,0.793,1.308,1.168
	c0.077,0.623,0.196,1.201,0.358,1.719c-0.268,0.039-0.524,0.064-0.768,0.064c-0.789,0-1.352-0.223-1.587-0.631
	C28.408,20.885,28.705,20.026,29.422,19.127z M32.285,18.774c0-0.599,0.484-1.082,1.082-1.082s1.082,0.483,1.082,1.082
	c0,0.598-0.484,1.082-1.082,1.082S32.285,19.372,32.285,18.774z M22.726,11.042v5.105c-1.225-0.765-2.633-1.203-4.135-1.203
	c-4.691,0-8.498,4.244-8.498,9.473v6.667C8.153,33.15,6.94,35.895,6.94,38.959h10.322l-0.092-1.336l-1.297,0.01l-0.023-3.434
	l0.613-0.002c-0.227-0.369-0.357-0.799-0.361-1.26c-0.004-0.602,0.215-1.146,0.567-1.576c-0.438-0.125-0.866-0.277-1.263-0.488
	c-0.002,0-0.002-0.002-0.005-0.002c-0.433-0.227-0.828-0.512-1.2-0.822c-0.066-0.055-0.132-0.107-0.195-0.164
	c-0.366-0.332-0.707-0.691-0.996-1.092c-0.396-0.551-0.719-1.156-0.94-1.811c-0.036,0.006-0.071,0.033-0.114,0.033
	c-0.676,0-1.227-0.736-1.227-1.646c0-0.66,0.299-1.207,0.719-1.459c0.131,0.525,0.283,0.846,0.316,0.838
	c-0.112-0.189,1.279-3.162,6.258-2.223c1.432,0.271,2.346-0.599,2.836-1.765c0.064,0.019,0.122,0.039,0.189,0.056
	c3.302,0.778,4.152,3.815,4.055,3.932c0.021,0.008,0.117-0.287,0.201-0.752l1.127,1.654c-0.101,0.775-0.603,1.365-1.207,1.365
	c-0.039,0-0.073-0.027-0.115-0.033c-0.222,0.654-0.543,1.26-0.939,1.811c-0.289,0.4-0.629,0.758-0.994,1.088
	c-0.064,0.059-0.132,0.115-0.197,0.172c-0.372,0.307-0.768,0.592-1.197,0.816c-0.003,0.002-0.006,0.004-0.008,0.004
	c-0.408,0.217-0.848,0.375-1.301,0.502c0.34,0.418,0.551,0.941,0.554,1.521c0.007,0.467-0.122,0.9-0.345,1.273l0.619-0.006
	l0.021,3.43l-1.297,0.01l-0.075,1.355H30.24c0-3.064-1.214-5.811-3.152-7.875v-4.875h4.639v5.998l5.998-5.998h5.335V11.041
	L22.726,11.042L22.726,11.042z M42.059,25.209H37.31l-4.584,4.583v-4.583h-5.388l-0.252-0.371v-0.422
	c0-3.076-1.321-5.803-3.36-7.533v-4.842h18.333V25.209z M16.517,24.579c0,0.455-0.368,0.822-0.823,0.822
	c-0.452,0-0.821-0.367-0.821-0.822c0-0.457,0.369-0.822,0.821-0.822C16.147,23.756,16.517,24.122,16.517,24.579z M21.485,25.401
	c-0.454,0-0.822-0.367-0.822-0.822c0-0.457,0.368-0.822,0.822-0.822c0.453,0,0.823,0.365,0.823,0.822
	C22.31,25.034,21.938,25.401,21.485,25.401z M18.59,29.988c-0.93,0-1.721-0.359-2.057-0.869c0.485,0.326,1.219,0.533,2.057,0.533
	c0.834,0,1.57-0.207,2.051-0.533C20.312,29.629,19.519,29.988,18.59,29.988z M19.256,35.99l0.35-0.006
	c-0.006,0.107-0.027,0.211-0.066,0.303h-0.312C19.245,36.195,19.256,36.092,19.256,35.99z M18.675,35.318l-0.003-0.439
	c0.035,0,0.068,0,0.102,0.006c0.086,0.135,0.154,0.279,0.203,0.426L18.675,35.318z M19.17,35.301
	c-0.032-0.111-0.074-0.217-0.123-0.318c0.091,0.053,0.184,0.107,0.261,0.184c0.026,0.023,0.044,0.053,0.064,0.078
	c0.019,0.021,0.042,0.045,0.057,0.066h-0.255C19.174,35.309,19.17,35.305,19.17,35.301z M18.679,35.5h0.346
	c0.023,0.1,0.037,0.195,0.043,0.301l-0.389,0.004V35.5L18.679,35.5z M19.217,35.498h0.316c0.041,0.092,0.064,0.195,0.07,0.301
	h-0.351C19.248,35.695,19.237,35.6,19.217,35.498z M18.683,36.484l0.312-0.004c-0.02,0.072-0.046,0.143-0.074,0.211
	c-0.031,0.072-0.07,0.148-0.109,0.215c-0.041,0.006-0.083,0.008-0.123,0.014l-0.004-0.229L18.683,36.484z M19.189,36.48l0.245-0.008
	c-0.032,0.051-0.069,0.102-0.118,0.15c-0.021,0.021-0.051,0.045-0.079,0.064c-0.048,0.039-0.102,0.074-0.157,0.107
	c0.018-0.035,0.023-0.07,0.041-0.105C19.148,36.621,19.17,36.551,19.189,36.48z M18.683,35.99l0.391-0.002
	c-0.006,0.104-0.02,0.207-0.035,0.299l-0.355,0.004L18.683,35.99L18.683,35.99z M17.978,35.322h-0.243
	c0.016-0.023,0.038-0.049,0.058-0.068c0.079-0.104,0.181-0.186,0.295-0.25c-0.045,0.098-0.077,0.197-0.105,0.305
	C17.978,35.311,17.98,35.314,17.978,35.322z M17.913,35.807l-0.348,0.008c0.007-0.102,0.029-0.205,0.066-0.305l0.31-0.002
	C17.923,35.609,17.915,35.703,17.913,35.807z M18.073,36.695c0.018,0.045,0.031,0.086,0.053,0.121
	c-0.068-0.033-0.127-0.07-0.182-0.121c-0.029-0.018-0.055-0.037-0.08-0.064c-0.047-0.045-0.09-0.09-0.125-0.145h0.255
	C18.017,36.564,18.044,36.627,18.073,36.695z M18.489,35.805l-0.387,0.002c0-0.104,0.014-0.197,0.031-0.299h0.354L18.489,35.805z
	 M16.171,37.328l0.979-0.006l2.892-0.02l0.974-0.012l-0.02-2.82l-0.525,0.004l-3.795,0.029h-0.52L16.171,37.328z M17.603,35.186
	c0.218-0.301,0.574-0.506,0.973-0.506c0.328-0.002,0.635,0.123,0.868,0.355c0.04,0.043,0.078,0.09,0.116,0.131
	c0.156,0.213,0.246,0.461,0.246,0.729c0,0.295-0.106,0.566-0.297,0.795c-0.02,0.021-0.031,0.051-0.055,0.062
	c-0.229,0.236-0.533,0.365-0.861,0.365c-0.324,0.002-0.629-0.121-0.861-0.352c-0.022-0.02-0.035-0.045-0.058-0.066
	c-0.194-0.219-0.307-0.492-0.307-0.789C17.364,35.635,17.456,35.389,17.603,35.186z M17.952,36.295h-0.316
	c-0.039-0.088-0.057-0.197-0.07-0.293l0.35-0.006C17.92,36.098,17.935,36.199,17.952,36.295z M18.495,36.486l0.004,0.205L18.5,36.92
	c-0.035-0.002-0.071-0.002-0.105-0.008c-0.044-0.07-0.084-0.146-0.119-0.219c-0.034-0.066-0.059-0.139-0.082-0.207H18.495
	L18.495,36.486z M18.489,35.994l0.006,0.299l-0.348,0.002c-0.021-0.096-0.034-0.197-0.043-0.301H18.489z M18.486,35.314
	l-0.311,0.008c0.041-0.152,0.104-0.299,0.184-0.426c0.041-0.012,0.083-0.012,0.123-0.018L18.486,35.314z"/>
</svg>
