<?xml version="1.0" encoding="utf-8"?>
<!-- Generator: Adobe Illustrator 16.0.4, SVG Export Plug-In . SVG Version: 6.00 Build 0)  -->
<!DOCTYPE svg PUBLIC "-//W3C//DTD SVG 1.1//EN" "http://www.w3.org/Graphics/SVG/1.1/DTD/svg11.dtd">
<svg version="1.1" id="Layer_1" xmlns="http://www.w3.org/2000/svg" xmlns:xlink="http://www.w3.org/1999/xlink" x="0px" y="0px"
	 width="50px" height="50px" viewBox="0 0 50 50" enable-background="new 0 0 50 50" xml:space="preserve">
<g>
	<path d="M33.853,18.497c-1.156-0.521-2.45-0.561-3.64-0.109c-0.844,0.319-1.554,0.867-2.086,1.567
		c-0.519-1.215-1.724-2.069-3.126-2.069s-2.607,0.854-3.126,2.069c-0.532-0.7-1.242-1.248-2.086-1.567
		c-1.189-0.452-2.483-0.412-3.64,0.109c-1.965,0.885-2.843,3.201-1.96,5.164c0.538,1.193,1.717,1.901,2.946,1.901
		c0.441,0,0.891-0.091,1.317-0.284c0.094-0.042,0.16-0.114,0.211-0.196c0.446-0.311,0.739-0.826,0.739-1.41
		c0-0.95-0.771-1.721-1.722-1.721s-1.72,0.771-1.72,1.721c0,0.217,0.045,0.423,0.118,0.614c-0.417-0.224-0.771-0.573-0.979-1.037
		c-0.656-1.461-0.003-3.184,1.457-3.842c0.914-0.412,1.938-0.443,2.874-0.087c0.939,0.356,1.684,1.056,2.095,1.971l0.09,0.126
		c0.048,1.184,0.701,2.206,1.662,2.776v7.42c0,0.276,0.224,0.5,0.5,0.5c0.275,0,0.5-0.224,0.5-0.5v-7.016
		c0.232,0.051,0.474,0.081,0.722,0.081s0.488-0.03,0.722-0.081v7.016c0,0.276,0.225,0.5,0.5,0.5c0.276,0,0.5-0.224,0.5-0.5v-7.42
		c0.961-0.57,1.614-1.592,1.662-2.776l0.09-0.126c0.411-0.915,1.154-1.614,2.094-1.971c0.938-0.355,1.959-0.324,2.874,0.087
		c1.46,0.658,2.114,2.381,1.457,3.842c-0.24,0.535-0.671,0.923-1.174,1.133c0.1-0.217,0.157-0.457,0.157-0.71
		c0-0.95-0.771-1.721-1.721-1.721c-0.95,0-1.721,0.771-1.721,1.721c0,0.729,0.455,1.349,1.097,1.599l0.01,0.007
		c0.428,0.192,0.876,0.284,1.316,0.284c1.23,0,2.409-0.708,2.946-1.901C36.694,21.698,35.816,19.381,33.853,18.497z M25.001,23.68
		c-1.322,0-2.397-1.075-2.397-2.397c0-1.322,1.075-2.397,2.397-2.397s2.397,1.075,2.397,2.397
		C27.398,22.605,26.323,23.68,25.001,23.68z"/>
</g>
</svg>
