<?xml version="1.0" encoding="utf-8"?>
<!-- Generator: Adobe Illustrator 16.0.0, SVG Export Plug-In . SVG Version: 6.00 Build 0)  -->
<!DOCTYPE svg PUBLIC "-//W3C//DTD SVG 1.1//EN" "http://www.w3.org/Graphics/SVG/1.1/DTD/svg11.dtd">
<svg version="1.1" id="Layer_1" xmlns="http://www.w3.org/2000/svg" xmlns:xlink="http://www.w3.org/1999/xlink" x="0px" y="0px"
	 width="100px" height="100px" viewBox="0 0 100 100" enable-background="new 0 0 100 100" xml:space="preserve">
<g>
	<path d="M76.473,41.041L57.959,22.525c-0.863-0.863-2.031-1.357-3.205-1.357c-1.078,0-2.08,0.408-2.82,1.148l-5.145,5.145
		c-0.801,0.799-1.215,1.93-1.139,3.1c0.07,1.088,0.551,2.127,1.348,2.924l2.541,2.541L20.592,64.973
		c-1.795,1.793-2.783,4.18-2.783,6.717s0.988,4.922,2.783,6.717s4.18,2.783,6.717,2.783s4.924-0.988,6.719-2.783L59.84,52.594
		c0.002-0.002,0.002-0.002,0.002-0.002l3.131-3.131l2.539,2.537c0.863,0.865,2.031,1.359,3.205,1.359c1.078,0,2.08-0.408,2.82-1.148
		l5.145-5.145C78.285,45.461,78.191,42.76,76.473,41.041z M68.717,49.357c-0.092,0-0.238-0.049-0.375-0.186l-3.955-3.953
		c-0.781-0.781-2.047-0.781-2.828,0L57.6,49.178H42.041l11.74-11.738c0.781-0.781,0.781-2.047,0-2.828l-3.955-3.955
		c-0.178-0.178-0.195-0.361-0.209-0.367l5.137-5.121c0.092,0,0.238,0.049,0.377,0.186l18.514,18.516
		c0.18,0.178,0.197,0.361,0.209,0.367L68.717,49.357z"/>
	<path d="M67.492,60.721c-1.387,1.877-5.912,8.27-5.912,11.711c0,4.146,3.373,7.521,7.521,7.521c4.146,0,7.521-3.375,7.521-7.521
		c0-3.441-4.527-9.834-5.914-11.711C69.955,59.699,68.246,59.699,67.492,60.721z"/>
</g>
</svg>
