<?xml version="1.0" encoding="utf-8"?>
<!-- Generator: Adobe Illustrator 16.0.0, SVG Export Plug-In . SVG Version: 6.00 Build 0)  -->
<!DOCTYPE svg PUBLIC "-//W3C//DTD SVG 1.1//EN" "http://www.w3.org/Graphics/SVG/1.1/DTD/svg11.dtd">
<svg version="1.1" id="Layer_1" xmlns="http://www.w3.org/2000/svg" xmlns:xlink="http://www.w3.org/1999/xlink" x="0px" y="0px"
	 width="100px" height="100px" viewBox="0 0 100 100" enable-background="new 0 0 100 100" xml:space="preserve">
<g>
	<path d="M81.662,56.947c-0.541-0.734-1.442-1.173-2.412-1.173s-1.871,0.438-2.412,1.171c-1.838,2.485-6.11,8.658-6.11,12.306
		c0,4.699,3.822,8.521,8.521,8.521s8.521-3.822,8.521-8.521C87.771,65.604,83.498,59.431,81.662,56.947z"/>
	<path d="M53.658,13.577L41.104,26.13l5.657,5.657l-28.06,28.061c-1.984,1.981-3.077,4.618-3.077,7.425
		c0,2.803,1.092,5.439,3.076,7.424c1.983,1.983,4.62,3.076,7.424,3.076c2.805,0,5.442-1.092,7.425-3.075l26.25-26.25l-0.001,0
		l1.812-1.811l5.656,5.655L79.82,39.739L53.658,13.577z M61.611,43.809l-3.366,3.366h-0.1l-0.261,0.36L57.42,48H33.377L49.59,31.787
		l-5.657-5.657l9.726-9.725l23.334,23.334l-9.725,9.725L61.611,43.809z"/>
</g>
</svg>
