<?xml version="1.0" encoding="utf-8"?>
<!-- Generator: Adobe Illustrator 16.0.0, SVG Export Plug-In . SVG Version: 6.00 Build 0)  -->
<!DOCTYPE svg PUBLIC "-//W3C//DTD SVG 1.1//EN" "http://www.w3.org/Graphics/SVG/1.1/DTD/svg11.dtd">
<svg version="1.1" id="Layer_1" xmlns="http://www.w3.org/2000/svg" xmlns:xlink="http://www.w3.org/1999/xlink" x="0px" y="0px"
	 width="100px" height="100px" viewBox="0 0 100 100" enable-background="new 0 0 100 100" xml:space="preserve">
<g>
	<path d="M77.578,41.041L59.063,22.525c-0.862-0.863-2.031-1.357-3.204-1.357c-1.079,0-2.08,0.408-2.82,1.148l-5.145,5.145
		c-0.801,0.799-1.216,1.93-1.14,3.1c0.071,1.088,0.551,2.127,1.349,2.924l2.54,2.541L21.697,64.973
		c-1.795,1.793-2.783,4.18-2.783,6.717s0.988,4.922,2.783,6.717c1.794,1.795,4.18,2.783,6.717,2.783s4.923-0.988,6.718-2.783
		l25.813-25.813c0.001-0.002,0.001-0.002,0.002-0.002l3.131-3.131l2.539,2.537c0.862,0.865,2.03,1.359,3.205,1.359
		c1.078,0,2.08-0.408,2.82-1.148l5.145-5.145C79.39,45.461,79.296,42.76,77.578,41.041z M32.303,75.578
		c-1.039,1.039-2.421,1.611-3.89,1.611s-2.85-0.572-3.889-1.611s-1.611-2.42-1.611-3.889s0.572-2.85,1.611-3.889l14.622-14.623
		h15.557L32.303,75.578z M69.822,49.357c-0.092,0-0.238-0.049-0.376-0.186l-3.954-3.953c-0.781-0.781-2.047-0.781-2.828,0
		l-3.96,3.959H43.146l11.739-11.738c0.781-0.781,0.781-2.047,0-2.828l-3.954-3.955c-0.179-0.178-0.196-0.361-0.209-0.367
		l5.137-5.121c0.092,0,0.238,0.049,0.376,0.186L74.75,43.869c0.179,0.178,0.196,0.361,0.209,0.367L69.822,49.357z"/>
	<path d="M68.597,60.721c-1.387,1.877-5.913,8.27-5.913,11.711c0,4.146,3.374,7.521,7.521,7.521s7.521-3.375,7.521-7.521
		c0-3.441-4.526-9.834-5.913-11.711C71.06,59.699,69.351,59.699,68.597,60.721z M70.206,75.953c-1.941,0-3.521-1.58-3.521-3.521
		c0-1.117,1.627-4.15,3.521-7.025c1.896,2.873,3.521,5.904,3.521,7.025C73.727,74.373,72.147,75.953,70.206,75.953z"/>
</g>
</svg>
