<?xml version="1.0" encoding="iso-8859-1"?>
<!-- Generator: Adobe Illustrator 16.0.0, SVG Export Plug-In . SVG Version: 6.00 Build 0)  -->
<!DOCTYPE svg PUBLIC "-//W3C//DTD SVG 1.1//EN" "http://www.w3.org/Graphics/SVG/1.1/DTD/svg11.dtd">
<svg version="1.1" id="Layer_1" xmlns="http://www.w3.org/2000/svg" xmlns:xlink="http://www.w3.org/1999/xlink" x="0px" y="0px"
	 width="28px" height="40.288px" viewBox="0 0 28 40.288" style="enable-background:new 0 0 28 40.288;" xml:space="preserve">
<path d="M21.583,21.12c-2.015-1.486-4.099-3.023-4.099-4.237c0-3.027-0.175-9.612-0.246-12.147h1.631V0H14H9.132v4.735h1.631
	c-0.071,2.535-0.246,9.12-0.246,12.147c0,1.214-2.084,2.751-4.099,4.237C3.41,23.339,0,25.854,0,29.417
	c0,6.979,4.973,10.834,14,10.871c9.027-0.037,14-3.893,14-10.871C28,25.854,24.59,23.339,21.583,21.12z M11.132,2H14h2.868v0.735H14
	h-2.868V2z M14,38.29c-5.507-0.024-12-1.595-12-8.873c0-2.553,2.978-4.749,5.605-6.688c2.526-1.863,4.912-3.623,4.912-5.847
	c0-3.022,0.177-9.656,0.247-12.147H14h1.236c0.07,2.491,0.247,9.125,0.247,12.147c0,2.224,2.386,3.983,4.912,5.847
	C23.022,24.668,26,26.864,26,29.417C26,36.695,19.507,38.266,14,38.29z"/>
<g>
</g>
<g>
</g>
<g>
</g>
<g>
</g>
<g>
</g>
<g>
</g>
<g>
</g>
<g>
</g>
<g>
</g>
<g>
</g>
<g>
</g>
<g>
</g>
<g>
</g>
<g>
</g>
<g>
</g>
</svg>
