<?xml version="1.0" encoding="utf-8"?>
<!-- Generator: Adobe Illustrator 17.0.0, SVG Export Plug-In . SVG Version: 6.00 Build 0)  -->
<!DOCTYPE svg PUBLIC "-//W3C//DTD SVG 1.1//EN" "http://www.w3.org/Graphics/SVG/1.1/DTD/svg11.dtd">
<svg version="1.1" id="Capa_1" xmlns="http://www.w3.org/2000/svg" xmlns:xlink="http://www.w3.org/1999/xlink" x="0px" y="0px"
	 width="200px" height="200px" viewBox="0 0 200 200" enable-background="new 0 0 200 200" xml:space="preserve">
<path d="M181.47,175.814c-45.448-0.298-91.155-3.335-136.642-2.243c0.304-3.592,0.045-7.452,0.104-10.024
	c0.423-18.482-0.195-36.99-0.782-55.459c-0.301-9.486-0.954-19.177-1.543-28.933c13.366-0.307,26.942-2.569,39.819-3.615
	c5.496-0.446,11.039-0.741,16.599-0.926c0.197,3.522,0.192,7.023-0.422,10.422c-4.334,23.991-27.484,39.696-35.175,62.057
	c-6.61,19.217,25.782,14.398,34.945,14.665c13.975,0.407,28.118,1.133,42.085,0.232c8.712-0.562,18.188,0.29,26.114-4.013
	c1.457-0.791,1.949-2.806,1.103-4.207c-12.128-20.084-19.98-42.416-32.198-62.406c-3.487-5.705-5.308-10.874-6.073-16.538
	c8.986,0.42,17.935,1.138,26.76,2.149c1.4,0.16,2.822-1.112,3.148-2.397c0.559-2.204,0.72-4.28,0.75-6.561
	c0.004-0.3-0.047-0.582-0.121-0.854c0.772-1.205,0.878-2.863-0.339-3.848c-4.582-3.707-12.915-2.167-18.339-1.995
	c-4.024,0.127-8.041,0.221-12.055,0.292c0.17-2.546,0.282-5.453-0.383-7.829c5.391,0.324,14.298,0.643,16.157-5.137
	c4.395-13.664-23.241-12.138-30.816-13.415c-7.364-1.242-16.646-3.14-23.77,0.013c-4.594,2.034-8.421,7.308-5.494,12.227
	c1.738,2.92,5.679,3.698,9.599,3.772c1.263,0.283,2.527,0.518,3.792,0.725c-0.439,2.646-0.304,5.533-0.284,7.77
	c0.004,0.469,0.033,0.946,0.048,1.418c-18.541-0.796-37.648-1.75-56.389-0.818c-0.597-17.738-0.088-35.425,4.077-52.275
	c0.767-3.104-3.992-5.402-5.355-2.258c-5.179,11.939-5.3,25.618-5.131,38.424c0.072,5.488,0.261,10.979,0.48,16.471
	c-6.083,0.442-12.119,1.096-18.069,2.061c-0.898,0.145-1.359,0.708-1.502,1.372c-0.2,0.217-0.366,0.477-0.437,0.835
	c-0.602,3.05-0.547,5.614-0.384,8.744c0.067,1.299,0.836,2.44,2.129,2.797c6.205,1.714,12.602,2.459,19.079,2.636
	c0.225,4.962,0.438,9.923,0.595,14.881c0.847,26.608,0.798,53.296,0.534,79.763c-3.914,0.133-7.827,0.301-11.737,0.502
	c-1.143-1.095-3.436-0.671-3.327,1.277c0.272,4.872-0.244,9.684-0.406,14.551c-0.044,1.329,0.946,2.534,2.197,2.886
	c13.412,3.769,27.093-0.688,40.652-1.024c19.241-0.477,38.692,0.601,57.912,1.479c16.563,0.757,33.671,3.407,50.24,2.297
	c8.426-0.564,9.66-8.125,10.553-15.128c0.007-0.055-0.001-0.104,0.003-0.158C184.911,178.772,184.151,175.831,181.47,175.814z
	 M138.442,108.928c7.462,14.963,13.744,30.541,22.188,45.018c-6.853,2.487-15.104,1.676-22.18,2.171
	c-11.039,0.772-22.248,0.435-33.304,0.294c-10.012-0.128-20.008-0.587-30.02-0.614c-14.7-0.041-0.726-18.046,3.116-23.453
	c5.422-7.629,11.69-15.904,16.748-24.655c14.332-0.966,28.478,1.099,42.827,1.31C138.043,109.003,138.248,108.973,138.442,108.928z
	 M130.49,94.28c1.943,3.24,3.741,6.554,5.49,9.895c-12.857-0.355-26.432-2.683-39.101,0.118c3.263-6.146,5.819-12.51,6.97-19.041
	c0.613-3.476,0.49-7.141,0.21-10.763c6.296-0.123,12.608-0.085,18.916,0.107C123.389,81.775,126.834,88.185,130.49,94.28z
	 M101.959,52.471c6.736,0.781,13.519,0.789,20.396,1.01c0.103,0.48,0.336,0.958,0.765,1.397c0.894,0.917,0.998,3.693,0.822,6.811
	c-6.373,0.055-12.746,0-19.138-0.253c-0.744-0.03-1.496-0.063-2.242-0.094C102.114,58.36,101.736,55.138,101.959,52.471z"/>
</svg>
