<?xml version="1.0" encoding="iso-8859-1"?>
<!-- Generator: Adobe Illustrator 16.0.0, SVG Export Plug-In . SVG Version: 6.00 Build 0)  -->
<!DOCTYPE svg PUBLIC "-//W3C//DTD SVG 1.1//EN" "http://www.w3.org/Graphics/SVG/1.1/DTD/svg11.dtd">
<svg version="1.1" id="Layer_1" xmlns="http://www.w3.org/2000/svg" xmlns:xlink="http://www.w3.org/1999/xlink" x="0px" y="0px"
	 width="48.406px" height="31.899px" viewBox="0 0 48.406 31.899" style="enable-background:new 0 0 48.406 31.899;"
	 xml:space="preserve">
<g>
	<path d="M28.054,25.683c-0.729-1.295-2.431-4.328-4.189-6.917c-0.592-0.867-1.185-1.677-1.724-2.411
		c-0.86-1.174-1.932-2.632-1.941-3.064c0.064-1.902,0.021-6.402,0.005-7.793h1.123V3.526H7.123v1.971h1.489
		c-0.018,1.391-0.061,5.89,0.005,7.791c-0.011,0.435-1.082,1.893-1.942,3.066c-0.537,0.734-1.132,1.544-1.723,2.411
		c-1.76,2.589-3.462,5.622-4.19,6.917l-0.193,0.344c-0.75,1.324-0.758,3.129-0.024,4.391c0.558,0.955,1.452,1.482,2.517,1.482
		h22.693h0.002c1.063,0,1.958-0.527,2.515-1.482c0.735-1.262,0.728-3.066-0.022-4.391L28.054,25.683z M26.86,29.595
		c-0.26,0.447-0.632,0.674-1.106,0.674H3.061c-0.473,0-0.845-0.227-1.105-0.674c-0.442-0.759-0.43-1.948,0.033-2.764l0.195-0.351
		c0.718-1.276,2.396-4.267,4.119-6.796c0.577-0.852,1.16-1.646,1.688-2.365c1.504-2.051,2.288-3.163,2.258-4.084
		c-0.06-1.693-0.027-5.631-0.009-7.33h8.337c0.017,1.699,0.05,5.637-0.008,7.33c-0.033,0.921,0.751,2.033,2.256,4.084
		c0.527,0.72,1.11,1.514,1.688,2.365c1.721,2.529,3.4,5.52,4.118,6.796l0.194,0.351C27.29,27.646,27.304,28.836,26.86,29.595z"/>
	<path d="M25.778,26.206c-0.429-0.761-1.43-2.545-2.465-4.065c-0.264-0.391-0.527-0.753-0.779-1.099c0,0-1.312,0.544-5.354,0.679
		c-4.043,0.137-4.725,1.156-7,0.952c-2.275-0.203-3.897-1.631-3.897-1.631c-0.252,0.346-0.514,0.708-0.779,1.099
		c-1.034,1.521-2.037,3.305-2.464,4.065l-0.113,0.203c-0.44,0.777-0.446,1.838-0.014,2.58c0.329,0.562,0.854,0.871,1.479,0.871
		h1.423h5.271h6.645h5.306h1.391c0.625,0,1.15-0.31,1.479-0.871c0.43-0.742,0.427-1.803-0.015-2.58L25.778,26.206z M7.17,26.451
		c-0.746,0-1.353-0.604-1.353-1.351c0-0.748,0.606-1.353,1.353-1.353c0.747,0,1.352,0.604,1.352,1.353
		C8.521,25.847,7.917,26.451,7.17,26.451z M8.673,28.769c-0.267,0-0.483-0.217-0.483-0.484c0-0.267,0.217-0.482,0.483-0.482
		c0.266,0,0.483,0.216,0.483,0.482C9.156,28.552,8.938,28.769,8.673,28.769z M12.927,25.715c-0.45,0-0.814-0.366-0.814-0.817
		c0-0.448,0.364-0.814,0.814-0.814c0.449,0,0.815,0.366,0.815,0.814C13.742,25.349,13.376,25.715,12.927,25.715z M16.203,28.44
		c-0.353,0-0.638-0.287-0.638-0.639c0-0.354,0.285-0.639,0.638-0.639s0.64,0.285,0.64,0.639
		C16.843,28.153,16.556,28.44,16.203,28.44z M18.852,25.763c0-0.805,0.651-1.457,1.455-1.457c0.808,0,1.458,0.652,1.458,1.457
		s-0.65,1.457-1.458,1.457C19.503,27.22,18.852,26.567,18.852,25.763z M21.811,28.769c-0.267,0-0.483-0.217-0.483-0.484
		c0-0.267,0.217-0.482,0.483-0.482s0.483,0.216,0.483,0.482C22.294,28.552,22.077,28.769,21.811,28.769z"/>
	<path d="M47.838,22.501l-0.194-0.344c-0.729-1.296-2.431-4.329-4.189-6.918c-0.592-0.867-1.185-1.676-1.724-2.41
		c-0.86-1.174-1.932-2.633-1.941-3.064c0.064-1.902,0.021-6.402,0.005-7.793h1.123V0H26.713v1.972h1.489
		c-0.018,1.391-0.061,5.889,0.005,7.79c-0.011,0.435-1.082,1.894-1.942,3.067c-0.537,0.734-1.132,1.543-1.723,2.41
		c-0.274,0.404-0.544,0.822-0.812,1.239c-0.045,0.071-0.093,0.14-0.138,0.21l0.991,1.483c0.057-0.091,0.117-0.179,0.175-0.269
		c0.37-0.588,0.749-1.179,1.134-1.744c0.577-0.853,1.16-1.646,1.688-2.366c1.504-2.051,2.288-3.163,2.258-4.084
		c-0.06-1.693-0.027-5.63-0.009-7.329h8.337c0.017,1.699,0.05,5.636-0.008,7.329c-0.033,0.921,0.751,2.033,2.256,4.084
		c0.527,0.72,1.11,1.514,1.688,2.366c1.721,2.529,3.4,5.52,4.118,6.795l0.194,0.352c0.464,0.814,0.478,2.004,0.034,2.763
		c-0.26,0.448-0.632,0.675-1.106,0.675H30.059h-0.021l0.203,1.631h0.068h15.034h0.002c1.063,0,1.958-0.527,2.515-1.483
		C48.596,25.63,48.588,23.824,47.838,22.501z"/>
	<path d="M37.32,26.335h5.306h1.391c0.625,0,1.15-0.311,1.479-0.871c0.43-0.742,0.427-1.803-0.015-2.581l-0.113-0.203
		c-0.429-0.761-1.43-2.544-2.465-4.065c-0.264-0.391-0.527-0.752-0.779-1.098c0,0-1.312,0.543-5.354,0.678
		c-4.043,0.137-4.725,1.156-7,0.953c-2.275-0.204-3.897-1.631-3.897-1.631c-0.252,0.346-0.514,0.707-0.779,1.098
		c-0.035,0.053-0.07,0.107-0.106,0.16l1.095,1.637c0.2-0.117,0.431-0.189,0.679-0.189c0.747,0,1.352,0.605,1.352,1.353
		c0,0.438-0.223,0.81-0.546,1.057l2.27,3.704h0.841H37.32z M41.884,24.759c0,0.268-0.217,0.483-0.483,0.483
		s-0.483-0.216-0.483-0.483s0.217-0.482,0.483-0.482S41.884,24.491,41.884,24.759z M39.896,20.78c0.808,0,1.458,0.652,1.458,1.456
		c0,0.805-0.65,1.458-1.458,1.458c-0.804,0-1.455-0.653-1.455-1.458C38.441,21.433,39.093,20.78,39.896,20.78z M35.793,23.638
		c0.353,0,0.64,0.285,0.64,0.639c0,0.352-0.287,0.639-0.64,0.639s-0.638-0.287-0.638-0.639
		C35.155,23.923,35.44,23.638,35.793,23.638z M32.517,20.557c0.449,0,0.815,0.366,0.815,0.815c0,0.451-0.366,0.816-0.815,0.816
		c-0.45,0-0.814-0.365-0.814-0.816C31.702,20.923,32.066,20.557,32.517,20.557z"/>
</g>
<g>
</g>
<g>
</g>
<g>
</g>
<g>
</g>
<g>
</g>
<g>
</g>
<g>
</g>
<g>
</g>
<g>
</g>
<g>
</g>
<g>
</g>
<g>
</g>
<g>
</g>
<g>
</g>
<g>
</g>
</svg>
