<?xml version="1.0" encoding="iso-8859-1"?>
<!-- Generator: Adobe Illustrator 17.1.0, SVG Export Plug-In . SVG Version: 6.00 Build 0)  -->
<!DOCTYPE svg PUBLIC "-//W3C//DTD SVG 1.1//EN" "http://www.w3.org/Graphics/SVG/1.1/DTD/svg11.dtd">
<svg version="1.1" id="Capa_1" xmlns="http://www.w3.org/2000/svg" xmlns:xlink="http://www.w3.org/1999/xlink" x="0px" y="0px"
	 viewBox="0 0 100 100" style="enable-background:new 0 0 100 100;" xml:space="preserve">
<g>
	<path style="fill:#1D1D1B;" d="M15.65,96.813h68.696c4.213,0,7.007-1.263,8.378-3.786c1.372-2.525,0.944-5.556-1.282-9.094
		L61.448,36.645V12.851h3.816c1.033,0,1.928-0.377,2.683-1.132c0.755-0.755,1.133-1.649,1.133-2.683s-0.378-1.929-1.133-2.683
		c-0.755-0.755-1.65-1.133-2.683-1.133H34.732c-1.034,0-1.929,0.379-2.683,1.133c-0.756,0.755-1.133,1.649-1.133,2.683
		s0.377,1.929,1.133,2.683c0.755,0.755,1.649,1.132,2.683,1.132h3.816v23.793L8.554,83.933c-2.227,3.538-2.654,6.569-1.282,9.094
		C8.644,95.551,11.436,96.813,15.65,96.813z M44.989,40.7l1.193-1.848v-2.207V12.851h7.633v23.793v2.207l1.193,1.848l30.22,48.582
		H14.769L44.989,40.7z"/>
	<polygon style="fill:#1D1D1B;" points="58.876,53.5 41.124,53.5 20.772,86.25 79.228,86.25 	"/>
</g>
</svg>
