<?xml version="1.0" encoding="iso-8859-1"?>
<!-- Generator: Adobe Illustrator 16.0.0, SVG Export Plug-In . SVG Version: 6.00 Build 0)  -->
<!DOCTYPE svg PUBLIC "-//W3C//DTD SVG 1.1//EN" "http://www.w3.org/Graphics/SVG/1.1/DTD/svg11.dtd">
<svg version="1.1" id="Layer_1" xmlns="http://www.w3.org/2000/svg" xmlns:xlink="http://www.w3.org/1999/xlink" x="0px" y="0px"
	 width="46.12px" height="29.928px" viewBox="0 0 46.12 29.928" style="enable-background:new 0 0 46.12 29.928;"
	 xml:space="preserve">
<g>
	<path d="M28.646,17.754c0,4.562,3.71,8.272,8.272,8.272s8.272-3.711,8.272-8.272c0-3.2-1.828-5.976-4.492-7.351V6.122h2.256V4.116
		h-4.262v5.563c-0.002,0-0.005-0.001-0.006-0.001v2.069c2.597,0.765,4.499,3.168,4.499,6.008c0,3.456-2.811,6.267-6.267,6.267
		s-6.266-2.811-6.266-6.267c0-2.839,1.899-5.241,4.493-6.007V9.679c0,0,0,0,0,0l0-5.5h-4.262v2.005h2.256v4.22
		C30.474,11.778,28.646,14.555,28.646,17.754z"/>
	<path d="M31.166,17.822c0,3.199,2.593,5.792,5.792,5.792s5.791-2.594,5.791-5.792c-2.131,0.695-3.954-1.187-6.27-0.013
		C34.162,18.983,33.05,19.167,31.166,17.822z M40.702,18.911c0.476,0,0.862,0.386,0.862,0.862s-0.386,0.861-0.862,0.861
		c-0.476,0-0.861-0.385-0.861-0.861S40.226,18.911,40.702,18.911z M38.702,21.76c0.155,0,0.28,0.125,0.28,0.28
		c0,0.153-0.125,0.279-0.28,0.279c-0.154,0-0.279-0.125-0.279-0.279C38.422,21.885,38.548,21.76,38.702,21.76z M38.164,19.19
		c0.142,0,0.258,0.116,0.258,0.258c0,0.144-0.116,0.259-0.258,0.259c-0.143,0-0.258-0.115-0.258-0.259
		C37.906,19.306,38.021,19.19,38.164,19.19z M36.746,21.633c0.332,0,0.603,0.271,0.603,0.602c0,0.332-0.271,0.603-0.603,0.603
		c-0.333,0-0.603-0.271-0.603-0.603C36.144,21.903,36.413,21.633,36.746,21.633z M36.167,20.306c0.143,0,0.258,0.116,0.258,0.259
		c0,0.143-0.116,0.258-0.258,0.258c-0.143,0-0.258-0.115-0.258-0.258C35.908,20.421,36.023,20.306,36.167,20.306z M34.279,20.24
		c0,0.293-0.239,0.533-0.534,0.533c-0.294,0-0.532-0.239-0.532-0.533c0-0.294,0.238-0.533,0.532-0.533
		C34.041,19.707,34.279,19.946,34.279,20.24z"/>
	<path d="M2.808,26.027h20.816h0.002c0.975,0,1.795-0.483,2.307-1.361c0.674-1.157,0.667-2.813-0.021-4.026l-0.178-0.316
		c-0.668-1.189-2.229-3.971-3.844-6.345c-0.542-0.796-1.086-1.539-1.581-2.212c-0.79-1.076-1.772-2.415-1.781-2.812
		c0.06-1.745,0.02-5.873,0.005-7.148h1.031V0H6.534v1.808H7.9C7.884,3.083,7.845,7.21,7.905,8.954
		c-0.011,0.399-0.993,1.738-1.783,2.814c-0.492,0.673-1.039,1.416-1.58,2.212c-1.613,2.374-3.175,5.156-3.843,6.345L0.521,20.64
		c-0.688,1.213-0.694,2.869-0.021,4.026C1.011,25.543,1.832,26.027,2.808,26.027z M1.824,21.377l0.179-0.322
		c0.659-1.17,2.199-3.913,3.78-6.233c0.529-0.782,1.063-1.51,1.548-2.17c1.379-1.881,2.098-2.901,2.071-3.746
		C9.346,7.352,9.376,3.742,9.393,2.182h7.647c0.016,1.56,0.046,5.17-0.007,6.724c-0.03,0.845,0.689,1.865,2.069,3.746
		c0.485,0.661,1.019,1.389,1.55,2.17c1.578,2.32,3.118,5.063,3.777,6.233l0.179,0.322c0.424,0.748,0.438,1.839,0.031,2.535
		c-0.238,0.412-0.58,0.619-1.015,0.619H2.808c-0.434,0-0.775-0.207-1.015-0.619C1.388,23.216,1.4,22.125,1.824,21.377z"/>
	<path d="M4.028,24.156h1.306h4.836h6.095h4.867h1.275c0.573,0,1.055-0.284,1.357-0.799c0.394-0.681,0.391-1.654-0.013-2.368
		l-0.105-0.186c-0.393-0.698-1.311-2.333-2.26-3.729c-0.242-0.358-0.484-0.69-0.715-1.007c0,0-1.203,0.498-4.912,0.622
		c-3.708,0.125-4.333,1.061-6.421,0.874c-2.087-0.187-3.575-1.496-3.575-1.496c-0.23,0.317-0.47,0.649-0.714,1.007
		c-0.949,1.396-1.869,3.032-2.26,3.729l-0.104,0.186c-0.404,0.714-0.409,1.687-0.013,2.368C2.974,23.872,3.454,24.156,4.028,24.156z
		 M20.45,22.71c0,0.245-0.198,0.443-0.443,0.443c-0.244,0-0.442-0.198-0.442-0.443c0-0.244,0.198-0.443,0.442-0.443
		C20.252,22.268,20.45,22.466,20.45,22.71z M18.627,19.061c0.74,0,1.337,0.599,1.337,1.335c0,0.739-0.597,1.337-1.337,1.337
		c-0.737,0-1.334-0.598-1.334-1.337C17.293,19.66,17.891,19.061,18.627,19.061z M14.863,21.682c0.324,0,0.587,0.262,0.587,0.585
		c0,0.323-0.263,0.585-0.587,0.585c-0.323,0-0.585-0.262-0.585-0.585C14.278,21.944,14.54,21.682,14.863,21.682z M11.859,18.856
		c0.411,0,0.747,0.337,0.747,0.748c0,0.414-0.336,0.75-0.747,0.75c-0.414,0-0.748-0.336-0.748-0.75
		C11.111,19.193,11.445,18.856,11.859,18.856z M8.399,22.71c0,0.245-0.199,0.443-0.443,0.443s-0.443-0.198-0.443-0.443
		c0-0.244,0.199-0.443,0.443-0.443S8.399,22.466,8.399,22.71z M6.578,18.549c0.684,0,1.24,0.555,1.24,1.24s-0.556,1.239-1.24,1.239
		c-0.685,0-1.241-0.554-1.241-1.239S5.893,18.549,6.578,18.549z"/>
	<rect y="27.428" width="46.12" height="2.5"/>
</g>
<g>
</g>
<g>
</g>
<g>
</g>
<g>
</g>
<g>
</g>
<g>
</g>
<g>
</g>
<g>
</g>
<g>
</g>
<g>
</g>
<g>
</g>
<g>
</g>
<g>
</g>
<g>
</g>
<g>
</g>
</svg>
