<?xml version="1.0" encoding="iso-8859-1"?>
<!-- Generator: Adobe Illustrator 16.0.0, SVG Export Plug-In . SVG Version: 6.00 Build 0)  -->
<!DOCTYPE svg PUBLIC "-//W3C//DTD SVG 1.1//EN" "http://www.w3.org/Graphics/SVG/1.1/DTD/svg11.dtd">
<svg version="1.1" id="Layer_1" xmlns="http://www.w3.org/2000/svg" xmlns:xlink="http://www.w3.org/1999/xlink" x="0px" y="0px"
	 width="46.381px" height="43.268px" viewBox="0 0 46.381 43.268" style="enable-background:new 0 0 46.381 43.268;"
	 xml:space="preserve">
<g>
	<path d="M43.575,8.305l2.689-5.127l-0.01-0.099c-0.008-0.061-0.184-1.504-2.131-2.524c-1.904-1-3.229-0.349-3.285-0.318
		l-0.09,0.047l-2.689,5.128l-2.807-1.474l-1.947,3.711l2.469,1.293l-6.275,11.961l1.314,1.554l-1.266,2.416l2.807,1.471l1.234-2.357
		l1.898,0.439l6.434-12.26l2.516,1.321l1.945-3.71L43.575,8.305z M34.797,22.921l-1.898-0.44l-1.098,2.092l-0.482-0.252l1.066-2.037
		l-1.313-1.554l5.863-11.178l3.822,2.005L34.797,22.921z"/>
	<path d="M32.014,36.173c-0.83-1.479-2.773-4.94-4.781-7.894c-0.674-0.99-1.352-1.914-1.967-2.751
		c-0.98-1.339-2.203-3.003-2.215-3.497c0.074-2.171,0.023-7.306,0.006-8.893h1.281v-2.25H8.129v2.25h1.699
		c-0.02,1.587-0.068,6.721,0.006,8.89c-0.012,0.497-1.234,2.161-2.217,3.5c-0.613,0.838-1.291,1.762-1.967,2.751
		c-2.006,2.954-3.949,6.415-4.781,7.894l-0.221,0.393c-0.855,1.51-0.865,3.569-0.027,5.009c0.637,1.091,1.658,1.693,2.871,1.693
		h25.896h0.004c1.213,0,2.234-0.602,2.869-1.693c0.84-1.439,0.83-3.499-0.025-5.009L32.014,36.173z M30.653,40.637
		c-0.297,0.511-0.721,0.77-1.264,0.77H3.493c-0.539,0-0.963-0.258-1.262-0.77c-0.504-0.866-0.488-2.223,0.039-3.153l0.223-0.4
		c0.818-1.456,2.734-4.868,4.701-7.755c0.658-0.973,1.322-1.878,1.926-2.7c1.717-2.34,2.611-3.609,2.576-4.661
		c-0.066-1.932-0.031-6.424-0.01-8.364H21.2c0.02,1.94,0.059,6.432-0.008,8.364c-0.037,1.051,0.857,2.32,2.574,4.661
		c0.602,0.822,1.268,1.727,1.928,2.7c1.963,2.887,3.879,6.299,4.699,7.755l0.221,0.4C31.143,38.414,31.159,39.771,30.653,40.637z"/>
	<path d="M29.418,36.77c-0.49-0.868-1.631-2.903-2.813-4.639c-0.303-0.446-0.602-0.858-0.891-1.253c0,0-1.496,0.62-6.109,0.774
		c-4.613,0.156-5.391,1.319-7.988,1.087C9.02,32.506,7.17,30.877,7.17,30.877c-0.287,0.395-0.588,0.807-0.889,1.253
		C5.1,33.867,3.956,35.902,3.469,36.77l-0.131,0.232c-0.502,0.887-0.508,2.098-0.014,2.945C3.7,40.587,4.297,40.94,5.012,40.94
		h1.623h6.018h7.582h6.055h1.586c0.713,0,1.313-0.354,1.689-0.994c0.488-0.847,0.486-2.058-0.018-2.945L29.418,36.77z M8.184,37.049
		c-0.852,0-1.545-0.69-1.545-1.542c0-0.853,0.693-1.543,1.545-1.543s1.541,0.69,1.541,1.543C9.725,36.359,9.036,37.049,8.184,37.049
		z M9.899,39.694c-0.305,0-0.553-0.247-0.553-0.552s0.248-0.551,0.553-0.551c0.303,0,0.551,0.247,0.551,0.551
		S10.202,39.694,9.899,39.694z M14.752,36.209c-0.514,0-0.93-0.418-0.93-0.933c0-0.511,0.416-0.93,0.93-0.93
		c0.512,0,0.93,0.418,0.93,0.93C15.682,35.792,15.264,36.209,14.752,36.209z M18.491,39.319c-0.402,0-0.729-0.327-0.729-0.729
		c0-0.403,0.326-0.728,0.729-0.728s0.73,0.325,0.73,0.728C19.221,38.993,18.893,39.319,18.491,39.319z M21.514,36.264
		c0-0.917,0.742-1.663,1.66-1.663c0.92,0,1.664,0.745,1.664,1.663c0,0.918-0.744,1.663-1.664,1.663
		C22.256,37.926,21.514,37.182,21.514,36.264z M24.889,39.694c-0.303,0-0.551-0.247-0.551-0.552s0.248-0.551,0.551-0.551
		c0.305,0,0.553,0.247,0.553,0.551S25.194,39.694,24.889,39.694z"/>
</g>
<g>
</g>
<g>
</g>
<g>
</g>
<g>
</g>
<g>
</g>
<g>
</g>
<g>
</g>
<g>
</g>
<g>
</g>
<g>
</g>
<g>
</g>
<g>
</g>
<g>
</g>
<g>
</g>
<g>
</g>
</svg>
