<?xml version="1.0" encoding="utf-8"?>
<!-- Generator: Adobe Illustrator 16.0.4, SVG Export Plug-In . SVG Version: 6.00 Build 0)  -->
<!DOCTYPE svg PUBLIC "-//W3C//DTD SVG 1.1//EN" "http://www.w3.org/Graphics/SVG/1.1/DTD/svg11.dtd">
<svg version="1.1" id="Layer_1" xmlns="http://www.w3.org/2000/svg" xmlns:xlink="http://www.w3.org/1999/xlink" x="0px" y="0px"
	 width="50px" height="50px" viewBox="0 0 50 50" enable-background="new 0 0 50 50" xml:space="preserve">
<path d="M37.736,36.964c-0.089,0.157-0.255,0.253-0.436,0.253H12.699c-0.18,0-0.346-0.097-0.435-0.253
	c-0.088-0.155-0.086-0.349,0.006-0.503l7.952-13.316v-8.158h-0.059c-0.579,0-1.05-0.494-1.05-1.102c0-0.608,0.471-1.102,1.05-1.102
	h9.611c0.58,0,1.051,0.494,1.051,1.102c0,0.606-0.469,1.1-1.046,1.103v8.157l7.952,13.316
	C37.822,36.615,37.824,36.809,37.736,36.964z"/>
</svg>
