<?xml version="1.0" encoding="utf-8"?>
<!-- Generator: Adobe Illustrator 17.0.0, SVG Export Plug-In . SVG Version: 6.00 Build 0)  -->
<!DOCTYPE svg PUBLIC "-//W3C//DTD SVG 1.1//EN" "http://www.w3.org/Graphics/SVG/1.1/DTD/svg11.dtd">
<svg version="1.1" id="Capa_1" xmlns="http://www.w3.org/2000/svg" xmlns:xlink="http://www.w3.org/1999/xlink" x="0px" y="0px"
	 width="200px" height="200px" viewBox="0 0 200 200" enable-background="new 0 0 200 200" xml:space="preserve">
<g>
	<path d="M73.33,122.483c-0.117-0.019-0.211,0.018-0.324,0.008c0.788-6.107-0.767-13.256-0.718-19.418
		c0.064-8.035,0.115-16.122,0.81-24.135c4.668-1.522,8.311-4.404,9.23-9.558c0.493-2.767-1.178-5.535-4.221-5.541
		c-11.593-0.021-23.185-0.082-34.778-0.119c-1.872-0.006-3.973,1.362-4.336,3.301c-0.585,3.129,0.106,4.241,1.22,7.011
		c1.07,2.66,3.807,3.389,5.959,2.751c0.14,0.126,0.315,0.235,0.508,0.335c0.598,9.128,0.355,18.436,0.439,27.568
		c0.061,6.617-1.522,15.026,0.461,21.503C29,123.736,8.628,144.253,11.54,163.05c3.703,23.902,29.542,29.694,50.215,30.845
		c20.322,1.132,45.501-4.325,53.288-25.327C123.844,144.829,92.223,125.562,73.33,122.483z M49.678,130.502
		c1.029-0.156,1.505-1.04,1.49-1.944c0.699-0.26,1.318-0.812,1.637-1.684c2.388-6.528,1.059-15.37,0.972-22.189
		c-0.111-8.731-0.912-17.029-3.158-25.305c4.825,0.817,11.72,1.497,17.875,0.608c-1.699,7.598-2.831,15.296-3.189,23.084
		c-0.266,5.774-1.677,16.18,2.1,21.142c0.343,0.45,0.824,0.81,1.361,1.052c-0.615,1.828,0.011,3.969,2.528,4.61
		c11.152,2.837,24.721,8.736,31.642,18.464c-24.114-0.597-55.866-8.055-79.329,0.487C29.661,139.598,40.619,131.871,49.678,130.502z
		"/>
	<path d="M188.064,174.281c-3.321-14.781-9.308-29.6-14.723-43.706c-7.063-18.399-8.206-39.622-8.302-59.366
		c4.112-1.846,7.447-4.675,9.146-8.708c0.996-2.365-1.055-5.103-3.257-5.735c-9.977-2.862-20.308-1.336-30.394,0.103
		c-4.891,0.698-8.879,0.188-11.663,4.629c-1.659,2.646,0.071,5.903,2.479,7.244c0.498,0.277,0.985,0.444,1.456,0.526
		c0.126,0.111,0.229,0.235,0.385,0.329c1.944,1.174,4.303,2.121,6.879,2.838c-1.842,17.487-1.537,35.056-4.531,52.466
		c-2.936,17.072-11.064,32.493-12.307,49.968c-1.705,23.973,16.133,15.597,32.25,16.74
		C169.506,192.604,192.791,195.318,188.064,174.281z M155.641,140.412c-2.904,0.21-5.81,0.334-8.722,0.371
		c-1.45,0.018-2.892-0.063-4.337-0.173c-1.267-0.096-1.624-0.15-1.69-0.037c-0.263-0.913-0.983-1.554-1.847-1.793
		c5.896-21.545,7.23-43.271,4.738-65.504c4.634,0.808,9.689,0.863,14.383,0.016c0.196,23.001,2.547,43.997,10.589,65.803
		c0.046,0.126,0.087,0.255,0.133,0.381C164.467,139.649,160.053,140.094,155.641,140.412z"/>
	<path d="M53.657,35.381c-2.925-2.184-5.906-1.735-8.221,0.005c-2.414,0.027-4.699,0.882-6.622,2.781
		c-2.792,2.757-3.616,7.224-2.494,10.906c2.652,8.701,16.687,10.421,21.689,3.015C61.748,46.551,58.485,38.985,53.657,35.381z"/>
	<path d="M85.586,40.245c-2.191-1.65-5.309-1.101-7.556,0.02c-1.046,0.522-1.927,1.326-2.731,2.218
		c-1.315,0.223-2.448,0.832-3.474,2.257c-1.546,2.146-1.714,4.979-1.277,7.506c0.455,2.631,2.1,4.768,4.578,5.723
		c3.184,1.227,7.456-1.907,9.786-3.764C89.415,50.615,90.438,43.899,85.586,40.245z"/>
	<path d="M72.778,14.339c-1.288-4.056-5.831-6.946-10.246-8.013c-0.135-0.792-0.727-1.473-1.813-1.477
		c-4.334-0.017-8.909,1.238-11.04,5.379c-1.923,3.738-0.392,7.471,2.404,10.077c0.982,1.759,2.398,3.148,4.275,3.584
		c1.16,0.27,2.128-0.048,2.889-0.688C66.178,23.988,75.089,21.615,72.778,14.339z"/>
</g>
</svg>
