<?xml version="1.0" encoding="iso-8859-1"?>
<!-- Generator: Adobe Illustrator 16.0.0, SVG Export Plug-In . SVG Version: 6.00 Build 0)  -->
<!DOCTYPE svg PUBLIC "-//W3C//DTD SVG 1.1//EN" "http://www.w3.org/Graphics/SVG/1.1/DTD/svg11.dtd">
<svg version="1.1" id="Layer_1" xmlns="http://www.w3.org/2000/svg" xmlns:xlink="http://www.w3.org/1999/xlink" x="0px" y="0px"
	 width="37.9px" height="37.318px" viewBox="0 0 37.9 37.318" style="enable-background:new 0 0 37.9 37.318;" xml:space="preserve"
	>
<g>
	<path d="M37.152,29.594l-0.255-0.452c-0.958-1.705-3.197-5.694-5.511-9.098c-0.777-1.141-1.558-2.206-2.267-3.171
		c-1.132-1.543-2.54-3.461-2.554-4.03c0.085-2.502,0.027-8.42,0.007-10.25h1.478V0H9.368v2.593h1.959
		c-0.022,1.829-0.079,7.746,0.007,10.246c-0.015,0.572-1.423,2.491-2.556,4.034c-0.706,0.966-1.488,2.031-2.266,3.171
		c-2.313,3.404-4.553,7.394-5.511,9.098l-0.255,0.452c-0.986,1.74-0.996,4.114-0.031,5.773c0.733,1.258,1.91,1.951,3.31,1.951l0,0
		h29.847h0.003c1.398,0,2.575-0.693,3.308-1.951C38.149,33.708,38.139,31.334,37.152,29.594z M35.328,34.286
		c-0.342,0.589-0.831,0.887-1.456,0.887H4.025c-0.621,0-1.111-0.297-1.454-0.887c-0.582-0.998-0.564-2.562,0.044-3.634l0.257-0.461
		c0.943-1.678,3.152-5.611,5.418-8.938c0.759-1.121,1.525-2.164,2.221-3.111c1.978-2.697,3.009-4.16,2.969-5.372
		c-0.078-2.227-0.036-7.404-0.012-9.64h10.965c0.022,2.236,0.066,7.413-0.01,9.64c-0.043,1.212,0.988,2.674,2.967,5.372
		c0.694,0.947,1.461,1.991,2.222,3.111c2.263,3.327,4.472,7.26,5.416,8.938l0.256,0.461C35.893,31.724,35.911,33.289,35.328,34.286z
		"/>
	<path d="M33.904,29.829c-0.563-1-1.88-3.346-3.241-5.347c-0.348-0.514-0.693-0.989-1.025-1.444c0,0-1.725,0.714-7.042,0.892
		c-5.317,0.18-6.214,1.521-9.207,1.253c-2.993-0.269-5.126-2.145-5.126-2.145c-0.331,0.455-0.676,0.93-1.024,1.444
		c-1.36,2.001-2.68,4.347-3.241,5.347l-0.149,0.267c-0.579,1.023-0.586,2.418-0.018,3.394c0.433,0.739,1.122,1.146,1.945,1.146
		h1.872h6.934h8.739h6.978h1.829c0.822,0,1.513-0.407,1.946-1.146c0.564-0.976,0.561-2.371-0.02-3.394L33.904,29.829z M9.431,30.152
		c-0.981,0-1.779-0.795-1.779-1.777c0-0.982,0.798-1.778,1.779-1.778s1.777,0.796,1.777,1.778
		C11.208,29.356,10.412,30.152,9.431,30.152z M11.407,33.199c-0.351,0-0.636-0.284-0.636-0.636c0-0.351,0.285-0.635,0.636-0.635
		c0.35,0,0.636,0.284,0.636,0.635C12.043,32.915,11.757,33.199,11.407,33.199z M17.002,29.184c-0.593,0-1.071-0.481-1.071-1.075
		c0-0.589,0.479-1.072,1.071-1.072c0.591,0,1.072,0.482,1.072,1.072C18.074,28.702,17.593,29.184,17.002,29.184z M21.311,32.768
		c-0.464,0-0.839-0.377-0.839-0.84c0-0.464,0.375-0.839,0.839-0.839s0.842,0.375,0.842,0.839
		C22.152,32.391,21.774,32.768,21.311,32.768z M26.708,31.163c-1.057,0-1.914-0.858-1.914-1.917c0-1.057,0.857-1.916,1.914-1.916
		c1.062,0,1.918,0.859,1.918,1.916C28.626,30.304,27.77,31.163,26.708,31.163z M28.686,33.199c-0.35,0-0.635-0.284-0.635-0.636
		c0-0.351,0.285-0.635,0.635-0.635c0.352,0,0.636,0.284,0.636,0.635C29.321,32.915,29.037,33.199,28.686,33.199z"/>
</g>
<g>
</g>
<g>
</g>
<g>
</g>
<g>
</g>
<g>
</g>
<g>
</g>
<g>
</g>
<g>
</g>
<g>
</g>
<g>
</g>
<g>
</g>
<g>
</g>
<g>
</g>
<g>
</g>
<g>
</g>
</svg>
