<?xml version="1.0" encoding="utf-8"?>
<!-- Generator: Adobe Illustrator 16.0.0, SVG Export Plug-In . SVG Version: 6.00 Build 0)  -->
<!DOCTYPE svg PUBLIC "-//W3C//DTD SVG 1.1//EN" "http://www.w3.org/Graphics/SVG/1.1/DTD/svg11.dtd">
<svg version="1.1" id="Layer_1" xmlns="http://www.w3.org/2000/svg" xmlns:xlink="http://www.w3.org/1999/xlink" x="0px" y="0px"
	 width="48px" height="48px" viewBox="0 0 48 48" enable-background="new 0 0 48 48" xml:space="preserve">
<path d="M46.516,16.285c0-2.336-1.869-4.226-4.19-4.28c0.014-0.189,0.028-0.378,0.028-0.57c0-4.149-3.363-7.512-7.512-7.512
	c-1.601,0-3.081,0.504-4.299,1.357c-0.988-2.136-3.144-3.622-5.651-3.622c-2.681,0-4.958,1.697-5.837,4.072
	c-0.395-0.134-0.811-0.223-1.25-0.223c-1.22,0-2.295,0.57-3.013,1.444c-0.295-0.044-0.595-0.074-0.902-0.074
	c-2.838,0-5.214,1.947-5.885,4.576c-0.12-0.008-0.24-0.019-0.363-0.019c-2.939,0-5.322,2.383-5.322,5.323
	c0,2.015,1.121,3.769,2.773,4.671c-1.292,1.288-1.952,3.069-1.952,5.038c0,3.796,3.271,6.889,6.865,7.092v10.949
	c0,1.013,0.538,1.834,1.551,1.834h2.043V24.824c-0.901-0.509-2.348-1.485-3.317-2.928c-1.553-2.313-1.376-5.037,0.498-7.67
	c0.431-0.606,1.272-0.75,1.879-0.317c0.606,0.431,0.749,1.272,0.316,1.879c-0.984,1.384-1.263,2.625-0.865,3.771
	c0.805-1.139,2.371-2.896,4.627-3.449c-0.492-0.581-0.82-1.22-0.963-1.923c-0.492-2.432,1.38-4.404,1.595-4.621
	c0.524-0.529,1.377-0.532,1.906-0.008c0.527,0.522,0.532,1.372,0.013,1.9c-0.024,0.025-1.087,1.167-0.871,2.201
	c0.166,0.791,1.071,1.399,1.946,1.813c1.622-0.645,2.379-1.769,2.863-2.761c0.882-1.809-0.025-4.042-0.034-4.065
	c-0.284-0.686,0.039-1.475,0.723-1.761c0.684-0.287,1.471,0.029,1.761,0.713c0.04,0.093,0.674,1.625,0.624,3.518
	c1.752-0.534,4.182-0.95,6.507-0.242c2.068,0.63,3.677,2.012,4.784,4.108c0.348,0.658,0.096,1.473-0.563,1.821
	c-0.201,0.106-0.416,0.156-0.628,0.156c-0.484,0-0.952-0.261-1.193-0.719c-0.768-1.453-1.806-2.364-3.175-2.785
	c-0.086-0.026-0.173-0.042-0.26-0.064c0.703,0.949,1.345,2.223,1.369,3.75c0.015,0.907-0.192,1.794-0.603,2.66
	c0.432,0.701,1.226,1.667,2.247,1.884c0.998,0.21,2.184-0.292,3.515-1.5c0.552-0.5,1.403-0.458,1.904,0.092
	c0.5,0.551,0.459,1.404-0.092,1.904c-1.647,1.495-3.276,2.248-4.855,2.248c-0.354,0-0.705-0.038-1.054-0.113
	c-1.49-0.324-2.585-1.294-3.315-2.197c-0.491,0.507-1.059,1.005-1.709,1.491c-0.242,0.181-0.526,0.269-0.807,0.269
	c-0.41,0-0.815-0.187-1.08-0.541c-0.446-0.596-0.324-1.441,0.272-1.887c1.935-1.447,2.904-2.882,2.882-4.268
	c-0.031-1.961-2.04-3.419-2.061-3.434c-0.126-0.088-0.228-0.197-0.313-0.315c-1.193,0.264-2.18,0.672-2.666,0.896
	c-0.75,1.363-1.737,2.399-2.975,3.118c1.003,0.712,2.003,1.671,2.994,2.881c0.472,0.576,0.387,1.425-0.189,1.896
	c-0.577,0.471-1.426,0.387-1.896-0.189c-1.987-2.427-3.845-3.567-5.527-3.391c-2.343,0.248-3.868,3.029-3.929,3.144
	c0.818,0.625,1.583,0.965,1.595,0.97c0.496,0.212,0.817,0.7,0.817,1.239v22.342h0.387c1.013,0,1.411-0.821,1.411-1.834V28.368
	c1.797,0.505,2.442,0.801,3.691,0.801c1.534,0,3.068-0.434,4.291-1.173c0.715,0.663,1.718,1.078,2.77,1.078
	c1.341,0,2.547-0.665,3.274-1.676c1.249,1.1,2.896,1.771,4.691,1.771c3.916,0,7.096-3.174,7.096-7.09
	c0-0.614-0.083-1.206-0.229-1.773C45.326,19.708,46.516,18.141,46.516,16.285z"/>
</svg>
