<?xml version="1.0" encoding="iso-8859-1"?>
<!-- Generator: Adobe Illustrator 16.0.0, SVG Export Plug-In . SVG Version: 6.00 Build 0)  -->
<!DOCTYPE svg PUBLIC "-//W3C//DTD SVG 1.1//EN" "http://www.w3.org/Graphics/SVG/1.1/DTD/svg11.dtd">
<svg version="1.1" id="Layer_1" xmlns="http://www.w3.org/2000/svg" xmlns:xlink="http://www.w3.org/1999/xlink" x="0px" y="0px"
	 width="38.798px" height="36.211px" viewBox="0 0 38.798 36.211" style="enable-background:new 0 0 38.798 36.211;"
	 xml:space="preserve">
<g>
	<path d="M21.681,25.426l6.31,3.467l-1.826,3.324l2.955,1.623l3.448-6.28l-8.197-4.501c0.004-0.004,0.005-0.007,0.009-0.011
		l-3.05-1.674c-3.229,3.208-8.309,4.068-12.496,1.768c-5.092-2.796-6.96-9.216-4.163-14.308c2.797-5.093,9.216-6.96,14.309-4.164
		c4.185,2.3,6.184,7.043,5.215,11.485l3.049,1.675c0-0.001,0-0.001,0-0.003l8.105,4.452l3.45-6.28l-2.955-1.623L34.017,17.7
		l-6.218-3.414c0.131-5.04-2.481-9.98-7.196-12.571C13.88-1.977,5.408,0.487,1.715,7.211c-3.692,6.722-1.227,15.194,5.496,18.885
		C11.927,28.687,17.498,28.241,21.681,25.426z"/>
	<path d="M4.564,16.333c1.501,5.164,6.905,8.133,12.069,6.632c1.58-0.461,3.363-1.683,4.467-2.754
		c0.41-0.397,11.338,6.251,11.861,6.813s0.271,3.184,0.271,4.063c0,0.611,3.486,2.421,2.711,1.062
		c-0.774-1.358-0.689-1.972-1.122-3.277s-1.075-2.737-1.79-3.379c-0.715-0.642-10.044-8.152-10.939-8.934
		c-1.371-1.2-4.745-2.226-6.887-2.34C13.063,14.105,9.566,14.415,4.564,16.333z M18.578,19.151c0.251-0.073,0.511,0.071,0.583,0.32
		c0.073,0.249-0.069,0.51-0.32,0.582c-0.249,0.074-0.51-0.069-0.583-0.318C18.185,19.486,18.329,19.223,18.578,19.151z
		 M15.276,19.577c0.696-0.202,1.425,0.2,1.628,0.895c0.203,0.695-0.199,1.425-0.895,1.627c-0.693,0.201-1.422-0.199-1.625-0.895
		C14.183,20.51,14.583,19.778,15.276,19.577z M13.802,17.996c0.229-0.066,0.471,0.067,0.539,0.295
		c0.067,0.229-0.065,0.473-0.296,0.539c-0.23,0.067-0.472-0.065-0.537-0.296C13.441,18.303,13.573,18.062,13.802,17.996z
		 M10.724,18.775c0.138,0.474-0.135,0.972-0.611,1.11c-0.475,0.139-0.972-0.136-1.108-0.611c-0.14-0.475,0.132-0.969,0.61-1.109
		C10.088,18.027,10.585,18.3,10.724,18.775z"/>
</g>
<path d="M36.374,33.799c-0.083-1.762-1.699-3.915-2.519-4.522c-0.13-0.098-0.288-0.192-0.383-0.16
	c-0.07,0.004-0.103,0.063-0.081,0.195c0.341,2-1.199,3.226-1.465,5.067c-0.214,1.482,2.061,2.39,3.471,1.448
	c-0.001,0.003-0.001,0.004-0.001,0.006c0.009-0.004,0.016-0.013,0.024-0.018c0.025-0.019,0.048-0.04,0.073-0.058
	c0.073-0.054,0.142-0.114,0.209-0.18c0.03-0.027,0.059-0.06,0.087-0.09c0.06-0.067,0.117-0.14,0.171-0.215
	c0.023-0.034,0.048-0.065,0.07-0.101c0.072-0.116,0.139-0.237,0.195-0.373c0.041-0.1,0.07-0.206,0.095-0.313
	c0.007-0.03,0.013-0.062,0.02-0.092c0.015-0.09,0.028-0.179,0.033-0.271c0.004-0.067,0.004-0.136,0.003-0.204
	C36.376,33.881,36.376,33.841,36.374,33.799z M32.656,34.407c-0.081-0.786,0.514-1.458,0.514-1.458s-0.16,0.868-0.146,1.475
	c0.013,0.609,0.454,1.103,0.454,1.103S32.737,35.195,32.656,34.407z"/>
<g>
</g>
<g>
</g>
<g>
</g>
<g>
</g>
<g>
</g>
<g>
</g>
<g>
</g>
<g>
</g>
<g>
</g>
<g>
</g>
<g>
</g>
<g>
</g>
<g>
</g>
<g>
</g>
<g>
</g>
</svg>
