<?xml version="1.0" encoding="iso-8859-1"?>
<!-- Generator: Adobe Illustrator 16.0.0, SVG Export Plug-In . SVG Version: 6.00 Build 0)  -->
<!DOCTYPE svg PUBLIC "-//W3C//DTD SVG 1.1//EN" "http://www.w3.org/Graphics/SVG/1.1/DTD/svg11.dtd">
<svg version="1.1" id="Layer_1" xmlns="http://www.w3.org/2000/svg" xmlns:xlink="http://www.w3.org/1999/xlink" x="0px" y="0px"
	 width="27.627px" height="47.719px" viewBox="0 0 27.627 47.719" style="enable-background:new 0 0 27.627 47.719;"
	 xml:space="preserve">
<g>
	<path d="M5.393,30.767h18.742h0.002c0.878,0,1.617-0.436,2.077-1.225c0.607-1.042,0.6-2.533-0.019-3.625l-0.16-0.284
		c-0.602-1.07-2.008-3.576-3.46-5.713c-0.488-0.716-0.978-1.385-1.423-1.991c-0.711-0.969-1.595-2.174-1.604-2.531
		c0.053-1.571,0.017-5.288,0.004-6.436h0.928V7.333H8.748v1.628h1.23c-0.014,1.148-0.05,4.864,0.004,6.434
		c-0.009,0.359-0.894,1.564-1.605,2.533c-0.443,0.606-0.935,1.275-1.423,1.991c-1.453,2.138-2.859,4.643-3.46,5.713l-0.16,0.284
		c-0.619,1.093-0.625,2.584-0.02,3.625C3.775,30.331,4.514,30.767,5.393,30.767z M4.507,26.58l0.161-0.29
		c0.593-1.054,1.979-3.523,3.402-5.613c0.477-0.704,0.958-1.359,1.395-1.954c1.242-1.694,1.89-2.612,1.864-3.373
		c-0.049-1.398-0.022-4.649-0.007-6.054h6.885c0.014,1.404,0.042,4.655-0.006,6.054c-0.027,0.761,0.621,1.679,1.863,3.373
		c0.436,0.595,0.917,1.25,1.396,1.954c1.421,2.089,2.808,4.559,3.401,5.613l0.161,0.29c0.383,0.674,0.394,1.656,0.028,2.282
		c-0.215,0.37-0.522,0.557-0.915,0.557H5.393c-0.39,0-0.698-0.187-0.913-0.557C4.114,28.236,4.125,27.254,4.507,26.58z"/>
	<path d="M6.491,29.083h1.176h4.354h5.488h4.381h1.149c0.516,0,0.95-0.256,1.222-0.72c0.354-0.613,0.352-1.489-0.012-2.131
		l-0.094-0.168c-0.354-0.628-1.18-2.101-2.035-3.357c-0.218-0.322-0.436-0.621-0.644-0.907c0,0-1.083,0.449-4.422,0.561
		c-3.339,0.113-3.902,0.955-5.782,0.787c-1.879-0.168-3.219-1.347-3.219-1.347c-0.208,0.286-0.424,0.584-0.643,0.907
		c-0.854,1.257-1.683,2.729-2.036,3.357l-0.094,0.168c-0.364,0.643-0.368,1.519-0.011,2.131C5.542,28.827,5.974,29.083,6.491,29.083
		z M21.277,27.781c0,0.221-0.178,0.399-0.399,0.399c-0.22,0-0.398-0.179-0.398-0.399c0-0.22,0.179-0.399,0.398-0.399
		C21.099,27.382,21.277,27.561,21.277,27.781z M19.636,24.494c0.667,0,1.204,0.54,1.204,1.204s-0.538,1.203-1.204,1.203
		c-0.664,0-1.202-0.539-1.202-1.203S18.973,24.494,19.636,24.494z M16.247,26.855c0.292,0,0.529,0.235,0.529,0.527
		c0,0.291-0.237,0.527-0.529,0.527c-0.291,0-0.527-0.237-0.527-0.527C15.72,27.09,15.956,26.855,16.247,26.855z M13.541,24.31
		c0.371,0,0.673,0.303,0.673,0.673c0,0.373-0.302,0.675-0.673,0.675c-0.372,0-0.673-0.302-0.673-0.675
		C12.868,24.613,13.169,24.31,13.541,24.31z M10.427,27.781c0,0.221-0.18,0.399-0.399,0.399c-0.22,0-0.399-0.179-0.399-0.399
		c0-0.22,0.179-0.399,0.399-0.399C10.248,27.382,10.427,27.561,10.427,27.781z M8.787,24.034c0.616,0,1.116,0.5,1.116,1.117
		s-0.5,1.116-1.116,1.116s-1.117-0.5-1.117-1.116S8.17,24.034,8.787,24.034z"/>
	<path d="M17.524,44.242c0.475-0.909,0.826-2.356-0.193-4.083l-0.68-1.155l0.168,1.33c0.126,0.998-0.293,1.588-0.647,1.899
		c0.06-1.04,0.014-3.239-1.224-4.781c-0.773-0.964-1.879-1.506-3.291-1.609l-0.852-0.063l0.654,0.551
		c0.78,0.657,1.208,1.382,1.269,2.157c0.036,0.447-0.056,0.857-0.183,1.192c-0.08-0.563-0.331-1.186-1.006-1.486l-0.457-0.203
		l0.07,0.494c0.159,1.128-0.272,1.856-0.727,2.627c-0.461,0.779-0.937,1.583-0.747,2.77c0.123,0.766,0.393,1.387,0.803,1.866H8.179
		v1.972H17.9v-1.972h-1.585C16.792,45.333,17.22,44.825,17.524,44.242z M14.548,45.747c0.574-1.27,0.423-4.064-1.419-4.462
		c0.665,0.973-0.162,1.993-0.901,2.514c-0.735,0.519-1.221,0.991-0.841,1.948h-0.082c-0.575-0.426-0.936-1.064-1.078-1.954
		c-0.159-0.989,0.247-1.674,0.675-2.401c0.383-0.647,0.808-1.366,0.837-2.344c0.436,0.617,0.241,1.641,0.239,1.654l-0.201,1.017
		l0.681-0.781c0.039-0.044,0.932-1.086,0.825-2.488c-0.053-0.689-0.337-1.336-0.845-1.933c0.864,0.205,1.561,0.633,2.079,1.278
		c1.486,1.852,1.061,4.911,1.056,4.941l-0.07,0.483l0.45-0.188c0.013-0.005,1.018-0.437,1.344-1.589
		c0.305,1.06,0.054,1.94-0.261,2.544c-0.384,0.736-1.001,1.34-1.646,1.76H14.548z"/>
	<path d="M15.552,37.101c0.155,0.196,0.239,0.371,0.302,0.604c0.063,0.234,0.23,0.734,0.23,0.734l0.16-0.732
		c0.132-0.665-0.142-1.2-0.788-1.348l-1.02-0.119c0,0,0.397,0.283,0.62,0.422C15.168,36.733,15.396,36.905,15.552,37.101z"/>
	<polygon points="23.667,32.092 4.87,32.092 0,46.054 1.889,46.713 6.291,34.092 22.149,34.092 25.701,46.838 27.627,46.301 	"/>
	<path d="M13.868,6.675c1.287,0,2.333-1.046,2.333-2.333s-1.046-2.333-2.333-2.333s-2.333,1.047-2.333,2.333
		S12.581,6.675,13.868,6.675z M13.868,3.009c0.735,0,1.333,0.598,1.333,1.333c0,0.735-0.598,1.333-1.333,1.333
		c-0.735,0-1.333-0.598-1.333-1.333C12.534,3.607,13.132,3.009,13.868,3.009z"/>
	<path d="M17.896,4.578c0,0.83,0.675,1.504,1.504,1.504s1.505-0.675,1.505-1.504S20.229,3.074,19.4,3.074S17.896,3.749,17.896,4.578
		z M19.4,4.074c0.278,0,0.505,0.226,0.505,0.504S19.678,5.083,19.4,5.083s-0.504-0.226-0.504-0.504S19.122,4.074,19.4,4.074z"/>
	<path d="M17.063,3.009c0.83,0,1.505-0.675,1.505-1.504S17.892,0,17.063,0s-1.504,0.675-1.504,1.504S16.233,3.009,17.063,3.009z
		 M17.063,1c0.278,0,0.505,0.226,0.505,0.504s-0.227,0.504-0.505,0.504s-0.504-0.226-0.504-0.504S16.784,1,17.063,1z"/>
</g>
<g>
</g>
<g>
</g>
<g>
</g>
<g>
</g>
<g>
</g>
<g>
</g>
<g>
</g>
<g>
</g>
<g>
</g>
<g>
</g>
<g>
</g>
<g>
</g>
<g>
</g>
<g>
</g>
<g>
</g>
</svg>
