<?xml version="1.0" encoding="utf-8"?>
<!-- Generator: Adobe Illustrator 16.0.4, SVG Export Plug-In . SVG Version: 6.00 Build 0)  -->
<!DOCTYPE svg PUBLIC "-//W3C//DTD SVG 1.1//EN" "http://www.w3.org/Graphics/SVG/1.1/DTD/svg11.dtd">
<svg version="1.1" id="Layer_1" xmlns="http://www.w3.org/2000/svg" xmlns:xlink="http://www.w3.org/1999/xlink" x="0px" y="0px"
	 width="49.227px" height="44.752px" viewBox="0 0 49.227 44.752" enable-background="new 0 0 49.227 44.752" xml:space="preserve">
<path d="M44.348,17.761h-9.781l-4.417-7.637H19.145l-4.417,7.637h-9.85L0,26.193l4.878,8.435h11.005l4.417-7.637h8.627l4.418,7.637
	H44.35l4.878-8.435L44.348,17.761z M14.729,32.626H6.031l-3.72-6.436l3.723-6.433h8.696l3.723,6.433L14.729,32.626z M20.298,24.993
	v-0.002l-3.721-6.435l3.721-6.433h8.698l3.721,6.434l-3.721,6.436H20.298z M43.194,32.626h-8.696l-3.723-6.436l3.723-6.433h8.696
	l3.723,6.433L43.194,32.626z M8.095,21.389l-3.35,5.935l-0.871-0.492l3.351-5.936L8.095,21.389z M6.755,30.204h7.25v1h-7.25V30.204z
	 M45.459,26.633l-0.873,0.487l-3.316-5.93l0.872-0.488L45.459,26.633z M35.688,20.898l0.873,0.488l-3.315,5.931l-0.872-0.486
	L35.688,20.898z"/>
</svg>
