<?xml version="1.0" encoding="utf-8"?>
<!-- Generator: Adobe Illustrator 16.0.0, SVG Export Plug-In . SVG Version: 6.00 Build 0)  -->
<!DOCTYPE svg PUBLIC "-//W3C//DTD SVG 1.1//EN" "http://www.w3.org/Graphics/SVG/1.1/DTD/svg11.dtd">
<svg version="1.1" id="Layer_6" xmlns="http://www.w3.org/2000/svg" xmlns:xlink="http://www.w3.org/1999/xlink" x="0px" y="0px"
	 width="100px" height="100px" viewBox="0 0 100 100" enable-background="new 0 0 100 100" xml:space="preserve">
<path d="M79.908,32.146L49.491,15.171L19.584,33.025l0.508,34.829l30.417,16.975l29.907-17.854L79.908,32.146z M50.225,82.38
	l-27.9-15.571l4.891-3.032l0.609,4.882l21.332,8.385l1.004-0.461L50.225,82.38z M38.967,37.875l10.382-15.082l0.215,0.316
	l0.106,9.494l-5.195-0.714l-1.27,1.845l6.487,0.892l0.162,14.53l-0.146,0.083l-9.582-5.014L38.967,37.875z M49.864,50.039
	l0.194,17.45l-7.277-8.734l-0.76-4.157l7.583-4.701L49.864,50.039z M50.367,50.315l14.09,7.751L52.418,70.32l-1.853-2.223
	L50.367,50.315z M50.361,49.742l-0.004-0.297l9.904-5.664l4.461,13.861L50.361,49.742z M50.352,48.873l-0.158-14.177l5.795,0.797
	l-0.267-0.833l-0.918-1.35l-4.633-0.637l-0.099-8.815l7.169,10.539l2.864,8.899L50.352,48.873z M49.217,49.547l-7.292,4.521
	l-1.684-9.218L49.217,49.547z M40.1,55.201l-11.082,6.871l-2.882-23.097l1.783-0.571l10.075,5.271L40.1,55.201z M27.146,63.231
	l-5.076,3.147l-0.456-31.275l3.813,1.996l-1.482,0.475L27.146,63.231z M49.096,74.872l-19.435-7.638l-0.576-4.616l11.11-6.888
	l0.713,3.901l9.186,11.026l0.042,3.737L49.096,74.872z M50.601,71.265l1.694,2.033l13.982-14.229l1.006,0.554l-0.333,0.339
	l-0.064,6.73l-11.943,5.492l-2.896,2.946l-0.974-1.168l-0.439,0.202L50.601,71.265z M66.642,58.698l0.394-0.401l-4.998-15.531
	l5.106-2.92l-0.13,13.576l1.569,4.877l-0.936,0.953L66.642,58.698z M69.155,38.695l8.775-5.018l0.459,31.483l-9.439-5.193
	L69.155,38.695z M77.93,33.615l-0.221-0.386l-8.548,4.888l0.027-2.829l-8.383-1.153l0.68,2.112l5.686,0.782l-0.021,2.238
	l-5.27,3.013l-2.778-8.634l-9.069-13.399l-0.028-2.5L77.926,33.33L77.93,33.615z M49.501,17.496l0.022,2l-0.165-0.244l-12.507,18.17
	l1.028,5.628l-9.291-4.861l7.03-2.252l1.854-2.695l-11.376,3.644l-4.464-2.336L21.607,34.6l-0.007-0.449L49.501,17.496z
	 M50.725,82.369l-0.066-6.015l18.215-8.376l0.072-7.442l9.328,5.132l0.12-0.219l0.006,0.4L50.725,82.369z"/>
</svg>
