<?xml version="1.0" encoding="utf-8"?>
<!-- Generator: Adobe Illustrator 16.0.4, SVG Export Plug-In . SVG Version: 6.00 Build 0)  -->
<!DOCTYPE svg PUBLIC "-//W3C//DTD SVG 1.1//EN" "http://www.w3.org/Graphics/SVG/1.1/DTD/svg11.dtd">
<svg version="1.1" id="Layer_1" xmlns="http://www.w3.org/2000/svg" xmlns:xlink="http://www.w3.org/1999/xlink" x="0px" y="0px"
	 width="50px" height="50px" viewBox="0 0 50 50" enable-background="new 0 0 50 50" xml:space="preserve">
<path d="M24.818,25.05c-0.08,0.139-0.146,0.297-0.16,0.493c-0.035,0.389,0.115,0.867,0.326,1.336l0.164,0.365
	c0.045,0.145,0.112,0.277,0.133,0.424c0.062,0.287,0.059,0.57,0.023,0.832c-0.068,0.529-0.271,0.969-0.459,1.326
	c-0.39,0.711-0.758,1.098-0.758,1.098s0.314-0.438,0.596-1.172c0.135-0.365,0.267-0.811,0.262-1.277
	c-0.002-0.23-0.03-0.469-0.111-0.684c-0.027-0.111-0.102-0.207-0.146-0.311l-0.209-0.334c-0.281-0.461-0.562-0.988-0.602-1.604
	c-0.021-0.307,0.044-0.617,0.158-0.891c0.061-0.133,0.14-0.25,0.211-0.368c0.086-0.103,0.171-0.199,0.251-0.293
	c0.004-0.005,0.008-0.009,0.013-0.013c-0.143-0.674,0.32-1.586,1.202-2.231c1.065-0.779,2.324-0.871,2.813-0.203
	c0.487,0.666,0.021,1.84-1.045,2.619c-0.812,0.596-1.733,0.785-2.345,0.549c-0.056,0.047-0.112,0.099-0.173,0.147
	C24.921,24.923,24.861,24.982,24.818,25.05z M27.689,25.451c-0.537,0.393-0.818,0.95-0.731,1.358
	c-0.003,0.004-0.005,0.006-0.008,0.008c-0.05,0.057-0.101,0.115-0.152,0.178c-0.044,0.072-0.091,0.143-0.128,0.225
	c-0.068,0.166-0.107,0.355-0.096,0.541c0.023,0.373,0.193,0.693,0.365,0.973l0.127,0.205c0.026,0.062,0.07,0.121,0.088,0.189
	c0.051,0.131,0.068,0.273,0.068,0.414c0.002,0.285-0.078,0.555-0.158,0.777c-0.172,0.445-0.362,0.713-0.362,0.713
	s0.224-0.236,0.461-0.668c0.114-0.217,0.235-0.484,0.278-0.807c0.021-0.158,0.022-0.332-0.016-0.508
	c-0.012-0.088-0.053-0.17-0.08-0.258l-0.1-0.221c-0.129-0.285-0.221-0.576-0.199-0.812c0.008-0.117,0.049-0.217,0.098-0.301
	c0.026-0.041,0.062-0.076,0.09-0.113c0.035-0.031,0.07-0.061,0.104-0.092c0.371,0.146,0.931,0.027,1.425-0.334
	c0.648-0.473,0.934-1.188,0.635-1.591C29.104,24.921,28.337,24.976,27.689,25.451z M21.723,23.574
	c-0.537,0.393-0.818,0.947-0.73,1.357c-0.004,0.002-0.006,0.006-0.008,0.006c-0.051,0.059-0.102,0.117-0.153,0.18
	c-0.043,0.072-0.091,0.143-0.128,0.225c-0.069,0.165-0.108,0.356-0.096,0.542c0.023,0.373,0.193,0.691,0.365,0.973l0.127,0.205
	c0.026,0.062,0.07,0.119,0.088,0.188c0.051,0.133,0.066,0.275,0.067,0.416c0.003,0.283-0.077,0.555-0.157,0.777
	c-0.173,0.445-0.363,0.711-0.363,0.711s0.225-0.234,0.461-0.668c0.115-0.215,0.236-0.482,0.279-0.805
	c0.021-0.158,0.023-0.332-0.016-0.506c-0.011-0.088-0.053-0.172-0.08-0.258l-0.1-0.223c-0.129-0.285-0.221-0.576-0.198-0.812
	c0.008-0.117,0.048-0.215,0.097-0.299c0.027-0.041,0.062-0.076,0.09-0.116c0.037-0.031,0.07-0.061,0.104-0.09
	c0.371,0.143,0.933,0.027,1.426-0.334c0.647-0.475,0.933-1.188,0.636-1.594C23.135,23.044,22.369,23.099,21.723,23.574z
	 M15.236,31.781V19.845c0-0.226,0.183-0.406,0.408-0.406h18.711c0.226,0,0.406,0.182,0.406,0.406v11.936
	c0,0.225-0.182,0.406-0.406,0.406H15.645C15.419,32.188,15.236,32.006,15.236,31.781z M16.051,31.375h17.898V20.251H16.051V31.375z
	 M40,17.302c0,0.225-0.182,0.408-0.407,0.408h-2.39v15.27c0,0.908-0.739,1.648-1.648,1.648H14.445c-0.908,0-1.647-0.74-1.647-1.648
	V17.71h-2.39c-0.227,0-0.407-0.184-0.407-0.408c0-0.224,0.183-0.406,0.407-0.406h29.186C39.818,16.896,40,17.078,40,17.302z
	 M36.391,17.71H13.609v15.27c0,0.461,0.375,0.834,0.836,0.834h21.109c0.461,0,0.834-0.373,0.834-0.834V17.71H36.391z M10.407,16.185
	h29.186c0.226,0,0.407-0.184,0.407-0.408c0-0.223-0.182-0.405-0.407-0.405H10.407c-0.226,0-0.407,0.183-0.407,0.405
	C10,16.001,10.182,16.185,10.407,16.185z"/>
</svg>
