<?xml version="1.0" encoding="utf-8"?>
<!-- Generator: Adobe Illustrator 16.0.4, SVG Export Plug-In . SVG Version: 6.00 Build 0)  -->
<!DOCTYPE svg PUBLIC "-//W3C//DTD SVG 1.1//EN" "http://www.w3.org/Graphics/SVG/1.1/DTD/svg11.dtd">
<svg version="1.1" id="Layer_1" xmlns="http://www.w3.org/2000/svg" xmlns:xlink="http://www.w3.org/1999/xlink" x="0px" y="0px"
	 width="44.089px" height="44.805px" viewBox="0 0 44.089 44.805" enable-background="new 0 0 44.089 44.805" xml:space="preserve">
<path d="M16.693,21.816l6.958,6.505L14.976,37.6l-6.957-6.505l1.823-1.951l1.722,1.61l0.853-0.913l-1.721-1.61l2.732-2.922
	l1.653,1.545l0.854-0.913l-1.653-1.545L16.693,21.816z M24.006,17.586l-1.683-1.574l-0.854,0.913l1.682,1.573L24.006,17.586z
	 M27.151,14.036l-1.683-1.574l-0.854,0.913l1.683,1.573L27.151,14.036z M37.058,9.345l-2.215,2.369l4.914,4.594L15.243,42.526
	l-5.161-4.823L4.333,43.85L0,44.805l8.246-8.82l-5.059-4.729L27.701,5.038l5.465,5.109L35.38,7.78l-4.784-4.469L33.694,0
	l10.396,9.711l-3.098,3.311L37.058,9.345z M33.474,13.176l-9.919,10.61l2.329,2.176l-1.322,1.412l-6.96-6.504l1.322-1.412
	l2.956,2.762l9.92-10.611l-4.006-3.744L6.014,31.162l9.133,8.536l21.781-23.296L33.474,13.176z"/>
</svg>
