<?xml version="1.0" encoding="utf-8"?>
<!-- Generator: Adobe Illustrator 16.0.0, SVG Export Plug-In . SVG Version: 6.00 Build 0)  -->
<!DOCTYPE svg PUBLIC "-//W3C//DTD SVG 1.1//EN" "http://www.w3.org/Graphics/SVG/1.1/DTD/svg11.dtd">
<svg version="1.1" id="Layer_10" xmlns="http://www.w3.org/2000/svg" xmlns:xlink="http://www.w3.org/1999/xlink" x="0px" y="0px"
	 width="100px" height="100px" viewBox="0 0 100 100" enable-background="new 0 0 100 100" xml:space="preserve">
<path d="M38.581,45.875h18.75v18.75h-18.75V45.875z M74.831,27.625v58c0,1.381-1.119,2.5-2.5,2.5h-49c-1.381,0-2.5-1.119-2.5-2.5
	v-58c0-0.056,0.012-0.108,0.015-0.163l0.135-12.614c0.015-1.345,1.091-2.438,2.436-2.472l19.351-0.5
	c1.034-0.043,2.025,0.619,2.402,1.612l2.99,7.885l14.801-2.22c0.621-0.092,1.241,0.048,1.758,0.392l9,6
	C74.413,26.009,74.831,26.79,74.831,27.625z M25.875,24.716L43.1,22.132l-1.977-5.212l-15.168,0.392L25.875,24.716z M62.331,66.09
	v-21.43l7.518-7.518c0.977-0.976,0.977-2.559,0-3.535c-0.977-0.977-2.559-0.977-3.535,0l-7.268,7.268h-22.43l-7.268-7.268
	c-0.977-0.977-2.559-0.977-3.535,0c-0.977,0.976-0.977,2.559,0,3.535l7.768,7.768v20.93l-7.768,7.768
	c-0.977,0.976-0.977,2.559,0,3.535c0.488,0.488,1.128,0.732,1.768,0.732s1.279-0.244,1.768-0.732l7.518-7.518h21.93l7.518,7.518
	c0.488,0.488,1.128,0.732,1.768,0.732s1.279-0.244,1.768-0.732c0.977-0.976,0.977-2.559,0-3.535L62.331,66.09z M77.979,17.174
	l-7.876-4.851c-0.564-0.348-1.248-0.458-1.889-0.303c-0.646,0.153-1.203,0.557-1.551,1.122l-1.572,2.554
	c-0.724,1.176-0.357,2.715,0.818,3.439l7.876,4.85c0.397,0.245,0.852,0.371,1.311,0.371c0.193,0,0.388-0.022,0.578-0.068
	c0.646-0.153,1.203-0.557,1.551-1.122l1.572-2.554C79.521,19.438,79.155,17.898,77.979,17.174z"/>
</svg>
