<?xml version="1.0" encoding="utf-8"?>
<!-- Generator: Adobe Illustrator 16.0.4, SVG Export Plug-In . SVG Version: 6.00 Build 0)  -->
<!DOCTYPE svg PUBLIC "-//W3C//DTD SVG 1.1//EN" "http://www.w3.org/Graphics/SVG/1.1/DTD/svg11.dtd">
<svg version="1.1" id="Layer_1" xmlns="http://www.w3.org/2000/svg" xmlns:xlink="http://www.w3.org/1999/xlink" x="0px" y="0px"
	 width="50px" height="50px" viewBox="0 0 50 50" enable-background="new 0 0 50 50" xml:space="preserve">
<g>
	<path d="M36.693,19.964c-0.324-0.562-1.009-0.858-1.98-0.858c-0.29,0-0.599,0.029-0.919,0.082
		c-0.498-1.305-1.259-2.127-2.128-2.127s-1.63,0.822-2.128,2.127c-0.32-0.053-0.63-0.082-0.92-0.082
		c-0.971,0-1.656,0.297-1.979,0.858c-0.435,0.751-0.104,1.82,0.774,2.902c-0.879,1.082-1.209,2.151-0.774,2.901
		c0.323,0.562,1.009,0.859,1.979,0.859c0.29,0,0.599-0.029,0.919-0.082c0.498,1.305,1.259,2.126,2.128,2.126s1.63-0.821,2.128-2.126
		c0.32,0.053,0.63,0.082,0.919,0.082c0.972,0,1.656-0.298,1.98-0.859c0.434-0.75,0.104-1.819-0.775-2.901
		C36.798,21.784,37.127,20.715,36.693,19.964z M33.788,20.977c-0.243-0.164-0.493-0.324-0.757-0.477s-0.53-0.289-0.796-0.418
		c0.43-0.163,0.849-0.286,1.252-0.374C33.61,20.098,33.711,20.521,33.788,20.977z M31.666,17.516c0.652,0,1.25,0.688,1.668,1.762
		c-0.536,0.121-1.098,0.305-1.668,0.546c-0.569-0.241-1.133-0.425-1.668-0.546C30.416,18.203,31.014,17.516,31.666,17.516z
		 M29.845,19.708c0.402,0.088,0.821,0.211,1.252,0.374c-0.267,0.129-0.533,0.266-0.797,0.418c-0.265,0.152-0.514,0.312-0.757,0.477
		C29.619,20.521,29.722,20.098,29.845,19.708z M28.618,26.171c-0.788,0-1.352-0.223-1.586-0.63
		c-0.325-0.562-0.029-1.422,0.688-2.321c0.366,0.399,0.809,0.794,1.308,1.169c0.077,0.622,0.197,1.201,0.359,1.719
		C29.119,26.146,28.86,26.171,28.618,26.171z M28.967,23.758c-0.354-0.292-0.672-0.592-0.944-0.892
		c0.272-0.3,0.59-0.601,0.944-0.892c-0.02,0.289-0.033,0.586-0.033,0.891C28.934,23.171,28.947,23.467,28.967,23.758z
		 M29.027,21.344c-0.5,0.377-0.941,0.771-1.308,1.17c-0.718-0.899-1.014-1.759-0.688-2.322c0.235-0.406,0.798-0.629,1.586-0.629
		c0.243,0,0.501,0.023,0.77,0.062C29.226,20.143,29.104,20.723,29.027,21.344z M29.544,24.757c0.242,0.163,0.491,0.323,0.755,0.476
		c0.265,0.152,0.531,0.289,0.798,0.418c-0.431,0.164-0.85,0.287-1.252,0.375C29.722,25.636,29.619,25.211,29.544,24.757z
		 M31.666,28.217c-0.651,0-1.25-0.688-1.668-1.761c0.536-0.121,1.099-0.304,1.668-0.546c0.57,0.242,1.133,0.425,1.668,0.546
		C32.915,27.529,32.318,28.217,31.666,28.217z M33.487,26.023c-0.403-0.088-0.822-0.211-1.252-0.373
		c0.266-0.129,0.533-0.267,0.797-0.418c0.264-0.152,0.513-0.312,0.756-0.477C33.711,25.211,33.61,25.636,33.487,26.023z
		 M33.872,24.139c-0.334,0.245-0.688,0.48-1.067,0.7c-0.379,0.218-0.761,0.41-1.14,0.58c-0.379-0.17-0.761-0.362-1.139-0.58
		c-0.379-0.22-0.734-0.455-1.068-0.698c-0.044-0.41-0.07-0.836-0.07-1.274s0.026-0.862,0.07-1.271
		c0.334-0.246,0.689-0.48,1.068-0.701c0.378-0.217,0.759-0.41,1.138-0.58c0.378,0.17,0.76,0.363,1.138,0.58
		c0.38,0.221,0.734,0.455,1.068,0.701c0.044,0.408,0.07,0.834,0.07,1.271C33.942,23.305,33.916,23.729,33.872,24.139z
		 M36.299,25.541c-0.234,0.407-0.798,0.63-1.586,0.63c-0.242,0-0.501-0.024-0.768-0.063c0.162-0.518,0.282-1.096,0.359-1.719
		c0.499-0.375,0.94-0.77,1.308-1.168C36.329,24.119,36.624,24.979,36.299,25.541z M34.364,21.975
		c0.355,0.293,0.672,0.592,0.945,0.893c-0.273,0.3-0.59,0.6-0.945,0.892c0.021-0.291,0.034-0.587,0.034-0.892
		S34.384,22.268,34.364,21.975z M35.612,22.514c-0.367-0.397-0.809-0.793-1.308-1.17c-0.077-0.621-0.197-1.201-0.359-1.72
		c0.267-0.038,0.526-0.062,0.768-0.062c0.788,0,1.353,0.223,1.586,0.629C36.624,20.755,36.329,21.613,35.612,22.514z"/>
	<circle cx="31.666" cy="22.866" r="1.082"/>
	<circle cx="14.78" cy="22.011" r="0.579"/>
	<circle cx="18.856" cy="22.011" r="0.579"/>
	<path d="M16.818,25.816c0.653,0,1.21-0.254,1.443-0.611c-0.338,0.229-0.855,0.375-1.443,0.375c-0.589,0-1.105-0.146-1.446-0.375
		C15.608,25.562,16.164,25.816,16.818,25.816z"/>
	<path d="M17.269,30.249h0.219c0.027-0.065,0.042-0.14,0.046-0.214l-0.246,0.004C17.287,30.109,17.279,30.184,17.269,30.249z"/>
	<path d="M16.947,29.262c-0.022-0.005-0.046-0.005-0.071-0.005l0.002,0.312l0.212-0.006C17.058,29.458,17.008,29.355,16.947,29.262z
		"/>
	<path d="M17.229,29.562h0.18c-0.01-0.019-0.027-0.033-0.04-0.049c-0.014-0.02-0.027-0.037-0.045-0.057
		c-0.054-0.053-0.12-0.092-0.184-0.127c0.033,0.07,0.063,0.146,0.087,0.225C17.228,29.559,17.229,29.561,17.229,29.562z"/>
	<path d="M17.124,29.695h-0.243v0.214l0.273-0.005C17.149,29.832,17.141,29.766,17.124,29.695z"/>
	<path d="M17.26,29.693c0.016,0.07,0.021,0.139,0.025,0.211h0.246c-0.003-0.074-0.02-0.146-0.049-0.211H17.26z"/>
	<path d="M16.884,30.533l0.003,0.16c0.028-0.006,0.058-0.006,0.087-0.01c0.027-0.047,0.055-0.101,0.076-0.15
		c0.021-0.049,0.039-0.1,0.053-0.148l-0.221,0.002L16.884,30.533z"/>
	<path d="M17.192,30.533c-0.012,0.023-0.018,0.049-0.028,0.072c0.039-0.021,0.077-0.047,0.111-0.074
		c0.02-0.016,0.04-0.029,0.055-0.047c0.034-0.034,0.062-0.069,0.083-0.104l-0.172,0.005C17.228,30.434,17.212,30.482,17.192,30.533z
		"/>
	<path d="M16.883,30.251l0.25-0.002c0.011-0.065,0.021-0.14,0.024-0.212l-0.274,0.002V30.251z"/>
	<path d="M16.391,29.561c0.02-0.076,0.043-0.146,0.074-0.215c-0.081,0.045-0.151,0.104-0.208,0.176
		c-0.013,0.015-0.028,0.033-0.04,0.049h0.172C16.391,29.564,16.388,29.562,16.391,29.561z"/>
	<path d="M16.361,29.7l-0.217,0.001c-0.027,0.07-0.042,0.145-0.047,0.214l0.243-0.005C16.343,29.838,16.35,29.771,16.361,29.7z"/>
	<path d="M16.399,30.391h-0.179c0.023,0.036,0.054,0.067,0.087,0.102c0.019,0.02,0.035,0.031,0.056,0.045
		c0.039,0.035,0.081,0.062,0.128,0.085c-0.014-0.024-0.024-0.056-0.036-0.085C16.435,30.488,16.415,30.443,16.399,30.391z"/>
	<path d="M16.746,29.7h-0.249c-0.012,0.071-0.021,0.138-0.021,0.21l0.271-0.001L16.746,29.7z"/>
	<path d="M18.525,30.955l-0.014-1.984l-0.37,0.004l-2.669,0.021h-0.365l0.01,1.985l0.689-0.004l2.033-0.015L18.525,30.955z
		 M17.464,30.531c-0.014,0.014-0.021,0.033-0.039,0.045c-0.16,0.166-0.375,0.257-0.604,0.257c-0.229,0.001-0.443-0.086-0.606-0.247
		c-0.016-0.016-0.024-0.033-0.041-0.048c-0.137-0.153-0.216-0.347-0.216-0.556c-0.001-0.193,0.063-0.366,0.166-0.51
		c0.154-0.211,0.404-0.355,0.686-0.355c0.23-0.001,0.446,0.087,0.609,0.251c0.028,0.028,0.056,0.063,0.081,0.092
		c0.111,0.149,0.174,0.323,0.174,0.513C17.673,30.18,17.6,30.371,17.464,30.531z"/>
	<path d="M16.343,30.044l-0.245,0.003c0.01,0.068,0.021,0.145,0.049,0.207h0.223C16.357,30.188,16.348,30.115,16.343,30.044z"/>
	<path d="M16.751,30.391h-0.212c0.017,0.045,0.034,0.099,0.06,0.146c0.023,0.051,0.052,0.104,0.083,0.151
		c0.023,0.006,0.049,0.006,0.072,0.006l-0.001-0.159L16.751,30.391z"/>
	<path d="M16.748,30.042h-0.271c0.005,0.073,0.014,0.146,0.029,0.212l0.245-0.001L16.748,30.042z"/>
	<path d="M16.743,29.257c-0.028,0.005-0.058,0.005-0.086,0.015c-0.056,0.088-0.101,0.19-0.13,0.299l0.219-0.006L16.743,29.257z"/>
	<path d="M42.679,33.633V12.846H7.321v20.787h12.166v1.834h-1.153v1.688h1.153h11.026h1.152v-1.688h-1.152v-1.834H42.679z
		 M8.82,32.128h7.062l-0.063-0.938l-0.913,0.006l-0.016-2.414l0.431-0.004c-0.159-0.258-0.251-0.562-0.254-0.885
		c-0.003-0.424,0.15-0.807,0.398-1.109c-0.309-0.088-0.609-0.195-0.888-0.344c-0.001,0-0.002,0-0.004,0
		c-0.304-0.16-0.583-0.361-0.845-0.578c-0.046-0.039-0.092-0.077-0.139-0.116c-0.257-0.233-0.496-0.486-0.7-0.769
		c-0.279-0.389-0.506-0.813-0.662-1.274c-0.025,0.005-0.05,0.022-0.08,0.022c-0.477,0-0.863-0.519-0.863-1.156
		c0-0.467,0.21-0.852,0.506-1.026c0.091,0.369,0.199,0.594,0.223,0.589c-0.079-0.135,0.899-2.225,4.402-1.562
		c1.007,0.189,1.65-0.422,1.996-1.241c0.045,0.012,0.085,0.026,0.133,0.036c2.323,0.55,2.922,2.688,2.853,2.769
		c0.021,0.007,0.122-0.315,0.187-0.804c0.005,0.04,0.018,0.078,0.022,0.117c0.416,0.084,0.74,0.544,0.74,1.123
		c0,0.64-0.389,1.158-0.863,1.158c-0.028,0-0.052-0.02-0.082-0.023c-0.156,0.461-0.382,0.887-0.661,1.273
		c-0.204,0.282-0.442,0.534-0.7,0.767c-0.046,0.041-0.093,0.081-0.139,0.12c-0.262,0.216-0.54,0.418-0.842,0.574
		c-0.002,0.002-0.004,0.004-0.006,0.004c-0.286,0.151-0.597,0.264-0.915,0.353c0.238,0.294,0.388,0.662,0.39,1.069
		c0.005,0.33-0.086,0.634-0.242,0.897l0.436-0.005l0.015,2.413l-0.913,0.007l-0.053,0.953h7.238c0-2.154-0.854-4.087-2.218-5.541
		v-4.689c0-3.681-2.677-6.666-5.978-6.666s-5.979,2.985-5.979,6.666v4.689c-0.982,1.048-1.694,2.348-2.02,3.797V14.348h32.356
		v17.786H8.814v-0.006H8.82z"/>
</g>
</svg>
