<?xml version="1.0" encoding="utf-8"?>
<!-- Generator: Adobe Illustrator 16.0.4, SVG Export Plug-In . SVG Version: 6.00 Build 0)  -->
<!DOCTYPE svg PUBLIC "-//W3C//DTD SVG 1.1//EN" "http://www.w3.org/Graphics/SVG/1.1/DTD/svg11.dtd">
<svg version="1.1" id="Layer_1" xmlns="http://www.w3.org/2000/svg" xmlns:xlink="http://www.w3.org/1999/xlink" x="0px" y="0px"
	 width="50px" height="50px" viewBox="0 0 50 50" enable-background="new 0 0 50 50" xml:space="preserve">
<path d="M36.792,18.439c-1.287-2.75-3.925-3.972-5.793-4.184c-0.646-0.072-1.258-0.09-1.826-0.053
	c-3.621,0.235-5.109,2.61-5.756,5.042c-1.869-1.37-2.862-4.53-2.874-4.565c-0.118-0.389-0.53-0.604-0.922-0.491
	c-0.39,0.119-0.611,0.531-0.491,0.922c0.053,0.178,1.315,4.211,3.976,5.685c-0.132,0.903-0.185,1.75-0.224,2.423l-0.024,0.405
	c-0.264,4.152-4.826,4.988-7.276,5.435c-2.59,0.475-3.04,1.81-3.078,2.562c-0.075,1.504,1.321,2.852,2.659,3.235
	c2.738,0.788,5.372,1.106,7.828,0.946c5.004-0.327,9.31-2.698,11.816-6.503C38.222,24.117,37.771,20.533,36.792,18.439z
	 M33.571,28.486c-2.25,3.416-6.142,5.546-10.678,5.842c-2.285,0.149-4.75-0.149-7.324-0.893c-0.85-0.244-1.624-1.091-1.59-1.742
	c0.026-0.536,0.706-0.968,1.867-1.179c2.439-0.446,8.148-1.491,8.487-6.797l0.025-0.415c0.216-3.709,0.774-7.354,4.909-7.625
	c0.48-0.031,1.007-0.016,1.562,0.047c1.488,0.169,3.593,1.145,4.621,3.34C36.271,20.817,36.608,23.875,33.571,28.486z"/>
</svg>
