<?xml version="1.0" encoding="utf-8"?>
<!-- Generator: Adobe Illustrator 16.0.0, SVG Export Plug-In . SVG Version: 6.00 Build 0)  -->
<!DOCTYPE svg PUBLIC "-//W3C//DTD SVG 1.1//EN" "http://www.w3.org/Graphics/SVG/1.1/DTD/svg11.dtd">
<svg version="1.1" id="Layer_1" xmlns="http://www.w3.org/2000/svg" xmlns:xlink="http://www.w3.org/1999/xlink" x="0px" y="0px"
	 width="50px" height="50px" viewBox="0 0 50 50" enable-background="new 0 0 50 50" xml:space="preserve">
<g>
	<polygon points="22.529,20.094 22.529,20.094 22.532,20.094 	"/>
	<path d="M34.615,29.813c-0.289,0.359-0.604,0.689-0.944,0.986c-0.225,0.196-0.473,0.354-0.715,0.521
		c-0.115,0.078-0.22,0.173-0.338,0.245c-0.027,0.017-0.053,0.034-0.079,0.05c0.01-0.007,0.022-0.01,0.034-0.017
		c-0.019,0.011-0.038,0.021-0.057,0.03c0.008-0.004,0.015-0.01,0.023-0.014c-0.357,0.212-0.729,0.392-1.111,0.543l0,0
		c-0.002,0.002-0.005,0.004-0.008,0.004c0.003,0,0.005-0.002,0.008-0.004c-0.053,0.021-0.108,0.04-0.162,0.061
		c0.032-0.013,0.067-0.018,0.1-0.029c-0.052,0.02-0.106,0.031-0.159,0.051c0.02-0.008,0.039-0.014,0.059-0.021
		c-0.359,0.133-0.728,0.24-1.102,0.32c-1.804,0.382-3.748,0.135-5.473-0.861c-3.712-2.144-4.983-6.891-2.84-10.604
		c0.202-0.35,0.432-0.674,0.677-0.98c-0.014,0.004-0.029,0.002-0.043,0.006L18.33,12.9c0.498-0.644,0.708-1.285,0.401-1.818
		c-0.651-1.127-2.854-0.527-4.75,0.566c-1.896,1.096-3.518,2.704-2.867,3.831c0.308,0.534,0.969,0.671,1.775,0.562l4.156,7.199
		c-2.828,3.16-3.457,7.893-1.222,11.764c2.784,4.822,8.95,6.475,13.772,3.689C32.873,36.801,34.666,33.346,34.615,29.813
		c0.001-0.002,0.003-0.003,0.004-0.005C34.618,29.81,34.616,29.811,34.615,29.813L34.615,29.813z M15.236,13.824
		c-1.503,0.869-2.613,1.053-2.986,0.999c0.141-0.35,0.854-1.218,2.357-2.087c1.503-0.867,2.613-1.051,2.985-0.998
		C17.454,12.088,16.74,12.957,15.236,13.824z"/>
	<path d="M34.537,28.584c0.056,0.409,0.072,0.818,0.078,1.229c0.001-0.002,0.003-0.003,0.004-0.005l0,0
		c0.003-0.005,0.009-0.008,0.012-0.013c0-0.001,0-0.002,0-0.002l0,0C34.625,29.391,34.592,28.986,34.537,28.584z"/>
	<path d="M36.714,10.855c-1.46-0.843-3.156-1.305-3.658-0.438c-0.237,0.412-0.075,0.905,0.309,1.4l-3.2,5.543
		c-2.819-0.592-5.793,0.436-7.636,2.732c0.001,0,0.002,0,0.003,0l0,0c1.484-0.305,2.998-0.252,4.437,0.102
		c0.063,0.016,0.13,0.02,0.193,0.036c0.101,0.026,0.194,0.073,0.293,0.103c2.372,0.711,4.492,2.274,5.829,4.588
		c0.888,1.539,1.32,3.213,1.347,4.871c0.24-0.3,0.466-0.613,0.665-0.956c1.721-2.981,1.236-6.626-0.941-9.058l3.2-5.543
		c0.621,0.085,1.129-0.021,1.367-0.432C39.422,12.938,38.174,11.697,36.714,10.855z M27.162,20.231
		c0.1,0.026,0.193,0.073,0.292,0.103C27.355,20.305,27.262,20.258,27.162,20.231z M35.747,12.53
		c-1.158-0.668-1.708-1.337-1.815-1.606c0.287-0.041,1.141,0.102,2.298,0.77c1.158,0.668,1.708,1.337,1.815,1.605
		C37.758,13.34,36.904,13.199,35.747,12.53z"/>
</g>
</svg>
