<?xml version="1.0" encoding="utf-8"?>
<!-- Generator: Adobe Illustrator 16.0.0, SVG Export Plug-In . SVG Version: 6.00 Build 0)  -->
<!DOCTYPE svg PUBLIC "-//W3C//DTD SVG 1.1//EN" "http://www.w3.org/Graphics/SVG/1.1/DTD/svg11.dtd">
<svg version="1.1" id="Layer_1" xmlns="http://www.w3.org/2000/svg" xmlns:xlink="http://www.w3.org/1999/xlink" x="0px" y="0px"
	 width="48px" height="48px" viewBox="0 0 48 48" enable-background="new 0 0 48 48" xml:space="preserve">
<g>
	<path d="M6.668,26.298l10.182,6.565c0.33,0.212,0.698,0.313,1.063,0.313c0.645,0,1.277-0.317,1.653-0.899
		c0.588-0.912,0.326-2.128-0.586-2.715L8.797,22.997c-0.912-0.588-2.128-0.325-2.715,0.586C5.494,24.496,5.756,25.711,6.668,26.298z
		"/>
	<path d="M42.66,39.043h-6.038c1.945-2.815,3.085-6.248,3.085-9.935c0-7.535-4.762-13.975-11.434-16.477l2.834-4.394
		c0.674-1.046,0.906-2.317,0.644-3.534c-0.263-1.217-0.999-2.28-2.045-2.955c-2.18-1.406-5.086-0.778-6.491,1.401L10.915,22.225
		l7.893,5.09l5.592-8.672c4.816,1.05,8.434,5.34,8.434,10.466c0,4.494-2.78,8.383-6.71,9.935H5.34c-2.169,0-3.928,1.766-3.928,3.935
		s1.759,3.935,3.928,3.935H42.66c2.169,0,3.928-1.765,3.928-3.935S44.829,39.043,42.66,39.043z"/>
</g>
</svg>
