<?xml version="1.0" encoding="utf-8"?>
<!-- Generator: Adobe Illustrator 16.0.0, SVG Export Plug-In . SVG Version: 6.00 Build 0)  -->
<!DOCTYPE svg PUBLIC "-//W3C//DTD SVG 1.1//EN" "http://www.w3.org/Graphics/SVG/1.1/DTD/svg11.dtd">
<svg version="1.1" id="Layer_1" xmlns="http://www.w3.org/2000/svg" xmlns:xlink="http://www.w3.org/1999/xlink" x="0px" y="0px"
	 width="72px" height="72px" viewBox="0 0 72 72" enable-background="new 0 0 72 72" xml:space="preserve">
<g>
	<g>
		<path d="M60.669,68.5H11.218c-3.432,0-6.041-1.285-7.347-3.546c-1.293-2.239-1.075-5.103,0.613-8.028
			c0.03-0.053,0.385-0.113,0.42-0.163l20.919-29.246V5.42c0-1.104,0.252-1.92,1.356-1.92h18c1.104,0,2.644,0.815,2.644,1.92v22.747
			l19.802,28.571c0.035,0.049-0.095,0.1-0.063,0.151c1.689,2.928,1.827,5.815,0.531,8.06C66.787,67.213,64.098,68.5,60.669,68.5z
			 M7.907,58.979c-0.895,1.583-1.103,3.053-0.571,3.974c0.553,0.958,1.968,1.547,3.883,1.547h49.451c1.911,0,3.326-0.591,3.88-1.551
			c0.535-0.926,0.327-2.381-0.569-3.965L43.868,29.962c-0.238-0.337-0.044-0.749-0.044-1.161V7.5h-14v20.65
			c0,0.412-0.45,0.814-0.687,1.152L7.907,58.979z"/>
	</g>
	<g>
		<path d="M48.618,46.199c-2.749,0-6.265-0.916-11.116-3.815c-8.226-4.913-20.454,1.834-20.577,1.902
			c-0.485,0.272-1.092,0.099-1.361-0.383c-0.271-0.482-0.099-1.092,0.383-1.361c0.542-0.305,13.373-7.377,22.581-1.875
			c8.582,5.128,12.281,3.536,15.548,2.131l0.722-0.308c0.509-0.21,1.096,0.029,1.308,0.54c0.212,0.51-0.03,1.095-0.54,1.308
			l-0.699,0.297C53.149,45.373,51.229,46.199,48.618,46.199z"/>
	</g>
	<g>
		<path d="M22.026,61.91c-3.017,0-5.471-2.454-5.471-5.471s2.454-5.471,5.471-5.471s5.471,2.454,5.471,5.471
			S25.042,61.91,22.026,61.91z M22.026,52.969c-1.914,0-3.471,1.557-3.471,3.471s1.557,3.471,3.471,3.471s3.471-1.557,3.471-3.471
			S23.94,52.969,22.026,52.969z"/>
	</g>
	<g>
		<path d="M50.776,61.91c-2.603,0-4.721-2.118-4.721-4.721s2.118-4.721,4.721-4.721s4.721,2.118,4.721,4.721
			S53.379,61.91,50.776,61.91z M50.776,54.469c-1.5,0-2.721,1.221-2.721,2.721s1.221,2.721,2.721,2.721s2.721-1.221,2.721-2.721
			S52.276,54.469,50.776,54.469z"/>
	</g>
	<g>
		<path d="M35.077,53.511c-2.218,0-4.021-1.804-4.021-4.021c0-2.218,1.804-4.021,4.021-4.021c2.217,0,4.021,1.804,4.021,4.021
			C39.098,51.707,37.294,53.511,35.077,53.511z M35.077,47.469c-1.114,0-2.021,0.907-2.021,2.021s0.907,2.021,2.021,2.021
			s2.021-0.906,2.021-2.021S36.191,47.469,35.077,47.469z"/>
	</g>
	<g>
		<path d="M40.824,22.42c-0.553,0-1-0.447-1-1v-11c0-0.553,0.447-1,1-1s1,0.447,1,1v11C41.824,21.973,41.377,22.42,40.824,22.42z"/>
	</g>
	<g>
		<path d="M40.824,27.42c-0.553,0-1-0.447-1-1v-1c0-0.553,0.447-1,1-1s1,0.447,1,1v1C41.824,26.973,41.377,27.42,40.824,27.42z"/>
	</g>
</g>
</svg>
