<?xml version="1.0" encoding="utf-8"?>
<!-- Generator: Adobe Illustrator 18.1.0, SVG Export Plug-In . SVG Version: 6.00 Build 0)  -->
<svg version="1.1" id="Capa_1" xmlns="http://www.w3.org/2000/svg" xmlns:xlink="http://www.w3.org/1999/xlink" x="0px" y="0px"
	 width="1000px" height="1000px" viewBox="0 0 1000 1000" enable-background="new 0 0 1000 1000" xml:space="preserve">
<g>
	<path d="M955.1,669.8C936.7,576.1,896,487,843.8,407.5c-23.8-36.2-52.4-70-83.8-99.9c-24.4-23.2-59-56-95.2-55.3
		c-0.4,0-0.8,0-1.3,0c-58.6,2.5-78.3,71.4-87.7,118.6c-5.7,28.4-9.2,57.2-10.8,86.2c-17.1-19.4-25.8-47.1-25.8-82.6V254.4h-38.3
		h-38.3v120.1c0,35.6-8.7,63.3-25.8,82.6c-1.6-29-5.2-57.8-10.8-86.2c-9.4-47.2-29.1-116.1-87.7-118.6c-0.4,0-0.8,0-1.3,0
		c-36.3-0.8-70.9,32.1-95.2,55.3c-31.4,29.8-60,63.7-83.8,99.9C105.6,487,65,576.1,46.6,669.8c-12.9,65.8-41.2,229.4,62.5,235
		c60.2,3.2,114.1-48.1,164.2-74c40-20.7,81.3-43.3,109.4-79.6c32.1-41.5,40.2-96.5,47.3-147c2.6-18.6,4.6-37.4,6-56.2
		c10.6-4.6,22.5-11.1,34.4-20.2c10-7.7,20.7-17.7,30.5-30.7c9.8,13,20.4,23.1,30.5,30.7c11.9,9.1,23.8,15.6,34.4,20.2
		c1.3,18.8,3.3,37.6,6,56.2c7.1,50.5,15.3,105.5,47.3,147c28,36.3,69.4,59,109.4,79.6c50.1,25.9,104.1,77.2,164.2,74
		C996.3,899.2,968,735.6,955.1,669.8z"/>
	<path d="M539.2,213.4v-54c0-16.6-13.4-30-30-30h-8.3h-8.3c-16.6,0-30,13.4-30,30v54h38.3H539.2z"/>
</g>
</svg>
