<?xml version="1.0" encoding="utf-8"?>
<!-- Generator: Adobe Illustrator 17.0.1, SVG Export Plug-In . SVG Version: 6.00 Build 0)  -->
<!DOCTYPE svg PUBLIC "-//W3C//DTD SVG 1.1//EN" "http://www.w3.org/Graphics/SVG/1.1/DTD/svg11.dtd">
<svg version="1.1" id="Artwork" xmlns="http://www.w3.org/2000/svg" xmlns:xlink="http://www.w3.org/1999/xlink" x="0px" y="0px"
	 width="512px" height="512px" viewBox="0 0 512 512" enable-background="new 0 0 512 512" xml:space="preserve">
<g>
	<path d="M374.377,315.755c49.11-49.111,49.109-129.021,0-178.132c-49.111-49.111-129.021-49.111-178.131,0
		c-41.664,41.664-47.974,103.629-18.946,152.016c0,0,2.085,3.497-0.731,6.313c-16.064,16.065-64.262,64.263-64.262,64.263
		c-12.791,12.79-15.837,30.675-4.494,42.019l1.953,1.952c11.344,11.344,29.23,8.3,42.02-4.491c0,0,48.096-48.096,64.129-64.128
		c2.95-2.951,6.447-0.866,6.447-0.866C270.748,363.728,332.713,357.419,374.377,315.755z M219.502,292.5
		c-36.288-36.288-36.287-95.332,0-131.62c36.288-36.287,95.332-36.288,131.619,0c36.288,36.287,36.288,95.332,0,131.62
		C314.833,328.787,255.789,328.787,219.502,292.5z"/>
	<g>
		<path d="M285.698,183.22c-38.02,0-68.841,37.92-68.841,44.115c0,6.012,30.82,44.114,68.841,44.114
			c38.02,0,68.841-37.93,68.841-44.114C354.539,221.161,323.719,183.22,285.698,183.22z M285.698,258.731
			c-17.34,0-31.397-14.057-31.397-31.397s14.057-31.397,31.397-31.397c17.34,0,31.397,14.057,31.397,31.397
			S303.038,258.731,285.698,258.731z"/>
		<circle cx="285.698" cy="227.335" r="15.994"/>
	</g>
</g>
</svg>
