<?xml version="1.0" encoding="utf-8"?>
<!-- Generator: Adobe Illustrator 16.0.0, SVG Export Plug-In . SVG Version: 6.00 Build 0)  -->
<!DOCTYPE svg PUBLIC "-//W3C//DTD SVG 1.1//EN" "http://www.w3.org/Graphics/SVG/1.1/DTD/svg11.dtd">
<svg version="1.1" id="Layer_1" xmlns="http://www.w3.org/2000/svg" xmlns:xlink="http://www.w3.org/1999/xlink" x="0px" y="0px"
	 width="48px" height="48px" viewBox="0 0 48 48" enable-background="new 0 0 48 48" xml:space="preserve">
<g>
	<path d="M47.044,39.503c-0.173-1.493-0.963-2.845-2.179-3.729L34.616,28.32c1.435-2.849,2.095-6.033,1.851-9.296
		c-0.354-4.738-2.533-9.055-6.134-12.154c-3.226-2.777-7.345-4.307-11.597-4.307c-5.189,0-10.105,2.254-13.488,6.184
		c-3.1,3.602-4.612,8.194-4.257,12.932c0.355,4.738,2.534,9.054,6.135,12.153c3.227,2.777,7.345,4.307,11.597,4.307
		c3.176,0,6.245-0.853,8.927-2.409l9.897,8.519c2.443,2.102,6.127,1.827,8.231-0.618C46.758,42.493,47.217,40.996,47.044,39.503z
		 M9.735,30.801c-2.792-2.402-4.48-5.748-4.755-9.42s0.897-7.232,3.299-10.024c2.622-3.046,6.434-4.793,10.457-4.793
		c3.295,0,6.486,1.186,8.987,3.338c2.791,2.403,4.479,5.748,4.754,9.421c0.275,3.672-0.896,7.232-3.299,10.023
		c-2.622,3.047-6.433,4.794-10.456,4.794C15.428,34.14,12.236,32.954,9.735,30.801z"/>
	<circle cx="16.988" cy="16.488" r="3.863"/>
	<circle cx="9.262" cy="19.363" r="2.465"/>
	<circle cx="15.59" cy="25.627" r="3.762"/>
</g>
</svg>
