<?xml version="1.0" encoding="utf-8"?>
<!-- Generator: Adobe Illustrator 16.0.4, SVG Export Plug-In . SVG Version: 6.00 Build 0)  -->
<!DOCTYPE svg PUBLIC "-//W3C//DTD SVG 1.1//EN" "http://www.w3.org/Graphics/SVG/1.1/DTD/svg11.dtd">
<svg version="1.1" id="Layer_1" xmlns="http://www.w3.org/2000/svg" xmlns:xlink="http://www.w3.org/1999/xlink" x="0px" y="0px"
	 width="50px" height="50px" viewBox="0 0 50 50" enable-background="new 0 0 50 50" xml:space="preserve">
<g>
	<path d="M21.593,20.856c1.094-0.771,2.777-0.395,3.297-0.252c-0.039,0.539-0.25,2.25-1.344,3.021
		c-0.1,0.07-0.123,0.208-0.053,0.307c0.07,0.1,0.207,0.123,0.307,0.053c1.215-0.856,1.467-2.601,1.521-3.262
		c0.643,0.172,2.366,0.52,3.582-0.338c0.1-0.07,0.123-0.207,0.053-0.307s-0.205-0.123-0.305-0.053
		c-1.093,0.771-2.775,0.394-3.298,0.25c0.039-0.536,0.253-2.248,1.345-3.02c0.1-0.07,0.123-0.208,0.053-0.308
		c-0.068-0.101-0.205-0.123-0.307-0.054c-1.213,0.856-1.466,2.6-1.521,3.264c-0.641-0.172-2.365-0.52-3.582,0.337
		c-0.1,0.069-0.123,0.207-0.053,0.307C21.358,20.901,21.495,20.927,21.593,20.856z"/>
	<path d="M26.792,17.899l1.281,1.82c0.069,0.1,0.207,0.122,0.307,0.053c0.101-0.069,0.123-0.207,0.053-0.307l-1.28-1.818
		c-0.07-0.101-0.207-0.123-0.308-0.055C26.745,17.664,26.722,17.802,26.792,17.899z"/>
	<path d="M27.458,20.087c0.1-0.068,0.123-0.206,0.053-0.307l-0.965-1.369c-0.07-0.1-0.207-0.123-0.307-0.053
		c-0.101,0.069-0.125,0.207-0.053,0.306l0.965,1.37C27.222,20.134,27.358,20.157,27.458,20.087z"/>
	<path d="M25.866,19.261c-0.101,0.07-0.123,0.208-0.055,0.307l0.364,0.517c0.068,0.101,0.207,0.124,0.308,0.056
		c0.1-0.072,0.123-0.209,0.053-0.31l-0.365-0.517C26.103,19.214,25.964,19.19,25.866,19.261z"/>
	<path d="M22.116,21.199c-0.068-0.101-0.205-0.122-0.308-0.054c-0.098,0.07-0.122,0.207-0.053,0.307l1.281,1.818
		c0.07,0.102,0.209,0.123,0.309,0.055c0.101-0.071,0.123-0.208,0.054-0.309L22.116,21.199z"/>
	<path d="M22.733,20.832c-0.101,0.069-0.123,0.207-0.056,0.308l0.968,1.368c0.069,0.101,0.207,0.123,0.307,0.054
		s0.123-0.207,0.053-0.307l-0.967-1.37C22.968,20.785,22.831,20.762,22.733,20.832z"/>
	<path d="M24.325,21.658c0.1-0.069,0.123-0.207,0.053-0.306l-0.363-0.519c-0.069-0.099-0.207-0.122-0.307-0.052
		s-0.123,0.207-0.053,0.307l0.362,0.516C24.089,21.705,24.226,21.729,24.325,21.658z"/>
	<path d="M32.915,15.155h-3.619c-0.395-1.161-1.377-1.188-1.377-1.188c-1.354-0.202-1.543-0.64-1.543-0.64
		c-0.287-0.413-0.123-1.205-0.123-1.205c0.238-0.194,0.33-0.708,0.33-0.708c0.395-0.304,0.375-0.747,0.195-0.742
		c-0.148,0.004-0.115-0.118-0.115-0.118c0.246-1.996-1.527-2.099-1.527-2.099h-0.271c0,0-1.775,0.103-1.527,2.099
		c0,0,0.033,0.122-0.115,0.118c-0.182-0.005-0.198,0.438,0.195,0.742c0,0,0.092,0.514,0.33,0.708c0,0,0.164,0.792-0.123,1.205
		c0,0-0.188,0.438-1.545,0.64c0,0-0.98,0.026-1.375,1.188h-3.621c-0.277,0-0.5,0.224-0.5,0.5v9.334c0,0.275,0.223,0.5,0.5,0.5h1.295
		c-0.27,0.437-0.467,0.883-0.24,0.955c0,0,0.271,0.026,0.627-0.682c0,0-0.008,0.272-0.295,1.062
		c-0.055,0.148-0.293,0.898,0.095,0.628c0,0,0.178-0.123,0.411-0.894c0,0-0.125,1.297,0.013,1.364
		c0.182,0.088,0.281-0.168,0.362-1.306c0,0,0.085-0.366,0.123,1.035c0.002,0.072,0.109,0.432,0.259,0.125
		c0.123-0.258,0.067-0.941,0.067-1.17c0,0,0.16,0.886,0.31,0.886c0,0,0.176,0.206,0.104-0.894c-0.012-0.18,0.049-0.549,0.058-0.656
		l0.018-0.422l-0.004-0.035h1.271c-0.028,0.31-0.041,0.617-0.006,0.906c0.14,1.137,0.406,3.567,0.679,4.525
		c0.141,0.496,0.057,1.748,0.172,2.061c0.051,0.135,0.024,0.26-0.086,0.568c-0.384,1.076-0.334,1.834,0.629,4.689
		c0,0,0.295,0.633,0.146,1.771c0,0-0.615,1.265-0.221,1.29c0,0,0.033,0.084,0.164,0.018c0,0,0.213,0.219,0.442,0.101
		c0,0,0.214,0.169,0.396,0.019c0,0,0.147,0.168,0.361,0.032c0,0,0.278,0.187,0.442-0.017c0,0,0.295,0.066-0.229-1.264
		c0,0-0.201-1.41-0.312-1.687c-0.211-0.527-0.062-1.965-0.018-2.274c0.074-0.515,0.035-1.395-0.099-2.074
		c-0.096-0.487,0.166-1.407,0.263-1.973c0.2-1.191,0.592-4.23,0.543-4.804l0.162,0.056c0.116,0,0.19-0.056,0.19-0.056
		c-0.049,0.573,0.34,3.612,0.541,4.804c0.096,0.564,0.359,1.484,0.264,1.973c-0.135,0.681-0.174,1.561-0.1,2.074
		c0.047,0.311,0.195,1.747-0.016,2.274c-0.111,0.274-0.312,1.687-0.312,1.687c-0.524,1.33-0.229,1.264-0.229,1.264
		c0.166,0.201,0.444,0.017,0.444,0.017c0.213,0.136,0.359-0.032,0.359-0.032c0.182,0.15,0.395-0.019,0.395-0.019
		c0.23,0.118,0.443-0.101,0.443-0.101c0.133,0.066,0.164-0.018,0.164-0.018c0.395-0.025-0.221-1.29-0.221-1.29
		c-0.148-1.138,0.147-1.771,0.147-1.771c0.963-2.855,1.013-3.613,0.627-4.689c-0.108-0.311-0.135-0.434-0.086-0.568
		c0.115-0.312,0.031-1.563,0.172-2.061c0.271-0.958,0.539-3.391,0.679-4.525c0.034-0.289,0.022-0.598-0.004-0.906h1.27l-0.002,0.035
		l0.016,0.422c0.009,0.107,0.07,0.478,0.06,0.656c-0.072,1.1,0.104,0.894,0.104,0.894c0.148,0,0.31-0.886,0.31-0.886
		c0,0.229-0.056,0.912,0.069,1.17c0.146,0.307,0.254-0.053,0.256-0.125c0.039-1.401,0.123-1.035,0.123-1.035
		c0.082,1.138,0.183,1.394,0.363,1.306c0.139-0.067,0.014-1.364,0.014-1.364c0.234,0.771,0.412,0.894,0.412,0.894
		c0.386,0.271,0.146-0.479,0.093-0.628c-0.287-0.789-0.293-1.062-0.293-1.062c0.356,0.708,0.627,0.682,0.627,0.682
		c0.225-0.072,0.026-0.52-0.242-0.955h1.295c0.277,0,0.5-0.225,0.5-0.5v-9.334C33.415,15.379,33.192,15.155,32.915,15.155z
		 M32.415,24.489H17.583v-8.334h14.832V24.489z"/>
</g>
</svg>
