<?xml version="1.0" encoding="iso-8859-1"?>
<!-- Generator: Adobe Illustrator 16.0.0, SVG Export Plug-In . SVG Version: 6.00 Build 0)  -->
<!DOCTYPE svg PUBLIC "-//W3C//DTD SVG 1.1//EN" "http://www.w3.org/Graphics/SVG/1.1/DTD/svg11.dtd">
<svg version="1.1" id="Layer_1" xmlns="http://www.w3.org/2000/svg" xmlns:xlink="http://www.w3.org/1999/xlink" x="0px" y="0px"
	 width="39.237px" height="44.778px" viewBox="0 0 39.237 44.778" style="enable-background:new 0 0 39.237 44.778;"
	 xml:space="preserve">
<path d="M39.076,14.025C38.314,10.28,38.8,2.441,25.836,0.373C12.874-1.696,1.194,4.881,4.132,19.256
	c0,2.62-5.188,6.688-3.938,8.063s3.371,1.428,3.371,1.428s-1.379,2.62-0.759,3.344s2.344,0.414,2.344,0.414s-1.602,1.154-1.602,2.05
	s2.705,2.087,2.705,2.087S5.757,41.6,9.819,41.256s4.746-1.491,4.746-1.491l1.205,5.013h15.721l-0.552-10.895
	C30.939,33.884,40.593,23.403,39.076,14.025z M32.959,19.924l-4.384,0.98l-1.945-1.75l0.689-1.75h5.64V19.924z M32.756,4.787
	l3.241,3.436l-3.241,2.723h-1.815v-1.75l1.037-1.329l-0.129-2.219L32.756,4.787z M30.941,3.231L30.748,8.05l-1.685,2.528
	l-1.104-0.411l0.146-2.905l-2.836-0.887L27.7,2.708L30.941,3.231z M19.978,6.553l0.049-4.005l4.181,0.035l1.969,0.875l-1.264,1.994
	l-1.037,1.474L26.987,7.9v2.008l-0.648,1.814l-4.02,0.26V11.27l-0.755-0.324l-0.736,2.273l-1.969,0.774l-2.666-1.913l1.134-2.009
	l1.621,0.55l0.275-0.972L18.365,9l0.592-1.135L22.319,9l1.005-0.454L19.978,6.553z M12.466,8.028c0.194,0,3.955,0,3.955,0
	l-3.112-1.361l0.94-1.621l4.61-1.791v2.796l-3.152,0.042l2.139,1.287l-2.01,3.889h-3.76C12.077,11.27,12.271,8.028,12.466,8.028z
	 M12.162,12.08h2.755l3.565,2.45l-2.269,0.907L12.162,12.08z M17.328,17.817v-2.204l1.297-0.713l3.241,1.361l2.009,0.648
	l0.259-1.005L21.542,14.9l0.194-1.75l3.89,0.129l3.436-2.009l3.436,1.037l3.63-2.658l1.945,3.306l-4.667,0.324l-0.778,2.009
	l2.139,0.259l-1.491-0.713l0.324-1.037l4.17-0.138l-0.329,3.625l-3.85,0.022l-1.742-1.499l-2.464,0.94l-1.92-0.073l1.662-1.58
	l-3.728-0.17l1.329,1.661l-1.167,2.593h-6.223L17.328,17.817z M27.184,24.008l-3.51-3.663c0.454,0,2.463-0.584,2.463-0.584
	l2.991,3.339L27.184,24.008z"/>
<g>
</g>
<g>
</g>
<g>
</g>
<g>
</g>
<g>
</g>
<g>
</g>
<g>
</g>
<g>
</g>
<g>
</g>
<g>
</g>
<g>
</g>
<g>
</g>
<g>
</g>
<g>
</g>
<g>
</g>
</svg>
