<?xml version="1.0" encoding="iso-8859-1"?>
<!-- Generator: Adobe Illustrator 16.0.0, SVG Export Plug-In . SVG Version: 6.00 Build 0)  -->
<!DOCTYPE svg PUBLIC "-//W3C//DTD SVG 1.1//EN" "http://www.w3.org/Graphics/SVG/1.1/DTD/svg11.dtd">
<svg version="1.1" id="Layer_1" xmlns="http://www.w3.org/2000/svg" xmlns:xlink="http://www.w3.org/1999/xlink" x="0px" y="0px"
	 width="38.598px" height="44.054px" viewBox="0 0 38.598 44.054" style="enable-background:new 0 0 38.598 44.054;"
	 xml:space="preserve">
<g>
	<path d="M20.121,29.359c-0.826-0.007-1.742-0.025-2.723-0.053c0.054,1.022,0.11,2.038,0.167,3.032
		c0.91,0.027,1.767,0.048,2.556,0.059V29.359z"/>
	<path d="M16.411,29.276c-0.948-0.031-1.942-0.068-2.963-0.111c0.064,1.019,0.133,2.033,0.204,3.027
		c1.005,0.044,1.986,0.083,2.926,0.114C16.52,31.314,16.464,30.299,16.411,29.276z"/>
	<path d="M12.399,28.134c-0.053-0.875-0.102-1.747-0.146-2.608c-1.062-0.031-2.145-0.063-3.229-0.1
		c0.059,0.843,0.123,1.697,0.193,2.555C10.282,28.035,11.351,28.087,12.399,28.134z"/>
	<path d="M12.663,32.148c-0.07-0.994-0.139-2.008-0.203-3.026c-1.042-0.048-2.102-0.099-3.161-0.153
		c0.086,1.019,0.179,2.032,0.273,3.029C10.606,32.051,11.642,32.102,12.663,32.148z"/>
	<path d="M29.126,25.506c-0.035,0.859-0.077,1.742-0.123,2.64c1.063-0.048,2.147-0.101,3.231-0.156
		c0.061-0.879,0.115-1.745,0.16-2.587C31.302,25.438,30.206,25.473,29.126,25.506z"/>
	<path d="M25.181,17.309c0.027,1.07,0.043,2.105,0.043,3.076c0,0.006,0,0.014,0,0.021h3.035c-0.001-0.954-0.021-1.966-0.055-3.013
		C27.178,17.362,26.164,17.334,25.181,17.309z"/>
	<path d="M27.962,29.175c-1.033,0.043-2.036,0.08-2.99,0.11c-0.046,1.02-0.098,2.047-0.152,3.067
		c0.934-0.027,1.927-0.062,2.956-0.103C27.842,31.226,27.905,30.196,27.962,29.175z"/>
	<path d="M21.104,16.242c0.952,0.013,1.981,0.032,3.063,0.058c-0.028-0.88-0.063-1.778-0.104-2.684
		c-1.051-0.036-2.046-0.063-2.96-0.08V16.242z"/>
	<path d="M25.153,16.323c0.98,0.025,1.992,0.054,3.017,0.085c-0.034-0.863-0.077-1.743-0.126-2.631
		c-1.021-0.047-2.025-0.09-2.993-0.126C25.091,14.554,25.125,15.447,25.153,16.323z"/>
	<path d="M29.032,13.823c0.048,0.882,0.09,1.758,0.124,2.616c1.09,0.034,2.187,0.07,3.266,0.108
		c-0.044-0.84-0.099-1.696-0.163-2.561C31.188,13.93,30.105,13.875,29.032,13.823z"/>
	<path d="M12.203,24.539c-0.052-1.084-0.095-2.14-0.127-3.149H8.794c0.042,0.978,0.097,2,0.165,3.05
		C10.047,24.475,11.135,24.509,12.203,24.539z"/>
	<path d="M13.013,16.312c1.063-0.026,2.082-0.048,3.032-0.062c0.012-0.865,0.035-1.764,0.064-2.683
		c-0.951,0.026-1.963,0.06-3.016,0.102C13.057,14.574,13.029,15.459,13.013,16.312z"/>
	<path d="M17.095,13.545c-0.03,0.922-0.053,1.823-0.066,2.69c0.643-0.007,1.249-0.012,1.8-0.012c0.402,0,0.838,0.003,1.292,0.007
		v-2.709c-0.283-0.002-0.558-0.004-0.819-0.004C18.636,13.518,17.891,13.527,17.095,13.545z"/>
	<path d="M23.833,32.377c0.055-1.019,0.106-2.045,0.153-3.063c-1.052,0.028-2.022,0.046-2.882,0.048v3.046
		c0.099,0,0.204,0.001,0.3,0.001C22.132,32.408,22.95,32.397,23.833,32.377z"/>
	<path d="M13.572,5.859c-0.071,0.92-0.141,1.86-0.204,2.808c1.029-0.041,2.023-0.075,2.961-0.103
		c0.052-0.958,0.108-1.91,0.166-2.842C15.571,5.758,14.589,5.804,13.572,5.859z"/>
	<path d="M13.137,12.683c1.05-0.041,2.06-0.075,3.007-0.1c0.037-0.999,0.083-2.016,0.134-3.032c-0.942,0.027-1.94,0.063-2.974,0.104
		C13.24,10.669,13.184,11.684,13.137,12.683z"/>
	<path d="M9.207,8.855c1.069-0.053,2.134-0.103,3.172-0.146c0.063-0.943,0.131-1.878,0.202-2.795
		c-1.017,0.06-2.06,0.126-3.108,0.197C9.38,7.012,9.291,7.931,9.207,8.855z"/>
	<path d="M17.264,9.524c-0.051,1.018-0.097,2.034-0.135,3.035c0.783-0.016,1.516-0.025,2.172-0.025c0.261,0,0.536,0.002,0.819,0.004
		V9.49c-0.08,0-0.165-0.001-0.242-0.001C19.101,9.489,18.218,9.501,17.264,9.524z"/>
	<path d="M5.838,6.828C5.765,7.561,5.696,8.301,5.631,9.044C6.483,8.997,7.347,8.95,8.215,8.905c0.082-0.918,0.17-1.83,0.262-2.726
		c-0.775,0.055-1.55,0.11-2.316,0.168C6.049,6.504,5.944,6.667,5.838,6.828z"/>
	<path d="M7.021,5.298c0.519-0.038,1.04-0.075,1.562-0.11c0.054-0.509,0.11-1.01,0.166-1.499C8.123,4.176,7.547,4.714,7.021,5.298z"
		/>
	<path d="M21.104,12.552c0.9,0.017,1.88,0.044,2.914,0.078c-0.05-1.027-0.106-2.056-0.166-3.068
		c-0.982-0.03-1.906-0.052-2.748-0.063V12.552z"/>
	<path d="M32.899,9.963c0.1,1.021,0.192,2.056,0.274,3.089c0.879,0.048,1.742,0.097,2.583,0.146c-0.08-1.032-0.17-2.068-0.269-3.093
		C34.641,10.058,33.775,10.009,32.899,9.963z"/>
	<path d="M33.249,14.042c0.063,0.857,0.116,1.707,0.16,2.541c0.878,0.032,1.739,0.063,2.571,0.095
		c-0.041-0.815-0.091-1.648-0.151-2.49C34.991,14.139,34.127,14.09,33.249,14.042z"/>
	<path d="M36.072,21.39h-2.551c-0.012,0.934-0.043,1.938-0.09,2.993c0.861-0.03,1.714-0.061,2.547-0.092
		C36.025,23.272,36.058,22.299,36.072,21.39z"/>
	<path d="M25.005,12.666c0.965,0.035,1.964,0.077,2.982,0.123c-0.063-1.03-0.132-2.062-0.207-3.078
		c-1.01-0.044-1.996-0.084-2.94-0.116C24.899,10.608,24.955,11.638,25.005,12.666z"/>
	<path d="M29.239,21.39c-0.01,0.974-0.037,2.028-0.076,3.13c1.084-0.031,2.185-0.066,3.281-0.104
		c0.049-1.067,0.082-2.084,0.093-3.026H29.239z"/>
	<path d="M28.975,12.836c1.066,0.051,2.142,0.105,3.207,0.162c-0.083-1.033-0.176-2.068-0.276-3.088
		c-1.048-0.055-2.099-0.107-3.136-0.155C28.844,10.772,28.914,11.805,28.975,12.836z"/>
	<path d="M12.316,9.695c-1.047,0.045-2.119,0.097-3.195,0.15c-0.085,1.015-0.16,2.028-0.223,3.025
		c1.099-0.054,2.189-0.104,3.251-0.147C12.196,11.725,12.252,10.71,12.316,9.695z"/>
	<path d="M28.765,32.21c0.896-0.038,1.812-0.081,2.734-0.126c0.145-0.179,0.298-0.373,0.464-0.586
		c0.071-0.842,0.139-1.684,0.201-2.52c-1.079,0.055-2.156,0.106-3.213,0.153C28.893,30.153,28.831,31.184,28.765,32.21z"/>
	<path d="M37.918,20.405c0.247-0.87,0.435-1.755,0.551-2.646c-0.47-0.019-0.958-0.038-1.459-0.058
		c0.036,0.936,0.056,1.839,0.056,2.693c0,0.004,0,0.007,0,0.011H37.918z"/>
	<path d="M33.153,28.928c-0.026,0.358-0.053,0.717-0.082,1.077c0.248-0.35,0.503-0.721,0.764-1.113
		C33.608,28.903,33.381,28.916,33.153,28.928z"/>
	<path d="M28.7,33.196c-0.063,0.948-0.129,1.885-0.196,2.797c0.678-0.039,1.368-0.081,2.064-0.126l-0.128-2.533
		c0,0,0.073-0.08,0.199-0.224C29.986,33.141,29.337,33.17,28.7,33.196z"/>
	<path d="M12.013,17.924c0-0.198,0.002-0.401,0.003-0.603c-1.074,0.027-2.18,0.061-3.297,0.095
		c-0.002,0.213-0.005,0.424-0.005,0.631c0,0.734,0.016,1.528,0.043,2.358h3.29C12.025,19.53,12.013,18.695,12.013,17.924z"/>
	<path d="M25.219,21.39c-0.01,1.008-0.033,2.097-0.067,3.235c0.971-0.021,1.985-0.047,3.026-0.076
		c0.04-1.113,0.067-2.178,0.078-3.159H25.219z"/>
	<path d="M33.525,20.405h2.556c0-0.004,0-0.007,0-0.011c0-0.865-0.021-1.782-0.058-2.73c-0.831-0.031-1.69-0.063-2.569-0.095
		C33.497,18.553,33.521,19.504,33.525,20.405z"/>
	<path d="M1.53,24.17c-0.012-0.191-0.024-0.384-0.036-0.573c-0.141,0.189-0.276,0.374-0.407,0.556
		C1.235,24.158,1.379,24.164,1.53,24.17z"/>
	<path d="M34.994,5.468c-0.04-0.341-0.08-0.676-0.119-1.004c-0.542-0.538-1.181-1.051-1.931-1.526
		c-0.28-0.021-0.56-0.04-0.842-0.061c0.095,0.752,0.194,1.556,0.292,2.396C33.271,5.337,34.141,5.402,34.994,5.468z"/>
	<path d="M4.28,21.39H3.085c-0.209,0.324-0.436,0.651-0.675,0.977c0.032,0.603,0.068,1.218,0.108,1.843
		c0.622,0.022,1.265,0.048,1.92,0.071C4.375,23.289,4.321,22.319,4.28,21.39z"/>
	<path d="M4.345,13.112c0.058-0.993,0.129-2.006,0.211-3.022c-0.088,0.004-0.176,0.009-0.264,0.015
		c-0.297,0.949-0.501,1.964-0.601,3.044C3.908,13.137,4.125,13.124,4.345,13.112z"/>
	<path d="M3.12,31.635c0.622,0.037,1.265,0.074,1.924,0.113c-0.094-0.996-0.185-2.009-0.271-3.026
		c-0.49-0.027-0.971-0.056-1.442-0.084c-0.113,0.24-0.263,0.576-0.397,0.942C2.993,30.271,3.056,30.956,3.12,31.635z"/>
	<path d="M4.292,14.101c-0.223,0.013-0.445,0.025-0.665,0.038c-0.026,0.789,0.002,1.61,0.085,2.464
		c0.164-0.006,0.328-0.012,0.493-0.019C4.221,15.783,4.25,14.953,4.292,14.101z"/>
	<path d="M5.333,13.057c0.851-0.046,1.713-0.092,2.577-0.136c0.062-0.997,0.136-2.011,0.22-3.025
		c-0.868,0.044-1.732,0.091-2.583,0.138C5.464,11.051,5.392,12.063,5.333,13.057z"/>
	<path d="M16.36,28.29c-0.044-0.893-0.086-1.785-0.125-2.667c-0.955-0.02-1.961-0.043-2.997-0.071
		c0.045,0.868,0.095,1.745,0.148,2.625C14.412,28.222,15.409,28.259,16.36,28.29z"/>
	<path d="M20.121,25.672c-0.864-0.001-1.84-0.013-2.899-0.029c0.039,0.885,0.081,1.782,0.126,2.679c1,0.027,1.934,0.047,2.773,0.054
		V25.672z"/>
	<path d="M16.195,24.638c-0.044-1.116-0.082-2.206-0.109-3.248H13.06c0.032,1.019,0.076,2.084,0.128,3.178
		C14.228,24.595,15.237,24.619,16.195,24.638z"/>
	<path d="M28.14,25.533c-1.039,0.029-2.051,0.056-3.02,0.076c-0.03,0.879-0.064,1.777-0.104,2.689
		c0.956-0.029,1.962-0.068,2.999-0.111C28.063,27.285,28.105,26.398,28.14,25.533z"/>
	<path d="M24.136,25.63c-1.095,0.021-2.12,0.035-3.031,0.041v2.707c0.873-0.004,1.857-0.021,2.926-0.049
		C24.071,27.412,24.105,26.51,24.136,25.63z"/>
	<path d="M17.019,17.22c-0.001,0.194-0.002,0.391-0.002,0.581c0,0.808,0.011,1.684,0.03,2.604h3.074v-3.19
		c-0.453-0.004-0.889-0.007-1.292-0.007C18.275,17.208,17.666,17.213,17.019,17.22z"/>
	<path d="M32.469,17.533c-1.084-0.037-2.184-0.075-3.279-0.109c0.033,1.035,0.052,2.037,0.054,2.981h3.297
		C32.538,19.493,32.512,18.531,32.469,17.533z"/>
	<path d="M7.751,16.463c0.02-0.824,0.055-1.68,0.102-2.554c-0.864,0.044-1.725,0.089-2.574,0.136
		c-0.043,0.86-0.073,1.697-0.089,2.505C6.037,16.52,6.895,16.491,7.751,16.463z"/>
	<path d="M12.107,13.709c-1.067,0.045-2.164,0.096-3.267,0.15c-0.048,0.881-0.084,1.742-0.104,2.572
		c1.115-0.035,2.22-0.067,3.292-0.096C12.044,15.488,12.071,14.608,12.107,13.709z"/>
	<path d="M16.032,17.801c0-0.186,0.001-0.377,0.002-0.567c-0.951,0.015-1.97,0.037-3.034,0.063
		c-0.001,0.211-0.003,0.422-0.003,0.628c0,0.771,0.013,1.605,0.035,2.481h3.031C16.043,19.485,16.032,18.608,16.032,17.801z"/>
	<path d="M17.181,24.657c1.075,0.019,2.065,0.029,2.94,0.031V21.39H17.07C17.098,22.438,17.136,23.534,17.181,24.657z"/>
	<path d="M21.104,20.405h3.136c0-0.007,0-0.015,0-0.021c0-0.979-0.017-2.021-0.044-3.101c-1.092-0.025-2.131-0.046-3.092-0.059
		V20.405z"/>
	<path d="M24.235,21.39h-3.131v3.298c0.92-0.006,1.956-0.021,3.063-0.043C24.202,23.498,24.225,22.403,24.235,21.39z"/>
	<path d="M13.943,1.493c0.994-0.052,1.95-0.095,2.849-0.128c0.026-0.356,0.052-0.706,0.078-1.045C15.874,0.484,14.911,0.71,13.989,1
		C13.974,1.163,13.958,1.327,13.943,1.493z"/>
	<path d="M17.483,5.688c-0.059,0.936-0.115,1.891-0.167,2.852c0.934-0.021,1.798-0.034,2.563-0.034c0.077,0,0.162,0.001,0.242,0.001
		V5.648c-0.08-0.001-0.165-0.002-0.242-0.002C19.16,5.646,18.354,5.661,17.483,5.688z"/>
	<path d="M21.404,42.353c0.555,0,1.167-0.009,1.816-0.025c0.038-0.549,0.078-1.138,0.12-1.761c-0.693,0.019-1.346,0.029-1.936,0.029
		c-0.096,0-0.201-0.001-0.299-0.002v1.757C21.203,42.352,21.308,42.353,21.404,42.353z"/>
	<path d="M30.788,40.2c-0.887,0.057-1.764,0.11-2.62,0.158c-0.05,0.619-0.099,1.21-0.146,1.764c0.931-0.051,1.886-0.108,2.854-0.172
		L30.788,40.2z"/>
	<path d="M31.396,5.201c-0.1-0.843-0.199-1.645-0.294-2.396c-0.984-0.068-1.969-0.134-2.936-0.192
		c0.071,0.747,0.145,1.548,0.219,2.39C29.377,5.064,30.387,5.131,31.396,5.201z"/>
	<path d="M28.069,1.622c0.873,0.053,1.759,0.11,2.648,0.171c-0.81-0.336-1.714-0.637-2.72-0.897
		C28.021,1.129,28.045,1.372,28.069,1.622z"/>
	<path d="M23.404,39.581c0.049-0.759,0.1-1.556,0.151-2.381c-0.775,0.021-1.501,0.034-2.152,0.034c-0.096,0-0.201-0.001-0.299-0.002
		v2.377c0.099,0.001,0.203,0.002,0.299,0.002C22.011,39.611,22.687,39.6,23.404,39.581z"/>
	<path d="M9.826,2.922C9.742,3.631,9.66,4.366,9.578,5.119c1.041-0.07,2.075-0.136,3.082-0.193c0.066-0.821,0.134-1.62,0.202-2.388
		c-0.877,0.05-1.774,0.104-2.68,0.164C10.063,2.775,9.942,2.848,9.826,2.922z"/>
	<path d="M24.525,4.791c0.92,0.042,1.88,0.094,2.867,0.151c-0.075-0.843-0.149-1.644-0.221-2.39
		c-0.973-0.057-1.918-0.105-2.822-0.146C24.406,3.154,24.466,3.952,24.525,4.791z"/>
	<path d="M20.121,37.22c-0.703-0.014-1.458-0.035-2.258-0.067c0.056,0.853,0.109,1.651,0.16,2.383
		c0.742,0.029,1.441,0.05,2.098,0.063V37.22z"/>
	<path d="M19.878,2.285c-0.655,0-1.387,0.014-2.169,0.035c-0.055,0.767-0.109,1.562-0.163,2.382c0.844-0.025,1.63-0.04,2.332-0.04
		c0.078,0,0.162,0.001,0.242,0.002V2.287C20.041,2.286,19.956,2.285,19.878,2.285z"/>
	<path d="M13.651,4.87c1.012-0.054,1.988-0.101,2.907-0.135c0.053-0.819,0.108-1.616,0.162-2.383
		c-0.905,0.033-1.867,0.078-2.867,0.131C13.786,3.251,13.718,4.049,13.651,4.87z"/>
	<path d="M16.874,37.11c-0.917-0.041-1.877-0.091-2.863-0.148c0.065,0.816,0.128,1.589,0.188,2.305
		c0.093-0.089,0.129-0.146,0.129-0.146l0.057,0.238c0.911,0.052,1.799,0.098,2.648,0.135C16.983,38.76,16.93,37.963,16.874,37.11z"
		/>
	<path d="M3.649,20.405h0.592c-0.032-0.917-0.05-1.789-0.05-2.594c0-0.079,0.001-0.162,0.002-0.242
		c-0.123,0.005-0.244,0.009-0.366,0.013c0.064,0.446,0.142,0.897,0.236,1.36C4.063,19.393,3.901,19.89,3.649,20.405z"/>
	<path d="M27.176,40.411c-0.996,0.052-1.952,0.094-2.849,0.125c-0.042,0.621-0.081,1.213-0.119,1.761
		c0.888-0.029,1.834-0.07,2.822-0.122C27.077,41.622,27.125,41.033,27.176,40.411z"/>
	<path d="M26.946,43.165c-0.983,0.05-1.924,0.09-2.807,0.119c-0.019,0.271-0.037,0.526-0.054,0.77h2.784
		C26.894,43.773,26.919,43.479,26.946,43.165z"/>
	<path d="M21.104,4.676c0.752,0.014,1.567,0.038,2.432,0.073c-0.06-0.841-0.12-1.64-0.177-2.384c-0.8-0.032-1.554-0.054-2.254-0.066
		V4.676z"/>
	<path d="M23.151,43.313c-0.623,0.016-1.21,0.024-1.747,0.024c-0.096,0-0.201-0.001-0.299-0.002v0.719h1.994
		C23.115,43.82,23.133,43.573,23.151,43.313z"/>
	<path d="M17.3,43.232c-0.647-0.028-1.318-0.061-2.007-0.098l0.221,0.919h1.848C17.354,43.945,17.333,43.663,17.3,43.232z"/>
	<path d="M24.272,1.418c0.897,0.041,1.837,0.089,2.803,0.145c-0.031-0.317-0.061-0.616-0.09-0.905
		c-0.501-0.107-1.017-0.209-1.565-0.297c-0.417-0.066-0.832-0.123-1.246-0.171C24.205,0.574,24.238,0.983,24.272,1.418z"/>
	<path d="M18.065,44.054h2.055v-0.731c-0.576-0.011-1.188-0.027-1.831-0.051c0.035,0.468,0.056,0.74,0.058,0.76L18.065,44.054z"/>
	<path d="M30.8,42.941c-0.971,0.063-1.93,0.12-2.862,0.172c-0.028,0.329-0.056,0.646-0.081,0.94h2.812
		C30.71,43.709,30.753,43.336,30.8,42.941z"/>
	<path d="M12.95,1.547c0.006-0.064,0.012-0.131,0.018-0.194c-0.195,0.073-0.39,0.147-0.581,0.228
		C12.577,1.568,12.763,1.559,12.95,1.547z"/>
	<path d="M17.781,1.335c0.754-0.021,1.462-0.034,2.098-0.034c0.078,0,0.162,0.001,0.242,0.002V0.012
		c-0.765,0.022-1.517,0.078-2.253,0.166C17.839,0.552,17.81,0.938,17.781,1.335z"/>
	<path d="M21.104,0v1.314c0.679,0.013,1.406,0.033,2.178,0.063c-0.036-0.457-0.071-0.886-0.104-1.285
		C22.479,0.034,21.789,0.006,21.104,0z"/>
	<path d="M0.189,26.875c0.237,0.262,0.51,0.461,0.79,0.635c0.26,0.016,0.526,0.032,0.797,0.049c-0.065-0.807-0.125-1.608-0.18-2.401
		c-0.391-0.016-0.772-0.031-1.142-0.045C0.018,25.856-0.17,26.48,0.189,26.875z"/>
	<path d="M17.102,40.482c-0.794-0.035-1.625-0.077-2.477-0.125l0.428,1.78c0.747,0.04,1.474,0.077,2.174,0.106
		C17.191,41.74,17.149,41.15,17.102,40.482z"/>
	<path d="M20.121,40.581c-0.636-0.012-1.313-0.03-2.029-0.059c0.047,0.67,0.09,1.264,0.126,1.763
		c0.67,0.023,1.306,0.042,1.903,0.054V40.581z"/>
	<path d="M4.69,27.732c-0.066-0.827-0.128-1.651-0.186-2.465c-0.656-0.024-1.296-0.048-1.92-0.072
		c0.056,0.801,0.116,1.609,0.182,2.423C3.389,27.655,4.032,27.693,4.69,27.732z"/>
	<path d="M6.133,32.796c0.089,0.912,0.18,1.801,0.27,2.655c0.835,0.064,1.687,0.129,2.545,0.191
		c-0.091-0.871-0.183-1.778-0.273-2.707C7.816,32.891,6.966,32.843,6.133,32.796z"/>
	<path d="M10.427,40.094c0.016,0.139,0.031,0.275,0.047,0.408c0.645-0.08,1.188-0.184,1.64-0.296
		C11.554,40.17,10.991,40.133,10.427,40.094z"/>
	<path d="M9.494,40.59c-0.022-0.185-0.043-0.371-0.065-0.566c-0.728-0.052-1.452-0.104-2.167-0.159
		C7.758,40.337,8.472,40.639,9.494,40.59z"/>
	<path d="M10.049,36.706c0.091,0.846,0.18,1.651,0.264,2.395c0.974,0.067,1.945,0.131,2.9,0.189
		c-0.062-0.741-0.127-1.543-0.194-2.388C12.041,36.842,11.045,36.776,10.049,36.706z"/>
	<path d="M16.635,33.294c-0.935-0.032-1.911-0.07-2.913-0.113c0.07,0.963,0.141,1.896,0.21,2.791
		c0.991,0.058,1.955,0.108,2.877,0.152C16.752,35.22,16.694,34.271,16.635,33.294z"/>
	<path d="M9.667,32.987c0.092,0.937,0.185,1.85,0.277,2.726c1.004,0.07,2.009,0.138,2.998,0.199c-0.069-0.891-0.14-1.82-0.209-2.776
		C11.721,33.09,10.693,33.04,9.667,32.987z"/>
	<path d="M8.226,27.928c-0.068-0.851-0.131-1.698-0.189-2.535c-0.856-0.029-1.708-0.059-2.543-0.089
		c0.057,0.821,0.12,1.651,0.188,2.485C6.516,27.836,7.367,27.882,8.226,27.928z"/>
	<path d="M20.121,33.381c-0.772-0.01-1.61-0.029-2.498-0.056c0.059,0.981,0.118,1.935,0.176,2.841
		c0.824,0.032,1.601,0.057,2.322,0.07V33.381z"/>
	<path d="M7.971,24.406C7.905,23.369,7.85,22.358,7.81,21.39H5.265c0.042,0.941,0.097,1.924,0.162,2.928
		C6.262,24.347,7.113,24.377,7.971,24.406z"/>
	<path d="M7.73,18.047c0-0.196,0.002-0.398,0.004-0.599c-0.856,0.027-1.712,0.057-2.558,0.086c0,0.092-0.002,0.187-0.002,0.277
		c0,0.805,0.018,1.677,0.05,2.594h2.547C7.746,19.576,7.73,18.782,7.73,18.047z"/>
	<path d="M8.579,31.944c-0.094-0.995-0.186-2.009-0.271-3.026c-0.858-0.045-1.708-0.092-2.544-0.14
		c0.086,1.019,0.179,2.031,0.273,3.026C6.87,31.853,7.72,31.899,8.579,31.944z"/>
	<path d="M9.052,36.636c-0.857-0.063-1.708-0.126-2.544-0.19c0.091,0.847,0.18,1.652,0.264,2.396
		c0.836,0.064,1.688,0.128,2.543,0.188C9.231,38.282,9.143,37.481,9.052,36.636z"/>
	<path d="M5.139,32.739c-0.3-0.018-0.598-0.034-0.891-0.052c-0.383,0.388-0.758,0.876-0.758,1.306c0,0.431,0.636,0.931,1.285,1.329
		c0.209,0.018,0.418,0.033,0.63,0.051C5.316,34.524,5.227,33.642,5.139,32.739z"/>
	<path d="M36.747,13.256c0.554,0.032,1.096,0.065,1.618,0.098c-0.151-0.891-0.271-1.962-0.517-3.109
		c-0.446-0.027-0.903-0.054-1.368-0.081C36.578,11.188,36.667,12.225,36.747,13.256z"/>
	<path d="M35.39,9.114c-0.091-0.903-0.186-1.791-0.282-2.651c-0.852-0.066-1.721-0.132-2.598-0.196
		c0.099,0.875,0.197,1.781,0.292,2.705C33.676,9.018,34.543,9.066,35.39,9.114z"/>
	<path d="M37.601,9.243c-0.248-0.882-0.593-1.785-1.103-2.67c-0.13-0.011-0.262-0.021-0.394-0.031
		c0.096,0.854,0.189,1.734,0.279,2.63C36.796,9.195,37.203,9.22,37.601,9.243z"/>
	<path d="M23.616,36.214c0.056-0.928,0.111-1.882,0.165-2.852c-0.862,0.019-1.662,0.029-2.376,0.029c-0.096,0-0.201-0.001-0.3-0.001
		v2.857c0.099,0.001,0.203,0.002,0.299,0.002C22.07,36.25,22.816,36.237,23.616,36.214z"/>
	<path d="M24.78,8.607c0.94,0.033,1.921,0.071,2.925,0.115c-0.073-0.957-0.15-1.892-0.227-2.79c-0.992-0.059-1.958-0.11-2.883-0.153
		C24.658,6.69,24.72,7.639,24.78,8.607z"/>
	<path d="M36.967,16.716c0.55,0.021,1.086,0.042,1.6,0.063c0.054-0.813,0.041-1.624-0.051-2.431
		c-0.547-0.033-1.113-0.066-1.696-0.102C36.877,15.08,36.928,15.907,36.967,16.716z"/>
	<path d="M28.696,8.768c1.029,0.047,2.071,0.098,3.111,0.151c-0.096-0.932-0.195-1.844-0.295-2.723
		c-1.018-0.072-2.037-0.141-3.04-0.203C28.547,6.888,28.623,7.817,28.696,8.768z"/>
	<path d="M21.104,8.515c0.826,0.011,1.729,0.031,2.688,0.062c-0.06-0.975-0.123-1.926-0.187-2.84
		C22.715,5.7,21.876,5.674,21.104,5.66V8.515z"/>
	<path d="M37.057,21.39c-0.008,0.517-0.022,1.054-0.042,1.609c0.217-0.527,0.418-1.064,0.601-1.609H37.057z"/>
	<path d="M27.256,39.422c0.061-0.763,0.123-1.559,0.185-2.386c-1.011,0.054-1.983,0.099-2.897,0.132
		c-0.051,0.825-0.102,1.623-0.151,2.382C25.294,39.518,26.255,39.475,27.256,39.422z"/>
	<path d="M27.711,33.237c-1.025,0.04-2.014,0.075-2.944,0.101c-0.053,0.966-0.108,1.918-0.164,2.844
		c0.918-0.034,1.896-0.08,2.911-0.134C27.581,35.131,27.647,34.19,27.711,33.237z"/>
	<path d="M30.618,36.85c-0.739,0.048-1.47,0.092-2.187,0.133c-0.062,0.824-0.124,1.622-0.185,2.386
		c0.815-0.045,1.648-0.096,2.491-0.15L30.618,36.85z"/>
	<path d="M33.382,25.368c-0.044,0.836-0.098,1.697-0.158,2.57c0.423-0.021,0.846-0.045,1.266-0.068
		c0.487-0.782,0.973-1.627,1.433-2.52c0.001-0.024,0.003-0.049,0.004-0.072C35.094,25.309,34.243,25.339,33.382,25.368z"/>
</g>
<g>
</g>
<g>
</g>
<g>
</g>
<g>
</g>
<g>
</g>
<g>
</g>
<g>
</g>
<g>
</g>
<g>
</g>
<g>
</g>
<g>
</g>
<g>
</g>
<g>
</g>
<g>
</g>
<g>
</g>
</svg>
