<?xml version="1.0" encoding="utf-8"?>
<!-- Generator: Adobe Illustrator 16.0.4, SVG Export Plug-In . SVG Version: 6.00 Build 0)  -->
<!DOCTYPE svg PUBLIC "-//W3C//DTD SVG 1.1//EN" "http://www.w3.org/Graphics/SVG/1.1/DTD/svg11.dtd">
<svg version="1.1" id="Layer_1" xmlns="http://www.w3.org/2000/svg" xmlns:xlink="http://www.w3.org/1999/xlink" x="0px" y="0px"
	 width="50px" height="50px" viewBox="0 0 50 50" enable-background="new 0 0 50 50" xml:space="preserve">
<g>
	<path d="M24.796,21.728l0.1,0.213c0.056,0.148,0.076,0.311,0.076,0.471c0.003,0.32-0.087,0.626-0.179,0.877
		c-0.193,0.504-0.409,0.805-0.409,0.805s0.253-0.267,0.521-0.754c0.129-0.245,0.268-0.548,0.315-0.911
		c0.023-0.18,0.027-0.375-0.018-0.571c-0.013-0.1-0.06-0.191-0.091-0.291l-0.112-0.25c-0.145-0.322-0.248-0.65-0.225-0.918
		c0.01-0.133,0.056-0.244,0.11-0.338l0.101-0.131l0.118-0.103c0.418,0.163,1.053,0.032,1.611-0.376
		c0.731-0.535,1.052-1.342,0.718-1.801c-0.336-0.457-1.201-0.396-1.934,0.141c-0.605,0.443-0.924,1.07-0.826,1.534l-0.009,0.008
		l-0.172,0.201c-0.049,0.081-0.104,0.161-0.145,0.254c-0.078,0.187-0.123,0.401-0.108,0.61c0.027,0.422,0.22,0.782,0.413,1.101
		L24.796,21.728z"/>
	<path d="M26.857,20.333c-0.369,0.27-0.562,0.65-0.502,0.934l-0.006,0.004l-0.104,0.123l-0.088,0.154
		c-0.048,0.113-0.075,0.243-0.066,0.37c0.019,0.257,0.136,0.478,0.251,0.669l0.088,0.141l0.062,0.129
		c0.034,0.092,0.046,0.188,0.047,0.287c0.002,0.194-0.054,0.381-0.108,0.532c-0.117,0.308-0.248,0.489-0.248,0.489
		s0.152-0.162,0.315-0.459c0.078-0.148,0.163-0.332,0.19-0.553c0.015-0.109,0.018-0.229-0.01-0.348l-0.056-0.179l-0.067-0.151
		c-0.09-0.195-0.152-0.396-0.138-0.559l0.067-0.206l0.061-0.078l0.072-0.062c0.255,0.099,0.64,0.019,0.979-0.229
		c0.444-0.325,0.641-0.815,0.437-1.094C27.828,19.969,27.301,20.008,26.857,20.333z"/>
	<path d="M22.331,21.438l0.061,0.129c0.034,0.091,0.046,0.188,0.046,0.285c0.003,0.195-0.053,0.381-0.107,0.533
		c-0.119,0.307-0.249,0.489-0.249,0.489s0.153-0.161,0.316-0.458c0.078-0.148,0.162-0.333,0.191-0.555
		c0.014-0.108,0.017-0.229-0.011-0.348l-0.055-0.177l-0.068-0.153c-0.089-0.194-0.151-0.395-0.137-0.558l0.066-0.205l0.062-0.079
		l0.071-0.062c0.255,0.101,0.64,0.021,0.979-0.229c0.444-0.326,0.641-0.814,0.437-1.094s-0.73-0.242-1.175,0.084
		c-0.369,0.27-0.562,0.65-0.502,0.934l-0.005,0.006l-0.105,0.121l-0.088,0.154c-0.048,0.112-0.075,0.243-0.066,0.371
		c0.018,0.256,0.135,0.477,0.251,0.668L22.331,21.438z"/>
	<path d="M32.916,15.155h-3.62c-0.396-1.161-1.376-1.188-1.376-1.188c-1.355-0.202-1.544-0.64-1.544-0.64
		c-0.287-0.413-0.123-1.205-0.123-1.205c0.238-0.194,0.33-0.708,0.33-0.708c0.396-0.304,0.376-0.747,0.194-0.742
		c-0.147,0.004-0.114-0.118-0.114-0.118c0.247-1.996-1.527-2.099-1.527-2.099h-0.271c0,0-1.774,0.103-1.527,2.099
		c0,0,0.033,0.122-0.115,0.118c-0.182-0.005-0.199,0.438,0.195,0.742c0,0,0.092,0.514,0.33,0.708c0,0,0.164,0.792-0.123,1.205
		c0,0-0.188,0.438-1.544,0.64c0,0-0.981,0.026-1.376,1.188h-3.621c-0.276,0-0.5,0.224-0.5,0.5v9.334c0,0.275,0.224,0.5,0.5,0.5
		h1.296c-0.27,0.437-0.467,0.883-0.241,0.955c0,0,0.27,0.026,0.627-0.682c0,0-0.007,0.272-0.294,1.062
		c-0.055,0.148-0.294,0.898,0.093,0.628c0,0,0.178-0.123,0.412-0.894c0,0-0.125,1.297,0.013,1.364
		c0.182,0.088,0.281-0.168,0.363-1.306c0,0,0.084-0.366,0.123,1.035c0.002,0.072,0.109,0.432,0.257,0.125
		c0.124-0.258,0.069-0.941,0.069-1.17c0,0,0.16,0.886,0.309,0.886c0,0,0.176,0.206,0.104-0.894c-0.012-0.18,0.05-0.549,0.058-0.656
		l0.017-0.422l-0.003-0.035h1.271c-0.028,0.31-0.04,0.617-0.005,0.906c0.139,1.137,0.406,3.567,0.678,4.525
		c0.141,0.496,0.057,1.748,0.172,2.061c0.05,0.135,0.024,0.26-0.086,0.568c-0.384,1.076-0.335,1.834,0.628,4.689
		c0,0,0.296,0.633,0.147,1.771c0,0-0.615,1.265-0.221,1.29c0,0,0.032,0.084,0.164,0.018c0,0,0.213,0.219,0.443,0.101
		c0,0,0.213,0.169,0.395,0.019c0,0,0.147,0.168,0.36,0.032c0,0,0.279,0.187,0.444-0.017c0,0,0.295,0.066-0.23-1.264
		c0,0-0.201-1.41-0.312-1.687c-0.211-0.527-0.062-1.965-0.017-2.274c0.074-0.515,0.035-1.395-0.099-2.074
		c-0.096-0.487,0.167-1.407,0.263-1.973c0.201-1.191,0.591-4.23,0.542-4.804l0.162,0.056c0.117,0,0.191-0.056,0.191-0.056
		c-0.049,0.573,0.34,3.612,0.542,4.804c0.096,0.564,0.358,1.484,0.264,1.973c-0.135,0.681-0.174,1.561-0.1,2.074
		c0.047,0.311,0.194,1.747-0.017,2.274c-0.11,0.274-0.312,1.687-0.312,1.687c-0.527,1.33-0.23,1.264-0.23,1.264
		c0.165,0.201,0.443,0.017,0.443,0.017c0.213,0.136,0.36-0.032,0.36-0.032c0.183,0.15,0.396-0.019,0.396-0.019
		c0.229,0.118,0.442-0.101,0.442-0.101c0.132,0.066,0.164-0.018,0.164-0.018c0.396-0.025-0.221-1.29-0.221-1.29
		c-0.147-1.138,0.147-1.771,0.147-1.771c0.963-2.855,1.012-3.613,0.627-4.689c-0.109-0.311-0.136-0.434-0.086-0.568
		c0.115-0.312,0.031-1.563,0.172-2.061c0.271-0.958,0.539-3.391,0.679-4.525c0.034-0.289,0.022-0.598-0.005-0.906h1.271
		l-0.003,0.035l0.018,0.422c0.008,0.107,0.068,0.478,0.058,0.656c-0.071,1.1,0.104,0.894,0.104,0.894
		c0.147,0,0.309-0.886,0.309-0.886c0,0.229-0.055,0.912,0.068,1.17c0.147,0.307,0.256-0.053,0.258-0.125
		c0.039-1.401,0.123-1.035,0.123-1.035c0.082,1.138,0.182,1.394,0.363,1.306c0.137-0.067,0.012-1.364,0.012-1.364
		c0.234,0.771,0.412,0.894,0.412,0.894c0.387,0.271,0.147-0.479,0.094-0.628c-0.287-0.789-0.295-1.062-0.295-1.062
		c0.357,0.708,0.627,0.682,0.627,0.682c0.227-0.072,0.029-0.52-0.24-0.955h1.295c0.275,0,0.5-0.225,0.5-0.5v-9.334
		C33.416,15.379,33.191,15.155,32.916,15.155z M32.416,24.489H17.583v-8.334h14.833V24.489z"/>
</g>
</svg>
