<?xml version="1.0" encoding="utf-8"?>
<!-- Generator: Adobe Illustrator 17.0.0, SVG Export Plug-In . SVG Version: 6.00 Build 0)  -->
<!DOCTYPE svg PUBLIC "-//W3C//DTD SVG 1.1//EN" "http://www.w3.org/Graphics/SVG/1.1/DTD/svg11.dtd">
<svg version="1.1" id="Layer_1" xmlns="http://www.w3.org/2000/svg" xmlns:xlink="http://www.w3.org/1999/xlink" x="0px" y="0px"
	 width="32px" height="32px" viewBox="0 0 32 32" enable-background="new 0 0 32 32" xml:space="preserve">
<path d="M30.814,9.384c-0.749-0.475-1.738-0.254-2.213,0.493c-0.008,0.01-0.12,0.183-0.332,0.457l-9.561-7.42
	c0.093-0.121,0.156-0.195,0.174-0.218c0.584-0.663,0.521-1.673-0.143-2.258c-0.678-0.586-1.679-0.522-2.262,0.142
	c-0.208,0.232-4.328,5.034-3.154,11.51c0.146,0.803,0.371,1.632,0.696,2.481l0.001,0.001c0.252,0.837,0.564,1.701,0.94,2.593
	c-0.825-1.202-2.14-2.653-3.937-3.266C4.714,14.677,1.227,20,1.057,20.269c-0.475,0.747-0.259,1.737,0.491,2.214
	c0.749,0.476,1.738,0.254,2.213-0.493c0.005-0.006,0.058-0.087,0.157-0.224l9.651,7.489c-0.524,0.663-0.444,1.627,0.199,2.194
	c0.675,0.587,1.678,0.522,2.263-0.142c0.204-0.231,4.337-5.046,3.148-11.537c-0.146-0.795-0.37-1.615-0.694-2.455v0
	c-0.316-1.054-0.727-2.148-1.241-3.288c-0.067-0.153-0.131-0.306-0.192-0.457c-0.246-0.618-0.425-1.222-0.545-1.81l3.979,3.085
	c-0.771,0.062-1.592,0.032-2.459-0.119c-0.133-0.024-0.263-0.043-0.393-0.065c0.693,1.188,1.723,2.566,3.068,3.371
	c6.711-0.483,10.429-6.156,10.604-6.434C31.781,10.851,31.565,9.861,30.814,9.384z M17.514,4.836l9.217,7.153
	c-0.221,0.201-0.462,0.405-0.72,0.607l-8.888-6.895C17.249,5.393,17.381,5.104,17.514,4.836z M14.336,17.14
	c0.222,0.04,0.441,0.074,0.658,0.108c0.084,0.202,0.175,0.406,0.267,0.611c0.437,0.967,0.698,1.903,0.83,2.798l-4.631-3.593
	C12.349,16.952,13.31,16.961,14.336,17.14z M14.822,27.376l-9.405-7.299c0.214-0.203,0.447-0.412,0.701-0.62l9.117,7.074
	C15.102,26.835,14.961,27.119,14.822,27.376z M15.974,24.253l-7.881-6.115c0.214-0.112,0.436-0.22,0.663-0.32l7.346,5.698
	C16.068,23.768,16.025,24.014,15.974,24.253z M16.352,8.79c0.025-0.258,0.061-0.511,0.104-0.757l7.526,5.841
	c-0.221,0.108-0.447,0.211-0.684,0.305L16.352,8.79z"/>
</svg>
