<?xml version="1.0" encoding="utf-8"?>
<!-- Generator: Adobe Illustrator 16.0.4, SVG Export Plug-In . SVG Version: 6.00 Build 0)  -->
<!DOCTYPE svg PUBLIC "-//W3C//DTD SVG 1.1//EN" "http://www.w3.org/Graphics/SVG/1.1/DTD/svg11.dtd">
<svg version="1.1" id="Capa_1" xmlns="http://www.w3.org/2000/svg" xmlns:xlink="http://www.w3.org/1999/xlink" x="0px" y="0px"
	 width="64px" height="64px" viewBox="0 0 64 64" enable-background="new 0 0 64 64" xml:space="preserve">
<path d="M60.068,53.497L43.363,16.681c-0.19-0.445-0.344-1.198-0.344-1.682v-3.394c0-0.484,0.385-0.976,0.809-1.21
	c1.162-0.646,1.955-1.877,1.955-3.301c0-2.093-1.703-3.796-3.797-3.796H27.973c-2.093,0-3.796,1.703-3.796,3.796
	c0,1.293,0.651,2.432,1.642,3.115c0.397,0.275,0.771,0.804,0.771,1.287v3.918c0,0.484-0.165,1.232-0.37,1.67L9.283,53.516
	c-0.679,1.461-0.656,2.943,0.061,4.068c0.718,1.125,2.054,1.771,3.664,1.771h43.19c1.602,0,2.946-0.646,3.688-1.771
	C60.631,56.46,60.697,54.971,60.068,53.497z M21.533,37.643l-8.625,17.875c-0.086,0.178-0.265,0.281-0.45,0.281
	c-0.073,0-0.147-0.016-0.218-0.05c-0.248-0.12-0.352-0.419-0.232-0.668l8.625-17.875c0.119-0.248,0.42-0.353,0.668-0.233
	C21.549,37.094,21.653,37.393,21.533,37.643z M47.406,34.907H21.709c-0.484,0-0.711-0.355-0.507-0.794l7.646-16.447
	c0.204-0.438,0.317-1.186,0.317-1.67V9.262c0-0.553-0.268-1-0.597-1h-0.597c-0.644,0-1.168-0.523-1.168-1.168
	c0-0.644,0.524-1.168,1.168-1.168h14.013c0.646,0,1.168,0.524,1.168,1.168c0,0.644-0.522,1.168-1.168,1.168c0,0-0.35,0-0.782,0
	s-0.783,0.447-0.783,1v6.274c0,0.483,0.125,1.236,0.315,1.682l7.201,16.884C48.127,34.547,47.891,34.907,47.406,34.907z"/>
</svg>
