<?xml version="1.0" encoding="iso-8859-1"?>
<!-- Generator: Adobe Illustrator 16.0.0, SVG Export Plug-In . SVG Version: 6.00 Build 0)  -->
<!DOCTYPE svg PUBLIC "-//W3C//DTD SVG 1.1//EN" "http://www.w3.org/Graphics/SVG/1.1/DTD/svg11.dtd">
<svg version="1.1" id="Layer_1" xmlns="http://www.w3.org/2000/svg" xmlns:xlink="http://www.w3.org/1999/xlink" x="0px" y="0px"
	 width="29.632px" height="44.58px" viewBox="0 0 29.632 44.58" style="enable-background:new 0 0 29.632 44.58;"
	 xml:space="preserve">
<path d="M27.685,29.141c0.678-2.808,1.034-6.182,0.696-9.083c-0.467-4.003-3.271-6.726-4.558-7.152
	c-0.135-0.49-0.325-0.972-0.621-1.419c-0.096-0.145-0.215-0.264-0.322-0.395l0.639-0.379l0.668,1.123l2.455-1.459L20.472,0
	l-2.455,1.459l0.604,1.016L1.063,12.912l0.822,1.383L0,15.416l3.089,5.195l1.885-1.121l0.987,1.659l8.513-5.062
	c0.122,0.299,0.271,0.59,0.457,0.869c1.51,2.283,4.586,2.911,6.871,1.4c0.58-0.383,1.051-0.87,1.41-1.418
	c0.716,0.297,2.142,3.092,2.087,5.785c-0.048,2.371-0.74,4.838-1.433,6.416h-6.985l-0.432,1.667H4.386l-0.209,2.333h11.668
	l-1.781,6.875H0v4.564h12.881h4.122h8.296h2h2.333V29.141H27.685z M6.414,19.368l-3.569-6.003l1.833-1.09l3.443,6.078L6.414,19.368z
	 M9.239,17.689l-3.443-6.078l2.507-1.49l3.573,6L9.239,17.689z M20.287,16.068c-1.02,0.674-2.393,0.394-3.066-0.626
	c-0.165-0.249-0.271-0.519-0.324-0.794c-0.12-0.615,0.032-1.254,0.413-1.757l-0.002,0.001c0.148-0.195,0.322-0.374,0.538-0.517
	c0.28-0.185,0.587-0.292,0.897-0.337c0.151-0.022,0.303-0.027,0.453-0.019c0.009,0.001,0.018,0.002,0.027,0.003
	c0.143,0.01,0.285,0.034,0.424,0.072c0.006,0.002,0.014,0.004,0.021,0.006c0.142,0.041,0.28,0.096,0.411,0.164
	c0.002,0,0.004,0.002,0.006,0.003c0.135,0.07,0.264,0.155,0.383,0.253c0.166,0.137,0.32,0.291,0.445,0.48
	C21.587,14.021,21.307,15.394,20.287,16.068z M21.899,10.162c-1.619-1.128-3.822-1.23-5.568-0.076
	c-1.604,1.06-2.367,2.891-2.172,4.678l-1.166,0.693l-3.572-6l9.691-5.762l3.568,6.003L21.899,10.162z"/>
<g>
</g>
<g>
</g>
<g>
</g>
<g>
</g>
<g>
</g>
<g>
</g>
<g>
</g>
<g>
</g>
<g>
</g>
<g>
</g>
<g>
</g>
<g>
</g>
<g>
</g>
<g>
</g>
<g>
</g>
</svg>
