<?xml version="1.0" encoding="iso-8859-1"?>
<!-- Generator: Adobe Illustrator 16.0.0, SVG Export Plug-In . SVG Version: 6.00 Build 0)  -->
<!DOCTYPE svg PUBLIC "-//W3C//DTD SVG 1.1//EN" "http://www.w3.org/Graphics/SVG/1.1/DTD/svg11.dtd">
<svg version="1.1" id="Layer_1" xmlns="http://www.w3.org/2000/svg" xmlns:xlink="http://www.w3.org/1999/xlink" x="0px" y="0px"
	 width="47.104px" height="45.333px" viewBox="0 0 47.104 45.333" style="enable-background:new 0 0 47.104 45.333;"
	 xml:space="preserve">
<g>
	<path d="M40.053,34.896c3.282-1.453,7.61-5.109,6.991-11.689c-0.59-6.273-4.842-9.238-8.046-10.301
		c-0.135-0.49-0.326-0.972-0.621-1.418c-0.096-0.145-0.215-0.264-0.323-0.396l0.638-0.379l0.668,1.124l2.455-1.459L35.646,0
		l-2.456,1.459l0.604,1.016L16.237,12.913l0.822,1.383l-1.885,1.121l3.088,5.196l1.886-1.121l0.987,1.659l8.513-5.061
		c0.122,0.298,0.271,0.589,0.456,0.868c1.51,2.284,4.587,2.912,6.871,1.401c0.581-0.384,1.052-0.871,1.411-1.418
		c1.774,0.737,4.286,2.5,4.675,6.641c0.527,5.605-4.121,7.521-5.313,7.917H19.476v4h16.577v5.083h-3.875v4h12.375v-4h-4.5V34.896z
		 M21.588,19.369l-3.569-6.003l1.833-1.089l3.443,6.078L21.588,19.369z M24.413,17.689l-3.443-6.078l2.507-1.49l3.573,6
		L24.413,17.689z M35.461,16.068c-1.02,0.674-2.393,0.394-3.066-0.625c-0.165-0.249-0.27-0.519-0.324-0.794
		c-0.121-0.615,0.032-1.254,0.413-1.756l-0.001,0c0.147-0.195,0.322-0.374,0.538-0.516c0.28-0.185,0.586-0.292,0.898-0.337
		c0.151-0.022,0.302-0.027,0.452-0.018c0.009,0,0.019,0.002,0.027,0.003c0.144,0.01,0.285,0.034,0.424,0.072
		c0.007,0.002,0.014,0.004,0.021,0.006c0.142,0.041,0.28,0.095,0.412,0.163c0.001,0.001,0.003,0.002,0.005,0.003
		c0.135,0.07,0.263,0.155,0.383,0.253c0.166,0.137,0.32,0.291,0.445,0.479C36.761,14.021,36.481,15.394,35.461,16.068z
		 M37.074,10.163c-1.619-1.128-3.822-1.231-5.568-0.077c-1.604,1.06-2.368,2.891-2.173,4.679l-1.165,0.693l-3.573-6l9.691-5.761
		l3.568,6.003L37.074,10.163z"/>
	<path d="M12.91,30.572c-0.002-0.001-0.004-0.003-0.005-0.004l-0.808,1.871c2.049,1.707,2.832,4.623,1.722,7.192
		c-1.35,3.125-4.991,4.57-8.116,3.22c-3.125-1.35-4.57-4.991-3.22-8.117c1.109-2.568,3.766-3.997,6.411-3.677l0.809-1.871
		c0,0,0,0-0.001,0l2.148-4.974l-3.854-1.665L7.21,24.361l2.041,0.881l-1.648,3.816c-2.947,0.202-5.685,2-6.935,4.894
		c-1.782,4.125,0.125,8.932,4.25,10.713c4.126,1.782,8.932-0.125,10.713-4.25c1.25-2.894,0.682-6.119-1.192-8.404l1.673-3.873
		l2.041,0.881l0.783-1.814l-3.854-1.665L12.91,30.572z"/>
	<path d="M7.731,37.061c-2.554,0.157-3.631-0.112-4.81-2.063c-1.25,2.893,0.083,6.25,2.976,7.5s6.251-0.083,7.5-2.976
		C11.197,39.318,10.284,36.904,7.731,37.061z M4.791,38.399c-0.115,0.267-0.423,0.389-0.689,0.274
		c-0.267-0.115-0.389-0.423-0.274-0.69c0.115-0.266,0.424-0.389,0.69-0.273C4.784,37.824,4.906,38.133,4.791,38.399z M6.534,41.293
		c-0.069,0.161-0.256,0.234-0.416,0.165c-0.16-0.069-0.234-0.256-0.165-0.416c0.069-0.16,0.255-0.234,0.415-0.165
		C6.529,40.947,6.603,41.133,6.534,41.293z M6.606,39.532C6.55,39.661,6.4,39.72,6.271,39.664s-0.188-0.205-0.133-0.334
		s0.206-0.189,0.334-0.133C6.602,39.252,6.662,39.402,6.606,39.532z M9.957,40.028c0.155-0.358,0.569-0.521,0.926-0.367
		c0.357,0.154,0.521,0.568,0.368,0.925c-0.155,0.357-0.569,0.521-0.926,0.367C9.967,40.799,9.803,40.385,9.957,40.028z M8.38,39.101
		c0.056-0.129,0.207-0.189,0.335-0.133c0.129,0.056,0.188,0.206,0.132,0.335c-0.056,0.129-0.206,0.188-0.334,0.132
		C8.385,39.38,8.325,39.23,8.38,39.101z M8.342,41.864c-0.061,0.14-0.223,0.204-0.362,0.144c-0.14-0.061-0.204-0.223-0.144-0.362
		c0.06-0.14,0.223-0.204,0.363-0.144C8.338,41.563,8.403,41.725,8.342,41.864z"/>
</g>
<g>
</g>
<g>
</g>
<g>
</g>
<g>
</g>
<g>
</g>
<g>
</g>
<g>
</g>
<g>
</g>
<g>
</g>
<g>
</g>
<g>
</g>
<g>
</g>
<g>
</g>
<g>
</g>
<g>
</g>
</svg>
