<?xml version="1.0" encoding="utf-8"?>
<!-- Generator: Adobe Illustrator 18.1.0, SVG Export Plug-In . SVG Version: 6.00 Build 0)  -->
<svg version="1.1" id="Capa_1" xmlns="http://www.w3.org/2000/svg" xmlns:xlink="http://www.w3.org/1999/xlink" x="0px" y="0px"
	 width="1000px" height="1000px" viewBox="0 0 1000 1000" enable-background="new 0 0 1000 1000" xml:space="preserve">
<g>
	<path d="M569.3,659.2c11,0,20-9,20-20v-9.3c0-11-9-20-20-20h-334c-11,0-20,9-20,20v9.3c0,11,9,20,20,20H569.3z"/>
	<path d="M779,246.9c-31.4-31.4-67.9-56-108.7-73.3l-0.2-0.1c-13.3-5.6-28.7-0.8-36.5,11.3l-23.2,36.1c-5.8-2-12-3.2-18.4-3.7
		c-1.9-0.1-3.9-0.2-5.9-0.2c-5.4,0-10.7,0.6-15.8,1.7l40.9-63.8l12.7-19.8c8.9-13.9,4.9-32.5-9.1-41.4L505.5,23.4
		c-5-3.2-10.6-4.7-16.2-4.7c-9.9,0-19.6,4.9-25.3,13.8L273.9,328.9c-8.9,13.9-4.9,32.5,9.1,41.4l20.7,13.3l-9.4,14.7l-9.4,14.7
		l-5.9,9.2c-8.9,13.9-4.9,32.5,9.1,41.4l17.8,11.4c13.9,8.9,32.5,4.9,41.4-9.1l5.9-9.2l9.4-14.7l9.4-14.7l20.4,13.1
		c5,3.2,10.6,4.7,16.2,4.7c9.9,0,19.6-4.9,25.3-13.8l78-121.7c1.6,7.2,4.2,14,7.8,20.3c3.1,5.5,6.8,10.6,11.1,15.1
		c14.4,15.2,34.9,24.6,57.6,23.9c40.1-1.2,72.7-33.8,73.8-73.9c0.3-9.8-1.3-19.2-4.4-27.9c20.9,11.4,40.3,25.9,57.6,43.2
		c47.6,47.6,73.8,110.8,73.8,178.1s-26.2,130.5-73.8,178.1c-29.6,29.6-65.2,50.9-104.1,62.8c-2.9,0.9-5.9,1.3-8.9,1.3h-98.4
		c-16.6,0-30-13.4-30-30v-6.7H330.7v36.7V778v50.9c3.1-0.2,6.3-0.3,9.4-0.3h197.1h35.9h171.3H768h2.3c34.2-6.1,60.3-36,60.3-72
		c0-22.2-9.9-42.1-25.5-55.5c19.2-24.2,35.1-50.8,47.2-79.4c17.8-42.2,26.9-87,26.9-133.1s-9-90.9-26.9-133.1
		C835,314.8,810.4,278.2,779,246.9z M586.1,320.4c-12.7,0-23.3-8.6-26.4-20.4c-0.6-2.2-0.9-4.6-0.9-7c0-13.5,9.8-24.7,22.7-26.9
		c1.5-0.3,3.1-0.4,4.7-0.4c15.1,0,27.3,12.2,27.3,27.3S601.2,320.4,586.1,320.4z M768,779.9c-3.2,1.5-6.8,2.3-10.6,2.3
		c-10.1,0-18.8-5.8-22.9-14.3c-1.7-3.4-2.6-7.3-2.6-11.3c0-14.1,11.4-25.6,25.6-25.6c3.8,0,7.4,0.8,10.6,2.3
		c1.7,0.8,3.4,1.8,4.9,2.9c6.1,4.7,10.1,12,10.1,20.3C783,767,776.8,775.9,768,779.9z"/>
	<path d="M330.7,864c-65.4,4.8-116.9,59.4-116.9,126H738c16.6,0,30-13.4,30-30v-48.1v-48.2H340.1C336.9,863.7,333.8,863.8,330.7,864
		z"/>
</g>
</svg>
