<?xml version="1.0" encoding="utf-8"?>
<!-- Generator: Adobe Illustrator 17.0.0, SVG Export Plug-In . SVG Version: 6.00 Build 0)  -->
<!DOCTYPE svg PUBLIC "-//W3C//DTD SVG 1.1//EN" "http://www.w3.org/Graphics/SVG/1.1/DTD/svg11.dtd">
<svg version="1.1" id="Capa_1" xmlns="http://www.w3.org/2000/svg" xmlns:xlink="http://www.w3.org/1999/xlink" x="0px" y="0px"
	 width="200px" height="200px" viewBox="0 0 200 200" enable-background="new 0 0 200 200" xml:space="preserve">
<path d="M174.125,125.483c0.751-5.948,1.276-13.704-2.669-18.761c-2.014-2.581-5.251-3.851-8.064-2.964
	c2.422-7.511,0.021-19.671-1.088-26.303c-1.927-11.531-8.408-21.156-17.672-27.961c3.837-2.835,6.874-6.481,8.477-11.083
	c1.321-3.792,1.673-9.009-0.106-12.852c0.79-0.286,1.364-1.187,0.995-2.007c2.323-1.926,4.069-4.997,4.544-7.576
	c0.669-3.633-0.551-7.267-3.173-9.85c-2.629-2.591-6.358-3.484-9.902-2.641c-3.874,0.92-6.575,4.369-8.178,7.869
	c-0.358-0.154-0.727-0.297-1.172-0.333c-14.078-1.166-22.479,6.351-30.197,17.362C92.689,47.265,82.024,59.308,58.823,64.52
	c-1.238,0.279-1.66,1.495-1.439,2.549c-23.092,16.761,15.301,62.269,37.103,38.998c1.385,0.12,2.998-0.849,3.088-2.497
	c0.786-14.472,7.412-27.6,20.998-33.815c5.135,2.924,8.946,6.897,11.839,12.429c1.893,3.62,2.364,8.443,3.553,12.624
	c-14.285,1.03-38.965,11.967-34.79,28.795c-0.232-0.181-0.489-0.331-0.791-0.398c-4.244-0.929-8.535,0.415-12.855,0.69
	c-7.53,0.479-15.119,0.058-22.648-0.189c-6.692-0.219-22.17-3.761-28.118,0.726c-0.475,0.169-0.895,0.485-1.165,0.969
	c-2.492,4.477-3.267,10.093-3.45,15.163c-0.068,1.884,1.521,3.03,3.208,3.208c7.887,0.834,15.751,1.121,23.676,0.776
	c4.044-0.176,9.556-0.059,13.435-2.052c-2.054,5.468-2.235,11.534-2.265,17.472c-3.261-0.475-6.506-1.338-9.668-2.107
	c-0.455-0.111-0.875-0.121-1.274-0.082c-0.551-0.185-1.157-0.197-1.697,0.111c-12.871,7.34-22.199,19.791-31.101,31.375
	c-1.924,2.503,0.727,5.889,3.412,5.946c8.638,0.181,17.274,0.142,25.91,0.029c0.159,0.014,0.307,0.036,0.452-0.006
	c15.365-0.208,30.726-0.729,46.086-1.265c22.12-0.771,45.412,1.475,67.309-0.916c0.761-0.083,1.395-0.426,1.904-0.886
	c1.443-0.436,2.369-2.565,1.083-3.894c-4.017-4.151-7.613-8.54-11.045-13.181c-2.384-3.225-4.405-7.169-7.144-10.218
	C165.291,157.24,172.383,139.28,174.125,125.483z M146.659,9.261c1.537-0.412,3.304,0.225,4.377,1.197
	c1.233,1.118,1.803,2.713,1.514,4.269c-0.349,1.877-1.589,3.054-2.859,4.235c-2.61-2.113-5.605-3.872-8.336-5.593
	C142.728,11.474,144.294,9.895,146.659,9.261z M136.119,17.999c1.828,0.091,2.823-0.99,3.155-2.311
	c0.06,0.056,0.094,0.122,0.166,0.172c2.168,1.518,4.328,3.043,6.399,4.693c0.494,0.393,0.961,0.816,1.438,1.229
	c-0.377,0.852-0.223,1.683,0.257,2.336c-0.269,0.415-0.464,0.876-0.516,1.353c-0.158,1.443-0.072,2.829,0.043,4.207
	c-2.374-2.396-5.161-4.464-7.717-6.577c-2.079-1.718-4.198-3.387-6.326-5.045C134.019,17.981,135.043,17.946,136.119,17.999z
	 M129.042,18.71c2.671,2.224,5.345,4.444,7.962,6.733c3.432,3.001,6.479,6.64,10.213,9.259c-0.056,0.655-0.142,1.317-0.313,1.998
	c-0.348,1.384-0.889,2.633-1.512,3.826c-3.578-3.341-8.397-5.969-12.171-8.903c-3.962-3.081-7.86-6.245-11.778-9.381
	C123.738,20.652,126.249,19.435,129.042,18.71z M64.118,96.969c-5.535-5.79-7.026-12.398-5.911-19.096
	c9.969,7.714,19.053,16.396,28.5,24.746C78.473,106.027,71.12,104.294,64.118,96.969z M93.891,87.509
	c-2.707-3.728-7.796-6.788-11.1-9.487c-2.57-2.099-5.153-4.177-7.658-6.354c-0.874-0.76-1.704-1.564-2.557-2.347
	c-0.401-0.367-1.786-0.312-1.848-0.381c-0.349-0.388-1.07,0.016-0.891,0.518c-0.066,0.213-0.132,0.426-0.198,0.638
	c-0.249,0.589,0.078,1.273,0.452,1.71c3.321,3.887,7.646,7.163,11.559,10.424c3.465,2.887,7.147,6.964,11.265,8.885
	c0.009,0.004,0.018,0.004,0.027,0.008c-0.647,2.999-0.946,6.065-0.801,9.13c-0.405,0.017-0.821,0.12-1.244,0.309
	c-0.092-0.086-0.14-0.183-0.252-0.263c-11-7.787-20.968-16.927-31.956-24.706c0.598-2.376,1.497-4.752,2.647-7.097
	c5.577-0.567,10.713-1.64,15.556-3.379c2.279,3.002,6.188,5.283,9.084,7.485c2.404,1.827,4.821,3.637,7.25,5.431
	c1.152,0.85,2.415,1.937,3.843,2.181C95.769,82.538,94.701,84.986,93.891,87.509z M98.689,77.639
	c-0.689-1.025-1.991-1.728-2.939-2.404c-2.399-1.711-4.866-3.333-7.283-5.02c-2.923-2.041-5.81-4.26-8.864-6.132
	c3.362-1.424,6.584-3.21,9.712-5.435c3.11,2.211,6.17,4.488,9.178,6.843c2.066,1.618,4.134,3.36,6.357,4.81
	C102.506,72.474,100.459,74.964,98.689,77.639z M113.907,64.086c-2.2,1.058-4.272,2.368-6.217,3.851
	c-2.765-1.998-5.815-3.697-8.623-5.583c-2.586-1.736-5.162-3.481-7.783-5.157c1.01-0.789,2.017-1.593,3.01-2.483
	c1.422-1.274,2.749-2.716,4.04-4.222c3.099,3.133,6.548,5.849,10.035,8.551c1.887,1.462,3.725,3.234,5.632,4.879
	C113.976,63.98,113.93,64.027,113.907,64.086z M117.818,62.007c-0.273-0.1-0.523-0.083-0.78-0.102
	c-1.868-1.533-4.002-2.842-5.846-4.119c-4.013-2.78-7.992-5.534-11.736-8.66c6.68-8.255,12.075-18.769,19.799-25.241
	c4.307,3.801,8.59,7.628,12.946,11.373c3.285,2.824,6.891,6.534,10.885,8.672c-0.948,1.118-1.981,2.183-3.176,3.146
	c-0.523,0.421-0.729,0.945-0.734,1.476c-1.155-0.736-2.334-1.437-3.313-2.162c-3.487-2.583-6.882-5.288-10.269-7.999
	c-3.608-2.888-7.143-5.745-10.937-8.224c-0.908-0.593-1.759,0.687-1.104,1.431c3.192,3.621,6.836,6.788,10.559,9.994
	c3.093,2.663,6.22,5.288,9.396,7.851c1.593,1.285,3.499,3.199,5.499,4.353c0.054,0.05,0.092,0.106,0.151,0.153
	c8.719,7.009,13.582,14.868,15.978,24.762c-3.79-2.834-7.582-6.833-11.04-9.289c-12.468-8.86-25.789-18.187-35.935-29.693
	c-0.859-0.975-2.574,0.33-1.809,1.395c4.788,6.666,10.67,12.127,16.938,17.389c5.613,4.712,11.399,10.747,17.625,14.566
	c3.966,2.433,10.07,10.699,15.444,12.269c0.045,0.351,0.114,0.677,0.154,1.033c0.69,6.128-1.118,15.757,3.26,20.643
	c-0.346,1.296,0.158,2.723,1.7,3.127c5.876,1.541,6.253,7.396,5.409,13.196c-0.044-0.106-0.053-0.213-0.118-0.317
	c-6.4-10.222-17.446-17.974-27.366-24.49c-0.02-0.013-0.04-0.012-0.06-0.024c1.428-3.476,0.714-8.186-0.553-12.449
	c2.107,1.955,4.144,3.988,6.122,6.078c2.977,3.145,5.637,8.167,9.641,9.976c1.415,0.64,2.666-0.641,2.046-2.046
	c-1.902-4.31-7.373-7.787-10.743-11.032c-2.708-2.608-5.518-5.041-8.542-7.222c-0.422-1.073-0.843-2.09-1.229-2.95
	C132.537,70.978,125.877,64.958,117.818,62.007z M126.738,102.953c-0.335,0.671-0.159,1.599,0.793,1.943
	c5.422,1.958,10.242,8.525,14.029,13.263c-0.926-0.293-1.873-0.518-2.831-0.596c0.208-0.793-0.186-1.704-1.241-1.649
	c-1.369,0.072-2.658,0.355-3.901,0.728c-1.724-1.46-3.575-2.822-5.14-4.273c-2.57-2.383-4.904-4.99-7.093-7.722
	C123.119,103.959,124.928,103.421,126.738,102.953z M130.462,124.535c0.35-0.479,0.716-0.949,1.112-1.394
	c0.291,0.305,0.655,0.562,1.123,0.712c3.211,1.026,9.04-0.616,10.434,3.585c1.001,3.017-0.736,6.752-2.634,9.037
	c-2.157,2.597-5.2,4.053-8.336,2.279c-5.086-2.877-5.259-7.56-3.206-11.753C130.298,127.28,131.301,125.727,130.462,124.535z
	 M118.54,105.863c2.327,3.118,4.861,6.051,7.54,8.874c1.114,1.173,2.29,2.471,3.542,3.702c-1.111,0.694-2.161,1.465-3.061,2.383
	c-1.866-1.514-3.828-2.945-5.59-4.499c-2.66-2.347-5.077-4.933-7.152-7.799C115.296,107.524,116.89,106.648,118.54,105.863z
	 M111.485,110.229c1.844,2.729,3.908,5.27,6.234,7.631c1.993,2.023,4.179,4.185,6.511,6.066c-1.35,2.278-2.171,4.85-2.202,7.537
	c-4.818-5.963-9.309-12.173-13.057-18.861C109.739,111.76,110.587,110.974,111.485,110.229z M36.748,137.645
	c0.27-3.23,0.746-6.424,1.103-9.647c0.573,0.128,1.166,0.207,1.765,0.268c1.058,1.993,2.312,3.872,3.729,5.687
	c1.105,1.415,2.31,2.905,3.648,4.244C43.574,138.128,40.154,137.927,36.748,137.645z M57.033,137.962
	c-1.623,0.117-3.25,0.188-4.877,0.226c-1.686-1.676-3.682-3.072-5.407-4.705c-1.609-1.524-2.988-3.226-4.22-5.033
	c0.531,0.026,1.061,0.055,1.581,0.101c3.336,0.29,6.67,0.574,10.004,0.843c1.336,2.106,2.769,4.14,4.33,6.101
	c0.53,0.666,1.093,1.39,1.699,2.081C59.103,137.74,58.064,137.888,57.033,137.962z M64.641,136.877
	c-1.235-1.281-2.634-2.439-3.85-3.73c-1.063-1.127-2.093-2.297-3.096-3.489c2.846,0.215,5.693,0.43,8.545,0.594
	c0.405,0.023,0.842,0.056,1.278,0.087c1.569,2.368,3.144,4.732,4.777,7.066C69.836,136.475,67.256,136.541,64.641,136.877z
	 M36.091,187.4c1.796-2.135,3.625-4.243,5.46-6.345c1.594,2.056,3.148,4.144,4.689,6.24c0.026,0.035,0.053,0.076,0.079,0.112
	C42.911,187.413,39.502,187.445,36.091,187.4z M50.356,187.411c-0.909-0.952-1.807-1.895-2.591-2.843
	c-1.507-1.823-3.039-3.601-4.621-5.334c1.612-1.841,3.213-3.688,4.811-5.538c2.919,3.715,6.018,7.251,9.32,10.638
	c0.812,0.833,1.712,1.876,2.669,2.943C56.748,187.33,53.553,187.389,50.356,187.411z M65.656,187.182
	c-0.204-0.156-0.41-0.309-0.609-0.471c-1.856-1.517-3.632-3.132-5.39-4.759c-3.492-3.232-6.739-6.809-9.837-10.423
	c1.535-1.803,3.027-3.639,4.512-5.481c-0.268,0.459-0.22,1.102,0.374,1.531c-0.667-0.482,0.391,0.74,0.71,1.039
	c1.063,0.997,2.058,2.077,3.087,3.109c2.764,2.774,5.454,5.62,8.219,8.393c1.695,1.701,3.92,4.453,6.377,6.857
	C70.618,187.043,68.137,187.128,65.656,187.182z M80.594,186.771c-4.189-3.714-8.504-7.324-12.603-11.175
	c-2.708-2.545-5.454-5.056-8.242-7.514c-0.774-0.683-1.613-1.303-2.44-1.921c-0.697-0.521-1.58-0.598-1.459-0.543
	c-0.656-0.301-1.227-0.038-1.501,0.407c0.428-0.532,0.88-1.045,1.301-1.581c0.285,0.157,0.596,0.295,0.965,0.38
	c3.785,0.884,7.669,1.83,11.568,2.295c0.035,0.057,0.054,0.116,0.103,0.172c3.684,4.147,7.587,8.104,11.411,12.122
	c1.902,1.999,3.903,5.094,6.261,7.186C84.171,186.655,82.383,186.717,80.594,186.771z M105.958,185.957
	c-5.053,0.167-10.105,0.325-15.158,0.486c-1.371-3.66-6.231-6.573-9.005-9.128c-3.558-3.277-6.993-6.683-10.558-9.952
	c0.162,0.007,0.323,0.034,0.484,0.039c1.915,0.057,3.568-1.656,3.545-3.545c-0.033-2.793-0.056-5.564-0.107-8.326
	c3.122,4.407,6.454,8.681,9.775,12.926c4.163,5.32,8.752,12.729,14.658,16.126c1.576,0.907,3.313-0.885,2.447-2.446
	c-3.003-5.409-8.749-9.827-12.836-14.525c-4.89-5.623-9.406-11.555-14.222-17.234c-0.196-3.712-0.565-7.405-1.334-11.088
	c5.859,8.27,12.025,16.362,18.205,24.322c4.791,6.169,10.934,16.533,18.278,22.163C108.733,185.841,107.328,185.912,105.958,185.957
	z M118.133,185.355c-6.902-8.805-15.633-16.513-22.771-25.254c-7.971-9.76-15.485-20.249-24.172-29.465
	c3.286,0.282,7.025,0.587,10.755,0.64c5.048,10.601,11.546,20.43,18.39,29.964c5.826,8.115,12.044,17.129,19.589,24.01
	C119.328,185.286,118.726,185.321,118.133,185.355z M154.312,179.153c1.76,2.172,3.678,4.23,5.699,6.181
	c-6.989-0.919-14.262-1.056-21.566-0.902c0.015-0.394-0.053-0.797-0.338-1.184c-13.091-17.876-27.659-35.115-41.938-52.058
	c-1.192-1.415-3.635,0.466-2.565,1.979c12.428,17.584,26.095,34.684,39.691,51.395c-2.489,0.098-4.978,0.213-7.452,0.349
	c-6.625-9.012-14.759-17.052-21.559-25.98c-6.769-8.889-12.937-18.203-18.799-27.707c5.509-0.218,10.68-1.218,13.947-4.054
	c0.313-0.271,0.505-0.619,0.607-0.991c0.683,1.354,2.525,1.598,3.376,0.633c8.289,9.896,16.017,20.232,23.75,30.568
	c6.105,8.161,12.633,19.565,21.537,24.835c1.826,1.081,4.348-1.157,3.034-3.034c-6.065-8.662-14.466-16.18-21.227-24.381
	c-8.763-10.631-17.125-21.642-26.492-31.756c0.387-3.249,1.633-6.089,3.434-8.575c3.837,7.808,8.603,15.048,13.956,21.972
	c7.205,9.319,14.791,20.618,23.941,28.159c-0.236,0.765-0.099,1.623,0.398,2.164C147.225,171.327,151.361,175.512,154.312,179.153z
	 M147.915,161.935c-3.369-5.85-8.359-11.039-13.224-16.093c2.627,0.11,5.317-0.609,7.706-2.333c0.743-0.537,1.436-1.165,2.102-1.829
	c-0.093,0.374-0.039,0.791,0.299,1.167c1.472,1.641,2.763,3.421,4.067,5.196c1.211,1.649,2.451,3.836,4.25,4.879
	c1.429,0.828,2.983-0.803,2.211-2.211c-0.937-1.71-2.692-3.117-3.976-4.585c-1.529-1.747-3.036-3.509-4.728-5.102
	c-0.388-0.365-0.82-0.416-1.202-0.306c2.891-3.333,4.737-7.786,4.555-12.145c2.949,3.728,5.896,7.456,9.007,11.051
	c2.161,2.497,5.681-1.109,3.598-3.598c-5.824-6.961-11.683-13.88-17.842-20.551c-4.187-4.534-9.567-11.411-15.911-13.053
	c2.499-0.531,4.968-0.851,7.291-0.964c0.998-0.048,1.731-0.454,2.259-1.022c9.519,7.567,17.128,16.008,24.983,25.218
	c0.95,1.114,2.396,0.703,3.17-0.234c-0.371,1.978-0.824,3.89-1.189,5.548C162.706,142.959,157.377,154.119,147.915,161.935z"/>
</svg>
