<?xml version="1.0" encoding="utf-8"?>
<!-- Generator: Adobe Illustrator 16.0.0, SVG Export Plug-In . SVG Version: 6.00 Build 0)  -->
<!DOCTYPE svg PUBLIC "-//W3C//DTD SVG 1.1//EN" "http://www.w3.org/Graphics/SVG/1.1/DTD/svg11.dtd">
<svg version="1.1" id="Layer_1" xmlns="http://www.w3.org/2000/svg" xmlns:xlink="http://www.w3.org/1999/xlink" x="0px" y="0px"
	 width="50px" height="50px" viewBox="0 0 50 50" enable-background="new 0 0 50 50" xml:space="preserve">
<path d="M30.279,41.086c7.37-1.493,12.936-8.025,12.936-15.823c0-6.462-3.833-12.004-9.325-14.588c-0.193-0.687-0.536-1.326-1-1.888
	l2.772-4.789l1.564,0.903l0.738-1.288L31.707,0l-0.747,1.289l1.564,0.903L29.761,6.98c-2.075-0.347-4.242,0.581-5.35,2.51
	l-6.444,11.159l-3.338-1.927l-1.575,2.738l1.765,1.022l-1.121,1.935l2.44,1.41l1.12-1.933l2.398,1.379l-1.574,2.737l2.43,1.412
	l1.583-2.738l6.61,3.813l1.583-2.738l-3.337-1.925l6.445-11.159c0.342-0.593,0.543-1.228,0.637-1.874
	c4.374,2.462,7.373,7.095,7.373,12.464c0,7.909-6.429,14.338-14.338,14.338c-3.485,0-6.739-1.271-9.321-3.494h9.371V33.4H9.038
	v2.708h6.097c2.46,2.709,5.694,4.467,9.257,5.055l-5.674,6.128H6.785V50h36.43v-2.708H30.279V41.086z"/>
</svg>
