<?xml version="1.0" encoding="utf-8"?>
<!-- Generator: Adobe Illustrator 17.0.0, SVG Export Plug-In . SVG Version: 6.00 Build 0)  -->
<!DOCTYPE svg PUBLIC "-//W3C//DTD SVG 1.1//EN" "http://www.w3.org/Graphics/SVG/1.1/DTD/svg11.dtd">
<svg version="1.1" id="Layer_1" xmlns="http://www.w3.org/2000/svg" xmlns:xlink="http://www.w3.org/1999/xlink" x="0px" y="0px"
	 width="32px" height="32px" viewBox="0 0 32 32" enable-background="new 0 0 32 32" xml:space="preserve">
<g>
	<path d="M28.876,28.564l-21.798,0.03C5.392,21.471,7.468,17.755,9.325,16c0.514,0.322,1.116,0.518,1.768,0.518
		c0.947,0,1.798-0.398,2.406-1.032l3.649,3.65l0.957-0.958l4.354,4.354l4.627-4.626l-4.354-4.354l0.959-0.957L11.724,0.626
		L5.182,7.169l3.6,3.599c-0.632,0.608-1.029,1.46-1.029,2.406c0,0.128,0.023,0.249,0.038,0.373
		c-2.505,2.137-5.479,6.57-3.673,15.018H3.855c-0.8,0-1.448,0.648-1.448,1.449c0,0.799,0.648,1.447,1.448,1.447h25.021
		c0.8,0,1.448-0.648,1.448-1.447C30.324,29.213,29.676,28.564,28.876,28.564z M22.46,19.801l-2.987-2.986l1.896-1.897l2.986,2.989
		L22.46,19.801z M7.912,7.169l3.812-3.813l9.236,9.237l-3.812,3.813l-2.76-2.76c0.022-0.155,0.048-0.311,0.048-0.472
		c0-1.846-1.497-3.342-3.344-3.342c-0.161,0-0.314,0.025-0.47,0.047L7.912,7.169z"/>
	<rect x="21.072" y="23.77" width="7.804" height="3.619"/>
</g>
</svg>
