<?xml version="1.0" encoding="utf-8"?>
<!-- Generator: Adobe Illustrator 17.0.0, SVG Export Plug-In . SVG Version: 6.00 Build 0)  -->
<!DOCTYPE svg PUBLIC "-//W3C//DTD SVG 1.1//EN" "http://www.w3.org/Graphics/SVG/1.1/DTD/svg11.dtd">
<svg version="1.1" id="Capa_1" xmlns="http://www.w3.org/2000/svg" xmlns:xlink="http://www.w3.org/1999/xlink" x="0px" y="0px"
	 width="200px" height="200px" viewBox="0 0 200 200" enable-background="new 0 0 200 200" xml:space="preserve">
<path d="M170.351,126.701c-18.756,0.103-37.413,1.162-56.027,3.496c-1.536,0.193-3.129,0.95-3.48,2.649
	c-0.85,4.112-0.319,7.993-0.064,12.165c0.15,2.469,2.135,3.804,4.486,3.418c4.488-0.737,8.928-1.361,13.415-1.506
	c-16.108,24.758-51.213,3.739-67.173-13.083c-31.183-32.866,13.48-65.345,41.618-77.724c10.778,29.637,29.228,59.36,45.003,44.486
	c14.196-13.384-2.952-45.161-9.39-58.251c-5.642-11.47-22.919-45.81-40.81-36.052c-1.53,0.834-1.977,2.225-1.73,3.527
	c-0.73,0.071-1.425,0.489-1.66,1.331c-1.012,3.616-0.57,10.116,0.955,18.032c-0.738,0.383-1.467,0.781-2.19,1.187
	c-3.654,1.747-7.163,3.834-10.514,6.154c-19.093,3.917-38.872,29.253-46.268,42.23c-17.337,30.422-1.893,65.573,26.764,81.546
	c0.552,0.308,1.084,0.422,1.595,0.442c0.303,0.49,0.611,0.978,0.996,1.435c0.53,0.63,1.166,1.161,1.846,1.631
	c-4.99,0.674-10.189,2.959-14.001,4.812c-7.928,3.855-14.792,10.727-16.889,19.421c-0.144,0.599-0.041,1.141,0.182,1.614
	c-0.066,1.031,0.431,2.107,1.617,2.409c37.067,9.435,78.031,0.14,116.031,2.342c1.065,0.062,1.857-0.359,2.421-0.984
	c1.449-0.097,2.88-0.43,3.996-1.331c2.039-1.647,1.908-3.986,0.89-6.155c-0.363-0.774-0.959-1.212-1.627-1.429
	c0.012-0.354,0.029-0.71-0.074-1.08c-2.028-7.35-9.273-12.088-15.67-15.376c-3.269-1.68-6.705-2.795-10.317-3.443
	c-0.356-0.064-0.764-0.13-1.19-0.188c0.073-0.037,0.166-0.082,0.22-0.111c6.492-3.486,16.305-10.548,18.775-18.226
	c6.1-0.406,12.172-1.07,18.264-1.819c2.025-0.249,3.737-1.513,3.74-3.74c0.004-3.362,0.006-6.723,0.003-10.085
	C174.092,128.412,172.393,126.69,170.351,126.701z"/>
</svg>
