<?xml version="1.0" encoding="iso-8859-1"?>
<!-- Generator: Adobe Illustrator 16.0.0, SVG Export Plug-In . SVG Version: 6.00 Build 0)  -->
<!DOCTYPE svg PUBLIC "-//W3C//DTD SVG 1.1//EN" "http://www.w3.org/Graphics/SVG/1.1/DTD/svg11.dtd">
<svg version="1.1" id="Layer_1" xmlns="http://www.w3.org/2000/svg" xmlns:xlink="http://www.w3.org/1999/xlink" x="0px" y="0px"
	 width="33.056px" height="43.459px" viewBox="0 0 33.056 43.459" style="enable-background:new 0 0 33.056 43.459;"
	 xml:space="preserve">
<path d="M22.765,39.125v-4.833h4.104v-1.75H15.411v1.75h4.104v4.833h-7.125c-2.883-3.71-8.809-13.12-7.087-19.471
	c1.649-6.083,8.487-5.013,10.396-4.591v8.005h4.244v-1.272h2.945v-1.688h2.944V3.892h-2.817V2.5h2.167V0h-8.833v2.5h2.417v1.392
	h-3.066V9.89c-1.078-0.192-3.08-0.421-5.476-0.084c-4.982,0.703-8.443,3.736-9.746,8.54C-1.5,25.634,3.112,34.311,6.271,39.125
	H2.889v4.333h30.167v-4.333H22.765z M24.531,15l-7.534,2.703v-2.136l7.534-2.704V15z M21.489,20.497h-1.547v-2.469l1.547-0.555
	V20.497z M18.642,21.77h-1.645v-2.685l1.645-0.59v2.002v0.65V21.77z M22.789,18.809v-1.803l1.742-0.625v2.428H22.789z M18.764,5.191
	v0.517h4.25V5.191h1.517v6.291l-7.534,2.704V5.191H18.764z"/>
<g>
</g>
<g>
</g>
<g>
</g>
<g>
</g>
<g>
</g>
<g>
</g>
<g>
</g>
<g>
</g>
<g>
</g>
<g>
</g>
<g>
</g>
<g>
</g>
<g>
</g>
<g>
</g>
<g>
</g>
</svg>
