<?xml version="1.0" encoding="iso-8859-1"?>
<!-- Generator: Adobe Illustrator 16.0.0, SVG Export Plug-In . SVG Version: 6.00 Build 0)  -->
<!DOCTYPE svg PUBLIC "-//W3C//DTD SVG 1.1//EN" "http://www.w3.org/Graphics/SVG/1.1/DTD/svg11.dtd">
<svg version="1.1" id="Layer_1" xmlns="http://www.w3.org/2000/svg" xmlns:xlink="http://www.w3.org/1999/xlink" x="0px" y="0px"
	 width="42.375px" height="44.688px" viewBox="0 0 42.375 44.688" style="enable-background:new 0 0 42.375 44.688;"
	 xml:space="preserve">
<path d="M39.438,28.395V7.516c1.361-0.62,2.313-1.984,2.313-3.578C41.75,1.763,39.987,0,37.813,0c-1.827,0-3.349,1.25-3.793,2.938
	H21.168C20.724,1.25,19.202,0,17.375,0c-2.175,0-3.938,1.763-3.938,3.938c0,0.709,0.202,1.364,0.53,1.939l-7.18,5.73
	c-0.718-0.756-1.726-1.232-2.85-1.232C1.763,10.375,0,12.138,0,14.313c0,1.827,1.25,3.349,2.938,3.793v18.852
	C1.25,37.401,0,38.923,0,40.75c0,2.175,1.763,3.938,3.938,3.938c1.467,0,2.731-0.811,3.408-2h13.496c0.677,1.189,1.941,2,3.408,2
	c2.175,0,3.938-1.763,3.938-3.938c0-0.131-0.026-0.255-0.039-0.383l7.292-5.653c0.723,0.856,1.79,1.411,2.997,1.411
	c2.175,0,3.938-1.763,3.938-3.938C42.375,30.36,41.125,28.839,39.438,28.395z M4.938,36.957V18.105
	c1.366-0.359,2.434-1.427,2.793-2.793h12.726c0.36,1.366,1.427,2.434,2.793,2.793v18.852c-1.667,0.439-2.902,1.932-2.931,3.73H7.869
	C7.84,38.889,6.605,37.396,4.938,36.957z M15.375,7.312c0.588,0.35,1.267,0.563,2,0.563c1.827,0,3.349-1.25,3.793-2.938h12.851
	c0.053,0.203,0.113,0.402,0.197,0.591l-7.347,5.863c-0.697-0.625-1.609-1.017-2.619-1.017c-1.827,0-3.349,1.25-3.793,2.938H7.856
	L15.375,7.312z M27.404,38.414c-0.525-0.708-1.278-1.227-2.154-1.457V18.105c1.688-0.444,2.938-1.966,2.938-3.793
	c0-0.418-0.083-0.813-0.204-1.191l7.63-5.917c0.529,0.356,1.154,0.569,1.823,0.633v20.558C35.75,28.839,34.5,30.36,34.5,32.188
	c0,0.23,0.03,0.453,0.068,0.672L27.404,38.414z"/>
<g>
</g>
<g>
</g>
<g>
</g>
<g>
</g>
<g>
</g>
<g>
</g>
<g>
</g>
<g>
</g>
<g>
</g>
<g>
</g>
<g>
</g>
<g>
</g>
<g>
</g>
<g>
</g>
<g>
</g>
</svg>
