<?xml version="1.0" encoding="utf-8"?>
<!-- Generator: Adobe Illustrator 16.0.4, SVG Export Plug-In . SVG Version: 6.00 Build 0)  -->
<!DOCTYPE svg PUBLIC "-//W3C//DTD SVG 1.1//EN" "http://www.w3.org/Graphics/SVG/1.1/DTD/svg11.dtd">
<svg version="1.1" id="Layer_1" xmlns="http://www.w3.org/2000/svg" xmlns:xlink="http://www.w3.org/1999/xlink" x="0px" y="0px"
	 width="50px" height="50px" viewBox="0 0 50 50" enable-background="new 0 0 50 50" xml:space="preserve">
<path d="M31.854,25.431c0.009-0.144,0.021-0.287,0.021-0.433c0-0.197-0.012-0.392-0.027-0.586l0.088,0.096
	c1.454-1.343,3.748-3.833,2.781-5.421c-0.585-0.962-2.13-1.146-4.469-0.531c-0.547,0.145-1.125,0.329-1.722,0.549
	c-1.055-0.635-2.263-0.979-3.526-0.979c-1.293,0-2.499,0.365-3.533,0.989c-2.904-1.063-5.397-1.317-6.185-0.025
	c-0.969,1.598,1.319,4.082,2.865,5.496c-0.008,0.139-0.021,0.275-0.021,0.416c0,0.146,0.013,0.288,0.022,0.432
	c-2.279,2.092-3.65,4.188-2.865,5.48c0.398,0.654,1.185,0.891,2.108,0.891c1.331,0,2.936-0.486,4.087-0.91
	c1.032,0.619,2.233,0.981,3.521,0.981c1.287,0,2.488-0.362,3.521-0.979c1.124,0.412,2.748,0.905,4.089,0.905
	c0.923,0,1.712-0.233,2.11-0.89C35.505,29.617,34.133,27.521,31.854,25.431z M30.854,24.563c-1.184-0.978-2.524-1.929-3.904-2.768
	c-0.29-0.176-0.583-0.349-0.879-0.518c0.804-0.402,1.589-0.756,2.346-1.053C29.792,21.215,30.724,22.778,30.854,24.563z
	 M30.503,19.522c2.104-0.549,3.117-0.316,3.361,0.084c0.318,0.522-0.266,1.875-2.19,3.761c-0.294-1.211-0.907-2.325-1.812-3.229
	c-0.108-0.107-0.224-0.207-0.338-0.307C29.854,19.724,30.192,19.603,30.503,19.522z M25.003,19.124c0.82,0,1.602,0.17,2.312,0.477
	c-0.757,0.321-1.528,0.678-2.318,1.094c-0.77-0.402-1.544-0.771-2.306-1.094C23.4,19.295,24.182,19.124,25.003,19.124z
	 M16.138,19.606c0.354-0.576,1.968-0.569,4.356,0.215c-1.053,0.919-1.822,2.15-2.164,3.551
	C16.414,21.494,15.826,20.121,16.138,19.606z M21.6,20.22c0.733,0.285,1.524,0.641,2.359,1.062
	c-0.303,0.173-0.605,0.332-0.908,0.517c-1.379,0.84-2.721,1.791-3.903,2.77C19.281,22.772,20.217,21.205,21.6,20.22z M16.139,30.394
	c-0.352-0.578,0.396-2.01,2.19-3.77c0.341,1.398,1.109,2.631,2.162,3.55C17.94,31.013,16.45,30.905,16.139,30.394z M19.191,25.822
	c1.15-1.011,2.609-2.095,4.38-3.173c0.48-0.291,0.959-0.557,1.437-0.817c0.464,0.255,0.937,0.522,1.423,0.817
	c1.771,1.078,3.229,2.162,4.381,3.17c-0.402,2.853-2.852,5.055-5.812,5.055S19.593,28.673,19.191,25.822z M33.864,30.392
	c-0.308,0.508-1.802,0.619-4.35-0.22c1.052-0.919,1.818-2.149,2.159-3.55C33.468,28.381,34.216,29.812,33.864,30.392z"/>
</svg>
