<?xml version="1.0" encoding="iso-8859-1"?>
<!-- Generator: Adobe Illustrator 16.0.0, SVG Export Plug-In . SVG Version: 6.00 Build 0)  -->
<!DOCTYPE svg PUBLIC "-//W3C//DTD SVG 1.1//EN" "http://www.w3.org/Graphics/SVG/1.1/DTD/svg11.dtd">
<svg version="1.1" id="Layer_1" xmlns="http://www.w3.org/2000/svg" xmlns:xlink="http://www.w3.org/1999/xlink" x="0px" y="0px"
	 width="48.362px" height="47.356px" viewBox="0 0 48.362 47.356" style="enable-background:new 0 0 48.362 47.356;"
	 xml:space="preserve">
<path d="M46.287,34.86l-0.059-4.936c1.218-0.595,2.076-1.828,2.096-3.265c0.014-0.988-0.359-1.923-1.049-2.632
	c-0.69-0.708-1.614-1.105-2.649-1.118c-1.108,0-2.099,0.507-2.779,1.29l-4.045-2.325c0.153-0.607,0.166-1.243-0.002-1.864
	c-0.182-0.672-0.548-1.259-1.043-1.724c0.02,0.004,0.034,0.012,0.054,0.015c-0.288-0.287-0.618-0.534-0.989-0.717l-0.059-4.936
	c1.218-0.595,2.076-1.828,2.096-3.265c0.014-0.988-0.359-1.923-1.049-2.632c-0.69-0.708-1.614-1.105-2.649-1.118
	c-1.108,0-2.099,0.507-2.779,1.29L27.336,4.6c0.153-0.607,0.166-1.243-0.002-1.864c-0.258-0.955-0.872-1.752-1.729-2.244
	C25.045,0.17,24.408,0,23.765,0c-1.322,0-2.553,0.711-3.211,1.856c-0.326,0.567-0.467,1.185-0.474,1.796l-4.213,2.389
	c-0.614-0.443-1.351-0.694-2.16-0.704c-1.108,0-2.338,0.642-2.777,1.29c-0.303,0.408-1.232,1.192-0.936,3.161
	s1.761,2.476,2.545,2.739l0.074,4.557c-0.021,0.007-0.039,0.018-0.06,0.024l0.164,0.03c-0.895,0.269-1.673,0.866-2.148,1.695
	c-0.325,0.566-0.467,1.184-0.474,1.796l-4.354,2.468c-0.6-0.397-1.309-0.627-2.047-0.627c-0.669,0-1.326,0.182-1.904,0.528
	c-1.747,1.053-2.313,3.331-1.264,5.077c0.463,0.771,1.194,1.33,2.03,1.604l0.076,4.642c-0.782,0.302-1.456,0.858-1.884,1.604
	c-0.493,0.857-0.622,1.854-0.364,2.81c0.258,0.954,0.872,1.751,1.729,2.243c0.561,0.322,1.197,0.492,1.841,0.492
	c0.807,0,1.576-0.268,2.205-0.733l4.226,2.427c-0.02,0.385,0.005,0.774,0.108,1.157c0.258,0.955,0.872,1.751,1.729,2.243
	c0.561,0.322,1.197,0.493,1.842,0.493c1.322,0,2.552-0.712,3.21-1.857c0.419-0.729,0.547-1.542,0.444-2.319l4.044-2.271
	c0.643,0.572,1.475,0.938,2.399,0.949h0.055c0.787,0,1.516-0.257,2.118-0.684l4.501,2.586c-0.02,0.386,0.005,0.774,0.108,1.158
	c0.258,0.955,0.873,1.751,1.729,2.242c0.561,0.322,1.198,0.493,1.842,0.493c1.322,0,2.552-0.712,3.21-1.856
	c0.42-0.73,0.547-1.543,0.444-2.32l4.043-2.271c0.665,0.594,1.502,0.938,2.401,0.949h0.055c2.011,0,3.668-1.637,3.694-3.649
	C48.381,36.745,47.535,35.476,46.287,34.86z M44.646,24.91L44.646,24.91c0.454,0.006,0.879,0.188,1.196,0.514
	c0.316,0.326,0.487,0.755,0.481,1.209c-0.013,0.925-0.774,1.677-1.698,1.677v0.94h-0.001l-0.021-0.94
	c-0.937-0.013-1.689-0.786-1.679-1.723C42.938,25.662,43.7,24.91,44.646,24.91z M35.703,21.822c-0.45,0.781-1.531,1.08-2.322,0.627
	c-0.813-0.467-1.094-1.508-0.627-2.321c0.302-0.526,0.868-0.853,1.477-0.853c0.295,0,0.586,0.078,0.844,0.226
	c0.395,0.227,0.677,0.593,0.795,1.031C35.988,20.971,35.929,21.429,35.703,21.822z M34.181,7.635L34.181,7.635
	c0.454,0.006,0.879,0.188,1.196,0.514c0.316,0.326,0.487,0.755,0.481,1.209c-0.013,0.925-0.774,1.677-1.698,1.677h-0.022
	c-0.937-0.013-1.689-0.786-1.679-1.723C32.472,8.387,33.234,7.635,34.181,7.635z M22.288,2.853C22.59,2.326,23.156,2,23.765,2
	c0.295,0,0.586,0.078,0.844,0.226c0.395,0.227,0.677,0.593,0.795,1.031c0.119,0.438,0.06,0.896-0.166,1.29
	c-0.45,0.781-1.531,1.08-2.322,0.627C22.103,4.707,21.821,3.666,22.288,2.853z M12.009,9.013c0.013-0.924,0.774-1.676,1.721-1.676
	h0.001c0.454,0.006,0.879,0.188,1.196,0.514c0.316,0.325,0.487,0.755,0.481,1.209c-0.013,0.925-0.774,1.677-1.698,1.677h-0.022
	C12.75,10.724,11.997,9.95,12.009,9.013z M15.37,17.287l-0.059-4.935c1.219-0.595,2.077-1.828,2.097-3.266
	c0.007-0.51-0.093-1.004-0.281-1.461l3.505-1.987c0.313,0.507,0.736,0.953,1.287,1.27C22.479,7.23,23.117,7.4,23.761,7.4
	c0.979,0,1.906-0.392,2.59-1.061l4.171,2.397c-0.029,0.181-0.06,0.361-0.063,0.549c-0.023,1.92,1.436,3.506,3.308,3.708l0.071,4.304
	c0.004,0.001,0.007,0.002,0.011,0.003c-1.173,0.123-2.235,0.797-2.829,1.831c-0.326,0.567-0.467,1.185-0.474,1.796l-4.213,2.389
	c-0.614-0.443-1.351-0.694-2.16-0.704c-1.108,0-2.098,0.507-2.777,1.29l-4.044-2.325c0.153-0.607,0.166-1.243-0.002-1.865
	c-0.219-0.806-0.701-1.486-1.358-1.979l0.085,0.016C15.858,17.572,15.626,17.413,15.37,17.287z M25.874,26.335
	c-0.013,0.925-0.774,1.677-1.698,1.677v0.94h-0.001l-0.021-0.94c-0.938-0.013-1.69-0.786-1.679-1.724
	c0.013-0.924,0.774-1.676,1.721-1.676h0.001c0.454,0.006,0.879,0.188,1.196,0.514C25.709,25.451,25.88,25.881,25.874,26.335z
	 M12.304,19.83c0.302-0.526,0.868-0.854,1.477-0.854c0.294,0,0.585,0.078,0.843,0.227c0.395,0.227,0.677,0.593,0.796,1.031
	c0.118,0.438,0.06,0.896-0.167,1.29c-0.45,0.781-1.531,1.081-2.322,0.627C12.118,21.685,11.837,20.644,12.304,19.83z M2.242,27.046
	c-0.483-0.803-0.222-1.85,0.58-2.333c0.265-0.158,0.566-0.242,0.873-0.242c0.604,0,1.15,0.308,1.46,0.824
	c0.234,0.389,0.303,0.846,0.193,1.287c-0.11,0.44-0.385,0.812-0.773,1.046C3.789,28.101,2.708,27.826,2.242,27.046z M5.431,38.618
	c-0.449,0.781-1.532,1.081-2.32,0.627c-0.394-0.226-0.675-0.592-0.794-1.03c-0.118-0.438-0.059-0.896,0.168-1.292
	c0.302-0.525,0.867-0.853,1.476-0.853c0.294,0,0.586,0.078,0.844,0.227C5.616,36.764,5.897,37.806,5.431,38.618z M15.54,44.205
	c-0.449,0.781-1.527,1.08-2.321,0.626c-0.394-0.227-0.676-0.592-0.794-1.03c-0.119-0.438-0.06-0.896,0.167-1.29
	c0.302-0.526,0.868-0.854,1.477-0.854c0.295,0,0.588,0.078,0.844,0.225C15.725,42.351,16.007,43.393,15.54,44.205z M20.513,37.813
	c-0.005,0.388,0.067,0.756,0.174,1.109l-3.757,2.109c-0.278-0.344-0.615-0.649-1.021-0.884c-0.561-0.32-1.196-0.49-1.84-0.49
	c-1.21,0-2.338,0.601-3.025,1.579l-3.662-2.104c0.668-1.681,0.032-3.644-1.581-4.57c-0.363-0.208-0.761-0.346-1.169-0.423
	L4.56,29.763c0.366-0.088,0.72-0.225,1.046-0.421c0.847-0.509,1.444-1.317,1.684-2.276c0.204-0.818,0.109-1.656-0.234-2.412
	l3.593-2.037c0.312,0.507,0.735,0.953,1.286,1.27c0.561,0.322,1.198,0.492,1.842,0.492c0.979,0,1.906-0.392,2.59-1.061l4.172,2.398
	c-0.029,0.18-0.06,0.359-0.063,0.546c-0.021,1.646,1.049,3.042,2.53,3.541l0.074,4.557C21.614,34.838,20.534,36.196,20.513,37.813z
	 M24.217,39.561v1l-0.027-1c-0.937-0.012-1.689-0.785-1.677-1.723c0.012-0.924,0.774-1.676,1.722-1.676
	c0.938,0.013,1.69,0.785,1.678,1.723C25.9,38.809,25.14,39.561,24.217,39.561z M35.99,44.504c-0.448,0.779-1.525,1.082-2.321,0.624
	c-0.394-0.225-0.676-0.591-0.794-1.029c-0.119-0.438-0.06-0.896,0.167-1.289c0.303-0.526,0.868-0.854,1.477-0.854
	c0.295,0,0.587,0.078,0.844,0.226C36.176,42.649,36.457,43.691,35.99,44.504z M40.963,38.111c-0.005,0.383,0.064,0.753,0.172,1.109
	l-3.756,2.108c-0.278-0.344-0.614-0.648-1.021-0.882c-0.56-0.321-1.196-0.491-1.84-0.491c-1.21,0-2.337,0.601-3.024,1.578
	l-3.88-2.229c0.185-0.431,0.291-0.901,0.298-1.396c0.019-1.464-0.828-2.732-2.076-3.348l-0.059-4.935
	c1.219-0.595,2.077-1.828,2.097-3.266c0.007-0.51-0.093-1.004-0.281-1.461l3.505-1.987c0.313,0.507,0.736,0.953,1.287,1.27
	c0.561,0.322,1.198,0.492,1.842,0.492c0.979,0,1.906-0.392,2.59-1.061l4.171,2.397c-0.029,0.181-0.06,0.361-0.063,0.549
	c-0.023,1.92,1.436,3.506,3.308,3.708l0.051,4.229C42.447,34.691,40.987,36.228,40.963,38.111z M44.668,39.858v1l-0.027-1
	c-0.454-0.006-0.879-0.188-1.196-0.514c-0.316-0.324-0.487-0.754-0.481-1.208c0.012-0.925,0.774-1.677,1.723-1.677
	c0.937,0.013,1.689,0.786,1.677,1.724C46.351,39.107,45.59,39.858,44.668,39.858z"/>
<g>
</g>
<g>
</g>
<g>
</g>
<g>
</g>
<g>
</g>
<g>
</g>
<g>
</g>
<g>
</g>
<g>
</g>
<g>
</g>
<g>
</g>
<g>
</g>
<g>
</g>
<g>
</g>
<g>
</g>
</svg>
