<?xml version="1.0" encoding="iso-8859-1"?>
<!-- Generator: Adobe Illustrator 16.0.0, SVG Export Plug-In . SVG Version: 6.00 Build 0)  -->
<!DOCTYPE svg PUBLIC "-//W3C//DTD SVG 1.1//EN" "http://www.w3.org/Graphics/SVG/1.1/DTD/svg11.dtd">
<svg version="1.1" id="Layer_1" xmlns="http://www.w3.org/2000/svg" xmlns:xlink="http://www.w3.org/1999/xlink" x="0px" y="0px"
	 width="43.715px" height="45.036px" viewBox="0 0 43.715 45.036" style="enable-background:new 0 0 43.715 45.036;"
	 xml:space="preserve">
<path d="M39.022,17.326c-2.233,0-4.101,1.572-4.57,3.667l-5.429-0.155c-0.187-1.322-0.854-2.565-1.955-3.429l3.166-7.002
	c0.411,0.104,0.834,0.174,1.276,0.174c2.917,0,5.29-2.374,5.29-5.291S34.428,0,31.511,0s-5.29,2.373-5.29,5.29
	c0,1.761,0.873,3.313,2.2,4.274l-3.129,6.92c-2.312-0.675-4.865,0.297-6.089,2.492c-0.392,0.702-0.589,1.455-0.64,2.208h-8.07
	c-0.424-2.496-2.587-4.408-5.203-4.408c-2.917,0-5.29,2.373-5.29,5.29s2.373,5.29,5.29,5.29c2.533,0,4.652-1.791,5.168-4.172h8.355
	c0.204,0.622,0.522,1.206,0.943,1.721l-7.647,11.026c-0.484-0.17-0.996-0.28-1.537-0.28c-2.587,0-4.691,2.105-4.691,4.692
	s2.104,4.692,4.691,4.692s4.692-2.105,4.692-4.692c0-1.324-0.557-2.518-1.443-3.372l7.482-10.789c1.175,0.634,2.48,0.768,3.69,0.489
	l4.535,7.605c-1.488,0.938-2.486,2.584-2.486,4.469c0,2.917,2.373,5.29,5.29,5.29s5.29-2.373,5.29-5.29s-2.373-5.291-5.29-5.291
	c-0.313,0-0.614,0.04-0.912,0.092l-4.587-7.692c0.635-0.443,1.192-1.019,1.595-1.741c0.229-0.411,0.376-0.842,0.486-1.277
	l5.521,0.158c0.45,2.12,2.334,3.717,4.586,3.717c2.587,0,4.692-2.105,4.692-4.692S41.609,17.326,39.022,17.326z M28.221,5.29
	c0-1.814,1.476-3.29,3.29-3.29s3.29,1.476,3.29,3.29s-1.476,3.291-3.29,3.291S28.221,7.104,28.221,5.29z M5.29,25.356
	c-1.814,0-3.29-1.476-3.29-3.29s1.476-3.29,3.29-3.29c1.815,0,3.292,1.476,3.292,3.29S7.105,25.356,5.29,25.356z M10.572,43.036
	c-1.484,0-2.691-1.208-2.691-2.692s1.207-2.692,2.691-2.692s2.692,1.208,2.692,2.692S12.057,43.036,10.572,43.036z M32.333,35.455
	c1.814,0,3.29,1.477,3.29,3.291s-1.476,3.29-3.29,3.29s-3.29-1.476-3.29-3.29S30.519,35.455,32.333,35.455z M39.022,24.711
	c-1.484,0-2.691-1.208-2.691-2.692s1.207-2.692,2.691-2.692s2.692,1.208,2.692,2.692S40.507,24.711,39.022,24.711z"/>
<g>
</g>
<g>
</g>
<g>
</g>
<g>
</g>
<g>
</g>
<g>
</g>
<g>
</g>
<g>
</g>
<g>
</g>
<g>
</g>
<g>
</g>
<g>
</g>
<g>
</g>
<g>
</g>
<g>
</g>
</svg>
