<?xml version="1.0" encoding="iso-8859-1"?>
<!-- Generator: Adobe Illustrator 16.0.0, SVG Export Plug-In . SVG Version: 6.00 Build 0)  -->
<!DOCTYPE svg PUBLIC "-//W3C//DTD SVG 1.1//EN" "http://www.w3.org/Graphics/SVG/1.1/DTD/svg11.dtd">
<svg version="1.1" id="Layer_1" xmlns="http://www.w3.org/2000/svg" xmlns:xlink="http://www.w3.org/1999/xlink" x="0px" y="0px"
	 width="37.623px" height="44.036px" viewBox="0 0 37.623 44.036" style="enable-background:new 0 0 37.623 44.036;"
	 xml:space="preserve">
<path d="M32.333,33.455c-0.313,0-0.614,0.04-0.912,0.092l-4.587-7.692c0.635-0.443,1.192-1.019,1.595-1.741
	c1.28-2.298,0.647-5.129-1.36-6.704l3.166-7.002c0.411,0.104,0.834,0.174,1.276,0.174c2.917,0,5.29-2.374,5.29-5.291
	S34.428,0,31.511,0s-5.29,2.373-5.29,5.29c0,1.761,0.873,3.313,2.2,4.274l-3.129,6.92c-2.312-0.675-4.865,0.297-6.089,2.492
	c-0.392,0.702-0.589,1.455-0.64,2.208h-8.07c-0.424-2.496-2.587-4.408-5.203-4.408c-2.917,0-5.29,2.373-5.29,5.29
	s2.373,5.29,5.29,5.29c2.533,0,4.652-1.791,5.168-4.172h8.355c0.399,1.218,1.226,2.3,2.434,2.973
	c1.188,0.661,2.518,0.797,3.747,0.515l4.535,7.605c-1.488,0.938-2.486,2.584-2.486,4.469c0,2.917,2.373,5.29,5.29,5.29
	s5.29-2.373,5.29-5.29S35.25,33.455,32.333,33.455z M28.221,5.29c0-1.814,1.476-3.29,3.29-3.29s3.29,1.476,3.29,3.29
	s-1.476,3.291-3.29,3.291S28.221,7.104,28.221,5.29z M5.29,25.356c-1.814,0-3.29-1.476-3.29-3.29s1.476-3.29,3.29-3.29
	c1.815,0,3.292,1.476,3.292,3.29S7.105,25.356,5.29,25.356z M32.333,42.036c-1.814,0-3.29-1.476-3.29-3.29s1.476-3.291,3.29-3.291
	s3.29,1.477,3.29,3.291S34.147,42.036,32.333,42.036z"/>
<g>
</g>
<g>
</g>
<g>
</g>
<g>
</g>
<g>
</g>
<g>
</g>
<g>
</g>
<g>
</g>
<g>
</g>
<g>
</g>
<g>
</g>
<g>
</g>
<g>
</g>
<g>
</g>
<g>
</g>
</svg>
