<?xml version="1.0" encoding="iso-8859-1"?>
<!-- Generator: Adobe Illustrator 16.0.0, SVG Export Plug-In . SVG Version: 6.00 Build 0)  -->
<!DOCTYPE svg PUBLIC "-//W3C//DTD SVG 1.1//EN" "http://www.w3.org/Graphics/SVG/1.1/DTD/svg11.dtd">
<svg version="1.1" id="Layer_1" xmlns="http://www.w3.org/2000/svg" xmlns:xlink="http://www.w3.org/1999/xlink" x="0px" y="0px"
	 width="44.635px" height="38.167px" viewBox="0 0 44.635 38.167" style="enable-background:new 0 0 44.635 38.167;"
	 xml:space="preserve">
<path d="M39.847,19.045c2.641,0,4.788-2.148,4.788-4.789c0-2.641-2.147-4.789-4.788-4.789c-2.641,0-4.789,2.148-4.789,4.789
	c0,0.892,0.25,1.725,0.676,2.441l-8.264,6.024c-1.275-1.389-3.067-2.286-5.072-2.389l-0.515-8.362
	c2.762-0.558,4.849-3.002,4.849-5.926C26.733,2.712,24.02,0,20.687,0S14.64,2.712,14.64,6.045c0,3.178,2.467,5.785,5.585,6.021
	l0.515,8.366c-2.334,0.41-4.291,1.911-5.328,3.961l-4.9-1.81c0.055-0.303,0.088-0.612,0.088-0.931c0-2.922-2.378-5.299-5.301-5.299
	c-2.921,0-5.3,2.377-5.3,5.299c0,2.923,2.378,5.301,5.3,5.301c2.02,0,3.776-1.135,4.671-2.8l4.867,1.798
	c-0.14,0.568-0.223,1.157-0.223,1.767c0,4.085,3.323,7.408,7.407,7.408c2.798,0,5.238-1.561,6.497-3.857l5.207,2.124
	c-0.043,0.236-0.074,0.477-0.074,0.725c0,2.232,1.816,4.048,4.05,4.048c2.231,0,4.047-1.816,4.047-4.048
	c0-2.232-1.816-4.048-4.047-4.048c-1.395,0-2.626,0.708-3.354,1.783l-5.206-2.124c0.182-0.641,0.285-1.313,0.285-2.011
	c0-1.331-0.358-2.578-0.975-3.659l8.366-6.099C37.644,18.638,38.698,19.045,39.847,19.045z M5.3,25.293
	c-2.005,0-3.638-1.633-3.638-3.64c0-2.006,1.633-3.639,3.638-3.639c2.007,0,3.64,1.632,3.64,3.639
	C8.94,23.66,7.307,25.293,5.3,25.293z M37.702,31.732c1.316,0,2.387,1.07,2.387,2.387c0,1.316-1.071,2.388-2.387,2.388
	c-1.318,0-2.389-1.071-2.389-2.388C35.313,32.802,36.384,31.732,37.702,31.732z M16.301,6.045c0-2.418,1.968-4.385,4.386-4.385
	c2.417,0,4.385,1.967,4.385,4.385c0,2.417-1.968,4.384-4.385,4.384C18.269,10.43,16.301,8.463,16.301,6.045z M39.847,11.129
	c1.725,0,3.127,1.403,3.127,3.127c0,1.725-1.402,3.127-3.127,3.127c-1.726,0-3.128-1.402-3.128-3.127
	C36.718,12.532,38.121,11.129,39.847,11.129z"/>
<g>
</g>
<g>
</g>
<g>
</g>
<g>
</g>
<g>
</g>
<g>
</g>
<g>
</g>
<g>
</g>
<g>
</g>
<g>
</g>
<g>
</g>
<g>
</g>
<g>
</g>
<g>
</g>
<g>
</g>
</svg>
