<?xml version="1.0" encoding="utf-8"?>
<!-- Generator: Adobe Illustrator 17.0.0, SVG Export Plug-In . SVG Version: 6.00 Build 0)  -->
<!DOCTYPE svg PUBLIC "-//W3C//DTD SVG 1.1//EN" "http://www.w3.org/Graphics/SVG/1.1/DTD/svg11.dtd">
<svg version="1.1" id="Capa_1" xmlns="http://www.w3.org/2000/svg" xmlns:xlink="http://www.w3.org/1999/xlink" x="0px" y="0px"
	 width="200px" height="200px" viewBox="0 0 200 200" enable-background="new 0 0 200 200" xml:space="preserve">
<path d="M189.934,31.77c-4.063-2.325-9.699-2.913-14.745-1.796c-3.71-0.188-7.712,2.773-9.961,5.817
	c-4.306,5.828-6.148,14.185-2.909,20.892c1.854,3.839,5.162,6.999,9.066,8.66c-0.651,5.611-1.278,11.213-2.809,16.873
	c-1.543,5.707-3.422,11.37-5.11,17.077c-4.318-3.402-9.472-5.581-15.292-5.615c-10.171-0.059-18.244,8.381-22.67,17.695
	c-9.109-4.712-19.402-11.715-27.65-15.663c-13.674-6.546-29.666-11.344-43.29-18.754c3.59-5.394,5.977-11.739,6.639-18.147
	c6.53,0.458,13.072,0.82,19.59,1.337c2.885,0.229,6.15,0.869,9.477,1.448c2.413,7.302,8.825,12.995,17.76,11.397
	c7.285-1.303,15.424-6.363,16.951-14.129c1.225-6.226-2.307-12.14-7.016-15.933c-4.962-3.997-11.204-6.11-17.548-4.966
	c-6.901,1.244-10.888,8.371-11.176,14.871c-0.003,0.069,0.004,0.137,0.005,0.206c-1.911,0.042-3.727,0.092-5.325,0.046
	c-7.481-0.215-15.069-0.326-22.612-0.077c-0.32-5.005-1.737-9.855-4.558-14.07C37.797,10.619,4.018,37.62,2.694,63.434
	c-1.151,22.449,25.899,35.662,42.254,23.41c2.18-1.457,4.188-3.221,6.006-5.203c1.575,0.805,3.116,1.527,4.285,2.226
	c12.222,7.31,25.603,12.86,38.422,19.019c10.061,4.833,19.543,10.234,29.137,15.891c-0.297,1.152-0.552,2.292-0.719,3.394
	c-0.308,2.033-0.349,3.95-0.207,5.772c0.053,1.654,0.267,3.298,0.566,4.929c-5.654,2.737-11.25,6.249-16.544,8.658
	c-5.768,2.624-14.933,4.974-20.672,9.183c-2.616-6.753-7.787-12.835-14.298-14.266c-5.855-1.287-10.755,1.442-13.957,5.805
	c-3.229,1.208-5.787,4.143-6.801,8.168c-1.845,7.321,1.735,15.87,7.498,20.442c10.296,8.169,27.811,5.669,29.331-8.864
	c0.173-1.655,0.101-3.422-0.16-5.222c7.245-0.96,15.703-6.061,21.865-8.592c4.992-2.05,11.188-3.975,16.746-6.567
	c1.859,3.519,4.431,6.722,7.853,9.305c11.221,8.467,26.891,4.758,36.64-4.269c9.082-8.41,9.077-22.804,4.24-33.352
	c-1.275-2.781-2.881-5.469-4.767-7.926c2.682-8.13,5.385-16.257,7.764-24.471c1.281-4.424,2.799-9.627,3.327-14.748
	c3.835-1.023,7.318-3.65,9.864-6.515C197.175,51.977,200.55,37.845,189.934,31.77z M169.227,130.626
	c-0.094-1.236-0.32-2.433-0.789-3.535c0.198-2.019,0.189-4.117-0.03-6.208C169.237,124.176,169.538,127.53,169.227,130.626z"/>
</svg>
