<?xml version="1.0" encoding="iso-8859-1"?>
<!-- Generator: Adobe Illustrator 18.0.0, SVG Export Plug-In . SVG Version: 6.00 Build 0)  -->
<!DOCTYPE svg PUBLIC "-//W3C//DTD SVG 1.1//EN" "http://www.w3.org/Graphics/SVG/1.1/DTD/svg11.dtd">
<svg version="1.1" id="Capa_1" xmlns="http://www.w3.org/2000/svg" xmlns:xlink="http://www.w3.org/1999/xlink" x="0px" y="0px"
	 viewBox="0 0 124.587 175.477" style="enable-background:new 0 0 124.587 175.477;" xml:space="preserve">
<g>
	<path style="fill:#231F20;" d="M50.069,36.738c0,4.519,3.676,8.195,8.195,8.195c4.52,0,8.198-3.677,8.198-8.195
		c0-4.523-3.678-8.203-8.198-8.203C53.745,28.535,50.069,32.215,50.069,36.738z M62.461,36.738c0,2.313-1.883,4.195-4.198,4.195
		c-2.313,0-4.195-1.882-4.195-4.195c0-2.317,1.882-4.203,4.195-4.203C60.578,32.535,62.461,34.421,62.461,36.738z"/>
	<path style="fill:#231F20;" d="M42.121,31.715c4.111,0,7.457-3.342,7.457-7.449c0-4.113-3.345-7.459-7.457-7.459
		c-4.117,0-7.466,3.346-7.466,7.459C34.655,28.373,38.004,31.715,42.121,31.715z M42.121,20.807c1.906,0,3.457,1.552,3.457,3.459
		c0,1.902-1.551,3.449-3.457,3.449c-1.911,0-3.466-1.547-3.466-3.449C38.655,22.358,40.209,20.807,42.121,20.807z"/>
	<path style="fill:#231F20;" d="M73.318,34.422c5.211,0,9.451-4.238,9.451-9.447c0-5.215-4.24-9.457-9.451-9.457
		c-5.215,0-9.458,4.242-9.458,9.457C63.86,30.184,68.103,34.422,73.318,34.422z M73.318,19.518c3.006,0,5.451,2.448,5.451,5.457
		c0,3.004-2.445,5.447-5.451,5.447c-3.01,0-5.458-2.443-5.458-5.447C67.86,21.966,70.309,19.518,73.318,19.518z"/>
	<path style="fill:#231F20;" d="M51.059,16.941c4.672,0,8.474-3.8,8.474-8.471S55.731,0,51.059,0c-4.667,0-8.464,3.8-8.464,8.471
		S46.392,16.941,51.059,16.941z M51.059,4c2.467,0,4.474,2.006,4.474,4.471s-2.007,4.471-4.474,4.471
		c-2.461,0-4.464-2.006-4.464-4.471S48.597,4,51.059,4z"/>
	<path style="fill:#231F20;" d="M68.021,96.187v-1.788c0-1.963-1.314-3.281-3.27-3.281h-4.917c-1.958,0-3.273,1.318-3.273,3.281
		v1.788c-2.469,0.741-4.582,2.132-6.295,4.144c-2.102,2.448-3.168,5.38-3.168,8.713v7.65c0,1.686,0.261,3.101,0.774,4.198
		c0.508,1.1,1.32,2.171,2.413,3.186c0.046,0.042,0.094,0.083,0.143,0.121l11.674,8.962c0.24,0.223,0.39,0.443,0.457,0.668
		c0.137,0.464,0.229,1,0.275,1.595v8.571l-0.037,0.123c-0.007,0.007-0.135,0.061-0.143,0.068h-0.722l-0.138-0.062
		c-0.049-0.049-0.053-0.054-0.053-0.129v-7.65c0-2.048-1.405-2.981-2.71-2.981c-0.338,0-0.682,0.055-0.979,0.147l-8.366,2.207
		c-1.62,0.508-2.587,1.833-2.587,3.545v5.184c0,3.34,1.066,6.274,3.163,8.717c1.712,2.011,3.826,3.403,6.3,4.152v1.887
		c0,1.956,1.315,3.27,3.273,3.27h4.917c1.956,0,3.27-1.313,3.27-3.27v-1.887c2.472-0.749,4.587-2.14,6.302-4.147
		c2.101-2.451,3.166-5.386,3.166-8.722v-12.279c0-0.071-0.004-0.144-0.012-0.215c-0.131-1.221-0.357-2.345-0.669-3.338
		c-0.388-1.238-1.216-2.42-2.461-3.512c-0.039-0.034-0.079-0.066-0.121-0.098l-8.827-6.6c0.4,0.013,0.815-0.043,1.131-0.146
		l8.358-2.202c1.628-0.493,2.601-1.818,2.601-3.543v-3.471c0-3.33-1.065-6.261-3.164-8.709
		C72.603,98.318,70.488,96.928,68.021,96.187z M73.487,112.291l-6.653,1.751v-4.538c0-1.155-0.426-2.184-1.219-2.962
		c-0.799-0.798-1.823-1.22-2.96-1.22h-0.722c-1.145,0-2.171,0.424-2.957,1.214c-0.808,0.801-1.234,1.826-1.234,2.968v5.006
		c0,0.062,0.003,0.124,0.009,0.186c0.08,0.853,0.246,1.611,0.482,2.227c0.279,0.761,0.773,1.498,1.469,2.19
		c0.067,0.066,0.139,0.128,0.214,0.185l11.851,8.861c0.653,0.582,1.065,1.138,1.226,1.652c0.226,0.718,0.393,1.547,0.498,2.466
		v12.169c0,2.388-0.721,4.389-2.205,6.121c-1.492,1.746-3.329,2.795-5.617,3.205c-0.953,0.171-1.646,1-1.646,1.969l0,2.73
		l-3.46-0.001v-2.729c0-0.969-0.694-1.798-1.646-1.969c-2.289-0.41-4.123-1.458-5.613-3.209c-1.482-1.727-2.203-3.728-2.203-6.117
		l0.002-4.968l6.641-1.751v6.268c0,1.138,0.426,2.163,1.211,2.944c0.797,0.815,1.827,1.247,2.98,1.247h0.722
		c1.146,0,2.174-0.43,2.951-1.221c0.803-0.792,1.228-1.819,1.228-2.971v-8.645c0-0.047-0.001-0.093-0.005-0.14
		c-0.063-0.909-0.209-1.756-0.436-2.521c-0.288-0.964-0.854-1.826-1.681-2.561c-0.036-0.032-0.072-0.062-0.11-0.092l-11.661-8.952
		c-0.675-0.637-1.159-1.267-1.441-1.877c-0.184-0.393-0.402-1.147-0.402-2.514v-7.65c0-2.383,0.721-4.381,2.208-6.113
		c1.49-1.75,3.321-2.795,5.6-3.194c0.957-0.167,1.655-0.998,1.655-1.97l0-2.648h3.46v2.648c0,0.972,0.698,1.803,1.655,1.97
		c2.277,0.399,4.112,1.444,5.61,3.199c1.482,1.729,2.203,3.728,2.203,6.108L73.487,112.291z M63.029,116.631l-0.595-0.444
		c-0.298-0.315-0.409-0.538-0.458-0.672c-0.076-0.198-0.177-0.547-0.235-1.104v-4.907c0-0.077,0.006-0.082,0.061-0.137
		c0.04-0.04,0.044-0.045,0.131-0.045h0.722c0.083,0,0.089,0.006,0.133,0.05c0.004,0.004,0.042,0.128,0.046,0.132v5.91
		C62.834,115.875,62.904,116.28,63.029,116.631z"/>
	<path style="fill:#231F20;" d="M120.052,145.729c-3.977-13.132-24.239-42.708-40.739-65.469V68.102h9.165
		c1.443,0,3.633-1.115,3.751-4.188c0.065-1.714,0.037-5.776,0.016-8.742c-0.008-1.075-0.014-1.983-0.014-2.537
		c0-2.162-1.492-3.615-3.714-3.615c-0.257,0-0.479,0.021-0.639,0.041H37.126c-0.195-0.031-0.467-0.062-0.785-0.062
		c-1.972,0-3.978,1.284-4.014,4.161c-0.022,2.55-0.003,9.53,0,10.4c-0.039,0.545-0.042,2.081,0.998,3.271
		c0.491,0.562,1.388,1.238,2.917,1.27h9.032v12.166C28.771,103.03,8.509,132.604,4.534,145.729
		c-3.548,9.778-6.634,20.521-2.691,26.148c1.674,2.389,4.358,3.6,7.979,3.6h104.941c3.623,0,6.308-1.211,7.982-3.6
		C126.685,166.257,123.6,155.511,120.052,145.729z M119.47,169.581c-0.894,1.275-2.434,1.896-4.707,1.896H9.823
		c-2.271,0-3.81-0.62-4.704-1.896c-3.288-4.692,1.421-17.658,3.194-22.539c0.013-0.035,0.025-0.071,0.036-0.107
		c2.971-9.89,17.392-32.949,40.605-64.93c0.33-0.454,0.431-1.019,0.319-1.554v-14.35c0-1.104-0.896-2-2-2H36.33
		c-0.013-0.081-0.02-0.173-0.017-0.229c0.009-0.078,0.013-0.156,0.013-0.234c0,0-0.023-7.735,0-10.436
		c0.001-0.085,0.006-0.152,0.013-0.204c0,0,0,0,0.001,0c0.082,0,0.141,0.006,0.131,0.006c0.154,0.037,0.312,0.056,0.471,0.056
		h51.085c0.058,0,0.132-0.005,0.203-0.013c0.002,0.554,0.007,1.301,0.013,2.152c0.02,2.763,0.049,6.938-0.013,8.561
		c-0.006,0.157-0.023,0.268-0.041,0.341H77.313c-1.104,0-2,0.896-2,2v14.254c-0.138,0.563-0.025,1.168,0.324,1.649
		c23.209,31.975,37.628,55.034,40.6,64.93c0.011,0.036,0.023,0.072,0.036,0.107C118.045,151.925,122.754,164.896,119.47,169.581z"/>
	<path style="fill:#231F20;" d="M32.524,120.029c-0.87-0.68-2.126-0.526-2.808,0.343c-0.656,0.838-16.083,20.708-17.871,36.801
		c-0.122,1.098,0.669,2.087,1.767,2.208c0.075,0.009,0.149,0.013,0.223,0.013c1.006,0,1.872-0.757,1.985-1.779
		c1.662-14.959,16.892-34.581,17.045-34.777C33.547,121.967,33.394,120.71,32.524,120.029z"/>
	<path style="fill:#231F20;" d="M55.296,81.705c1.104,0,2-0.896,2-2V65.303c0-1.104-0.896-2-2-2s-2,0.896-2,2v14.402
		C53.296,80.81,54.192,81.705,55.296,81.705z"/>
</g>
<g>
</g>
<g>
</g>
<g>
</g>
<g>
</g>
<g>
</g>
<g>
</g>
<g>
</g>
<g>
</g>
<g>
</g>
<g>
</g>
<g>
</g>
<g>
</g>
<g>
</g>
<g>
</g>
<g>
</g>
</svg>
