<?xml version="1.0" encoding="utf-8"?>
<!-- Generator: Adobe Illustrator 16.0.0, SVG Export Plug-In . SVG Version: 6.00 Build 0)  -->
<!DOCTYPE svg PUBLIC "-//W3C//DTD SVG 1.1//EN" "http://www.w3.org/Graphics/SVG/1.1/DTD/svg11.dtd">
<svg version="1.1" id="Layer_9" xmlns="http://www.w3.org/2000/svg" xmlns:xlink="http://www.w3.org/1999/xlink" x="0px" y="0px"
	 width="100px" height="100px" viewBox="0 0 100 100" enable-background="new 0 0 100 100" xml:space="preserve">
<path d="M74.646,53.035c-6.699-7.502-15.295-11.654-19.989-13.51c-0.136-0.936-0.293-1.816-0.46-2.664l6.385-1.539l10.799,4.072
	l10.995-5.047l-0.588-1.277l-10.46,4.801l-10.656-4.018l-6.585,1.586c0.794-1.486,1.286-3.365,1.286-5.436
	c0-0.863-0.088-1.695-0.242-2.48l5.328-1.123l2.299-6.719l11.964-3.59l-0.403-1.346l-12.657,3.797l-2.273,6.646l-4.618,0.971
	c-0.521-1.594-1.348-2.916-2.372-3.756c1.764-0.535,2.976-1.57,2.976-2.775c0-1.748-2.52-3.166-5.628-3.166
	c-3.107,0-5.627,1.418-5.627,3.166c0,1.205,1.212,2.24,2.976,2.775c-1.013,0.83-1.828,2.129-2.353,3.695l-4.33-0.91l-2.273-6.646
	L25.48,14.746l-0.403,1.346l11.964,3.59l2.299,6.719l5.035,1.061c-0.164,0.807-0.257,1.656-0.257,2.543
	c0,2.188,0.535,4.176,1.412,5.695c-0.044,0.189-0.08,0.406-0.121,0.604l-8.098-1.949l-10.656,4.018l-10.46-4.801l-0.588,1.277
	l10.996,5.047l10.799-4.07l7.732,1.861c-0.115,0.662-0.223,1.35-0.321,2.055c-4.79,1.951-13,6.063-19.459,13.295
	c-8.688,9.729-15.759,21.998-11.757,25.576c0.611,0.545,1.429,0.822,2.431,0.822c0.001,0,0.001,0,0.001,0
	c4.733,0,13.436-6.186,21.654-15.389c2.752-3.082,4.905-6.418,6.58-9.619c0.051,0.906,0.122,1.783,0.202,2.643
	c-1.241,3.328-2.689,8.549-2.73,14.938L30.143,84.289l1.022,0.965L43.14,72.564v-0.279c0-4.674,0.807-8.758,1.722-11.893
	c0.961,6.521,2.779,10.939,4.883,10.939c2.24,0,4.166-5.002,5.068-12.23c1.065,3.262,2.12,7.838,2.12,13.184v0.279l11.976,12.689
	l1.022-0.965L58.339,72.006c-0.047-7.23-1.894-12.967-3.204-16.146c0.058-0.762,0.108-1.533,0.144-2.328
	c1.734,3.469,4.028,7.145,7.038,10.514c8.219,9.203,16.921,15.389,21.654,15.389c1.003,0,1.82-0.277,2.432-0.822
	C90.405,75.033,83.333,62.764,74.646,53.035z M36.633,63.107c-7.719,8.645-16.384,14.918-20.604,14.918
	c-0.647,0-1.149-0.156-1.495-0.463c-2.418-2.162,1.862-12.381,11.87-23.592c7.797-8.73,18.262-12.801,21.648-13.949
	C47.295,43.518,44.432,54.375,36.633,63.107z M85.465,77.563c-0.345,0.307-0.848,0.463-1.494,0.463
	c-4.221,0-12.887-6.273-20.605-14.918c-7.798-8.732-10.661-19.592-11.418-23.086c3.385,1.145,13.844,5.209,21.648,13.949
	C83.604,65.182,87.883,75.4,85.465,77.563z"/>
</svg>
