<?xml version="1.0" encoding="iso-8859-1"?>
<!-- Generator: Adobe Illustrator 16.0.0, SVG Export Plug-In . SVG Version: 6.00 Build 0)  -->
<!DOCTYPE svg PUBLIC "-//W3C//DTD SVG 1.1//EN" "http://www.w3.org/Graphics/SVG/1.1/DTD/svg11.dtd">
<svg version="1.1" id="Layer_1" xmlns="http://www.w3.org/2000/svg" xmlns:xlink="http://www.w3.org/1999/xlink" x="0px" y="0px"
	 width="45.313px" height="26.237px" viewBox="0 0 45.313 26.237" style="enable-background:new 0 0 45.313 26.237;"
	 xml:space="preserve">
<g>
	<path d="M13.151,13.378c2.476,0.696,5.38-1.928,6.49-5.861c1.107-3.935,0.976-6.669-1.498-7.367
		c-2.476-0.697-7.333,1.053-8.441,4.987C8.593,9.07,10.677,12.679,13.151,13.378z"/>
	<path d="M11.341,18.496c-0.484,0-0.877-0.393-0.877-0.877c0-0.17,0.062-0.321,0.146-0.455c-0.004,0-0.009-0.001-0.013-0.001
		c-0.813,0-1.474,0.66-1.474,1.474c0,0.813,0.66,1.474,1.474,1.474c0.814,0,1.475-0.66,1.475-1.474c0-0.157-0.031-0.306-0.077-0.448
		C11.834,18.373,11.604,18.496,11.341,18.496z"/>
	<path d="M44.278,12.423c-0.548-0.789-1.169-1.683-1.391-2.8c-0.199-1.009-0.012-3.162,2.124-4.086L44.615,4.62
		c-2.364,1.023-3.062,3.412-2.708,5.198c0.262,1.322,0.976,2.35,1.549,3.176c0.527,0.758,0.942,1.357,0.843,1.861
		c-0.073,0.368-0.448,0.771-1.112,1.197c-1.881,1.206-4.236,0.944-5.903,0.542c0.058-0.375,0.094-0.755,0.094-1.142
		c0-5.729-6.504-10.374-14.527-10.374c-0.64,0-1.268,0.034-1.886,0.091c-0.159,1.042-0.42,1.972-0.579,2.537
		c-1.088,3.854-3.801,6.65-6.451,6.65c-0.338,0-0.673-0.046-0.995-0.136c-1.577-0.446-2.979-1.892-3.73-3.816L2.029,23.4
		c-0.172-0.07-0.358-0.11-0.556-0.11C0.66,23.29,0,23.949,0,24.764c0,0.813,0.66,1.474,1.474,1.474c0.595,0,1.104-0.354,1.338-0.861
		l19.168,0.418c0.289,0.012,0.576,0.031,0.87,0.031c0.072,0,0.143-0.007,0.214-0.008l0.354,0.008l-0.018-0.02
		c6.757-0.181,12.333-3.65,13.668-8.235c0.813,0.196,1.781,0.361,2.803,0.361c1.28,0,2.638-0.258,3.854-1.039
		c0.928-0.595,1.422-1.18,1.554-1.843C45.463,14.13,44.887,13.301,44.278,12.423z M10.821,20.881c-1.355,0-2.455-1.1-2.455-2.455
		c0-1.356,1.1-2.455,2.455-2.455s2.455,1.099,2.455,2.455C13.276,19.781,12.177,20.881,10.821,20.881z"/>
</g>
<g>
</g>
<g>
</g>
<g>
</g>
<g>
</g>
<g>
</g>
<g>
</g>
<g>
</g>
<g>
</g>
<g>
</g>
<g>
</g>
<g>
</g>
<g>
</g>
<g>
</g>
<g>
</g>
<g>
</g>
</svg>
