<?xml version="1.0" encoding="utf-8"?>
<!-- Generator: Adobe Illustrator 16.0.4, SVG Export Plug-In . SVG Version: 6.00 Build 0)  -->
<!DOCTYPE svg PUBLIC "-//W3C//DTD SVG 1.1//EN" "http://www.w3.org/Graphics/SVG/1.1/DTD/svg11.dtd">
<svg version="1.1" id="Capa_1" xmlns="http://www.w3.org/2000/svg" xmlns:xlink="http://www.w3.org/1999/xlink" x="0px" y="0px"
	 width="64px" height="64px" viewBox="0 0 64 64" enable-background="new 0 0 64 64" xml:space="preserve">
<g>
	<path d="M53.216,14.352c-4.976,0-9.952,0-14.929,0c-7.403,0-14.806,0-22.21,0c-1.118,0-2.237,0-3.355,0c-0.545,0-1,0.455-1,1
		c0,5.266,0,10.533,0,15.799c0,6.669,0,13.34,0,20.01c0,0.298,0,0.595,0,0.894c0,0.545,0.455,1,1,1c4.976,0,9.952,0,14.929,0
		c7.404,0,14.806,0,22.21,0c1.117,0,2.236,0,3.354,0c0.275,0,0.479-0.103,0.637-0.246c0.022-0.017,0.047-0.031,0.067-0.051
		c0.019-0.021,0.033-0.044,0.05-0.066c0.145-0.157,0.246-0.36,0.246-0.637c0-5.267,0-10.533,0-15.8c0-6.67,0-13.34,0-20.01
		c0-0.298,0-0.595,0-0.893C54.216,14.807,53.762,14.352,53.216,14.352z M38.287,51.055c-7.403,0-14.806,0-22.21,0
		c-0.785,0-1.57,0-2.355,0c0-4.934,0-9.865,0-14.8c0-6.634,0-13.269,0-19.903c4.643,0,9.285,0,13.929,0c7.404,0,14.806,0,22.21,0
		c0.783,0,1.568,0,2.354,0c0,4.933,0,9.866,0,14.799c0.001,6.634,0.001,13.269,0.001,19.904
		C47.573,51.055,42.932,51.055,38.287,51.055z"/>
	<path d="M28.25,43.75c0.206,0,0.359-0.077,0.478-0.186c0.017-0.013,0.034-0.022,0.05-0.037c0.014-0.017,0.025-0.033,0.038-0.051
		C28.923,43.359,29,43.206,29,43c0-3.807,0-7.611,0-11.417c0-0.409-0.341-0.75-0.75-0.75c-4,0-8,0-12,0
		c-0.409,0-0.75,0.341-0.75,0.75c0,3.806,0,7.61,0,11.417c0,0.409,0.341,0.75,0.75,0.75C20.25,43.75,24.25,43.75,28.25,43.75z
		 M17,32.333c3.5,0,7,0,10.5,0c0,3.306,0,6.61,0,9.917c-3.5,0-7,0-10.5,0C17,38.943,17,35.639,17,32.333z"/>
	<path d="M50.25,17.083c-2,0-4,0-6,0c-0.273,0-0.5,0.227-0.5,0.5c0,1.153,0,2.306,0,3.46c0,0.273,0.227,0.5,0.5,0.5c2,0,4,0,6,0
		c0.137,0,0.238-0.051,0.316-0.122c0.013-0.009,0.023-0.016,0.035-0.026c0.01-0.01,0.017-0.021,0.024-0.032
		c0.071-0.079,0.123-0.182,0.123-0.319c0-1.153,0-2.306,0-3.46C50.75,17.31,50.523,17.083,50.25,17.083z M49.75,20.543
		c-1.667,0-3.333,0-5,0c0-0.82,0-1.64,0-2.46c1.667,0,3.333,0,5,0C49.75,18.903,49.75,19.723,49.75,20.543z"/>
	<path d="M50.25,23.083c-5.393,0-10.784,0-16.176,0c-6.248,0-12.497,0-18.745,0c-0.1,0-0.201,0-0.301,0c-0.273,0-0.5,0.227-0.5,0.5
		c0,1.153,0,2.306,0,3.46c0,0.273,0.227,0.5,0.5,0.5c5.392,0,10.784,0,16.176,0c6.248,0,12.497,0,18.745,0c0.1,0,0.201,0,0.301,0
		c0.137,0,0.238-0.051,0.316-0.122c0.013-0.009,0.023-0.016,0.035-0.026c0.01-0.01,0.017-0.021,0.024-0.032
		c0.071-0.079,0.123-0.182,0.123-0.319c0-1.153,0-2.306,0-3.46C50.75,23.31,50.523,23.083,50.25,23.083z M49.75,26.543
		c-5.227,0-10.451,0-15.676,0c-6.182,0-12.365,0-18.546,0c0-0.82,0-1.64,0-2.46c5.226,0,10.451,0,15.676,0
		c6.183,0,12.364,0,18.546,0C49.75,24.903,49.75,25.723,49.75,26.543z"/>
	<path d="M50.25,31.5c-5.954,0-11.908,0-17.862,0c-0.129,0-0.259,0-0.388,0c-0.645,0-0.645,1,0,1c5.954,0,11.908,0,17.861,0
		c0.13,0,0.26,0,0.389,0C50.895,32.5,50.895,31.5,50.25,31.5z"/>
	<path d="M50.25,33.5c-5.954,0-11.908,0-17.862,0c-0.129,0-0.259,0-0.388,0c-0.645,0-0.645,1,0,1c5.954,0,11.908,0,17.861,0
		c0.13,0,0.26,0,0.389,0C50.895,34.5,50.895,33.5,50.25,33.5z"/>
	<path d="M50.25,35.5c-5.954,0-11.908,0-17.862,0c-0.129,0-0.259,0-0.388,0c-0.645,0-0.645,1,0,1c5.954,0,11.908,0,17.861,0
		c0.13,0,0.26,0,0.389,0C50.895,36.5,50.895,35.5,50.25,35.5z"/>
	<path d="M50.25,37.5c-5.954,0-11.908,0-17.862,0c-0.129,0-0.259,0-0.388,0c-0.645,0-0.645,1,0,1c5.954,0,11.908,0,17.861,0
		c0.13,0,0.26,0,0.389,0C50.895,38.5,50.895,37.5,50.25,37.5z"/>
	<path d="M50.25,39.5c-5.954,0-11.908,0-17.862,0c-0.129,0-0.259,0-0.388,0c-0.645,0-0.645,1,0,1c5.954,0,11.908,0,17.861,0
		c0.13,0,0.26,0,0.389,0C50.895,40.5,50.895,39.5,50.25,39.5z"/>
	<path d="M50.25,41.5c-5.954,0-11.908,0-17.862,0c-0.129,0-0.259,0-0.388,0c-0.645,0-0.645,1,0,1c5.954,0,11.908,0,17.861,0
		c0.13,0,0.26,0,0.389,0C50.895,42.5,50.895,41.5,50.25,41.5z"/>
	<path d="M50.25,46.5c-5.5,0-11,0-16.5,0c-5.82,0-11.641,0-17.461,0c-0.013,0-0.026,0-0.039,0c-0.645,0-0.645,1,0,1
		c5.5,0,11,0,16.5,0c5.82,0,11.641,0,17.461,0c0.014,0,0.025,0,0.039,0C50.895,47.5,50.895,46.5,50.25,46.5z"/>
	<polygon points="11,51 11,32.75 7.5,32.875 	"/>
</g>
</svg>
