<?xml version="1.0" encoding="utf-8"?>
<!-- Generator: Adobe Illustrator 16.0.0, SVG Export Plug-In . SVG Version: 6.00 Build 0)  -->
<!DOCTYPE svg PUBLIC "-//W3C//DTD SVG 1.1//EN" "http://www.w3.org/Graphics/SVG/1.1/DTD/svg11.dtd">
<svg version="1.1" id="Layer_1" xmlns="http://www.w3.org/2000/svg" xmlns:xlink="http://www.w3.org/1999/xlink" x="0px" y="0px"
	 width="48px" height="48px" viewBox="0 0 48 48" enable-background="new 0 0 48 48" xml:space="preserve">
<g>
	<path d="M42.686,24.052c2.873-3.743,3.711-7.315,2.351-10.118c-1.382-2.847-4.819-4.415-9.677-4.415
		c-0.693,0-1.41,0.04-2.139,0.101C31.139,4.27,27.9,0.885,24.196,0.885s-6.943,3.384-9.025,8.735
		c-0.728-0.062-1.445-0.101-2.138-0.101c-4.858,0-8.295,1.568-9.677,4.415c-1.36,2.803-0.521,6.375,2.352,10.118
		c-2.873,3.742-3.712,7.315-2.352,10.118c1.382,2.847,4.819,4.415,9.676,4.415c0.693,0,1.411-0.04,2.139-0.101
		c2.082,5.351,5.321,8.735,9.025,8.735s6.943-3.384,9.025-8.735c0.729,0.062,1.446,0.101,2.139,0.101h0.001
		c4.857,0,8.293-1.568,9.675-4.415C46.398,31.368,45.559,27.794,42.686,24.052z M35.36,12.52c3.594,0,6.137,0.993,6.978,2.725
		c0.778,1.603,0.162,3.933-1.677,6.5c-1.561-1.596-3.414-3.132-5.496-4.553c-0.242-1.63-0.57-3.177-0.971-4.625
		C34.587,12.544,34.982,12.52,35.36,12.52z M27.892,31.663c-1.222,0.593-2.46,1.122-3.696,1.59c-1.235-0.468-2.474-0.997-3.695-1.59
		c-1.576-0.765-3.065-1.608-4.468-2.5c-0.187-1.615-0.299-3.316-0.299-5.112s0.112-3.497,0.299-5.112
		c1.403-0.891,2.892-1.734,4.468-2.499c1.222-0.593,2.46-1.122,3.695-1.59c1.236,0.468,2.474,0.997,3.696,1.59
		c1.575,0.765,3.064,1.607,4.466,2.499c0.187,1.615,0.299,3.317,0.299,5.113s-0.112,3.497-0.299,5.112
		C30.957,30.055,29.467,30.898,27.892,31.663z M31.714,33.041c-0.165,0.746-0.346,1.462-0.547,2.145
		c-0.842-0.144-1.7-0.322-2.576-0.544c0.204-0.096,0.408-0.181,0.611-0.279C30.063,33.944,30.896,33.499,31.714,33.041z
		 M19.801,34.642c-0.876,0.222-1.734,0.4-2.577,0.544c-0.201-0.683-0.382-1.4-0.547-2.146c0.818,0.458,1.651,0.904,2.513,1.322
		C19.394,34.461,19.598,34.546,19.801,34.642z M12.819,26.891c-1.163-0.917-2.229-1.867-3.158-2.839
		c0.929-0.973,1.995-1.922,3.158-2.839c-0.054,0.93-0.085,1.875-0.085,2.839S12.765,25.961,12.819,26.891z M16.678,15.063
		c0.165-0.746,0.346-1.463,0.547-2.146c0.842,0.145,1.7,0.322,2.576,0.544c-0.203,0.095-0.407,0.18-0.61,0.279
		C18.329,14.16,17.496,14.605,16.678,15.063z M28.592,13.462c0.876-0.222,1.734-0.4,2.576-0.544c0.2,0.683,0.382,1.399,0.547,2.145
		c-0.818-0.458-1.651-0.904-2.512-1.322C29,13.643,28.795,13.558,28.592,13.462z M35.573,21.211c1.163,0.918,2.229,1.867,3.159,2.84
		c-0.929,0.973-1.996,1.922-3.159,2.84c0.054-0.93,0.085-1.876,0.085-2.84S35.626,22.142,35.573,21.211z M24.196,3.885
		c2.096,0,4.312,2.288,5.953,6.159c-1.928,0.358-3.927,0.902-5.952,1.616c-2.025-0.714-4.024-1.257-5.952-1.616
		C19.884,6.173,22.1,3.885,24.196,3.885z M6.055,15.245c0.84-1.732,3.384-2.725,6.978-2.725c0.377,0,0.772,0.025,1.166,0.046
		c-0.402,1.449-0.729,2.996-0.971,4.626c-2.082,1.421-3.935,2.957-5.495,4.553C5.892,19.177,5.276,16.848,6.055,15.245z
		 M13.032,35.584c-3.593,0-6.137-0.993-6.977-2.725c-0.779-1.603-0.163-3.933,1.678-6.5c1.56,1.596,3.413,3.132,5.495,4.553
		c0.242,1.63,0.57,3.178,0.971,4.626C13.805,35.56,13.409,35.584,13.032,35.584z M24.196,44.219c-2.096,0-4.312-2.288-5.952-6.159
		c1.928-0.358,3.927-0.902,5.953-1.616c2.025,0.714,4.024,1.257,5.952,1.616C28.508,41.931,26.292,44.219,24.196,44.219z
		 M42.338,32.859c-0.84,1.732-3.383,2.725-6.977,2.725h0c-0.377,0-0.773-0.025-1.167-0.046c0.401-1.449,0.729-2.996,0.971-4.626
		c2.083-1.421,3.936-2.958,5.497-4.553C42.5,28.926,43.117,31.256,42.338,32.859z"/>
	<circle cx="24.196" cy="24.052" r="4.652"/>
</g>
</svg>
