<?xml version="1.0" encoding="utf-8"?>
<!-- Generator: Adobe Illustrator 17.0.0, SVG Export Plug-In . SVG Version: 6.00 Build 0)  -->
<!DOCTYPE svg PUBLIC "-//W3C//DTD SVG 1.1//EN" "http://www.w3.org/Graphics/SVG/1.1/DTD/svg11.dtd">
<svg version="1.1" id="Layer_1" xmlns="http://www.w3.org/2000/svg" xmlns:xlink="http://www.w3.org/1999/xlink" x="0px" y="0px"
	 width="32px" height="32px" viewBox="0 0 32 32" enable-background="new 0 0 32 32" xml:space="preserve">
<g>
	<path d="M15.334,6.799c-6.926,0-12.56,5.633-12.56,12.559s5.634,12.561,12.56,12.561c6.925,0,12.56-5.636,12.56-12.561
		S22.259,6.799,15.334,6.799z M15.334,29.664c-5.683,0-10.306-4.623-10.306-10.307c0-5.682,4.623-10.305,10.306-10.305
		S25.64,13.676,25.64,19.357C25.64,25.041,21.018,29.664,15.334,29.664z"/>
	<circle cx="3.338" cy="7.954" r="3.381"/>
	<circle cx="26.62" cy="7.158" r="2.585"/>
	<circle cx="30.457" cy="2.672" r="1.62"/>
	<circle cx="9.678" cy="3.306" r="1.268"/>
	<path d="M11.718,14.048c-1.572,0-2.798,0.44-3.678,1.32c-0.881,0.881-1.321,2.11-1.321,3.691c0,1.131,0.222,2.074,0.667,2.826
		c0.444,0.754,1.024,1.304,1.74,1.652c0.715,0.346,1.619,0.521,2.711,0.521c1.074,0,1.971-0.201,2.691-0.604
		c0.72-0.404,1.269-0.968,1.651-1.69c0.38-0.725,0.571-1.652,0.571-2.784c0-1.559-0.436-2.771-1.308-3.635
		C14.571,14.479,13.329,14.048,11.718,14.048z M13.23,21.193c-0.353,0.418-0.85,0.627-1.492,0.627c-0.626,0-1.119-0.213-1.482-0.641
		c-0.364-0.428-0.545-1.129-0.545-2.107c0-0.985,0.183-1.692,0.549-2.119c0.365-0.427,0.849-0.641,1.453-0.641
		c0.628,0,1.127,0.21,1.496,0.631c0.367,0.42,0.552,1.086,0.552,1.998C13.759,20.023,13.582,20.774,13.23,21.193z"/>
	<path d="M20.044,22.134c0.121-0.098,0.361-0.312,0.719-0.561c0.603-0.425,1.019-0.835,1.248-1.19
		c0.228-0.356,0.343-0.739,0.343-1.128c0-0.368-0.1-0.704-0.299-0.999c-0.201-0.297-0.474-0.519-0.821-0.66
		c-0.349-0.143-0.836-0.216-1.462-0.216c-0.601,0-1.07,0.074-1.41,0.224c-0.339,0.149-0.603,0.365-0.788,0.647
		c-0.186,0.28-0.314,0.671-0.384,1.173l1.783,0.145c0.049-0.361,0.146-0.614,0.29-0.757c0.144-0.142,0.33-0.214,0.557-0.214
		c0.219,0,0.4,0.069,0.545,0.207c0.145,0.14,0.216,0.306,0.216,0.501c0,0.18-0.073,0.372-0.218,0.572
		c-0.147,0.201-0.48,0.494-1.001,0.881c-0.854,0.634-1.435,1.102-1.746,1.564c-0.31,0.466-0.496,1.409-0.557,1.409h4.877v-1.127
		h-2.316C19.781,22.605,19.923,22.232,20.044,22.134z"/>
</g>
</svg>
