<?xml version="1.0" encoding="utf-8"?>
<!-- Generator: Adobe Illustrator 16.0.0, SVG Export Plug-In . SVG Version: 6.00 Build 0)  -->
<!DOCTYPE svg PUBLIC "-//W3C//DTD SVG 1.1//EN" "http://www.w3.org/Graphics/SVG/1.1/DTD/svg11.dtd">
<svg version="1.1" id="Layer_1" xmlns="http://www.w3.org/2000/svg" xmlns:xlink="http://www.w3.org/1999/xlink" x="0px" y="0px"
	 width="50px" height="50px" viewBox="0 0 50 50" enable-background="new 0 0 50 50" xml:space="preserve">
<g>
	<path d="M48.681,42.297l-8.925-8.905c-0.045-0.045-0.098-0.078-0.144-0.11c-0.802,1.233-1.761,2.406-2.843,3.487
		c-1.081,1.082-2.255,2.042-3.501,2.845c0.044,0.046,0.077,0.1,0.122,0.144l8.907,8.924c1.763,1.76,4.626,1.758,6.383,0
		C50.439,46.923,50.44,44.058,48.681,42.297z"/>
	<path d="M35.496,6.081C27.388-2.025,14.198-2.025,6.089,6.083c-8.117,8.106-8.118,21.306-0.006,29.415
		c8.113,8.106,21.305,8.106,29.413-0.001C43.604,27.388,43.603,14.188,35.496,6.081z M9.906,31.68
		C3.903,25.677,3.905,15.904,9.907,9.907c6.003-6.002,15.77-6.002,21.771-0.003c5.999,6,5.997,15.762,0,21.774
		C25.676,37.662,15.91,37.683,9.906,31.68z"/>
	<path d="M31.029,24.608l-3.797-3.752h-0.973c-0.062-0.721-0.17-1.425-0.369-2.068l2.604-3.539c0.286-0.389,0.203-0.937-0.186-1.223
		c-0.391-0.286-0.938-0.203-1.224,0.186l-2.025,2.753c-0.598-1-1.366-1.796-2.263-2.274c0.114-0.236,0.181-0.495,0.181-0.768
		c0-1.076-0.979-1.95-2.188-1.95c-1.21,0-2.189,0.874-2.189,1.95c0,0.273,0.067,0.532,0.181,0.768
		c-0.896,0.478-1.664,1.274-2.262,2.274l-2.025-2.753c-0.287-0.389-0.834-0.473-1.224-0.186c-0.389,0.286-0.473,0.833-0.187,1.223
		l2.604,3.539c-0.199,0.644-0.308,1.348-0.369,2.068h-0.973l-3.796,3.752c-0.344,0.339-0.348,0.894-0.007,1.237
		c0.339,0.344,0.893,0.348,1.237,0.006l3.285-3.246h0.254c0.062,0.721,0.17,1.422,0.369,2.067l-2.604,3.539
		c-0.286,0.39-0.203,0.938,0.187,1.225c0.39,0.284,0.937,0.203,1.224-0.187l2.025-2.753c1.015,1.699,2.542,2.807,4.271,2.807
		c1.729,0,3.254-1.107,4.27-2.807l2.025,2.753c0.171,0.233,0.436,0.357,0.705,0.357c0.181,0,0.362-0.056,0.519-0.17
		c0.389-0.287,0.472-0.834,0.186-1.225l-2.604-3.539c0.199-0.644,0.308-1.345,0.369-2.067h0.254l3.285,3.246
		c0.171,0.17,0.394,0.254,0.615,0.254c0.226,0,0.452-0.087,0.623-0.26C31.375,25.501,31.372,24.947,31.029,24.608z"/>
</g>
</svg>
