<?xml version="1.0" encoding="utf-8"?>
<!-- Generator: Adobe Illustrator 16.0.0, SVG Export Plug-In . SVG Version: 6.00 Build 0)  -->
<!DOCTYPE svg PUBLIC "-//W3C//DTD SVG 1.1//EN" "http://www.w3.org/Graphics/SVG/1.1/DTD/svg11.dtd">
<svg version="1.1" id="Layer_1" xmlns="http://www.w3.org/2000/svg" xmlns:xlink="http://www.w3.org/1999/xlink" x="0px" y="0px"
	 width="48px" height="48px" viewBox="0 0 48 48" enable-background="new 0 0 48 48" xml:space="preserve">
<g>
	<path d="M40.892,30.002l-7.193-12.588c-0.519-0.907-1.484-1.481-2.53-1.481h-1.405V5.153c1.066-0.04,1.935-0.91,1.935-1.988
		c0-1.104-0.883-1.99-1.986-1.99H18.289c-1.104,0-2.003,0.886-2.003,1.99c0,1.078,0.851,1.948,1.916,1.988v10.78h-1.37
		c-1.046,0-2.012,0.574-2.53,1.481L7.108,29.996c-0.513,0.896-0.513,2.001,0,2.897l7.193,12.59c0.519,0.907,1.484,1.483,2.53,1.483
		h14.336c1.046,0,2.012-0.574,2.53-1.481l7.193-12.582C41.404,32.007,41.404,30.898,40.892,30.002z M34.252,33.52
		c0,1.104-0.895,1.999-1.998,1.999h-16.43c-1.104,0-1.999-0.895-1.999-1.999v-8.292c0-1.104,0.896-1.999,1.999-1.999h16.43
		c1.104,0,1.998,0.895,1.998,1.999V33.52z"/>
	<path d="M17.504,28.391h8.994c0.828,0,1.499-0.659,1.499-1.487s-0.671-1.487-1.499-1.487h-8.994c-0.827,0-1.498,0.659-1.498,1.487
		S16.677,28.391,17.504,28.391z"/>
	<path d="M30.495,30.412H17.504c-0.827,0-1.498,0.659-1.498,1.487s0.671,1.487,1.498,1.487h12.991c0.828,0,1.499-0.659,1.499-1.487
		S31.323,30.412,30.495,30.412z"/>
</g>
</svg>
