<?xml version="1.0" encoding="utf-8"?>
<!-- Generator: Adobe Illustrator 16.0.0, SVG Export Plug-In . SVG Version: 6.00 Build 0)  -->
<!DOCTYPE svg PUBLIC "-//W3C//DTD SVG 1.1//EN" "http://www.w3.org/Graphics/SVG/1.1/DTD/svg11.dtd">
<svg version="1.1" id="Layer_1" xmlns="http://www.w3.org/2000/svg" xmlns:xlink="http://www.w3.org/1999/xlink" x="0px" y="0px"
	 width="48px" height="48px" viewBox="0 0 48 48" enable-background="new 0 0 48 48" xml:space="preserve">
<g>
	<path d="M16.431,20.055c-1.071-1.12-2.847-1.16-3.968-0.089l-8.109,7.751c-4.332,4.14-4.488,11.032-0.348,15.362
		c4.483,4.691,11.946,4.86,16.636,0.377l7.464-7.135c0.538-0.515,0.85-1.222,0.867-1.966c0.017-0.745-0.263-1.465-0.778-2.003
		L16.431,20.055z"/>
	<path d="M40.9,2.599c-5.488-2.822-12.287-0.58-15.109,4.908l-4.879,9.482c-0.34,0.662-0.404,1.433-0.177,2.142
		s0.728,1.299,1.39,1.639l15.137,7.778c1.378,0.708,3.07,0.166,3.779-1.212l4.759-9.251C48.686,12.472,46.51,5.484,40.9,2.599z
		 M42.102,15.85l-3.892,7.563l-12.461-6.404l3.99-7.755c1.736-3.374,5.853-4.632,9.228-2.896
		C42.462,8.157,43.901,12.353,42.102,15.85z"/>
	<circle cx="36.941" cy="36.784" r="2.784"/>
	<circle cx="32.784" cy="43.347" r="2.45"/>
	<circle cx="43.159" cy="43.471" r="2.326"/>
	<circle cx="12.689" cy="11.688" r="2.855"/>
	<circle cx="18.667" cy="6.833" r="2"/>
	<circle cx="10.347" cy="4.347" r="2.18"/>
</g>
</svg>
