<?xml version="1.0" encoding="utf-8"?>
<!-- Generator: Adobe Illustrator 16.0.0, SVG Export Plug-In . SVG Version: 6.00 Build 0)  -->
<!DOCTYPE svg PUBLIC "-//W3C//DTD SVG 1.1//EN" "http://www.w3.org/Graphics/SVG/1.1/DTD/svg11.dtd">
<svg version="1.1" id="Layer_12" xmlns="http://www.w3.org/2000/svg" xmlns:xlink="http://www.w3.org/1999/xlink" x="0px" y="0px"
	 width="100px" height="100px" viewBox="0 0 100 100" enable-background="new 0 0 100 100" xml:space="preserve">
<g>
	<path d="M27.96,59.498c-0.758,0.758-0.758,1.988,0,2.746l0.261,2.736L6.229,87.828c-1.125,1.125-1.124,2.947,0,4.072l1.758,1.758
		c1.125,1.123,2.948,1.123,4.073,0l23.116-21.832l2.696,0.328c0.758,0.758,1.987,0.758,2.745,0L74.201,38.57L61.545,25.914
		L27.96,59.498z M12.407,91.215c-0.391,0.496-0.872,0.986-1.453,1.252c-0.917,0.418-1.843,0.273-2.588-0.414
		c-0.519-0.477-0.483-1.346,0-1.828c0.438-0.439,1.083-0.475,1.584-0.18c0.085-0.074,0.226-0.193,0.266-0.236
		c0.127-0.137,0.246-0.277,0.361-0.424c0.438-0.555,1.376-0.453,1.83,0C12.951,89.928,12.844,90.662,12.407,91.215z M61.164,32.623
		L35.089,58.697c-1.18,1.18-3.01-0.648-1.83-1.83l26.075-26.074C60.514,29.613,62.344,31.443,61.164,32.623z"/>
	<path d="M91.088,9.027c-5.305-5.307-14.675-4.539-20.928,1.715c-2.166,2.166-3.672,4.705-4.498,7.32
		c-1.084-0.061-1.983,0.182-2.587,0.785c-0.935,0.936-1.019,2.564-0.414,4.523l14.592,14.592c1.96,0.607,3.59,0.521,4.524-0.412
		c0.723-0.723,0.933-1.865,0.715-3.246c2.459-0.854,4.836-2.307,6.88-4.35C95.626,23.701,96.394,14.332,91.088,9.027z"/>
</g>
</svg>
