<?xml version="1.0" encoding="utf-8"?>
<!-- Generator: Adobe Illustrator 16.0.0, SVG Export Plug-In . SVG Version: 6.00 Build 0)  -->
<!DOCTYPE svg PUBLIC "-//W3C//DTD SVG 1.1//EN" "http://www.w3.org/Graphics/SVG/1.1/DTD/svg11.dtd">
<svg version="1.1" id="Layer_1" xmlns="http://www.w3.org/2000/svg" xmlns:xlink="http://www.w3.org/1999/xlink" x="0px" y="0px"
	 width="48px" height="48px" viewBox="0 0 48 48" enable-background="new 0 0 48 48" xml:space="preserve">
<g>
	<path d="M43.048,3.665c-1.314-1.642-3.277-2.583-5.382-2.583c-1.559,0-3.087,0.537-4.305,1.513l-2.227,1.784l-0.607-0.758
		c-0.685-0.854-1.931-0.992-2.784-0.308s-0.991,1.931-0.307,2.784l0.607,0.758L9.257,21.908c-0.954,0.764-1.69,1.772-2.127,2.914
		l-2.595,6.777c-0.343,0.896-0.181,1.917,0.423,2.662c0.516,0.637,1.28,1.002,2.099,1.002c0.14,0,0.279-0.011,0.419-0.033
		l7.134-1.119c1.185-0.186,2.306-0.681,3.24-1.43l18.812-15.07l0.607,0.758c0.391,0.488,0.966,0.742,1.546,0.742
		c0.435,0,0.872-0.142,1.238-0.435c0.853-0.684,0.991-1.931,0.306-2.784l-0.606-0.758l2.228-1.785
		C44.943,10.974,45.423,6.629,43.048,3.665z M29.455,19.578l-1.12-1.398c-0.514-0.64-1.447-0.742-2.089-0.23
		c-0.641,0.513-0.743,1.447-0.23,2.088l1.12,1.397l-2.283,1.83l-1.119-1.397c-0.514-0.64-1.447-0.743-2.088-0.231
		c-0.64,0.513-0.743,1.448-0.231,2.088l1.12,1.397l-2.283,1.829l-1.12-1.397c-0.513-0.64-1.446-0.743-2.089-0.23
		c-0.64,0.513-0.742,1.448-0.229,2.088l1.12,1.397l-1.939,1.553c-0.533,0.427-1.17,0.708-1.844,0.813l-6.672,1.047l2.427-6.339
		c0.249-0.65,0.667-1.223,1.209-1.658L29.9,9.173l4.903,6.119L29.455,19.578z"/>
	<path d="M6.092,37.007c-0.311,0-0.593,0.181-0.725,0.462C4.453,39.432,3,42.738,3,43.909C3,45.616,4.384,47,6.092,47
		c1.707,0,3.092-1.384,3.092-3.091c0-1.17-1.454-4.477-2.367-6.44C6.685,37.188,6.402,37.007,6.092,37.007z"/>
</g>
</svg>
