<?xml version="1.0" encoding="utf-8"?>
<!-- Generator: Adobe Illustrator 16.0.0, SVG Export Plug-In . SVG Version: 6.00 Build 0)  -->
<!DOCTYPE svg PUBLIC "-//W3C//DTD SVG 1.1//EN" "http://www.w3.org/Graphics/SVG/1.1/DTD/svg11.dtd">
<svg version="1.1" id="Layer_9" xmlns="http://www.w3.org/2000/svg" xmlns:xlink="http://www.w3.org/1999/xlink" x="0px" y="0px"
	 width="100px" height="100px" viewBox="0 0 100 100" enable-background="new 0 0 100 100" xml:space="preserve">
<path d="M79.744,36.433H52.002c-1.246-4.63-2.254-7.072-3.325-8.349c0.457-0.935,1.002-1.801,1.667-2.481
	c0.719-0.741,2.827-0.569,3.972-0.311c0,0,0.548,0.614,0.868,0.906c4.683,4.262,10.797,2.918,13.952,1.938
	c16.525-5.13,9.323-26.861,9.323-26.861c-2.931,4.752-20.63,5.681-24.066,12.179c-1.651,3.128-2.107,5.659-1.861,7.707
	c1.136-0.124,14.281-1.721,21.084-9.791c0,0-7.952,12.393-20.456,12.085c-2.48-0.062-3.986-0.11-5.646,3.668
	c-0.895-0.456-1.893-0.429-3.137-0.398c-12.504,0.308-20.456-12.085-20.456-12.085c6.8,8.07,19.947,9.667,21.082,9.791
	c0.247-2.046-0.208-4.579-1.862-7.707c-3.436-6.499-21.134-7.426-24.065-12.179c0,0-7.201,21.731,9.322,26.861
	c3.155,0.98,9.271,2.324,13.953-1.938c0.32-0.292,0.867-0.905,0.867-0.905c1.147-0.258,3.252-0.43,3.973,0.31
	c1.86,1.912,2.844,5.27,3.326,7.56H19.993c-2.425,0-4.392,1.966-4.392,4.392v4.834c0,2.427,1.967,4.393,4.392,4.393h1.329
	l3.504,44.369c0,2.43,1.967,4.394,4.394,4.394h40.813c2.425,0,4.395-1.964,4.395-4.394l4.005-44.377l1.309,0.007
	c2.427,0,4.396-1.966,4.396-4.393v-4.834C84.135,38.399,82.166,36.433,79.744,36.433z"/>
</svg>
