<?xml version="1.0" encoding="utf-8"?>
<!-- Generator: Adobe Illustrator 16.0.4, SVG Export Plug-In . SVG Version: 6.00 Build 0)  -->
<!DOCTYPE svg PUBLIC "-//W3C//DTD SVG 1.1//EN" "http://www.w3.org/Graphics/SVG/1.1/DTD/svg11.dtd">
<svg version="1.1" id="Layer_1" xmlns="http://www.w3.org/2000/svg" xmlns:xlink="http://www.w3.org/1999/xlink" x="0px" y="0px"
	 width="50px" height="50px" viewBox="0 0 50 50" enable-background="new 0 0 50 50" xml:space="preserve">
<path d="M30.92,29.621c0.001,0.227-0.18,0.408-0.404,0.41c-0.01,0-0.021,0-0.029,0c-2.705,0-4.949-2.314-5.761-3.27
	c-0.806,0.971-3.036,3.322-5.753,3.342c-0.001,0-0.001,0-0.002,0c-0.223,0-0.405-0.184-0.407-0.406
	c-0.001-0.225,0.18-0.406,0.404-0.408c2.474-0.016,4.601-2.395,5.229-3.17c-0.636-0.764-2.782-3.104-5.241-3.104
	c-0.009,0-0.019-0.004-0.025,0c-0.223,0-0.405-0.181-0.407-0.404c-0.002-0.225,0.179-0.407,0.404-0.409
	c2.713-0.015,4.973,2.312,5.79,3.271c0.805-0.971,3.036-3.324,5.754-3.34c0.002,0,0.002,0,0.002,0c0.223,0,0.405,0.182,0.407,0.405
	s-0.18,0.407-0.403,0.407c-2.476,0.016-4.603,2.395-5.23,3.17c0.636,0.764,2.781,3.104,5.24,3.104c0.01,0,0.019-0.004,0.027,0
	C30.736,29.219,30.918,29.398,30.92,29.621z M30.346,23.616c-0.001,0-0.001,0-0.002,0c-0.225,0.001-0.406,0.185-0.404,0.409
	l0.023,4.122c0.001,0.223,0.184,0.402,0.407,0.402c0.001,0,0.001,0,0.002,0c0.226-0.002,0.405-0.186,0.403-0.408l-0.022-4.12
	C30.751,23.796,30.568,23.616,30.346,23.616z M28.621,24.135c0,0-0.001,0-0.002,0c-0.225,0-0.405,0.185-0.405,0.408l0.017,3.105
	c0,0.223,0.183,0.402,0.406,0.402c0.002,0,0.002,0,0.002,0c0.225,0,0.405-0.186,0.404-0.408l-0.016-3.104
	C29.027,24.314,28.846,24.135,28.621,24.135z M27.102,25.111c-0.002,0-0.002,0-0.002,0c-0.226,0.002-0.406,0.185-0.404,0.409
	l0.006,1.17c0.001,0.223,0.183,0.404,0.406,0.404c0.002,0,0.002,0,0.002,0c0.226-0.002,0.406-0.186,0.404-0.41l-0.006-1.17
	C27.506,25.291,27.325,25.111,27.102,25.111z M18.979,28.617c0,0,0.001,0,0.002,0c0.225-0.002,0.406-0.184,0.404-0.41l-0.024-4.118
	c-0.001-0.225-0.184-0.404-0.407-0.404c-0.001,0-0.001,0-0.002,0c-0.225,0-0.406,0.184-0.404,0.41l0.024,4.118
	C18.574,28.438,18.756,28.617,18.979,28.617z M20.705,28.1c0,0,0.001,0,0.002,0c0.225-0.002,0.406-0.186,0.404-0.408l-0.018-3.105
	c-0.001-0.224-0.184-0.405-0.407-0.405c-0.001,0-0.001,0-0.002,0c-0.225,0.002-0.406,0.186-0.404,0.41l0.018,3.104
	C20.3,27.918,20.482,28.1,20.705,28.1z M22.226,27.123c0.001,0,0.001,0,0.002,0c0.225-0.002,0.406-0.186,0.404-0.41l-0.006-1.17
	c-0.001-0.225-0.183-0.405-0.407-0.405c0,0-0.001,0-0.002,0c-0.225,0.002-0.406,0.184-0.404,0.409l0.006,1.17
	C21.82,26.941,22.001,27.123,22.226,27.123z M15.237,31.781V19.845c0-0.226,0.182-0.408,0.407-0.408h18.711
	c0.226,0,0.408,0.184,0.408,0.408v11.936c0,0.225-0.183,0.406-0.408,0.406H15.644C15.419,32.188,15.237,32.006,15.237,31.781z
	 M16.051,31.375h17.898V20.251H16.051V31.375z M40,17.302c0,0.227-0.182,0.407-0.407,0.407h-2.39V32.98
	c0,0.908-0.74,1.648-1.648,1.648h-21.11c-0.909,0-1.649-0.74-1.649-1.648V17.709h-2.39c-0.225,0-0.407-0.183-0.407-0.407
	c0-0.224,0.182-0.406,0.407-0.406h29.187C39.818,16.896,40,17.079,40,17.302z M36.391,17.709h-22.78V32.98
	c0,0.461,0.374,0.836,0.835,0.836h21.109c0.461,0,0.836-0.375,0.836-0.836V17.709z M10.407,16.185h29.187
	c0.225,0,0.407-0.183,0.407-0.408c0-0.223-0.183-0.405-0.407-0.405H10.407c-0.225,0-0.407,0.183-0.407,0.405
	C10,16.002,10.182,16.185,10.407,16.185z"/>
</svg>
