<?xml version="1.0" encoding="utf-8"?>
<!-- Generator: Adobe Illustrator 16.0.0, SVG Export Plug-In . SVG Version: 6.00 Build 0)  -->
<!DOCTYPE svg PUBLIC "-//W3C//DTD SVG 1.1//EN" "http://www.w3.org/Graphics/SVG/1.1/DTD/svg11.dtd">
<svg version="1.1" id="Layer_10" xmlns="http://www.w3.org/2000/svg" xmlns:xlink="http://www.w3.org/1999/xlink" x="0px" y="0px"
	 width="100px" height="100px" viewBox="0 0 100 100" enable-background="new 0 0 100 100" xml:space="preserve">
<path d="M50,8.833C27.3,8.833,8.833,27.3,8.833,50S27.3,91.167,50,91.167S91.167,72.7,91.167,50S72.7,8.833,50,8.833z M50,88.167
	c-21.045,0-38.167-17.122-38.167-38.167S28.955,11.833,50,11.833S88.167,28.955,88.167,50S71.045,88.167,50,88.167z M77.602,69
	c0,0.829-0.671,1.5-1.5,1.5s-1.5-0.671-1.5-1.5s0.671-1.5,1.5-1.5S77.602,68.171,77.602,69z M33.102,62.75
	c0,0.829-0.671,1.5-1.5,1.5s-1.5-0.671-1.5-1.5s0.671-1.5,1.5-1.5S33.102,61.921,33.102,62.75z M38.267,64.25
	c0,0.829-0.671,1.5-1.5,1.5s-1.5-0.671-1.5-1.5s0.671-1.5,1.5-1.5S38.267,63.421,38.267,64.25z M35.267,58.375
	c-0.829,0-1.5-0.671-1.5-1.5s0.671-1.5,1.5-1.5s1.5,0.671,1.5,1.5S36.095,58.375,35.267,58.375z M33.434,34.165
	c-1.012,0-1.833-0.82-1.833-1.833s0.82-1.833,1.833-1.833s1.833,0.82,1.833,1.833S34.446,34.165,33.434,34.165z M50.095,37.939
	L50.05,50h31.555c0-17.49-14.046-31.67-31.67-31.67l0.046,3.66c1.192-0.054,12.297-0.24,20.464,10.401l-1.587,1.218
	c-7.833-10.206-18.839-9.624-18.95-9.618l0.016,4.477c1.524-0.291,8.627-1.065,15.396,7.77l-1.588,1.217
	c-6.669-8.705-13.766-7.006-13.833-6.991l0.017,5.478c1.16-0.18,6.604-0.691,10.656,4.707l-1.6,1.201
	C55.297,36.954,50.306,37.896,50.095,37.939z M77.026,39.75c0.483,0,0.875,0.392,0.875,0.875S77.51,41.5,77.026,41.5
	s-0.875-0.392-0.875-0.875S76.543,39.75,77.026,39.75z"/>
</svg>
