<?xml version="1.0" encoding="utf-8"?>
<!-- Generator: Adobe Illustrator 16.0.0, SVG Export Plug-In . SVG Version: 6.00 Build 0)  -->
<!DOCTYPE svg PUBLIC "-//W3C//DTD SVG 1.1//EN" "http://www.w3.org/Graphics/SVG/1.1/DTD/svg11.dtd">
<svg version="1.1" id="Layer_9" xmlns="http://www.w3.org/2000/svg" xmlns:xlink="http://www.w3.org/1999/xlink" x="0px" y="0px"
	 width="100px" height="100px" viewBox="0 0 100 100" enable-background="new 0 0 100 100" xml:space="preserve">
<g>
	<path d="M14.34,55.863c-3.067,8.301,1.167,17.511,9.467,20.581c8.294,3.069,17.508-1.175,20.579-9.468
		c3.065-8.292-5.618-30.971-5.618-30.971S17.414,47.564,14.34,55.863z M19.597,59.123c1.015,9.021,6.132,12.119,6.132,12.119
		C16.609,68.52,19.597,59.123,19.597,59.123z"/>
	<path d="M83.905,56.725c0,0-9.375,5.078-10.723,8.72c-1.346,3.643,0.513,7.686,4.155,9.033c3.641,1.345,7.685-0.514,9.033-4.154
		S83.905,56.725,83.905,56.725z M75.489,66.874c0.446,3.962,2.692,5.322,2.692,5.322C74.178,71.005,75.489,66.874,75.489,66.874z"/>
	<path d="M79.165,41.986c2.51-6.792-4.6-25.357-4.6-25.357s-17.48,9.474-19.993,16.259c-2.512,6.787,0.957,14.338,7.745,16.845
		C69.107,52.249,76.651,48.778,79.165,41.986z M58.871,35.556c0.832,7.385,5.022,9.922,5.022,9.922
		C56.425,43.251,58.871,35.556,58.871,35.556z"/>
</g>
</svg>
