<?xml version="1.0" encoding="iso-8859-1"?>
<!-- Generator: Adobe Illustrator 16.0.0, SVG Export Plug-In . SVG Version: 6.00 Build 0)  -->
<!DOCTYPE svg PUBLIC "-//W3C//DTD SVG 1.1//EN" "http://www.w3.org/Graphics/SVG/1.1/DTD/svg11.dtd">
<svg version="1.1" id="Layer_1" xmlns="http://www.w3.org/2000/svg" xmlns:xlink="http://www.w3.org/1999/xlink" x="0px" y="0px"
	 width="34.697px" height="45.057px" viewBox="0 0 34.697 45.057" style="enable-background:new 0 0 34.697 45.057;"
	 xml:space="preserve">
<g>
	<path d="M7.958,20.027c-1.612,0-1.612,2.5,0,2.5c6.418,0,12.835,0,19.253,0c1.613,0,1.613-2.5,0-2.5
		C20.793,20.027,14.376,20.027,7.958,20.027z"/>
	<path d="M27.211,24.781c-6.418,0-12.835,0-19.253,0c-1.612,0-1.612,2.5,0,2.5c6.418,0,12.835,0,19.253,0
		C28.824,27.281,28.824,24.781,27.211,24.781z"/>
	<path d="M27.211,29.865c-6.418,0-12.835,0-19.253,0c-1.612,0-1.612,2.5,0,2.5c6.418,0,12.835,0,19.253,0
		C28.824,32.365,28.824,29.865,27.211,29.865z"/>
	<path d="M26.84,35.031c-6.418,0-12.836,0-19.254,0c-1.611,0-1.611,2.5,0,2.5c6.418,0,12.836,0,19.254,0
		C28.452,37.531,28.452,35.031,26.84,35.031z"/>
	<path d="M28.25,0H0v45.057h34.697V6.25L28.25,0z M31.697,42.057H3V3h23.705v4.76h4.992V42.057z"/>
	<path d="M8.709,14.186c-0.043,0.038-0.089,0.063-0.138,0.076s-0.093,0.02-0.132,0.02c-0.095,0-0.189-0.025-0.284-0.076
		c-0.094-0.051-0.159-0.158-0.196-0.32c-0.024-0.107-0.036-0.227-0.036-0.358H6.917c0,0.29,0.027,0.538,0.082,0.747
		c0.056,0.208,0.125,0.387,0.211,0.533c0.085,0.147,0.181,0.264,0.287,0.351c0.107,0.087,0.214,0.155,0.32,0.206
		s0.207,0.084,0.302,0.1c0.095,0.015,0.172,0.021,0.233,0.021c0.183,0,0.363-0.031,0.543-0.095c0.181-0.063,0.342-0.167,0.485-0.313
		c0.143-0.145,0.259-0.337,0.347-0.575c0.089-0.238,0.133-0.536,0.133-0.892c0-0.249-0.026-0.462-0.078-0.637
		s-0.121-0.322-0.208-0.442c-0.086-0.119-0.185-0.217-0.294-0.293c-0.11-0.076-0.223-0.143-0.339-0.198
		c-0.115-0.05-0.229-0.098-0.34-0.141c-0.111-0.044-0.211-0.089-0.3-0.138c-0.088-0.048-0.16-0.104-0.217-0.168
		c-0.057-0.063-0.086-0.143-0.089-0.239c0-0.076,0.012-0.139,0.036-0.187c0.024-0.049,0.055-0.086,0.092-0.111
		c0.036-0.025,0.076-0.043,0.118-0.053c0.043-0.01,0.081-0.016,0.114-0.016c0.052,0,0.104,0.011,0.155,0.031
		c0.052,0.02,0.1,0.056,0.142,0.105c0.043,0.047,0.076,0.105,0.099,0.176c0.022,0.071,0.029,0.158,0.021,0.26h0.951
		c-0.007-0.33-0.048-0.609-0.124-0.835s-0.177-0.409-0.302-0.549S9.03,9.938,8.868,9.876c-0.161-0.062-0.33-0.092-0.507-0.092
		c-0.168,0-0.331,0.034-0.489,0.103c-0.158,0.069-0.299,0.178-0.42,0.324c-0.122,0.147-0.221,0.334-0.295,0.561
		c-0.075,0.227-0.112,0.496-0.112,0.812c0,0.274,0.033,0.499,0.101,0.675c0.067,0.175,0.153,0.32,0.259,0.434
		c0.104,0.115,0.224,0.206,0.356,0.275c0.132,0.068,0.263,0.133,0.391,0.193c0.14,0.066,0.256,0.123,0.347,0.172
		c0.092,0.049,0.163,0.094,0.215,0.137c0.052,0.044,0.089,0.09,0.11,0.138c0.021,0.048,0.031,0.108,0.031,0.179
		c0,0.102-0.014,0.185-0.041,0.248S8.751,14.147,8.709,14.186z"/>
	<path d="M10.507,14.662c0.142,0.254,0.314,0.455,0.519,0.602c0.204,0.147,0.438,0.221,0.704,0.221c0.237,0,0.449-0.065,0.635-0.197
		c0.186-0.133,0.342-0.307,0.469-0.522c0.126-0.216,0.222-0.458,0.288-0.728c0.065-0.27,0.098-0.541,0.098-0.815h-0.987
		c-0.015,0.127-0.035,0.247-0.062,0.358c-0.025,0.111-0.06,0.208-0.101,0.289c-0.041,0.082-0.091,0.145-0.15,0.191
		c-0.06,0.045-0.132,0.068-0.218,0.068c-0.118,0-0.218-0.043-0.297-0.13s-0.143-0.2-0.189-0.343s-0.081-0.303-0.103-0.48
		s-0.032-0.358-0.032-0.541c0-0.184,0.011-0.363,0.032-0.541s0.056-0.338,0.103-0.48s0.11-0.256,0.189-0.343s0.179-0.13,0.297-0.13
		c0.104,0,0.188,0.033,0.254,0.1s0.118,0.143,0.158,0.229c0.039,0.086,0.066,0.174,0.082,0.263c0.015,0.089,0.025,0.159,0.032,0.21
		h0.978c-0.043-0.686-0.187-1.216-0.432-1.59c-0.245-0.373-0.594-0.563-1.044-0.567c-0.253,0-0.481,0.069-0.684,0.206
		c-0.203,0.137-0.376,0.33-0.521,0.579c-0.145,0.249-0.256,0.549-0.333,0.899c-0.078,0.351-0.117,0.739-0.117,1.166
		c0,0.401,0.037,0.775,0.11,1.124S10.365,14.408,10.507,14.662z"/>
	<rect x="13.64" y="9.914" width="1.005" height="5.441"/>
	<polygon points="17.913,13.961 16.167,13.961 16.167,13.283 17.707,13.283 17.707,11.986 16.167,11.986 16.167,11.309 
		17.862,11.309 17.862,9.914 15.162,9.914 15.162,15.355 17.913,15.355 	"/>
	<polygon points="19.334,12.383 19.343,12.383 20.344,15.355 21.321,15.355 21.321,9.914 20.371,9.914 20.371,12.825 20.362,12.825 
		19.411,9.914 18.383,9.914 18.383,15.355 19.334,15.355 	"/>
	<path d="M22.184,14.662c0.142,0.254,0.314,0.455,0.519,0.602c0.204,0.147,0.438,0.221,0.704,0.221c0.237,0,0.449-0.065,0.635-0.197
		c0.186-0.133,0.342-0.307,0.469-0.522c0.126-0.216,0.222-0.458,0.288-0.728c0.065-0.27,0.098-0.541,0.098-0.815h-0.987
		c-0.015,0.127-0.035,0.247-0.062,0.358c-0.025,0.111-0.06,0.208-0.101,0.289c-0.041,0.082-0.091,0.145-0.15,0.191
		c-0.06,0.045-0.132,0.068-0.218,0.068c-0.118,0-0.218-0.043-0.297-0.13s-0.143-0.2-0.189-0.343s-0.081-0.303-0.103-0.48
		s-0.032-0.358-0.032-0.541c0-0.184,0.011-0.363,0.032-0.541s0.056-0.338,0.103-0.48s0.11-0.256,0.189-0.343s0.179-0.13,0.297-0.13
		c0.104,0,0.188,0.033,0.254,0.1s0.118,0.143,0.158,0.229c0.039,0.086,0.066,0.174,0.082,0.263c0.015,0.089,0.025,0.159,0.032,0.21
		h0.978c-0.043-0.686-0.187-1.216-0.432-1.59c-0.245-0.373-0.594-0.563-1.044-0.567c-0.253,0-0.481,0.069-0.684,0.206
		c-0.203,0.137-0.376,0.33-0.521,0.579c-0.145,0.249-0.256,0.549-0.333,0.899c-0.078,0.351-0.117,0.739-0.117,1.166
		c0,0.401,0.037,0.775,0.11,1.124S22.042,14.408,22.184,14.662z"/>
	<polygon points="25.316,15.355 28.067,15.355 28.067,13.961 26.321,13.961 26.321,13.283 27.861,13.283 27.861,11.986 
		26.321,11.986 26.321,11.309 28.017,11.309 28.017,9.914 25.316,9.914 	"/>
</g>
<g>
</g>
<g>
</g>
<g>
</g>
<g>
</g>
<g>
</g>
<g>
</g>
<g>
</g>
<g>
</g>
<g>
</g>
<g>
</g>
<g>
</g>
<g>
</g>
<g>
</g>
<g>
</g>
<g>
</g>
</svg>
