<?xml version="1.0" encoding="utf-8"?>
<!-- Generator: Adobe Illustrator 16.0.4, SVG Export Plug-In . SVG Version: 6.00 Build 0)  -->
<!DOCTYPE svg PUBLIC "-//W3C//DTD SVG 1.1//EN" "http://www.w3.org/Graphics/SVG/1.1/DTD/svg11.dtd">
<svg version="1.1" id="Layer_1" xmlns="http://www.w3.org/2000/svg" xmlns:xlink="http://www.w3.org/1999/xlink" x="0px" y="0px"
	 width="48.258px" height="47.242px" viewBox="0 0 48.258 47.242" enable-background="new 0 0 48.258 47.242" xml:space="preserve">
<path d="M29.59,7.408l6.064,7.558c-0.843,0.065-1.75-0.048-2.654-0.496l-3.451-4.3C29.28,9.155,29.346,8.227,29.59,7.408z
	 M38.872,13.873l-7.494-9.339c-0.352,0.354-0.758,0.833-1.121,1.417l6.975,8.691C37.898,14.416,38.459,14.124,38.872,13.873z
	 M3.644,26.576l7.553,9.412c0.28-0.269,0.725-0.738,1.157-1.371l-7.186-8.955C4.572,25.944,4.05,26.275,3.644,26.576z
	 M13.524,30.972l-4.653-5.799c-0.788-0.192-1.552-0.159-2.263-0.006l6.484,8.082C13.369,32.568,13.548,31.803,13.524,30.972z
	 M15.342,25.212c-4.472-5.573,0.368-9.921,1.383-10.735c1.853-1.486,6.604-4.388,10.727,0.75c0.854,1.063,1.344,2.099,1.577,3.082
	c0.718-0.144,1.458-0.22,2.218-0.225c-0.045-0.226-0.092-0.451-0.158-0.68c4.275,1.88,9.34-0.467,11.875-2.407l-1.348-1.766
	c-0.311,0.236-7.642,5.714-12.005,0.276C25.234,8.054,32.073,1.929,32.366,1.67L30.901,0c-2.39,2.091-5.688,6.574-4.792,11.159
	c-3.731-2.11-7.807-0.797-10.775,1.585c-2.171,1.742-4.747,5.28-3.896,9.46C7.26,20.66,2.449,22.92,0,24.794l1.349,1.766
	c0.31-0.236,7.641-5.713,12.004-0.275c4.377,5.455-2.461,11.579-2.755,11.836l1.464,1.67c2.263-1.979,5.349-6.101,4.912-10.424
	c0.923,0.45,1.859,0.69,2.781,0.784c-0.007-0.159-0.024-0.317-0.024-0.479c0-0.588,0.058-1.16,0.143-1.726
	C18.376,27.764,16.789,27.016,15.342,25.212z M31.155,39.976c-5.672,0-10.286-4.615-10.286-10.286
	c0-5.672,4.614-10.286,10.286-10.286s10.286,4.614,10.286,10.286C41.441,35.361,36.827,39.976,31.155,39.976z M38.859,29.69
	c0-4.248-3.456-7.704-7.704-7.704s-7.704,3.456-7.704,7.704c0,4.247,3.456,7.703,7.704,7.703
	C35.402,37.393,38.858,33.938,38.859,29.69z M40.358,37.064l-2.275,2.274l7.902,7.903l2.275-2.275L40.358,37.064z M29.622,34.259
	h2.602v-2.475h-2.602V34.259z M33.709,25.989c-0.258-0.254-0.596-0.463-1.013-0.625c-0.417-0.163-0.929-0.243-1.538-0.243
	c-0.617,0-1.14,0.094-1.568,0.28c-0.43,0.187-0.781,0.431-1.057,0.731c-0.275,0.3-0.479,0.64-0.613,1.019
	c-0.133,0.379-0.211,0.765-0.236,1.157h2.613c-0.025-0.275,0.024-0.521,0.149-0.738s0.339-0.324,0.638-0.324
	c0.483,0,0.726,0.213,0.726,0.637c0,0.143-0.042,0.264-0.125,0.363c-0.083,0.101-0.187,0.187-0.306,0.256
	c-0.121,0.071-0.248,0.136-0.381,0.193c-0.133,0.059-0.25,0.113-0.351,0.163c-0.242,0.134-0.425,0.3-0.55,0.5
	s-0.213,0.404-0.264,0.612c-0.049,0.208-0.074,0.412-0.074,0.611c0,0.192,0.004,0.351,0.013,0.477h2.313
	c0-0.143,0.01-0.268,0.031-0.375c0.021-0.107,0.057-0.204,0.105-0.287c0.05-0.083,0.121-0.163,0.212-0.238
	c0.091-0.074,0.208-0.15,0.351-0.225c0.207-0.109,0.412-0.215,0.612-0.319c0.2-0.104,0.381-0.235,0.544-0.394
	c0.162-0.158,0.294-0.356,0.395-0.594c0.1-0.237,0.149-0.547,0.149-0.932c-0.017-0.275-0.086-0.564-0.207-0.869
	C34.159,26.522,33.969,26.244,33.709,25.989z M15.095,21.743l3.45,4.299c0.55,0.272,1.098,0.41,1.634,0.47
	c0.085-0.3,0.184-0.593,0.292-0.882l-5.335-6.649C14.891,19.798,14.825,20.728,15.095,21.743z M15.803,17.522l5.323,6.634
	c0.295-0.545,0.642-1.057,1.018-1.544l-5.221-6.507C16.572,16.458,16.164,16.938,15.803,17.522z M24.295,20.468L19.4,14.367
	c-0.597,0.282-1.119,0.613-1.525,0.914l5.102,6.358C23.385,21.215,23.827,20.826,24.295,20.468z M27.116,18.88l-4.013-5
	c-0.788-0.194-1.552-0.161-2.262-0.007l4.648,5.793C26.008,19.364,26.549,19.1,27.116,18.88z"/>
</svg>
