<?xml version="1.0" encoding="iso-8859-1"?>
<!-- Generator: Adobe Illustrator 16.0.0, SVG Export Plug-In . SVG Version: 6.00 Build 0)  -->
<!DOCTYPE svg PUBLIC "-//W3C//DTD SVG 1.1//EN" "http://www.w3.org/Graphics/SVG/1.1/DTD/svg11.dtd">
<svg version="1.1" id="Layer_1" xmlns="http://www.w3.org/2000/svg" xmlns:xlink="http://www.w3.org/1999/xlink" x="0px" y="0px"
	 width="47.412px" height="41.817px" viewBox="0 0 47.412 41.817" style="enable-background:new 0 0 47.412 41.817;"
	 xml:space="preserve">
<g>
	<path d="M33.206,33.743c1.955,0,1.924-1.746,1.924-1.965c0-0.22,0-10.501,0-10.501h-4.143c0,0,0,10.162,0,10.501
		C30.987,32.116,31.25,33.743,33.206,33.743z"/>
	<path d="M14.707,33.166c1.775,0,1.746-1.584,1.746-1.783c0-0.2,0-9.529,0-9.529h-3.76c0,0,0,9.222,0,9.529
		C12.693,31.689,12.933,33.166,14.707,33.166z"/>
	<path d="M47.412,19.386v-2.394h-9.312v-4.004h1.881V9.756H26.219v3.232H28.1l-0.042,3.942h-8.695l0.042-3.796h1.829V9.61H7.573
		v3.523h1.829v3.859H0v2.394h2.362v19.158L0,38.55v3.267L47.412,41.7v-3.267l-1.879,0.005V19.386H47.412z M29.804,13.102h6.592
		v18.596c0.002,0.981-0.279,1.804-0.792,2.317c-0.492,0.494-1.235,0.744-2.209,0.744c-3.494,0-3.591-3.052-3.591-3.083V13.102z
		 M11.107,13.133h6.592v18.564c0.001,0.981-0.279,1.804-0.792,2.317c-0.493,0.494-1.235,0.744-2.209,0.744
		c-3.494,0-3.591-3.052-3.591-3.083V13.133z M42.267,38.445L5.629,38.536v-19.15h3.773v12.29c0,1.242,0.973,4.788,5.296,4.788
		c1.442,0,2.592-0.418,3.415-1.244c0.835-0.836,1.294-2.088,1.291-3.544V19.411H28.1v12.265c0,1.242,0.972,4.788,5.295,4.788
		c1.442,0,2.592-0.418,3.415-1.244c0.836-0.836,1.294-2.088,1.291-3.544v-12.29h4.166V38.445z"/>
	<path d="M16.052,6.414c0,1.374,1.117,2.492,2.492,2.492c1.373,0,2.492-1.118,2.492-2.492s-1.119-2.492-2.492-2.492
		C17.169,3.921,16.052,5.04,16.052,6.414z M18.544,5.921c0.271,0,0.492,0.221,0.492,0.492s-0.221,0.492-0.492,0.492
		s-0.492-0.221-0.492-0.492S18.272,5.921,18.544,5.921z"/>
	<path d="M12.063,8.369c0.34,0,0.676-0.056,0.999-0.165c0.79-0.267,1.429-0.825,1.798-1.572c0.371-0.747,0.428-1.594,0.16-2.383
		c-0.428-1.27-1.616-2.123-2.955-2.123c-0.34,0-0.676,0.056-1,0.165c-0.789,0.267-1.428,0.825-1.798,1.572
		C8.897,4.61,8.841,5.457,9.108,6.246C9.536,7.516,10.724,8.369,12.063,8.369z M11.061,4.75c0.132-0.268,0.362-0.469,0.646-0.564
		c0.117-0.04,0.237-0.06,0.359-0.06c0.48,0,0.906,0.307,1.061,0.763c0.096,0.283,0.075,0.587-0.058,0.855
		c-0.132,0.268-0.362,0.469-0.646,0.564c-0.582,0.195-1.228-0.132-1.42-0.703C10.907,5.322,10.928,5.019,11.061,4.75z"/>
	<path d="M16.511,3.479c0.189,0,0.377-0.031,0.559-0.092c0.91-0.309,1.399-1.299,1.092-2.206c-0.299-0.89-1.327-1.393-2.206-1.095
		c-0.442,0.148-0.798,0.46-1.005,0.877s-0.238,0.889-0.09,1.331C15.1,3.002,15.763,3.479,16.511,3.479z M16.429,1.492
		c0.025-0.009,0.054-0.014,0.082-0.014c0.111,0,0.209,0.071,0.245,0.177c0.021,0.063,0.017,0.135-0.014,0.195
		c-0.03,0.062-0.085,0.109-0.229,0.144c-0.112,0-0.211-0.071-0.246-0.174C16.221,1.685,16.292,1.538,16.429,1.492z"/>
	<path d="M29.537,8.72c0.067,0.006,0.136,0.008,0.202,0.008c1.289,0,2.379-1.007,2.482-2.292c0.054-0.664-0.154-1.309-0.586-1.816
		c-0.432-0.507-1.034-0.816-1.698-0.869c-1.375-0.117-2.575,0.932-2.685,2.284c-0.053,0.664,0.154,1.308,0.586,1.815
		C28.271,8.358,28.874,8.667,29.537,8.72z M29.773,5.745c0.001,0,0.003,0,0.003,0c0.178,0.015,0.287,0.114,0.336,0.172
		c0.05,0.058,0.131,0.182,0.116,0.359c-0.021,0.253-0.235,0.452-0.489,0.452l-0.041-0.001c-0.178-0.014-0.287-0.114-0.336-0.172
		s-0.13-0.182-0.115-0.358C29.267,5.943,29.48,5.745,29.773,5.745z"/>
	<path d="M33.392,6.749c0.309,0.774,0.899,1.382,1.665,1.711c0.393,0.169,0.808,0.254,1.231,0.255c1.249,0,2.375-0.741,2.867-1.888
		c0.33-0.766,0.342-1.614,0.033-2.389s-0.9-1.382-1.666-1.711c-0.393-0.169-0.808-0.254-1.232-0.254
		c-1.249,0-2.375,0.741-2.867,1.888C33.094,5.126,33.082,5.975,33.392,6.749z M35.261,5.151c0.177-0.412,0.581-0.678,1.029-0.678
		c0.152,0,0.301,0.031,0.442,0.092C37.007,4.683,37.22,4.9,37.33,5.179c0.11,0.278,0.106,0.583-0.011,0.858
		c-0.238,0.55-0.911,0.826-1.473,0.586c-0.274-0.119-0.487-0.337-0.598-0.615C35.138,5.73,35.142,5.426,35.261,5.151z"/>
	<path d="M31.45,3.337c0.219,0.094,0.451,0.142,0.688,0.142c0.697,0,1.326-0.414,1.602-1.054c0.184-0.428,0.189-0.902,0.018-1.334
		c-0.173-0.432-0.504-0.771-0.93-0.954c-0.861-0.371-1.92,0.053-2.287,0.911c-0.186,0.427-0.191,0.9-0.02,1.333
		S31.022,3.153,31.45,3.337z M31.901,1.635c0.041-0.095,0.135-0.156,0.236-0.156c0.036,0,0.072,0.007,0.104,0.021
		c0.063,0.026,0.112,0.078,0.137,0.141c0.025,0.064,0.025,0.136-0.002,0.197c-0.054,0.128-0.217,0.189-0.338,0.136
		c-0.063-0.027-0.113-0.079-0.139-0.142C31.874,1.769,31.875,1.697,31.901,1.635z"/>
</g>
<g>
</g>
<g>
</g>
<g>
</g>
<g>
</g>
<g>
</g>
<g>
</g>
<g>
</g>
<g>
</g>
<g>
</g>
<g>
</g>
<g>
</g>
<g>
</g>
<g>
</g>
<g>
</g>
<g>
</g>
</svg>
