<?xml version="1.0" encoding="iso-8859-1"?>
<!-- Generator: Adobe Illustrator 16.0.0, SVG Export Plug-In . SVG Version: 6.00 Build 0)  -->
<!DOCTYPE svg PUBLIC "-//W3C//DTD SVG 1.1//EN" "http://www.w3.org/Graphics/SVG/1.1/DTD/svg11.dtd">
<svg version="1.1" id="Layer_1" xmlns="http://www.w3.org/2000/svg" xmlns:xlink="http://www.w3.org/1999/xlink" x="0px" y="0px"
	 width="37.771px" height="47.023px" viewBox="0 0 37.771 47.023" style="enable-background:new 0 0 37.771 47.023;"
	 xml:space="preserve">
<path d="M29.562,43.929v-1.866h-1.585c0.478-0.414,0.905-0.922,1.209-1.506c0.475-0.908,0.826-2.355-0.193-4.083l-0.68-1.155
	l0.168,1.33c0.126,0.998-0.293,1.588-0.647,1.9c0.06-1.041,0.014-3.24-1.224-4.781c-0.773-0.965-1.879-1.506-3.291-1.609
	l-0.852-0.063l0.654,0.551c0.78,0.656,1.208,1.382,1.269,2.156c0.036,0.447-0.056,0.857-0.183,1.193
	c-0.08-0.563-0.331-1.186-1.006-1.486l-0.457-0.203l0.07,0.493c0.159,1.128-0.272,1.856-0.727,2.627
	c-0.461,0.778-0.937,1.583-0.747,2.77c0.123,0.766,0.393,1.388,0.803,1.866H19.84v1.866H5.605V22.45
	c1.731-0.308,3.126-1.551,3.673-3.188h4.665c-0.326,0.736-0.519,1.534-0.519,2.427c0,5.145,3.667,7.987,10.322,8.017
	c6.656-0.029,10.322-2.872,10.322-8.017c0-0.893-0.081-1.69-0.262-2.427h2.132v-3h-3.887c-0.247-0.234-0.516-0.465-0.82-0.689
	c-1.485-1.097-4.917-2.231-4.917-3.125c0-2.23-0.129-7.086-0.181-8.956h1.202V0h-3.589h-3.589v3.492h1.202
	c-0.052,1.87-0.181,6.726-0.181,8.956c0,0.894-2.484,2.028-3.969,3.125c-0.305,0.225-0.594,0.455-0.872,0.689H9.278
	c-0.547-1.637-1.941-2.88-3.673-3.188V8.763h-3v4.773C1.066,14.329,0,15.916,0,17.764c0,1.847,1.066,3.434,2.605,4.227v24.938
	l35.167,0.095v-3L29.562,43.929z M32.594,21.689c0,5.367-4.788,6.524-8.848,6.544c-4.06-0.02-8.847-1.177-8.847-6.544
	c0-0.862,0.272-1.668,0.743-2.427h16.625C32.521,20.021,32.594,20.827,32.594,21.689z M21.632,1.477h2.114h2.114v0.542h-2.114
	h-2.114V1.477z M22.652,12.448c0-2.228,0.131-7.119,0.182-8.956h0.912h0.912c0.051,1.837,0.182,6.729,0.182,8.956
	c0,1.441,2.823,2.618,4.771,3.814H18.791C20.562,15.066,22.652,13.89,22.652,12.448z M2,17.764c0-1.528,1.243-2.772,2.771-2.772
	s2.771,1.244,2.771,2.772c0,1.527-1.243,2.771-2.771,2.771S2,19.291,2,17.764z M27.049,42.063h-0.84
	c0.574-1.27,0.423-4.064-1.419-4.462c0.665,0.973-0.162,1.993-0.901,2.514c-0.735,0.519-1.221,0.991-0.841,1.948h-0.082
	c-0.575-0.426-0.936-1.064-1.078-1.953c-0.159-0.989,0.247-1.675,0.675-2.401c0.383-0.647,0.808-1.366,0.837-2.345
	c0.436,0.617,0.241,1.642,0.239,1.654l-0.201,1.018l0.681-0.781c0.039-0.044,0.932-1.086,0.825-2.488
	c-0.053-0.688-0.337-1.336-0.845-1.933c0.864,0.205,1.561,0.633,2.079,1.278c1.486,1.852,1.061,4.91,1.056,4.94l-0.07,0.483
	l0.45-0.188c0.013-0.006,1.018-0.438,1.344-1.59c0.305,1.06,0.054,1.939-0.261,2.545C28.311,41.039,27.693,41.643,27.049,42.063z"/>
<g>
</g>
<g>
</g>
<g>
</g>
<g>
</g>
<g>
</g>
<g>
</g>
<g>
</g>
<g>
</g>
<g>
</g>
<g>
</g>
<g>
</g>
<g>
</g>
<g>
</g>
<g>
</g>
<g>
</g>
</svg>
