<?xml version="1.0" encoding="utf-8"?>
<!-- Generator: Adobe Illustrator 16.0.0, SVG Export Plug-In . SVG Version: 6.00 Build 0)  -->
<!DOCTYPE svg PUBLIC "-//W3C//DTD SVG 1.1//EN" "http://www.w3.org/Graphics/SVG/1.1/DTD/svg11.dtd">
<svg version="1.1" id="Artwork" xmlns="http://www.w3.org/2000/svg" xmlns:xlink="http://www.w3.org/1999/xlink" x="0px" y="0px"
	 width="512px" height="512px" viewBox="0 0 512 512" enable-background="new 0 0 512 512" xml:space="preserve">
<path d="M399.92,196.285c-20.082-26.4-47.052-46.207-78.256-56.942c0,0-0.941-0.309-0.941-2.017c0-8.502,0-34.009,0-34.009h10.385
	c11.122,0,20.17-9.049,20.17-20.171V66.618c0-11.121-9.048-20.17-20.17-20.17H201.431c-11.122,0-20.17,9.049-20.17,20.17v16.528
	c0,11.122,9.048,20.171,20.17,20.171h10.386c0,0,0,25.677,0,34.675c0,1.083-1.483,1.542-1.483,1.542
	c-31.204,10.737-57.633,30.349-77.716,56.75c-22.344,29.373-34.155,64.455-34.155,101.454c0,92.529,75.278,167.806,167.807,167.806
	c92.529,0,167.807-75.277,167.807-167.806C434.077,260.74,422.266,225.658,399.92,196.285z M224.629,155.92l5.922-1.736
	c0,0,1.265-0.358,1.265-2.067c0-9.018,0-51.52,0-67.031c0-0.833-0.72-1.769-2.126-1.769c-6.797,0-27.188,0-27.188,0
	c-0.07,0-1.242,0.05-1.242-0.825V67.491c0-0.948,0.524-1.061,1.054-1.061c32.183,0,128.458,0.019,128.458,0.019
	c0.438,0,0.504,0.315,0.504,0.773v15.724c0,0.07-0.025,0.372-0.416,0.372c0,0-20.718,0-27.859,0c-2.083,0-2.28,1.258-2.28,3.05
	c0,14.988,0.137,55.219,0,65.188c-0.033,2.375,1.375,2.662,1.375,2.662l5.812,1.704c36.552,10.715,66.655,35.11,85.354,66.552
	c0.637,1.07,1.129,3.234-2.538,3.234H142.894c-5.167,0-3.917-2.748-3.1-4.102C158.53,190.582,188.413,166.537,224.629,155.92z
	 M266.27,445.545c-81.501,0-147.807-66.306-147.807-147.806c0-17.375,1.899-30.812,7.634-46.583c0,0,1.047-3.45,3.921-3.45
	c68.805,0,271.042,0,271.042,0c3.833,0,4.776,1.67,5.064,2.51c5.168,15.048,7.952,31.066,7.952,47.523
	C414.077,379.239,347.77,445.545,266.27,445.545z"/>
<circle cx="187.054" cy="317.442" r="34.893"/>
<circle cx="250.8" cy="373.903" r="22.841"/>
</svg>
