<?xml version="1.0" encoding="utf-8"?>
<!-- Generator: Adobe Illustrator 17.0.0, SVG Export Plug-In . SVG Version: 6.00 Build 0)  -->
<!DOCTYPE svg PUBLIC "-//W3C//DTD SVG 1.1//EN" "http://www.w3.org/Graphics/SVG/1.1/DTD/svg11.dtd">
<svg version="1.1" id="Capa_1" xmlns="http://www.w3.org/2000/svg" xmlns:xlink="http://www.w3.org/1999/xlink" x="0px" y="0px"
	 width="200px" height="200px" viewBox="0 0 200 200" enable-background="new 0 0 200 200" xml:space="preserve">
<g>
	<path d="M187.499,57.168c-0.286-2.663-1.953-4.651-4.762-4.762c-1.647-0.065-3.292-0.137-4.938-0.203
		c-0.253-7.566-0.524-15.988-3.493-21.929c-0.605-1.211-2.224-1.596-3.496-1.176c2.844-1.61,5.311-3.612,7.06-6.133
		c8.931-12.872-15.373-16.228-22.418-16.996c-10.238-1.115-26.785,0.853-31.106,11.824c-2.412,6.124,2.626,12.24,8.155,14.091
		c0.943,0.315,1.909,0.488,2.871,0.69c-1.423,5.695-2.29,11.642-2.821,17.686c-20.125-0.927-40.24-1.969-60.359-3.165
		c-0.386-4.739-0.722-9.464-0.903-14.162c-0.033-0.871-0.355-1.527-0.775-2.078c0.28-0.126,0.598-0.225,0.871-0.355
		c11.827-5.614,7.926-15.191-2.25-19.289c-12.127-4.884-30.094-6.277-42.262-1.03c-1.578,0.68-2.08,2.126-1.885,3.556
		c-3.267,1.583-5.847,4.678-7.25,8.104c-2.592,6.329,3.103,10.489,8.172,12.137c1.756,0.571,3.624,1.023,5.558,1.386
		c-2.041,3.776-3.242,8.206-3.893,12.94c-8.408,2.409-14.629,7.119-13.727,16.136c0.215,2.147,1.696,4.177,4.086,4.086
		c2.231-0.085,4.462-0.17,6.693-0.255c0.902,0.29,1.804,0.584,2.731,0.792c0.493,6.436,1.284,12.591,1.781,17.693
		c1.514,15.52,3.538,39.152,18.011,48.617c15.246,9.97,24.6-13.098,26.316-23.564c2.181-13.303,1.814-26.821,0.81-40.342
		c4.387,0.182,8.775,0.354,13.162,0.535c-4.846,20.165-1.143,41.556-1.151,62.12c-0.004,9.945,0.55,19.996-0.032,29.925
		c-0.142,2.426-0.673,4.993-0.768,7.496c-10.042-0.007-20.084-0.017-30.125,0.106c-1.882,0.023-4.179,0.359-6.567,0.761
		c-8.007-2.517-15.787-3.447-22.881,2.252c-6.129,4.924-4.879,12.049,1.436,15.633c10.03,5.692,26.769,3.328,37.729,3.012
		c32.755-0.942,65.525-0.623,98.269,0.532c2.673,0.094,4.359-2.17,4.587-4.587c0.469-4.964,0.91-5.136-0.535-9.041
		c-0.358-0.966-1.064-1.911-1.963-2.523c0.664-1.698,0.258-3.986-1.391-5.032c-11.928-7.569-31.574-5.177-48.969-2.998
		c1.377-12.806-2.785-29.964-3.563-40.987c-0.801-11.353-1.384-22.733-1.752-34.109c-0.075-2.328-0.441-5.732-0.639-9.276
		c-0.008-0.487-0.056-0.976-0.075-1.463c-0.152-3.892-0.02-7.809,1.025-10.555c7.294,0.5,14.647,1.019,22.02,1.465
		c0.27,7.021,0.774,13.962,1.357,20.606c1.273,14.5,3.49,40.65,20.871,45.173c19.463,5.065,24.198-23.845,25.297-36.281
		c0.865-9.789,0.521-19.717-0.19-29.584c1.099-0.106,2.215-0.151,3.308-0.277c3.271-0.379,4.345-3.301,3.334-5.458
		c0.761-0.791,1.286-1.888,1.432-3.263C188.107,62.823,188.106,59.995,187.499,57.168z M64.699,116.723
		c-2.515,11.628-12.595,16.969-19.297,5.597c-8.161-13.847-10.791-33.307-11.281-52.319c4.218,0.284,8.52,0.191,12.663,0.348
		c6.454,0.243,12.907,0.522,19.361,0.787c0.347,4.836,0.642,9.673,0.77,14.509C67.191,96.047,66.905,106.526,64.699,116.723z
		 M34.383,46.875c0.155-3.834,0.34-7.548,0.532-11.033c9.422,1.159,20.026,0.151,29.034-2.579
		c-0.006,4.458,0.165,8.917,0.413,13.376c-0.727-0.045-1.453-0.081-2.18-0.127C56.296,46.147,44.739,45.37,34.383,46.875z
		 M44.287,27.712c-4.969,0.191-10.022,0.064-14.911-0.888c-7.813-1.521-2.223-7.718,2.375-10.085
		c7.595-2.19,15.797-1.895,23.562-0.801c3.992,0.562,7.927,1.54,11.715,2.916c1.357,0.493,2.778,1.227,3.881,2.17
		c0.344,0.294,0.821-0.241-1.004,1.094C62.849,27.28,52.613,27.392,44.287,27.712z M110.492,184.248
		c0.015,0.036,0.032,0.07,0.048,0.106c-7.817,0.065-15.635,0.151-23.454,0.252c0.082-0.131,0.16-0.263,0.229-0.402
		C95.04,184.218,102.766,184.232,110.492,184.248z M133.261,18.197c4.66-4.581,15.657-5.444,21.794-4.579
		c5.157,0.727,10.634,0.971,15.348,3.434c2.079,1.087,1.367,1.723-0.454,3.115c-5.034,3.849-11.768,5.53-18.326,6.118
		c-0.128-0.017-0.246-0.049-0.393-0.037C147.548,26.547,125.821,25.511,133.261,18.197z M169.179,51.849
		c-9.693-0.396-19.383-0.813-29.067-1.247c0.133-5.82,0.276-11.641,0.338-17.465c0.246,0,0.493,0.051,0.739,0.044
		c0.638,0.718,1.551,1.229,2.772,1.291c7.608,0.383,18.291-0.831,26.2-5.056c-0.32,0.225-0.634,0.469-0.804,0.858
		C168.291,32.71,168.58,40.988,169.179,51.849z M153.425,132.132c-13.848-6.689-12.768-40.667-13.319-52.933
		c-0.061-1.348-0.053-2.694-0.091-4.042c10.225,0.491,20.422,0.692,30.436,0.192C171.818,106.504,171.058,140.648,153.425,132.132z"
		/>
	<path d="M60.755,87.463c0.066-2.249-1.891-3.986-4.044-4.044c-4.102-0.111-13.019-0.727-15.868,2.8
		c-0.842,1.043-0.993,2.275-0.707,3.35c-1.389,3.141-1.406,7.066-0.812,10.22c1.163,6.175,6.498,11.22,11.772,14.084
		c2.022,1.098,4.081,0.364,5.366-1.407C61.847,105.046,60.501,96.074,60.755,87.463z"/>
	<path d="M168.313,100.97c-0.28-1.689-2.159-2.85-3.753-2.857c-2.878-0.013-5.756-0.004-8.634-0.004
		c-2.244,0-4.572-0.227-6.627,0.648c-0.713-1.415-3.005-1.484-3.56,0.312c-2.861,9.247-1.181,23.639,10.794,25.048
		C168.909,125.572,169.661,109.109,168.313,100.97z"/>
</g>
</svg>
