<?xml version="1.0" encoding="iso-8859-1"?>
<!-- Generator: Adobe Illustrator 16.0.0, SVG Export Plug-In . SVG Version: 6.00 Build 0)  -->
<!DOCTYPE svg PUBLIC "-//W3C//DTD SVG 1.1//EN" "http://www.w3.org/Graphics/SVG/1.1/DTD/svg11.dtd">
<svg version="1.1" id="Layer_1" xmlns="http://www.w3.org/2000/svg" xmlns:xlink="http://www.w3.org/1999/xlink" x="0px" y="0px"
	 width="31.464px" height="23.519px" viewBox="0 0 31.464 23.519" style="enable-background:new 0 0 31.464 23.519;"
	 xml:space="preserve">
<g>
	<path d="M30.218,3.037V1.054l-0.286-0.112C29.835,0.904,27.505,0,24.399,0c-3.328,0-6.195,1.014-8.527,3.014
		C13.54,1.014,10.673,0,7.345,0C4.238,0,1.909,0.904,1.812,0.942L1.526,1.054v1.837C0.586,3.066,0,3.382,0,3.896
		c0,2.676,0,18.917,0,18.917h13.933c0.482,0.431,1.186,0.705,1.975,0.705c0.788,0,1.493-0.274,1.975-0.705h13.582
		c0,0,0-17.979,0-18.917C31.464,3.477,30.99,3.205,30.218,3.037z M15.722,21.322c-1.157-0.477-5.141-1.992-9.131-1.992
		c-1.575,0-2.972,0.242-4.163,0.719V1.681c0.695-0.232,2.587-0.779,4.917-0.779c3.063,0,5.696,0.927,7.846,2.733V14.6l0.531-0.585
		V21.322z M29.317,20.054c-1.278-0.514-2.745-0.773-4.372-0.773c-3.987,0-7.782,1.528-8.923,2.031v-7.298l0.531,0.585V3.635
		c2.15-1.807,4.782-2.733,7.846-2.733c2.322,0,4.221,0.548,4.917,0.779V20.054z"/>
	<path d="M23.917,5.967c-0.058-0.213-0.194-0.39-0.385-0.5c-0.125-0.071-0.266-0.109-0.41-0.109c-0.294,0-0.568,0.158-0.714,0.414
		c-0.074,0.126-0.104,0.263-0.106,0.4l-0.938,0.532c-0.137-0.098-0.3-0.154-0.481-0.157c-0.247,0-0.52,0.143-0.618,0.288
		c-0.067,0.09-0.274,0.266-0.208,0.704c0.066,0.438,0.393,0.55,0.566,0.609l0.017,1.014c-0.005,0.002-0.008,0.004-0.014,0.006
		l0.037,0.006c-0.199,0.061-0.373,0.194-0.479,0.378c-0.072,0.126-0.104,0.263-0.105,0.4L19.11,10.5
		c-0.133-0.089-0.291-0.14-0.456-0.14c-0.149,0-0.295,0.041-0.424,0.118c-0.389,0.234-0.515,0.741-0.281,1.13
		c0.103,0.172,0.266,0.296,0.452,0.357l0.017,1.033c-0.173,0.068-0.324,0.192-0.419,0.358c-0.11,0.191-0.138,0.414-0.081,0.625
		c0.058,0.213,0.194,0.39,0.385,0.5c0.125,0.071,0.267,0.109,0.41,0.109c0.18,0,0.351-0.06,0.491-0.164l0.94,0.541
		c-0.004,0.085,0.001,0.171,0.024,0.257c0.057,0.212,0.194,0.39,0.384,0.5c0.125,0.072,0.267,0.11,0.411,0.11
		c0.294,0,0.568-0.159,0.715-0.414c0.093-0.162,0.122-0.342,0.099-0.516l0.9-0.505c0.143,0.127,0.329,0.208,0.535,0.211h0.011
		c0.176,0,0.338-0.058,0.472-0.153l1.002,0.575c-0.004,0.087,0.001,0.174,0.024,0.259c0.058,0.213,0.194,0.39,0.384,0.5
		c0.125,0.071,0.268,0.11,0.411,0.11c0.294,0,0.568-0.158,0.715-0.413c0.093-0.164,0.122-0.344,0.099-0.518l0.9-0.504
		c0.148,0.132,0.334,0.208,0.534,0.212h0.013c0.448,0,0.817-0.365,0.822-0.813c0.004-0.326-0.184-0.609-0.462-0.746l-0.013-1.099
		c0.271-0.133,0.462-0.407,0.467-0.728c0.002-0.22-0.081-0.428-0.234-0.586c-0.153-0.158-0.359-0.246-0.59-0.25
		c-0.247,0-0.467,0.114-0.619,0.288l-0.901-0.519c0.035-0.135,0.038-0.276,0-0.415c-0.041-0.149-0.122-0.279-0.232-0.383
		c0.005,0,0.008,0.002,0.012,0.003c-0.064-0.063-0.138-0.119-0.22-0.159l-0.014-1.099c0.271-0.133,0.462-0.408,0.467-0.728
		c0.003-0.22-0.08-0.428-0.233-0.585c-0.154-0.158-0.359-0.247-0.59-0.25c-0.247,0-0.468,0.112-0.619,0.287l-0.901-0.518
		C23.952,6.246,23.955,6.105,23.917,5.967z M22.794,5.993c0.067-0.117,0.193-0.19,0.328-0.19c0.066,0,0.131,0.017,0.188,0.05
		c0.088,0.05,0.151,0.132,0.176,0.229c0.027,0.098,0.014,0.2-0.037,0.287c-0.1,0.174-0.341,0.241-0.517,0.14
		C22.752,6.406,22.69,6.174,22.794,5.993z M20.505,7.365c0.002-0.206,0.172-0.374,0.383-0.374h0
		c0.101,0.001,0.195,0.042,0.266,0.115c0.07,0.072,0.109,0.167,0.107,0.269c-0.003,0.206-0.173,0.374-0.378,0.374h-0.005
		C20.67,7.746,20.502,7.573,20.505,7.365z M20.571,9.773c0.067-0.117,0.193-0.19,0.329-0.19c0.065,0,0.13,0.018,0.188,0.05
		c0.088,0.051,0.15,0.132,0.177,0.23c0.026,0.097,0.014,0.2-0.037,0.288c-0.1,0.173-0.341,0.24-0.517,0.139
		C20.529,10.186,20.467,9.954,20.571,9.773z M18.331,11.38c-0.107-0.179-0.049-0.412,0.13-0.52c0.058-0.035,0.125-0.054,0.194-0.054
		c0.134,0,0.256,0.069,0.325,0.184c0.052,0.087,0.067,0.189,0.043,0.287c-0.024,0.099-0.085,0.182-0.172,0.234
		C18.675,11.615,18.435,11.554,18.331,11.38z M19.041,13.956c-0.1,0.174-0.341,0.241-0.517,0.14
		c-0.088-0.051-0.15-0.131-0.177-0.229c-0.026-0.098-0.014-0.2,0.038-0.289c0.067-0.117,0.193-0.189,0.328-0.189
		c0.065,0,0.131,0.017,0.188,0.051C19.082,13.543,19.144,13.775,19.041,13.956z M21.291,15.2c-0.1,0.174-0.34,0.241-0.517,0.14
		c-0.088-0.051-0.15-0.132-0.177-0.229c-0.027-0.098-0.013-0.2,0.037-0.288c0.068-0.117,0.194-0.189,0.33-0.189
		c0.065,0,0.13,0.017,0.187,0.05C21.333,14.787,21.395,15.019,21.291,15.2z M22.398,13.776c-0.001,0.087,0.015,0.169,0.039,0.247
		l-0.836,0.47c-0.062-0.077-0.137-0.145-0.227-0.198c-0.125-0.071-0.267-0.108-0.409-0.108c-0.27,0-0.521,0.133-0.674,0.352
		l-0.816-0.468c0.149-0.375,0.008-0.812-0.351-1.018c-0.082-0.046-0.169-0.077-0.261-0.094l-0.016-0.975
		c0.082-0.02,0.161-0.05,0.233-0.094c0.188-0.113,0.322-0.293,0.375-0.506c0.045-0.182,0.024-0.369-0.052-0.538l0.8-0.453
		c0.069,0.112,0.164,0.212,0.287,0.282c0.125,0.072,0.266,0.11,0.41,0.11c0.217,0,0.424-0.088,0.576-0.236l0.929,0.534
		c-0.007,0.039-0.013,0.08-0.014,0.121c-0.005,0.366,0.234,0.677,0.563,0.789l0.017,1.015
		C22.643,13.114,22.403,13.417,22.398,13.776z M22.835,11.211c0.003-0.207,0.172-0.373,0.383-0.373h0
		c0.102,0.001,0.196,0.042,0.267,0.114c0.07,0.073,0.108,0.168,0.106,0.27c-0.003,0.205-0.172,0.373-0.377,0.373v0.209l-0.005-0.209
		C23,11.592,22.833,11.42,22.835,11.211z M23.223,14.167v0.222l-0.005-0.222c-0.209-0.003-0.376-0.176-0.374-0.384
		c0.003-0.206,0.172-0.374,0.383-0.374c0.209,0.003,0.376,0.176,0.374,0.384C23.598,13.999,23.429,14.167,23.223,14.167z
		 M25.844,15.267c-0.1,0.174-0.339,0.241-0.517,0.139c-0.087-0.051-0.15-0.132-0.177-0.229c-0.026-0.098-0.013-0.2,0.037-0.287
		c0.067-0.118,0.193-0.19,0.329-0.19c0.065,0,0.13,0.017,0.188,0.05C25.886,14.854,25.948,15.085,25.844,15.267z M28.154,13.859
		c-0.003,0.206-0.173,0.373-0.377,0.373v0.222l-0.006-0.222c-0.101-0.001-0.196-0.043-0.267-0.114
		c-0.07-0.073-0.108-0.168-0.106-0.27c0.002-0.206,0.172-0.373,0.383-0.373C27.989,13.478,28.157,13.65,28.154,13.859z
		 M27.772,10.903c0.101,0.001,0.196,0.043,0.267,0.115c0.071,0.072,0.108,0.167,0.107,0.269c-0.003,0.206-0.172,0.374-0.378,0.374
		v0.209l-0.004-0.209c-0.209-0.003-0.376-0.176-0.374-0.383C27.392,11.071,27.562,10.903,27.772,10.903z M26.029,10.616l0.928,0.535
		c-0.006,0.039-0.013,0.08-0.014,0.121c-0.006,0.428,0.319,0.78,0.737,0.826l0.011,0.941c-0.409,0.043-0.734,0.385-0.74,0.804
		c-0.001,0.086,0.014,0.168,0.038,0.247l-0.836,0.47c-0.063-0.076-0.137-0.144-0.227-0.197c-0.125-0.071-0.267-0.109-0.41-0.109
		c-0.27,0-0.521,0.134-0.673,0.352l-0.864-0.496c0.041-0.096,0.064-0.201,0.066-0.311c0.004-0.326-0.185-0.608-0.463-0.745
		l-0.013-1.099c0.272-0.133,0.463-0.407,0.467-0.728c0.002-0.113-0.021-0.224-0.063-0.325l0.78-0.443
		c0.07,0.113,0.164,0.212,0.287,0.283c0.125,0.072,0.267,0.11,0.41,0.11C25.67,10.852,25.876,10.765,26.029,10.616z M25.818,9.929
		c0.026,0.098,0.013,0.2-0.038,0.288c-0.1,0.173-0.34,0.24-0.517,0.139c-0.181-0.104-0.243-0.336-0.139-0.516
		c0.067-0.118,0.193-0.191,0.329-0.191c0.065,0,0.13,0.018,0.188,0.05C25.728,9.75,25.791,9.831,25.818,9.929z M25.442,7.057
		c0.1,0.001,0.195,0.042,0.266,0.115c0.069,0.072,0.108,0.168,0.106,0.269c-0.002,0.206-0.172,0.374-0.377,0.374h-0.005
		c-0.208-0.003-0.376-0.175-0.374-0.384C25.061,7.225,25.23,7.057,25.442,7.057z M24.627,7.303c-0.006,0.04-0.013,0.081-0.014,0.123
		c-0.005,0.428,0.32,0.781,0.736,0.825l0.015,0.959c0.001,0,0.002,0,0.003,0c-0.261,0.026-0.498,0.177-0.63,0.408
		c-0.072,0.125-0.104,0.263-0.105,0.399l-0.938,0.533c-0.137-0.099-0.301-0.155-0.48-0.157c-0.247,0-0.467,0.113-0.619,0.288
		l-0.9-0.519c0.034-0.134,0.037-0.276,0-0.414c-0.048-0.18-0.156-0.332-0.303-0.441l0.019,0.004c-0.048-0.04-0.1-0.075-0.157-0.104
		l-0.013-1.099c0.271-0.133,0.462-0.406,0.466-0.727c0.001-0.114-0.021-0.224-0.062-0.326l0.78-0.442
		c0.069,0.112,0.164,0.211,0.286,0.282c0.125,0.072,0.267,0.11,0.41,0.11c0.218,0,0.425-0.087,0.577-0.236L24.627,7.303z"/>
	<path d="M4.45,3.957l0.19,0.718c4.782-1.267,9.084,1.079,9.128,1.103l0.361-0.649C13.944,5.025,9.527,2.611,4.45,3.957z"/>
	<path d="M4.45,6.06l0.19,0.718c4.782-1.269,9.084,1.079,9.128,1.103l0.361-0.648C13.944,7.128,9.527,4.715,4.45,6.06z"/>
	<path d="M4.45,8.037l0.19,0.718c4.782-1.266,9.084,1.081,9.128,1.104l0.361-0.648C13.944,9.107,9.527,6.692,4.45,8.037z"/>
	<path d="M4.45,10.204l0.19,0.718c4.782-1.268,9.084,1.079,9.128,1.103l0.361-0.649C13.944,11.272,9.527,8.857,4.45,10.204z"/>
	<path d="M4.45,12.211l0.19,0.719c4.782-1.268,9.084,1.079,9.128,1.103l0.361-0.649C13.944,13.28,9.527,10.867,4.45,12.211z"/>
	<path d="M4.45,14.273l0.19,0.719c4.782-1.269,9.084,1.079,9.128,1.103l0.361-0.649C13.944,15.342,9.527,12.929,4.45,14.273z"/>
	<path d="M4.45,16.341l0.19,0.719c4.782-1.268,9.084,1.079,9.128,1.103l0.361-0.648C13.944,17.41,9.527,14.996,4.45,16.341z"/>
</g>
<g>
</g>
<g>
</g>
<g>
</g>
<g>
</g>
<g>
</g>
<g>
</g>
<g>
</g>
<g>
</g>
<g>
</g>
<g>
</g>
<g>
</g>
<g>
</g>
<g>
</g>
<g>
</g>
<g>
</g>
</svg>
