<?xml version="1.0" encoding="utf-8"?>
<!-- Generator: Adobe Illustrator 16.0.0, SVG Export Plug-In . SVG Version: 6.00 Build 0)  -->
<!DOCTYPE svg PUBLIC "-//W3C//DTD SVG 1.1//EN" "http://www.w3.org/Graphics/SVG/1.1/DTD/svg11.dtd">
<svg version="1.1" id="Artwork" xmlns="http://www.w3.org/2000/svg" xmlns:xlink="http://www.w3.org/1999/xlink" x="0px" y="0px"
	 width="512px" height="512px" viewBox="0 0 512 512" enable-background="new 0 0 512 512" xml:space="preserve">
<g>
	<circle cx="270.301" cy="344.192" r="14.302"/>
	<circle cx="306.284" cy="278.705" r="21.676"/>
	<path d="M379.284,104.906c0-17.551-14.126-31.297-32.159-31.297h-182.25c-18.033,0-32.159,13.746-32.159,31.297
		c0,12.854,7.602,23.756,19.037,28.609c0.637,0.271,1.944,0.682,1.944,3.682V318.85c0,32.904,9.134,62.654,25.72,83.768
		c18.383,23.404,44.865,35.773,76.583,35.773c31.717,0,58.199-12.369,76.583-35.773c16.585-21.113,25.72-50.863,25.72-83.768
		V137.201c0-2.813,0.875-3.248,1.306-3.42C371.398,129.064,379.284,117.998,379.284,104.906z M341.303,195.447
		c0,3.832-3.111,3.471-3.111,3.471H172.857c0,0-2.16-0.139-2.16-3.471c0-13.875,0-40.758,0-55.5c0-3.834,2.66-3.9,2.66-3.9h165.5
		c0,0,2.445,0.066,2.445,3.9C341.303,154.689,341.303,181.572,341.303,195.447z M256,421.391
		c-62.962,0-85.303-55.238-85.303-102.541V217.615c0,0,0.16-1.902,3.002-1.902c41.15,0,123.451,0,164.602,0
		c3.224,0,3.002,2.568,3.002,2.568V318.85C341.303,366.152,318.962,421.391,256,421.391z M349.279,119.047H162.721
		c-7.68-1.051-13.005-6.811-13.005-14.141c0-8.15,6.517-14.297,15.159-14.297h182.25c8.643,0,15.159,6.146,15.159,14.297
		C362.284,112.236,356.959,117.996,349.279,119.047z"/>
</g>
</svg>
