<?xml version="1.0" encoding="iso-8859-1"?>
<!-- Generator: Adobe Illustrator 16.0.0, SVG Export Plug-In . SVG Version: 6.00 Build 0)  -->
<!DOCTYPE svg PUBLIC "-//W3C//DTD SVG 1.1//EN" "http://www.w3.org/Graphics/SVG/1.1/DTD/svg11.dtd">
<svg version="1.1" id="Layer_1" xmlns="http://www.w3.org/2000/svg" xmlns:xlink="http://www.w3.org/1999/xlink" x="0px" y="0px"
	 width="30.694px" height="26.01px" viewBox="0 0 30.694 26.01" style="enable-background:new 0 0 30.694 26.01;"
	 xml:space="preserve">
<g>
	<path d="M28.527,16.182H2.168L0,26.01h30.694L28.527,16.182z M12.317,24.657l0.442-2.003h5.176l0.441,2.003H12.317z"/>
	<path d="M28.458,15.56V9.528h0V0h-9.89h-6.44h-9.89v9.528v6.031H28.458L28.458,15.56z M26.592,14.005H4.103V1.865h8.422h5.645
		h8.422V14.005z"/>
	<path d="M17.057,4.166l-0.943-0.542c0.036-0.142,0.039-0.29,0-0.435c-0.06-0.222-0.203-0.408-0.403-0.522
		c-0.13-0.075-0.279-0.114-0.428-0.114c-0.309,0-0.595,0.166-0.748,0.432c-0.076,0.132-0.109,0.276-0.111,0.418l-0.981,0.557
		C13.3,3.857,13.128,3.798,12.94,3.796c-0.258,0-0.544,0.149-0.646,0.3c-0.071,0.096-0.287,0.278-0.218,0.736
		c0.069,0.459,0.41,0.577,0.593,0.638l0.018,1.062c-0.005,0.001-0.009,0.003-0.014,0.006l0.039,0.006
		c-0.209,0.063-0.39,0.203-0.5,0.395c-0.076,0.131-0.109,0.276-0.11,0.419l-1.015,0.574c-0.14-0.092-0.305-0.146-0.477-0.146
		c-0.156,0-0.309,0.042-0.444,0.123C9.758,8.156,9.626,8.687,9.871,9.093c0.107,0.179,0.278,0.31,0.473,0.374l0.018,1.08
		c-0.182,0.071-0.339,0.2-0.438,0.374c-0.115,0.2-0.145,0.432-0.085,0.654c0.06,0.223,0.203,0.409,0.403,0.523
		c0.13,0.075,0.279,0.115,0.429,0.115c0.188,0,0.367-0.062,0.514-0.171l0.984,0.566c-0.004,0.09,0.001,0.18,0.025,0.269
		c0.06,0.223,0.203,0.408,0.402,0.522c0.131,0.076,0.279,0.115,0.429,0.115c0.308,0,0.595-0.166,0.748-0.432
		c0.097-0.169,0.127-0.359,0.103-0.54l0.942-0.529c0.15,0.133,0.344,0.219,0.559,0.222h0.013c0.183,0,0.353-0.061,0.493-0.16
		l1.048,0.602c-0.004,0.09,0.001,0.181,0.025,0.271c0.06,0.222,0.203,0.408,0.402,0.521c0.131,0.076,0.28,0.115,0.429,0.115
		c0.308,0,0.595-0.166,0.748-0.433c0.098-0.17,0.127-0.359,0.104-0.541l0.941-0.528c0.155,0.138,0.35,0.219,0.56,0.221h0.013
		c0.468,0,0.854-0.381,0.86-0.85c0.005-0.341-0.192-0.637-0.483-0.78l-0.013-1.149c0.283-0.14,0.483-0.425,0.488-0.76
		c0.002-0.23-0.084-0.448-0.245-0.613c-0.161-0.166-0.376-0.258-0.617-0.261c-0.258,0-0.489,0.117-0.647,0.3l-0.942-0.542
		c0.036-0.142,0.039-0.29-0.001-0.434c-0.042-0.157-0.127-0.294-0.242-0.402c0.004,0,0.008,0.002,0.012,0.003
		c-0.067-0.067-0.144-0.124-0.23-0.167L18.078,5.5c0.283-0.139,0.483-0.426,0.488-0.761c0.003-0.23-0.083-0.448-0.244-0.613
		c-0.161-0.166-0.376-0.258-0.617-0.261C17.446,3.866,17.215,3.983,17.057,4.166z M14.939,3.218c0.07-0.122,0.203-0.199,0.344-0.199
		c0.068,0,0.136,0.018,0.196,0.053c0.092,0.053,0.158,0.138,0.186,0.24c0.027,0.102,0.013,0.209-0.04,0.301
		c-0.105,0.182-0.357,0.251-0.541,0.146C14.896,3.649,14.831,3.407,14.939,3.218z M13.802,4.67c0.002-0.119-0.021-0.234-0.065-0.34
		l0.816-0.463c0.073,0.118,0.171,0.222,0.299,0.295c0.131,0.075,0.28,0.115,0.43,0.115c0.228,0,0.444-0.092,0.603-0.248l0.972,0.56
		c-0.007,0.042-0.014,0.083-0.015,0.128c-0.005,0.447,0.334,0.816,0.77,0.863l0.017,1.002c0,0,0.001,0,0.002,0
		c-0.274,0.029-0.521,0.186-0.659,0.427c-0.077,0.132-0.109,0.275-0.111,0.418l-0.981,0.556c-0.143-0.104-0.314-0.162-0.503-0.164
		c-0.258,0-0.488,0.118-0.646,0.3L13.79,7.579c0.035-0.142,0.039-0.29-0.001-0.435c-0.051-0.187-0.163-0.346-0.316-0.46l0.02,0.004
		c-0.051-0.041-0.105-0.078-0.165-0.107l-0.013-1.149C13.598,5.292,13.797,5.005,13.802,4.67z M15.774,8.688
		c-0.003,0.215-0.18,0.39-0.396,0.39v0.219h0l-0.005-0.219c-0.218-0.002-0.394-0.183-0.39-0.401c0.002-0.215,0.18-0.39,0.4-0.39
		c0.106,0.001,0.205,0.043,0.279,0.12C15.735,8.481,15.776,8.582,15.774,8.688z M12.544,4.652c0.003-0.215,0.181-0.39,0.401-0.39h0
		c0.106,0.001,0.205,0.044,0.279,0.12c0.073,0.075,0.113,0.175,0.112,0.282c-0.003,0.215-0.18,0.39-0.395,0.39h-0.006
		C12.717,5.051,12.542,4.871,12.544,4.652z M12.613,7.172c0.071-0.122,0.202-0.199,0.345-0.199c0.068,0,0.136,0.019,0.196,0.053
		c0.092,0.052,0.158,0.138,0.185,0.24c0.027,0.103,0.014,0.208-0.039,0.3c-0.105,0.183-0.356,0.252-0.541,0.146
		C12.57,7.604,12.504,7.362,12.613,7.172z M10.27,8.853c-0.113-0.187-0.051-0.43,0.135-0.543c0.062-0.037,0.132-0.057,0.204-0.057
		c0.141,0,0.268,0.071,0.34,0.192c0.054,0.091,0.07,0.197,0.044,0.3c-0.025,0.103-0.089,0.189-0.18,0.244
		C10.63,9.099,10.378,9.035,10.27,8.853z M11.013,11.548c-0.105,0.182-0.357,0.251-0.541,0.146c-0.092-0.052-0.157-0.138-0.185-0.24
		c-0.028-0.102-0.014-0.209,0.039-0.301c0.07-0.122,0.202-0.198,0.344-0.198c0.069,0,0.136,0.019,0.197,0.053
		C11.056,11.116,11.122,11.359,11.013,11.548z M13.367,12.85c-0.104,0.182-0.355,0.251-0.541,0.146
		c-0.092-0.054-0.158-0.138-0.185-0.241c-0.028-0.102-0.014-0.209,0.038-0.301c0.071-0.123,0.203-0.199,0.344-0.199
		c0.069,0,0.137,0.018,0.196,0.053C13.41,12.418,13.477,12.66,13.367,12.85z M14.525,11.36c-0.001,0.091,0.015,0.177,0.041,0.259
		l-0.875,0.491c-0.065-0.081-0.144-0.151-0.238-0.206c-0.13-0.074-0.279-0.114-0.429-0.114c-0.281,0-0.544,0.141-0.705,0.368
		l-0.853-0.49c0.155-0.392,0.007-0.848-0.368-1.064c-0.084-0.048-0.178-0.081-0.272-0.098l-0.017-1.02
		c0.085-0.02,0.167-0.052,0.244-0.098c0.197-0.119,0.337-0.306,0.392-0.53c0.048-0.19,0.025-0.385-0.054-0.562l0.837-0.475
		c0.073,0.119,0.171,0.222,0.299,0.296c0.131,0.075,0.279,0.115,0.43,0.115c0.228,0,0.443-0.092,0.603-0.247l0.971,0.558
		c-0.006,0.042-0.014,0.084-0.014,0.127c-0.005,0.384,0.244,0.709,0.589,0.825l0.017,1.062C14.782,10.668,14.53,10.984,14.525,11.36
		z M15.388,11.768v0.233l-0.006-0.233c-0.218-0.003-0.394-0.183-0.391-0.401c0.003-0.215,0.18-0.391,0.401-0.391
		c0.219,0.004,0.394,0.183,0.391,0.401C15.78,11.593,15.603,11.768,15.388,11.768z M18.13,12.919
		c-0.104,0.181-0.355,0.252-0.541,0.146c-0.091-0.052-0.157-0.138-0.184-0.24c-0.028-0.102-0.014-0.208,0.038-0.3
		c0.07-0.124,0.203-0.199,0.344-0.199c0.069,0,0.137,0.018,0.197,0.053C18.174,12.487,18.239,12.73,18.13,12.919z M20.546,11.447
		c-0.002,0.215-0.179,0.39-0.394,0.39v0.233l-0.007-0.233c-0.105,0-0.204-0.043-0.278-0.119c-0.073-0.076-0.114-0.176-0.112-0.282
		c0.002-0.215,0.181-0.391,0.401-0.391C20.374,11.049,20.549,11.229,20.546,11.447z M20.146,8.354L20.146,8.354
		c0.106,0.002,0.205,0.045,0.279,0.12c0.074,0.076,0.114,0.176,0.112,0.282c-0.002,0.215-0.18,0.391-0.396,0.391v0.219l0,0
		l-0.005-0.219c-0.218-0.003-0.393-0.184-0.391-0.402C19.749,8.53,19.926,8.354,20.146,8.354z M18.323,8.054l0.971,0.559
		C19.288,8.654,19.28,8.696,19.28,8.74c-0.005,0.447,0.334,0.816,0.771,0.863l0.012,0.985c-0.428,0.044-0.768,0.403-0.773,0.842
		c-0.001,0.088,0.015,0.175,0.041,0.258l-0.875,0.491c-0.064-0.08-0.143-0.151-0.237-0.205c-0.131-0.075-0.279-0.115-0.43-0.115
		c-0.281,0-0.544,0.14-0.704,0.368l-0.904-0.519c0.043-0.102,0.068-0.21,0.07-0.326c0.004-0.341-0.193-0.637-0.484-0.78
		l-0.014-1.149c0.284-0.139,0.484-0.426,0.489-0.761c0.001-0.118-0.022-0.233-0.065-0.339l0.816-0.463
		c0.073,0.118,0.172,0.222,0.3,0.296c0.131,0.075,0.279,0.114,0.429,0.114C17.948,8.301,18.164,8.209,18.323,8.054z M18.102,7.336
		c0.028,0.102,0.014,0.208-0.039,0.3c-0.104,0.182-0.356,0.251-0.541,0.146c-0.189-0.108-0.254-0.351-0.146-0.54
		c0.07-0.124,0.203-0.199,0.344-0.199c0.068,0,0.136,0.019,0.197,0.053C18.009,7.148,18.075,7.233,18.102,7.336z M17.709,4.331
		c0.106,0.001,0.205,0.044,0.278,0.12c0.074,0.076,0.114,0.176,0.113,0.282c-0.004,0.215-0.18,0.391-0.396,0.391h-0.005
		c-0.218-0.003-0.394-0.184-0.392-0.401C17.311,4.506,17.489,4.331,17.709,4.331L17.709,4.331z"/>
</g>
<g>
</g>
<g>
</g>
<g>
</g>
<g>
</g>
<g>
</g>
<g>
</g>
<g>
</g>
<g>
</g>
<g>
</g>
<g>
</g>
<g>
</g>
<g>
</g>
<g>
</g>
<g>
</g>
<g>
</g>
</svg>
