<?xml version="1.0" encoding="utf-8"?>
<!-- Generator: Adobe Illustrator 16.0.4, SVG Export Plug-In . SVG Version: 6.00 Build 0)  -->
<!DOCTYPE svg PUBLIC "-//W3C//DTD SVG 1.1//EN" "http://www.w3.org/Graphics/SVG/1.1/DTD/svg11.dtd">
<svg version="1.1" id="Layer_1" xmlns="http://www.w3.org/2000/svg" xmlns:xlink="http://www.w3.org/1999/xlink" x="0px" y="0px"
	 width="50px" height="50px" viewBox="0 0 50 50" enable-background="new 0 0 50 50" xml:space="preserve">
<g>
	<path d="M24.285,22.005c0.128-0.203,0.303-0.375,0.432-0.557c0.178-0.153,0.346-0.301,0.51-0.445
		c1.804,0.703,4.529,0.14,6.931-1.619c3.148-2.304,4.53-5.772,3.086-7.743c-1.446-1.972-5.167-1.703-8.315,0.601
		c-2.607,1.91-3.974,4.609-3.554,6.6l-0.038,0.035c-0.237,0.276-0.486,0.566-0.741,0.864c-0.21,0.351-0.444,0.698-0.622,1.093
		c-0.34,0.804-0.53,1.726-0.468,2.628c0.119,1.813,0.947,3.369,1.778,4.73l0.618,0.993c0.132,0.307,0.344,0.586,0.428,0.917
		c0.24,0.638,0.326,1.335,0.331,2.021c0.011,1.38-0.375,2.693-0.772,3.772c-0.832,2.17-1.76,3.463-1.76,3.463
		s1.09-1.145,2.239-3.244c0.556-1.055,1.153-2.355,1.357-3.916c0.102-0.776,0.117-1.616-0.073-2.461
		c-0.058-0.431-0.259-0.829-0.392-1.255l-0.484-1.076c-0.623-1.388-1.067-2.801-0.965-3.951
		C23.854,22.886,24.048,22.414,24.285,22.005z"/>
	<path d="M37.825,22.824c-0.881-1.199-3.143-1.036-5.057,0.366c-1.586,1.161-2.417,2.803-2.161,4.013l-0.022,0.021
		c-0.146,0.168-0.296,0.344-0.451,0.525c-0.129,0.212-0.27,0.425-0.379,0.665c-0.205,0.487-0.321,1.049-0.283,1.598
		c0.073,1.104,0.576,2.048,1.08,2.877l0.375,0.604c0.081,0.186,0.211,0.354,0.26,0.557c0.148,0.389,0.2,0.812,0.201,1.229
		c0.008,0.841-0.228,1.64-0.468,2.295c-0.507,1.32-1.07,2.105-1.07,2.105s0.662-0.697,1.362-1.973
		c0.337-0.641,0.7-1.432,0.825-2.381c0.059-0.472,0.068-0.982-0.045-1.496c-0.034-0.263-0.156-0.505-0.238-0.763l-0.293-0.655
		c-0.38-0.844-0.65-1.703-0.586-2.402c0.022-0.348,0.144-0.636,0.287-0.885c0.079-0.122,0.185-0.229,0.264-0.338
		c0.107-0.094,0.211-0.183,0.31-0.271c1.098,0.426,2.753,0.084,4.214-0.984C37.86,26.13,38.703,24.023,37.825,22.824z"/>
	<path d="M15.13,17.64c-1.585,1.161-2.417,2.803-2.16,4.013l-0.023,0.021c-0.145,0.168-0.296,0.344-0.451,0.525
		c-0.128,0.212-0.27,0.425-0.379,0.665c-0.204,0.488-0.321,1.049-0.283,1.598c0.072,1.104,0.577,2.048,1.081,2.877l0.375,0.604
		c0.08,0.187,0.21,0.356,0.26,0.558c0.148,0.389,0.199,0.812,0.201,1.229c0.008,0.84-0.227,1.64-0.468,2.294
		c-0.507,1.32-1.071,2.106-1.071,2.106s0.663-0.696,1.362-1.973c0.337-0.641,0.7-1.432,0.825-2.382
		c0.059-0.471,0.069-0.981-0.044-1.496c-0.035-0.262-0.156-0.506-0.239-0.762l-0.293-0.656c-0.38-0.843-0.65-1.702-0.586-2.402
		c0.023-0.347,0.143-0.636,0.287-0.884c0.079-0.122,0.184-0.228,0.263-0.337c0.107-0.094,0.211-0.183,0.31-0.271
		c1.097,0.427,2.753,0.084,4.212-0.984c1.914-1.402,2.755-3.51,1.877-4.708C19.308,16.075,17.044,16.238,15.13,17.64z"/>
</g>
</svg>
