<?xml version="1.0" encoding="utf-8"?>
<!-- Generator: Adobe Illustrator 16.0.4, SVG Export Plug-In . SVG Version: 6.00 Build 0)  -->
<!DOCTYPE svg PUBLIC "-//W3C//DTD SVG 1.1//EN" "http://www.w3.org/Graphics/SVG/1.1/DTD/svg11.dtd">
<svg version="1.1" id="Layer_1" xmlns="http://www.w3.org/2000/svg" xmlns:xlink="http://www.w3.org/1999/xlink" x="0px" y="0px"
	 width="50px" height="50px" viewBox="0 0 50 50" enable-background="new 0 0 50 50" xml:space="preserve">
<path d="M20.576,19.334c0.884,0.957,1.273,2.034,0.872,2.404c-0.401,0.369-1.443-0.106-2.325-1.065
	c-0.884-0.957-1.272-2.034-0.872-2.404C18.652,17.899,19.692,18.376,20.576,19.334z M23.314,25.241
	c-1.063,0.638-2.303,1.013-3.632,1.013c-3.906,0-7.084-3.177-7.084-7.083c0-3.906,3.178-7.084,7.084-7.084
	c3.905,0,7.082,3.178,7.082,7.084c0,2.196-1.005,4.161-2.578,5.461c0.48,0.315,1.148,0.609,2.096,0.817
	c0.672,0.147,2.312,0.63,3.022,1.919c0.412,0.75,0.442,1.623,0.091,2.6c-0.074,0.203-0.267,0.33-0.472,0.33
	c-0.057,0-0.113-0.01-0.17-0.028c-0.26-0.095-0.395-0.381-0.301-0.642c0.255-0.703,0.246-1.285-0.024-1.776
	c-0.528-0.958-1.94-1.333-2.361-1.427C24.789,26.146,23.917,25.713,23.314,25.241z M19.683,25.253c1.053,0,2.044-0.27,2.909-0.743
	c-0.271-0.368-0.417-0.723-0.496-1.024c-0.24,0.089-0.505,0.137-0.79,0.137c-1.097,0-2.412-0.689-3.434-1.798
	c-0.732-0.795-1.243-1.718-1.437-2.599c-0.215-0.977-0.022-1.801,0.541-2.319c0.357-0.33,0.84-0.505,1.396-0.505
	c1.096,0,2.411,0.688,3.434,1.798c1.43,1.551,1.89,3.43,1.195,4.542c0,0.016,0.006,0.031,0.004,0.048
	c-0.004,0.046-0.031,0.568,0.425,1.162c1.419-1.115,2.335-2.841,2.335-4.781c0-3.354-2.729-6.084-6.082-6.084
	c-3.354,0-6.084,2.729-6.084,6.084C13.599,22.525,16.329,25.253,19.683,25.253z M22.023,22.384c0.582-0.538,0.334-2.11-0.953-3.506
	c-0.826-0.896-1.886-1.476-2.698-1.476c-0.304,0-0.545,0.08-0.718,0.239c-0.287,0.265-0.375,0.765-0.242,1.37
	c0.156,0.711,0.581,1.469,1.195,2.136C19.742,22.379,21.392,22.966,22.023,22.384z M30.468,35.59
	c0.318,0.578,0.345,1.248,0.075,1.992c-0.074,0.203-0.266,0.33-0.471,0.33c-0.057,0-0.114-0.01-0.17-0.029
	c-0.26-0.094-0.396-0.381-0.301-0.641c0.17-0.469,0.167-0.852-0.011-1.17c-0.354-0.642-1.323-0.896-1.612-0.961
	c-2.031-0.447-2.715-1.416-2.939-2.102c-0.151,0.041-0.303,0.08-0.473,0.08c-0.842,0-1.808-0.502-2.582-1.344
	c-0.546-0.592-0.927-1.281-1.071-1.94c-0.166-0.757-0.013-1.397,0.433-1.808c0.832-0.771,2.508-0.336,3.685,0.941
	c0.545,0.592,0.926,1.281,1.071,1.941c0.126,0.576,0.062,1.084-0.169,1.477c0,0.001,0,0.002,0,0.003
	c-0.004,0.069-0.05,1.267,2.26,1.774C28.696,34.246,29.926,34.608,30.468,35.59z M24.993,31.955c0.17-0.158,0.219-0.471,0.133-0.858
	c-0.105-0.481-0.408-1.021-0.829-1.478c-0.572-0.621-1.298-1.021-1.848-1.021c-0.184,0-0.326,0.046-0.424,0.136
	c-0.17,0.157-0.219,0.47-0.134,0.858c0.106,0.482,0.409,1.021,0.83,1.479C23.482,31.896,24.599,32.313,24.993,31.955z
	 M37.217,30.994c-0.073,0.203-0.266,0.33-0.471,0.33c-0.057,0-0.114-0.01-0.17-0.029c-0.26-0.094-0.395-0.381-0.301-0.641
	c0.17-0.469,0.167-0.852-0.01-1.17c-0.354-0.643-1.324-0.896-1.613-0.961c-2.031-0.447-2.715-1.416-2.939-2.102
	c-0.15,0.041-0.303,0.08-0.473,0.08c-0.842,0-1.808-0.502-2.582-1.343c-0.546-0.592-0.927-1.282-1.071-1.941
	c-0.166-0.756-0.013-1.397,0.434-1.808c0.832-0.77,2.507-0.336,3.685,0.942c0.545,0.592,0.926,1.281,1.071,1.941
	c0.126,0.577,0.062,1.085-0.169,1.477c0,0.001,0,0.002,0,0.003c-0.004,0.069-0.049,1.267,2.26,1.774
	c0.503,0.109,1.733,0.473,2.275,1.453C37.46,29.58,37.486,30.25,37.217,30.994z M31.666,25.366c0.17-0.157,0.219-0.47,0.133-0.858
	c-0.104-0.482-0.407-1.021-0.829-1.478c-0.571-0.62-1.298-1.021-1.848-1.021c-0.184,0-0.326,0.046-0.424,0.136
	c-0.17,0.157-0.219,0.47-0.134,0.858c0.105,0.482,0.409,1.021,0.83,1.479C30.156,25.308,31.271,25.726,31.666,25.366z"/>
</svg>
