<?xml version="1.0" encoding="utf-8"?>
<!-- Generator: Adobe Illustrator 16.0.0, SVG Export Plug-In . SVG Version: 6.00 Build 0)  -->
<!DOCTYPE svg PUBLIC "-//W3C//DTD SVG 1.1//EN" "http://www.w3.org/Graphics/SVG/1.1/DTD/svg11.dtd">
<svg version="1.1" id="Layer_9" xmlns="http://www.w3.org/2000/svg" xmlns:xlink="http://www.w3.org/1999/xlink" x="0px" y="0px"
	 width="100px" height="100px" viewBox="0 0 100 100" enable-background="new 0 0 100 100" xml:space="preserve">
<path d="M84.893,28.121c0.486-0.698,0.264-1.626-0.496-2.072c-0.761-0.445-1.774-0.243-2.261,0.455
	c-7.36,10.547-14.619,17.375-21.706,20.436c-0.176-0.76-0.373-1.49-0.595-2.187c0.217-0.176,0.431-0.363,0.639-0.564
	c8.43-8.139,6.924-36.5,6.855-37.704c-0.047-0.828-0.843-1.442-1.719-1.42c-0.902,0.043-1.597,0.749-1.55,1.576
	c0.433,7.634,0.248,28.368-5.488,34.976c-0.361-0.718-0.739-1.396-1.152-1.977c0.73-0.851,1.185-1.91,1.185-3.077v-1
	c0-2.762-2.442-5-5.454-5h-1.092c-3.013,0-5.454,2.238-5.454,5v1c0,1.167,0.454,2.227,1.185,3.077
	c-0.61,0.858-1.164,1.882-1.654,3.029c-0.224-0.163-0.446-0.337-0.662-0.546c-6.196-5.982-6.404-27.642-5.961-35.482
	c0.047-0.828-0.646-1.533-1.549-1.576c-0.941-0.024-1.672,0.592-1.72,1.42c-0.068,1.204-1.573,29.565,6.855,37.704
	c0.627,0.605,1.298,1.095,2.006,1.469c-0.154,0.553-0.293,1.125-0.421,1.713c-12.1-4.821-19.398-20.216-19.481-20.395
	c-0.354-0.762-1.31-1.116-2.147-0.792c-0.83,0.324-1.217,1.205-0.863,1.967c0.369,0.798,8.203,17.349,21.963,22.277
	c-0.135,1.106-0.206,2.264-0.241,3.441c-7.449,3.296-14.982,10.34-22.505,21.118c-0.486,0.698-0.264,1.626,0.496,2.072
	c0.762,0.445,1.774,0.243,2.261-0.455c6.732-9.646,13.348-16.131,19.775-19.409c0.196,3.63,0.884,6.942,1.925,9.621
	c-5.089,8.063-6.542,23.953-6.711,26.009c-0.066,0.826,0.608,1.546,1.51,1.608c0.881,0.055,1.687-0.557,1.755-1.384
	c0.392-4.79,1.984-16.078,5.206-22.806c1.413,2.086,3.127,3.318,4.979,3.318c1.936,0,3.718-1.353,5.166-3.614
	c0.977,3.234,1.656,8.317,2.604,15.982c0.29,2.347,0.606,4.905,0.971,7.686c0.1,0.762,0.806,1.321,1.622,1.321
	c0.065,0,0.131-0.004,0.197-0.011c0.898-0.099,1.537-0.846,1.43-1.668c-0.363-2.773-0.679-5.325-0.969-7.666
	c-1.199-9.708-1.986-15.983-3.989-19.605c0.942-2.722,1.541-6.001,1.664-9.569c11.705,5.292,18.611,20.993,18.691,21.178
	c0.255,0.59,0.87,0.949,1.522,0.949c0.2,0,0.403-0.034,0.601-0.105c0.841-0.304,1.253-1.175,0.921-1.944
	c-0.358-0.835-8.008-18.251-21.762-23.386c-0.054-1.078-0.15-2.125-0.288-3.139C68.939,46.803,76.943,39.51,84.893,28.121z"/>
</svg>
