<?xml version="1.0" encoding="iso-8859-1"?>
<!-- Generator: Adobe Illustrator 16.0.0, SVG Export Plug-In . SVG Version: 6.00 Build 0)  -->
<!DOCTYPE svg PUBLIC "-//W3C//DTD SVG 1.1//EN" "http://www.w3.org/Graphics/SVG/1.1/DTD/svg11.dtd">
<svg version="1.1" id="Layer_1" xmlns="http://www.w3.org/2000/svg" xmlns:xlink="http://www.w3.org/1999/xlink" x="0px" y="0px"
	 width="31.312px" height="30.387px" viewBox="0 0 31.312 30.387" style="enable-background:new 0 0 31.312 30.387;"
	 xml:space="preserve">
<g>
	<rect x="23.696" y="14.787" width="5.052" height="1.879"/>
	<polygon points="2.931,0 2.931,2.952 4.22,2.555 4.22,1.289 30.022,1.289 30.022,17.737 9.49,17.737 9.424,19.027 31.312,19.027 
		31.312,0 	"/>
	<circle cx="4.982" cy="7.063" r="3.821"/>
	<polygon points="8.226,28.641 8.226,21.839 8.226,21.198 8.226,20.327 8.471,20.327 8.824,13.422 15.415,10.008 14.55,8.337 
		8.523,11.458 6.373,11.458 4.917,13.148 3.508,11.458 0.411,12.028 0.214,18.901 1.524,18.901 1.596,20.327 1.797,20.327 
		1.797,21.198 1.797,21.839 1.797,28.641 1.533,28.641 0,28.973 0,30.387 1.305,30.387 2.829,30.137 2.844,30.387 4.531,30.387 
		4.531,28.812 4.531,28.641 4.531,21.839 5.491,21.839 5.491,28.641 5.491,28.812 5.491,30.387 7.18,30.387 7.194,30.137 
		8.718,30.387 10.023,30.387 10.023,28.973 8.489,28.641 	"/>
	<path d="M17.973,4.341c0.119,0.08,0.237,0.168,0.359,0.263c0.061,0.048,0.12,0.095,0.181,0.143l0.171,0.147
		c0.03,0.027,0.055,0.045,0.089,0.08l0.083,0.081c0.056,0.055,0.111,0.108,0.162,0.163c0.103,0.111,0.203,0.221,0.294,0.331
		c0.09,0.11,0.179,0.216,0.256,0.323c0.016,0.023,0.031,0.044,0.048,0.066c0.244-0.395,0.254-1.578-0.797-2.373
		c-1.143-0.866-2.735-0.478-3.403-0.798c0.674,1.031,0.544,1.719,1.676,2.85c0.757,0.756,1.463,0.803,1.939,0.672
		c0.966,0.932,1.117,2.351,1.118,3.71c-0.1-0.08-0.219-0.143-0.358-0.143c-0.392,0-0.677,0.22-0.813,0.534
		c-0.862-0.293-1.434,0.388-1.484,0.962c-0.41-0.152-0.93,0.32-0.93,0.73c0,0.404,0.319,0.732,0.72,0.749l6.346,0.012
		c0,0,0.677-0.365,0.677-0.761c0-0.416-0.337-0.753-0.753-0.753c-0.057,0-0.112,0.008-0.165,0.021
		c0.003-0.03-0.073-1.307-1.184-0.794c-0.086-0.4-0.199-0.7-0.865-0.7c-0.329,0-0.552,0.12-0.695,0.24
		c0.28-1.413,0.709-2.889,1.96-3.62c0.013-0.008,0.02-0.018,0.029-0.028c0.388,0.311,1.063,0.55,2.066,0.133
		c1.478-0.613,1.621-1.298,2.637-1.993c-0.739,0.041-2.063-0.926-3.45-0.562c-1.272,0.334-1.715,1.431-1.642,1.889
		c0.023-0.014,0.046-0.027,0.069-0.042c0.111-0.068,0.234-0.133,0.36-0.201c0.125-0.067,0.26-0.13,0.397-0.193
		c0.067-0.032,0.141-0.061,0.211-0.088l0.106-0.044c0.048-0.018,0.075-0.025,0.113-0.039l0.215-0.071
		c0.075-0.021,0.148-0.042,0.224-0.063c0.146-0.041,0.29-0.077,0.431-0.106c0.278-0.063,0.54-0.11,0.766-0.145
		c0.452-0.069,0.761-0.082,0.761-0.082s-0.07,0.03-0.194,0.083c-0.124,0.052-0.301,0.12-0.513,0.202
		c-0.108,0.039-0.222,0.081-0.346,0.125c-0.122,0.043-0.249,0.089-0.383,0.136c-0.132,0.046-0.268,0.095-0.404,0.145
		c-0.137,0.046-0.278,0.1-0.419,0.154c-0.132,0.049-0.27,0.115-0.404,0.169c-0.133,0.061-0.361,0.14-0.49,0.195
		c-0.156,0.066-0.256,0.101-0.355,0.154c-1.11,0.648-1.603,1.796-1.902,3.01c-0.055-1.141-0.293-2.248-1.117-3.064
		c0,0,0.001,0,0.003-0.001c-0.11-0.104-0.228-0.217-0.346-0.336c-0.099-0.102-0.202-0.202-0.303-0.31
		c-0.104-0.101-0.205-0.213-0.309-0.31c-0.109-0.104-0.22-0.208-0.327-0.302c-0.109-0.098-0.216-0.194-0.319-0.287
		c-0.105-0.095-0.208-0.187-0.303-0.273c-0.096-0.088-0.187-0.171-0.27-0.248c-0.166-0.156-0.305-0.287-0.398-0.382
		c-0.094-0.095-0.147-0.151-0.147-0.151s0.28,0.129,0.67,0.366C17.515,4.035,17.74,4.176,17.973,4.341z M20.469,10.291
		c-0.021,0.033-0.034,0.056-0.034,0.056s-0.004-0.007-0.007-0.015L20.469,10.291z"/>
	<rect x="10.768" y="4.867" width="5.104" height="0.322"/>
	<rect x="22.481" y="8.819" width="5.104" height="0.323"/>
	<rect x="12.433" y="15.032" width="5.104" height="0.322"/>
</g>
<g>
</g>
<g>
</g>
<g>
</g>
<g>
</g>
<g>
</g>
<g>
</g>
<g>
</g>
<g>
</g>
<g>
</g>
<g>
</g>
<g>
</g>
<g>
</g>
<g>
</g>
<g>
</g>
<g>
</g>
</svg>
