<?xml version="1.0" encoding="utf-8"?>
<!-- Generator: Adobe Illustrator 18.1.0, SVG Export Plug-In . SVG Version: 6.00 Build 0)  -->
<svg version="1.1" id="Capa_1" xmlns="http://www.w3.org/2000/svg" xmlns:xlink="http://www.w3.org/1999/xlink" x="0px" y="0px"
	 width="1000px" height="1000px" viewBox="0 0 1000 1000" enable-background="new 0 0 1000 1000" xml:space="preserve">
<g>
	<path d="M489.6,776.5l59.9-94.8l50.1-79.3c0.2-4.8,0.3-9.5,0.3-14.3c0-65.3-21-127.1-60.7-178.7C506.7,367,462.5,334,413,314.6
		V180.4h-73.5v188.4l26.8,7.5c45.2,12.7,86,40.4,114.8,77.9c29.7,38.7,45.4,85,45.4,133.9c0,9-0.6,18-1.6,26.9
		c-0.6,5-4.9,8.8-9.9,8.8H98.1c-5.1,0-9.3-3.8-9.9-8.8c-1.1-8.8-1.6-17.8-1.6-26.9c0-48.9,15.7-95.2,45.4-133.9
		c28.8-37.5,69.6-65.1,114.8-77.9l26.8-7.5V180.4H200v134.2C150.5,334,106.3,367,73.7,409.4C34,461.1,13,522.8,13,588.1
		c0,78.4,30.5,152.1,86,207.5c55.4,55.4,129.1,86,207.5,86c49.1,0,96.4-12,138.5-34.6L489.6,776.5z"/>
	<path d="M196.5,33.9c-16.6,0-30,13.4-30,30v51.5c0,16.6,13.4,30,30,30h3.6H413h1.2c16.6,0,30-13.4,30-30V63.9c0-16.6-13.4-30-30-30
		H196.5z"/>
	<path d="M795.5,605.1V453.1h-72.2V626l75.2,118.9c4.2,6.7-0.6,15.3-8.5,15.3H627c-7.9,0-12.7-8.7-8.5-15.3L693.8,626V453.1h-72.2
		v151.9l-28.1,44.4L485.1,821l-50.4,79.8c-12.2,19.2,1.7,44.3,24.4,44.3h499.1c22.7,0,36.6-25.1,24.4-44.3L795.5,605.1z"/>
	<path d="M601.6,414.6c3.1,1.6,6.4,2.8,10,3.2c1.4,0.2,2.7,0.3,4.1,0.3h5.9h173.8h5.9c1.4,0,2.8-0.1,4.1-0.3c3.6-0.5,6.9-1.6,10-3.2
		c9.4-5.1,15.9-15,15.9-26.5v-38.6c0-16.6-13.4-30-30-30H615.8c-16.6,0-30,13.4-30,30v38.6C585.8,399.6,592.2,409.5,601.6,414.6z"/>
</g>
</svg>
