<?xml version="1.0" encoding="iso-8859-1"?>
<!-- Generator: Adobe Illustrator 16.0.0, SVG Export Plug-In . SVG Version: 6.00 Build 0)  -->
<!DOCTYPE svg PUBLIC "-//W3C//DTD SVG 1.1//EN" "http://www.w3.org/Graphics/SVG/1.1/DTD/svg11.dtd">
<svg version="1.1" id="Layer_1" xmlns="http://www.w3.org/2000/svg" xmlns:xlink="http://www.w3.org/1999/xlink" x="0px" y="0px"
	 width="28.125px" height="36.875px" viewBox="0 0 28.125 36.875" style="enable-background:new 0 0 28.125 36.875;"
	 xml:space="preserve">
<g>
	<path d="M14.044,0H3.315v21.844C1.229,23.424,0,25.876,0,28.51c0,4.613,3.752,8.365,8.365,8.365s8.365-3.752,8.365-8.365
		c0-2.348-0.974-4.56-2.687-6.143V0z M14.73,28.51c0,3.51-2.855,6.365-6.365,6.365S2,32.02,2,28.51c0-2.143,1.071-4.129,2.866-5.314
		l0.449-0.296V2h6.729v21.293l0.364,0.3C13.885,24.808,14.73,26.6,14.73,28.51z"/>
	<path d="M10.625,24.047V8.375H6.813v15.452c-1.959,0.681-3.373,2.523-3.373,4.714c0,2.766,2.242,5.01,5.01,5.01
		c2.766,0,5.01-2.244,5.01-5.01C13.459,26.558,12.297,24.859,10.625,24.047z"/>
	<polygon points="24.844,5.469 24.844,2 22.906,2 22.906,5.469 19,5.469 19,7.406 22.906,7.406 22.906,11.125 24.844,11.125 
		24.844,7.406 28.125,7.406 28.125,5.469 	"/>
	<rect x="19" y="19" width="9.125" height="1.938"/>
</g>
<g>
</g>
<g>
</g>
<g>
</g>
<g>
</g>
<g>
</g>
<g>
</g>
<g>
</g>
<g>
</g>
<g>
</g>
<g>
</g>
<g>
</g>
<g>
</g>
<g>
</g>
<g>
</g>
<g>
</g>
</svg>
