<?xml version="1.0" encoding="utf-8"?>
<!-- Generator: Adobe Illustrator 16.0.0, SVG Export Plug-In . SVG Version: 6.00 Build 0)  -->
<!DOCTYPE svg PUBLIC "-//W3C//DTD SVG 1.1//EN" "http://www.w3.org/Graphics/SVG/1.1/DTD/svg11.dtd">
<svg version="1.1" id="Layer_9" xmlns="http://www.w3.org/2000/svg" xmlns:xlink="http://www.w3.org/1999/xlink" x="0px" y="0px"
	 width="100px" height="100px" viewBox="0 0 100 100" enable-background="new 0 0 100 100" xml:space="preserve">
<g>
	<path d="M52.476,65.986l-1.069-0.346v-39.9c0-0.863-0.788-1.561-1.761-1.561s-1.76,0.697-1.76,1.561v40.063l-0.979,0.41
		c-3.01,1.254-4.955,4.17-4.955,7.428c0,4.439,3.61,8.049,8.048,8.049c4.438,0,8.048-3.609,8.048-8.049
		C58.048,70.141,55.808,67.064,52.476,65.986z"/>
	<path d="M59.054,57.955V17.807c0-5.27-4.287-9.557-9.557-9.557c-5.27,0-9.557,4.287-9.557,9.557V58.58
		c-4.979,3.316-8.048,8.92-8.048,15.061c0,9.986,8.124,18.109,18.108,18.109c9.985,0,18.109-8.123,18.109-18.109
		C68.108,67.057,64.588,61.139,59.054,57.955z M50,86.721c-7.222,0-13.078-5.857-13.078-13.08c0-5.438,3.323-10.102,8.048-12.072
		V17.807c0-2.498,2.026-4.527,4.527-4.527s4.527,2.029,4.527,4.527v16.348H52.64v2.014h1.384v5.156H52.64v2.012h1.384v5.658H52.64
		v2.012h1.384v10.193c5.252,1.701,9.054,6.623,9.054,12.441C63.078,80.863,57.223,86.721,50,86.721z"/>
</g>
</svg>
