<?xml version="1.0" encoding="iso-8859-1"?>
<!-- Generator: Adobe Illustrator 16.0.0, SVG Export Plug-In . SVG Version: 6.00 Build 0)  -->
<!DOCTYPE svg PUBLIC "-//W3C//DTD SVG 1.1//EN" "http://www.w3.org/Graphics/SVG/1.1/DTD/svg11.dtd">
<svg version="1.1" id="Layer_1" xmlns="http://www.w3.org/2000/svg" xmlns:xlink="http://www.w3.org/1999/xlink" x="0px" y="0px"
	 width="41.239px" height="44.729px" viewBox="0 0 41.239 44.729" style="enable-background:new 0 0 41.239 44.729;"
	 xml:space="preserve">
<g>
	<path d="M14.416,7.563v-3.5h-3.439V0H6.292v4.063H2.853v3.5h1.54C2.902,9.659,0,14.119,0,17.063v27.666h17.007V17.063
		c0-3.193-2.709-7.495-4.106-9.5H14.416z M15.007,42.729H2V17.063c0-2.31,2.751-6.588,4.292-8.716v2.882h4.685V8.301
		c1.444,2.006,4.031,6.142,4.031,8.762V42.729z"/>
	<path d="M37.784,19.375l-2.96-0.041l-0.027-2.767h0.958v-3.403h-3.282V9.428H28.09v3.736h-3.281v3.403h0.844v2.767h-3.331
		l-0.17,0.063c-0.147,0.055-3.604,1.389-3.604,4.631v20.7h22.691v-20.7C41.239,21.148,38.979,19.725,37.784,19.375z M39.239,42.729
		H20.548v-18.7c0-1.572,1.653-2.459,2.16-2.694h4.944v-4.767h5.144l0.046,4.767h4.492c0.426,0.166,1.904,0.871,1.904,2.694V42.729z"
		/>
	<path d="M5.946,22.138c-1.657-0.737-2.968,0.737-2.968,0.737v19h10.938V21.938c0,0-0.938-0.25-2.625,0S7.603,22.875,5.946,22.138z
		 M5.083,40.75c-0.5,0-0.904-0.405-0.904-0.904s0.405-0.904,0.904-0.904s0.904,0.405,0.904,0.904S5.582,40.75,5.083,40.75z
		 M7.446,36.21c-0.638,0-1.154-0.517-1.154-1.154c0-0.637,0.517-1.154,1.154-1.154c0.637,0,1.154,0.517,1.154,1.154
		C8.6,35.693,8.083,36.21,7.446,36.21z M7.025,30.114c-1.073,0-1.943-0.87-1.943-1.943c0-1.073,0.87-1.942,1.943-1.942
		c1.073,0,1.942,0.87,1.942,1.942C8.968,29.245,8.098,30.114,7.025,30.114z M12.968,38.153c0,0.638-0.517,1.154-1.154,1.154
		c-0.638,0-1.154-0.517-1.154-1.154c0-0.637,0.517-1.154,1.154-1.154C12.452,36.999,12.968,37.516,12.968,38.153z M12.469,30.562
		c0,0.5-0.405,0.904-0.904,0.904s-0.904-0.405-0.904-0.904s0.405-0.904,0.904-0.904S12.469,30.063,12.469,30.562z"/>
	<path d="M32.41,32.523c-2.296-1.111-5.6,1.169-7.56,0c-1.96-1.17-3.458,0-3.458,0v9.472h17.003v-9.472
		C38.395,32.523,34.706,33.633,32.41,32.523z M24.692,38.941c-1.073,0-1.943-0.87-1.943-1.943c0-1.073,0.87-1.942,1.943-1.942
		c1.073,0,1.942,0.87,1.942,1.942C26.634,38.072,25.765,38.941,24.692,38.941z M29.894,36.21c-0.638,0-1.154-0.517-1.154-1.154
		c0-0.637,0.517-1.154,1.154-1.154c0.637,0,1.154,0.517,1.154,1.154C31.048,35.693,30.531,36.21,29.894,36.21z M31.958,39.449
		c-0.352,0-0.636-0.284-0.636-0.636c0-0.351,0.284-0.635,0.636-0.635c0.351,0,0.635,0.284,0.635,0.635
		C32.593,39.165,32.309,39.449,31.958,39.449z M35.679,41.288c-0.866,0-1.568-0.702-1.568-1.568c0-0.866,0.702-1.567,1.568-1.567
		c0.866,0,1.567,0.702,1.567,1.567C37.246,40.586,36.544,41.288,35.679,41.288z M36.583,34.151c0.5,0,0.904,0.405,0.904,0.904
		s-0.405,0.904-0.904,0.904s-0.904-0.405-0.904-0.904S36.083,34.151,36.583,34.151z"/>
</g>
<g>
</g>
<g>
</g>
<g>
</g>
<g>
</g>
<g>
</g>
<g>
</g>
<g>
</g>
<g>
</g>
<g>
</g>
<g>
</g>
<g>
</g>
<g>
</g>
<g>
</g>
<g>
</g>
<g>
</g>
</svg>
