<?xml version="1.0" encoding="iso-8859-1"?>
<!-- Generator: Adobe Illustrator 16.0.0, SVG Export Plug-In . SVG Version: 6.00 Build 0)  -->
<!DOCTYPE svg PUBLIC "-//W3C//DTD SVG 1.1//EN" "http://www.w3.org/Graphics/SVG/1.1/DTD/svg11.dtd">
<svg version="1.1" id="Layer_1" xmlns="http://www.w3.org/2000/svg" xmlns:xlink="http://www.w3.org/1999/xlink" x="0px" y="0px"
	 width="42.59px" height="43.307px" viewBox="0 0 42.59 43.307" style="enable-background:new 0 0 42.59 43.307;"
	 xml:space="preserve">
<g>
	<circle cx="21.423" cy="22.123" r="2"/>
	<path d="M23.829,21.358l0.892-2.425l-2.358,0.85l-1.3-2.206l-0.845,2.337l-2.546-0.438l1.266,2.166l-1.908,1.745l2.54,0.432
		c0,0-0.42-0.525-0.562-1.004c-0.129-0.432-0.074-1.052-0.062-1.162c0.006-0.016,0.196-0.604,0.465-1.006
		c0.273-0.404,0.828-0.729,0.828-0.729l-0.006-0.002c0.084-0.027,0.601-0.207,1.049-0.254c0.417-0.043,0.919,0.092,1.056,0.131
		c0,0,0.547,0.264,0.891,0.612c0.343,0.348,0.589,0.988,0.589,0.988l0.004-0.015c0.034,0.128,0.156,0.651,0.104,1.075
		c-0.062,0.483-0.411,1.072-0.411,1.072l0.003-0.001c-0.074,0.092-0.427,0.517-0.796,0.747c-0.415,0.261-1.092,0.36-1.092,0.36
		l2.204,1.418l-0.298-2.531l2.471-0.807L23.829,21.358z"/>
	<path d="M19.569,23.813l0.321,2.601l1.739-1.781c0,0-0.62-0.056-1.084-0.209C20.08,24.271,19.569,23.813,19.569,23.813z"/>
	<path d="M39.621,2.744C37.767,0.949,35.146,0,32.043,0c-3.029,0-6.392,0.893-9.786,2.504c-0.53-0.739-1.422-1.188-2.392-1.086
		c-1.438,0.15-2.481,1.438-2.331,2.876c0.029,0.276,0.111,0.531,0.217,0.772c-2.533,1.679-5.008,3.721-7.292,6.079
		c-4.857,5.016-8.321,10.81-9.753,16.314C-0.751,33.064,0.063,37.717,3,40.562c1.854,1.796,4.475,2.745,7.578,2.745
		c6.655,0,14.925-4.271,21.583-11.146C42.258,21.734,45.604,8.538,39.621,2.744z M31.443,31.466
		c-6.476,6.687-14.471,10.841-20.865,10.841c-2.838,0-5.218-0.852-6.882-2.464c-2.667-2.583-3.385-6.891-2.021-12.131
		c1.39-5.341,4.765-10.978,9.504-15.871c2.24-2.313,4.664-4.315,7.139-5.955c0.538,0.524,1.288,0.823,2.093,0.739
		c1.438-0.151,2.481-1.438,2.331-2.876c-0.012-0.118-0.044-0.229-0.071-0.342C25.93,1.857,29.15,1,32.043,1
		c2.839,0,5.219,0.852,6.883,2.463C44.513,8.873,41.156,21.436,31.443,31.466z"/>
	<path d="M28.9,5.794c-5.029,0-10.946,2.919-15.829,7.808c-3.65,3.653-6.238,7.94-7.29,12.07c-0.404,1.587-0.563,3.082-0.485,4.449
		c-1.179,0.355-1.979,1.506-1.847,2.776c0.15,1.438,1.438,2.48,2.876,2.33c0.253-0.026,0.488-0.1,0.712-0.19
		c0.185,0.235,0.37,0.471,0.583,0.684c1.528,1.526,3.701,2.333,6.283,2.333c5.028,0,10.945-2.919,15.83-7.808
		c3.649-3.654,6.238-7.941,7.289-12.071c1.075-4.223,0.422-7.792-1.839-10.049C33.655,6.6,31.482,5.794,28.9,5.794z M36.053,17.928
		c-1.008,3.959-3.504,8.083-7.028,11.611c-4.631,4.635-10.425,7.515-15.122,7.515c-2.312,0-4.24-0.706-5.576-2.04
		c-0.165-0.164-0.304-0.35-0.449-0.53c0.549-0.539,0.864-1.307,0.778-2.132c-0.132-1.264-1.143-2.221-2.362-2.333
		c-0.066-1.253,0.082-2.63,0.456-4.1c1.008-3.959,3.503-8.082,7.028-11.61C18.408,9.673,24.202,6.794,28.9,6.794
		c2.312,0,4.24,0.705,5.576,2.039C36.477,10.831,37.037,14.062,36.053,17.928z"/>
	<path d="M32.472,14.891c-0.341-1.051-0.891-1.979-1.663-2.727c-1.28-1.239-3.036-1.895-5.078-1.895
		c-3.428,0-7.256,1.84-10.239,4.922c-4.922,5.081-6.059,11.993-2.534,15.408c1.28,1.239,3.036,1.895,5.078,1.895
		c3.428,0,7.257-1.84,10.241-4.922c2.36-2.438,3.934-5.363,4.432-8.238c0.022-0.131,0.03-0.257,0.048-0.387
		c0.902-0.318,1.506-1.219,1.402-2.211C34.06,15.793,33.354,15.07,32.472,14.891z M27.558,26.877
		c-2.8,2.892-6.359,4.617-9.522,4.617c-1.776,0-3.292-0.558-4.382-1.613c-3.129-3.031-1.983-9.309,2.556-13.994
		c2.799-2.892,6.358-4.617,9.521-4.617c1.777,0,3.292,0.558,4.383,1.613c0.587,0.567,1.025,1.262,1.32,2.05
		c-0.951,0.289-1.595,1.219-1.488,2.244c0.103,0.98,0.861,1.726,1.792,1.866c-0.006,0.041-0.008,0.08-0.015,0.121
		C31.26,21.843,29.78,24.582,27.558,26.877z"/>
</g>
<g>
</g>
<g>
</g>
<g>
</g>
<g>
</g>
<g>
</g>
<g>
</g>
<g>
</g>
<g>
</g>
<g>
</g>
<g>
</g>
<g>
</g>
<g>
</g>
<g>
</g>
<g>
</g>
<g>
</g>
</svg>
