<?xml version="1.0" encoding="utf-8"?>
<!-- Generator: Adobe Illustrator 16.0.4, SVG Export Plug-In . SVG Version: 6.00 Build 0)  -->
<!DOCTYPE svg PUBLIC "-//W3C//DTD SVG 1.1//EN" "http://www.w3.org/Graphics/SVG/1.1/DTD/svg11.dtd">
<svg version="1.1" id="Layer_1" xmlns="http://www.w3.org/2000/svg" xmlns:xlink="http://www.w3.org/1999/xlink" x="0px" y="0px"
	 width="50px" height="50px" viewBox="0 0 50 50" enable-background="new 0 0 50 50" xml:space="preserve">
<g>
	<path d="M33.723,32.703l-6.172-8.728v-7.234c0.657-0.053,1.178-0.586,1.178-1.256c0-0.707-0.569-1.276-1.275-1.276h-4.907
		c-0.706,0-1.276,0.569-1.276,1.276c0,0.67,0.522,1.203,1.18,1.256v7.23l-6.172,8.73c-0.725,1.021-0.521,1.775-0.336,2.133
		c0.184,0.357,0.683,0.957,1.936,0.957h14.248c1.253,0,1.75-0.6,1.936-0.957C34.243,34.479,34.445,33.725,33.723,32.703z
		 M26.275,19.632h-2.552V16.76h2.552V19.632z M32.925,34.248c-0.065,0.131-0.312,0.268-0.802,0.268H17.875
		c-0.488,0-0.736-0.137-0.803-0.268c-0.066-0.127-0.038-0.41,0.244-0.809l6.406-9.062v-3.47h2.552v3.473l6.404,9.059
		C32.963,33.838,32.992,34.121,32.925,34.248z"/>
	<circle cx="24.528" cy="28.191" r="1.062"/>
	<circle cx="27.027" cy="30.477" r="0.957"/>
	<circle cx="24.158" cy="31.859" r="0.902"/>
</g>
</svg>
