<?xml version="1.0" encoding="utf-8"?>
<!-- Generator: Adobe Illustrator 16.0.0, SVG Export Plug-In . SVG Version: 6.00 Build 0)  -->
<!DOCTYPE svg PUBLIC "-//W3C//DTD SVG 1.1//EN" "http://www.w3.org/Graphics/SVG/1.1/DTD/svg11.dtd">
<svg version="1.1" id="Layer_1" xmlns="http://www.w3.org/2000/svg" xmlns:xlink="http://www.w3.org/1999/xlink" x="0px" y="0px"
	 width="48px" height="48px" viewBox="0 0 48 48" enable-background="new 0 0 48 48" xml:space="preserve">
<g>
	<path d="M6.649,39.524c0,3.891,3.178,7.056,7.067,7.056c3.892,0,7.069-3.165,7.069-7.056V6.586H6.649V39.524z M17.757,9.616v24.135
		h-8.18V9.616H17.757z"/>
	<path d="M21.789,1.134H5.587c-1.095,0-1.981,0.875-1.981,1.969c0,1.095,0.887,1.969,1.981,1.969h16.202
		c1.095,0,1.982-0.875,1.982-1.969C23.771,2.008,22.884,1.134,21.789,1.134z"/>
	<path d="M28.865,39.524c0,3.891,3.178,7.056,7.069,7.056c3.89,0,7.068-3.165,7.068-7.056V6.586H28.865V39.524z M40.074,9.616
		v16.763h-8.18V9.616H40.074z"/>
	<path d="M44.067,1.134H27.864c-1.095,0-1.981,0.875-1.981,1.969c0,1.095,0.887,1.969,1.981,1.969h16.203
		c1.094,0,1.981-0.875,1.981-1.969C46.049,2.008,45.161,1.134,44.067,1.134z"/>
</g>
</svg>
