<?xml version="1.0" encoding="utf-8"?>
<!-- Generator: Adobe Illustrator 16.0.0, SVG Export Plug-In . SVG Version: 6.00 Build 0)  -->
<!DOCTYPE svg PUBLIC "-//W3C//DTD SVG 1.1//EN" "http://www.w3.org/Graphics/SVG/1.1/DTD/svg11.dtd">
<svg version="1.1" id="Layer_1" xmlns="http://www.w3.org/2000/svg" xmlns:xlink="http://www.w3.org/1999/xlink" x="0px" y="0px"
	 width="48px" height="48px" viewBox="0 0 48 48" enable-background="new 0 0 48 48" xml:space="preserve">
<path d="M30.959,18.831V4.992h0.971c1.096,0,1.984-0.868,1.984-1.963c0-1.096-0.889-1.964-1.984-1.964H16.056
	c-1.096,0-1.984,0.868-1.984,1.964c0,1.096,0.889,1.963,1.984,1.963h1v13.839c-4.67,2.488-7.858,7.407-7.858,13.071
	c0,8.173,6.622,14.799,14.797,14.799s14.81-6.626,14.81-14.799C38.804,26.239,35.629,21.319,30.959,18.831z M34.701,32.055
	c-0.01,0-0.019,0-0.028,0c-0.809,0-1.473-0.644-1.486-1.456c-0.066-3.667-2.447-6.893-5.926-8.033
	c-0.613-0.201-1.027-0.772-1.025-1.417l0.047-14.225c0.003-0.82,0.722-1.508,1.493-1.508s1.486,0.696,1.483,1.518L29.215,20.12
	c4.116,1.797,6.865,5.857,6.947,10.419C36.177,31.361,35.522,32.055,34.701,32.055z"/>
</svg>
