<?xml version="1.0" encoding="utf-8"?>
<!-- Generator: Adobe Illustrator 16.0.4, SVG Export Plug-In . SVG Version: 6.00 Build 0)  -->
<!DOCTYPE svg PUBLIC "-//W3C//DTD SVG 1.1//EN" "http://www.w3.org/Graphics/SVG/1.1/DTD/svg11.dtd">
<svg version="1.1" id="Layer_1" xmlns="http://www.w3.org/2000/svg" xmlns:xlink="http://www.w3.org/1999/xlink" x="0px" y="0px"
	 width="37.477px" height="38.086px" viewBox="0 0 37.477 38.086" enable-background="new 0 0 37.477 38.086" xml:space="preserve">
<path d="M28.148,14.074C28.148,6.313,21.833,0,14.074,0C6.313,0,0,6.313,0,14.074s6.312,14.073,14.074,14.073
	C21.833,28.147,28.148,21.833,28.148,14.074z M14.074,24.613c-5.812,0-10.54-4.728-10.54-10.54c0-5.812,4.729-10.54,10.54-10.54
	s10.541,4.728,10.541,10.54C24.614,19.885,19.886,24.613,14.074,24.613z M37.476,34.975l-3.112,3.111L23.552,27.276l3.112-3.112
	L37.476,34.975z M10.92,19.87c-2.301-1.283-3.595-3.487-3.882-6.061c-0.113-1.018,0.938-1.875,1.875-1.875
	c1.107,0,1.762,0.859,1.875,1.875c-0.089-0.796,0.062,0.263,0.129,0.495c0.119,0.419,0.249,0.81,0.506,1.169
	c0.389,0.543,0.831,0.847,1.389,1.158C14.924,17.808,13.034,21.047,10.92,19.87z M15.814,11.049c-1.065-0.544-2.376-0.544-3.44,0
	c-2.149,1.097-4.047-2.138-1.894-3.238c2.347-1.198,4.88-1.197,7.227,0C19.86,8.911,17.962,12.146,15.814,11.049z M21.117,14.648
	c-0.098,2.615-1.365,4.831-3.542,6.269c-2.024,1.338-3.9-1.911-1.894-3.237c0.053-0.035,0.105-0.07,0.156-0.108
	c0.028-0.021,0.04-0.029,0.057-0.041c0.029-0.028,0.066-0.062,0.122-0.113c0.344-0.31,0.697-0.629,0.912-1.046
	c0.334-0.647,0.417-1.175,0.438-1.723C17.457,12.238,21.207,12.229,21.117,14.648z"/>
</svg>
